<?xml version="1.0" encoding="utf-8"?>
<!-- Generator: Adobe Illustrator 24.2.1, SVG Export Plug-In . SVG Version: 6.00 Build 0)  -->
<svg version="1.1" id="Layer_1" xmlns="http://www.w3.org/2000/svg" xmlns:xlink="http://www.w3.org/1999/xlink" x="0px" y="0px"
	 viewBox="0 0 500 500" style="enable-background:new 0 0 500 500;" xml:space="preserve">
<style type="text/css">
	.st0{fill:#4B7BEC;}
	.st1{opacity:0.7;}
	.st2{fill:#FFFFFF;}
	.st3{fill:#4B7BEC;stroke:#263238;stroke-linecap:round;stroke-linejoin:round;}
	.st4{fill:#FF8C00;stroke:#263238;stroke-linecap:round;stroke-linejoin:round;}
	.st5{fill:#4B7BEC;stroke:#263238;stroke-miterlimit:10;}
	.st6{opacity:0.5;fill:#FFFFFF;enable-background:new    ;}
	.st7{fill:#FF8C00;stroke:#263238;stroke-miterlimit:10;}
	.st8{fill:#FFFFFF;stroke:#263238;stroke-miterlimit:10;}
	.st9{fill:none;stroke:#263238;stroke-miterlimit:10;}
	.st10{fill:#263238;stroke:#263238;stroke-miterlimit:10;}
</style>
<g id="freepik--background-simple--inject-7">
	<path class="st0" d="M158.1,148.4h31.6v-2.6c-10.1,1-20,0.8-31.9,1.8C157.9,147.9,158,148.2,158.1,148.4z"/>
	<path class="st0" d="M421,213c-4.8-27.2-18.2-48.5-35.3-68.3c-2-2.3-3.9-4.4-5.8-6.4H329c-0.5,1.4-2,2.1-3.4,1.5s-2.1-2-1.5-3.4
		c0.4-0.9,1.2-1.6,2.2-1.7V123h-29.5v15.3h-34.8V166h-1v-28.7h34.8V122h55.1c0.3-1.4,1.7-2.4,3.1-2.1c1.4,0.3,2.4,1.7,2.1,3.1
		c-0.3,1.4-1.7,2.4-3.1,2.1c-1.1-0.2-1.9-1-2.1-2.1h-23.6v11.8c1.1,0.3,1.9,1.3,1.9,2.5h49.7c-37.6-39.5-68.2-39.2-92.2-33.2
		c-23.5,5.9-34.6,19.2-60.2,31.3v5h21.6v1h-22.6v-5.5c-1.9,0.9-3.8,1.7-5.8,2.5c-9.3,3.9-19.1,6.4-29.1,7.4v3.7h-32.6
		c-0.3,1.4-1.7,2.4-3.1,2.1c-1.2-0.2-2.1-1.3-2.1-2.6c0-0.3,0-0.5,0.1-0.8c-6.2,0.7-12.3,1.7-18.3,3c-37.1,8-58.2,58.1-58.2,86.8
		s2.2,70.1,34.2,91.6s107.7-19.1,137.5-17.5s64,35,107,35C415.3,347,430.9,268.9,421,213z M381.3,244.1h16v-26.6
		c-1.4-0.3-2.4-1.7-2.1-3.1c0.3-1.4,1.7-2.4,3.1-2.1c1.4,0.3,2.4,1.7,2.1,3.1c-0.2,1.1-1,1.9-2.1,2.1v27.7h-16V263h-1V244.1z
		 M323.5,188.7H357c0.3-1.4,1.7-2.4,3.1-2.1c1.4,0.3,2.4,1.7,2.1,3.1c-0.3,1.4-1.7,2.4-3.1,2.1c-1.1-0.2-1.9-1-2.1-2.1h-33.5
		L323.5,188.7z M144.4,186.6c1.4,0,2.5,1.1,2.6,2.4h49.5v1h-49.6c-0.4,1.4-1.9,2.2-3.3,1.9s-2.2-1.9-1.9-3.3
		C142.1,187.4,143.1,186.6,144.4,186.6L144.4,186.6z M194.6,299.9h-16.9v7c1.4,0.3,2.4,1.7,2.1,3.1c-0.3,1.4-1.7,2.4-3.1,2.1
		c-1.1-0.2-1.9-1-2.1-2.1h-32.2v-16.8h-13.8c-0.3,0.9-1,1.7-2,1.9v25.6h-16c-0.5,1.4-2.1,2.1-3.4,1.6c-1.4-0.5-2.1-2.1-1.6-3.4
		c0.5-1.4,2.1-2.1,3.4-1.6c1,0.4,1.7,1.3,1.7,2.4h14.8v-24.6c-1-0.2-1.7-0.9-2-1.9h-20.6c-0.4,1.4-1.9,2.2-3.3,1.8
		c-1.4-0.4-2.2-1.9-1.8-3.3c0.4-1.4,1.9-2.2,3.3-1.8c1.1,0.3,1.8,1.2,1.9,2.3h20.4c0.2-1.5,1.5-2.5,2.9-2.4c1.2,0.1,2.2,1.1,2.4,2.4
		h14.7v16.8h31.2c0.2-1.1,1-1.9,2.1-2.1v-8h17.9L194.6,299.9z M130.5,264.2c-0.3,1.4-1.7,2.4-3.1,2.1c-1.1-0.2-1.9-1-2.1-2.1h-8.8
		c-0.3,1.4-1.7,2.4-3.1,2.1c-1.4-0.3-2.4-1.7-2.1-3.1c0.3-1.4,1.7-2.4,3.1-2.1c1.1,0.2,1.9,1,2.1,2.1h8.8c0.2-1.2,1.3-2.1,2.6-2.2
		v-7.5h-23c-0.1,1.5-1.4,2.6-2.8,2.5c-1.5-0.1-2.6-1.4-2.5-2.8c0.1-1.5,1.4-2.6,2.8-2.5c1.1,0.1,2,0.8,2.4,1.8h24.1v8.7
		c0.9,0.3,1.5,1.1,1.6,2h270.8c0.3-1.4,1.7-2.4,3.1-2.1c1.4,0.3,2.4,1.7,2.1,3.1c-0.3,1.4-1.7,2.4-3.1,2.1c-1.1-0.2-1.9-1-2.1-2.1
		L130.5,264.2z M402,311.3c0.2-1.4,1.5-2.5,3-2.3c1.4,0.2,2.5,1.5,2.3,3c-0.2,1.4-1.5,2.5-3,2.3c-1.1-0.2-1.9-0.9-2.2-2h-38.4v-10.2
		c-1-0.3-1.7-1.1-1.9-2h-42.6v-1h42.6c0.3-1.4,1.7-2.4,3.1-2.1c1.1,0.2,1.9,1,2.1,2.1h35c0.3-1.4,1.7-2.4,3.1-2.1
		c1.4,0.3,2.4,1.7,2.1,3.1c-0.3,1.4-1.7,2.4-3.1,2.1c-1.1-0.2-1.9-1-2.1-2.1h-35c-0.2,1.1-1.2,2-2.3,2.1v9.1H402z"/>
	<g class="st1">
		<path class="st2" d="M158.1,148.4h31.6v-2.6c-10.1,1-20,0.8-31.9,1.8C157.9,147.9,158,148.2,158.1,148.4z"/>
		<path class="st2" d="M421,213c-4.8-27.2-18.2-48.5-35.3-68.3c-2-2.3-3.9-4.4-5.8-6.4H329c-0.5,1.4-2,2.1-3.4,1.5s-2.1-2-1.5-3.4
			c0.4-0.9,1.2-1.6,2.2-1.7V123h-29.5v15.3h-34.8V166h-1v-28.7h34.8V122h55.1c0.3-1.4,1.7-2.4,3.1-2.1c1.4,0.3,2.4,1.7,2.1,3.1
			c-0.3,1.4-1.7,2.4-3.1,2.1c-1.1-0.2-1.9-1-2.1-2.1h-23.6v11.8c1.1,0.3,1.9,1.3,1.9,2.5h49.7c-37.6-39.5-68.2-39.2-92.2-33.2
			c-23.5,5.9-34.6,19.2-60.2,31.3v5h21.6v1h-22.6v-5.5c-1.9,0.9-3.8,1.7-5.8,2.5c-9.3,3.9-19.1,6.4-29.1,7.4v3.7h-32.6
			c-0.3,1.4-1.7,2.4-3.1,2.1c-1.2-0.2-2.1-1.3-2.1-2.6c0-0.3,0-0.5,0.1-0.8c-6.2,0.7-12.3,1.7-18.3,3c-37.1,8-58.2,58.1-58.2,86.8
			s2.2,70.1,34.2,91.6s107.7-19.1,137.5-17.5s64,35,107,35C415.3,347,430.9,268.9,421,213z M381.3,244.1h16v-26.6
			c-1.4-0.3-2.4-1.7-2.1-3.1c0.3-1.4,1.7-2.4,3.1-2.1c1.4,0.3,2.4,1.7,2.1,3.1c-0.2,1.1-1,1.9-2.1,2.1v27.7h-16V263h-1V244.1z
			 M323.5,188.7H357c0.3-1.4,1.7-2.4,3.1-2.1c1.4,0.3,2.4,1.7,2.1,3.1c-0.3,1.4-1.7,2.4-3.1,2.1c-1.1-0.2-1.9-1-2.1-2.1h-33.5
			L323.5,188.7z M144.4,186.6c1.4,0,2.5,1.1,2.6,2.4h49.5v1h-49.6c-0.4,1.4-1.9,2.2-3.3,1.9s-2.2-1.9-1.9-3.3
			C142.1,187.4,143.1,186.6,144.4,186.6L144.4,186.6z M194.6,299.9h-16.9v7c1.4,0.3,2.4,1.7,2.1,3.1c-0.3,1.4-1.7,2.4-3.1,2.1
			c-1.1-0.2-1.9-1-2.1-2.1h-32.2v-16.8h-13.8c-0.3,0.9-1,1.7-2,1.9v25.6h-16c-0.5,1.4-2.1,2.1-3.4,1.6c-1.4-0.5-2.1-2.1-1.6-3.4
			c0.5-1.4,2.1-2.1,3.4-1.6c1,0.4,1.7,1.3,1.7,2.4h14.8v-24.6c-1-0.2-1.7-0.9-2-1.9h-20.6c-0.4,1.4-1.9,2.2-3.3,1.8
			c-1.4-0.4-2.2-1.9-1.8-3.3c0.4-1.4,1.9-2.2,3.3-1.8c1.1,0.3,1.8,1.2,1.9,2.3h20.4c0.2-1.5,1.5-2.5,2.9-2.4
			c1.2,0.1,2.2,1.1,2.4,2.4h14.7v16.8h31.2c0.2-1.1,1-1.9,2.1-2.1v-8h17.9L194.6,299.9z M130.5,264.2c-0.3,1.4-1.7,2.4-3.1,2.1
			c-1.1-0.2-1.9-1-2.1-2.1h-8.8c-0.3,1.4-1.7,2.4-3.1,2.1c-1.4-0.3-2.4-1.7-2.1-3.1c0.3-1.4,1.7-2.4,3.1-2.1c1.1,0.2,1.9,1,2.1,2.1
			h8.8c0.2-1.2,1.3-2.1,2.6-2.2v-7.5h-23c-0.1,1.5-1.4,2.6-2.8,2.5c-1.5-0.1-2.6-1.4-2.5-2.8c0.1-1.5,1.4-2.6,2.8-2.5
			c1.1,0.1,2,0.8,2.4,1.8h24.1v8.7c0.9,0.3,1.5,1.1,1.6,2h270.8c0.3-1.4,1.7-2.4,3.1-2.1c1.4,0.3,2.4,1.7,2.1,3.1
			c-0.3,1.4-1.7,2.4-3.1,2.1c-1.1-0.2-1.9-1-2.1-2.1L130.5,264.2z M402,311.3c0.2-1.4,1.5-2.5,3-2.3c1.4,0.2,2.5,1.5,2.3,3
			c-0.2,1.4-1.5,2.5-3,2.3c-1.1-0.2-1.9-0.9-2.2-2h-38.4v-10.2c-1-0.3-1.7-1.1-1.9-2h-42.6v-1h42.6c0.3-1.4,1.7-2.4,3.1-2.1
			c1.1,0.2,1.9,1,2.1,2.1h35c0.3-1.4,1.7-2.4,3.1-2.1c1.4,0.3,2.4,1.7,2.1,3.1c-0.3,1.4-1.7,2.4-3.1,2.1c-1.1-0.2-1.9-1-2.1-2.1h-35
			c-0.2,1.1-1.2,2-2.3,2.1v9.1H402z"/>
	</g>
</g>
<g id="freepik--Padlocks--inject-7">
	<path class="st3" d="M272.8,122.8h-25.4c-1.2,0-2.1-0.9-2.1-2.1v-11.9c0-8.2,6.6-14.8,14.8-14.8c8.2,0,14.8,6.6,14.8,14.8v11.9
		C274.9,121.8,273.9,122.8,272.8,122.8z M249.5,118.6h21.1v-9.8c0.2-5.8-4.4-10.7-10.2-10.9c-5.8-0.2-10.7,4.4-10.9,10.2
		c0,0.2,0,0.4,0,0.6L249.5,118.6z"/>
	<rect x="243.8" y="117" class="st4" width="32.3" height="27.3"/>
	<path class="st5" d="M263.3,128.3c0-1.9-1.6-3.5-3.5-3.5c-1.9,0-3.5,1.6-3.5,3.5c0,1.3,0.7,2.5,1.9,3.1l-0.6,6.2h4.5l-0.6-6.2
		C262.5,130.8,263.3,129.6,263.3,128.3z"/>
	<path class="st3" d="M390.8,257.4h-25.3c-1.2,0-2.1-0.9-2.1-2.1c0,0,0,0,0,0v-11.9c-0.2-8.2,6.2-14.9,14.4-15.2s14.9,6.2,15.2,14.4
		c0,0.3,0,0.5,0,0.8v11.9C392.9,256.4,391.9,257.4,390.8,257.4C390.8,257.4,390.8,257.4,390.8,257.4z M367.5,253.2h21.1v-9.8
		c0.2-5.8-4.4-10.7-10.2-10.9c-5.8-0.2-10.7,4.4-10.9,10.2c0,0.2,0,0.4,0,0.6V253.2z"/>
	<rect x="361.8" y="251.6" class="st4" width="32.3" height="27.3"/>
	<path class="st5" d="M381.2,263c0-1.9-1.6-3.5-3.5-3.5s-3.5,1.6-3.5,3.5c0,1.3,0.7,2.5,1.9,3.1l-0.6,6.2h4.5l-0.6-6.3
		C380.5,265.4,381.2,264.3,381.2,263z"/>
	<path class="st3" d="M153.4,257.4H128c-1.2,0-2.1-0.9-2.1-2.1c0,0,0,0,0,0v-11.9c0-8.2,6.6-14.8,14.8-14.8
		c8.2,0,14.8,6.6,14.8,14.8v11.9C155.5,256.4,154.5,257.4,153.4,257.4z M130.1,253.2h21.1v-9.8c0-5.8-4.7-10.6-10.6-10.6
		c-5.8,0-10.6,4.7-10.6,10.6V253.2z"/>
	<rect x="124.4" y="251.6" class="st4" width="32.3" height="27.3"/>
	<path class="st5" d="M143.9,263c0-1.9-1.6-3.5-3.5-3.5c-1.9,0-3.5,1.6-3.5,3.5c0,1.3,0.7,2.5,1.8,3.1l-0.6,6.2h4.5L142,266
		C143.1,265.4,143.8,264.3,143.9,263z"/>
	<path class="st0" d="M410.3,238c-4,4.2-6.4,10.6-6.3,17.1c0,6.5,2.5,13,6.7,17.1c0.7,0.7,1.7,0.7,2.4,0c0.3-0.3,0.5-0.7,0.5-1.2
		c0-0.4-0.2-0.9-0.5-1.2c-3.5-3.5-5.7-9-5.7-14.8s2-11.2,5.4-14.7c0.6-0.7,0.6-1.7-0.1-2.4C412,237.3,410.9,237.3,410.3,238
		L410.3,238L410.3,238z"/>
	<path class="st0" d="M415.2,242.6c-5.8,7.3-5.7,17.7,0.2,24.9c0.6,0.7,1.7,0.8,2.4,0.2c0.4-0.3,0.6-0.8,0.6-1.3
		c0-0.4-0.1-0.8-0.4-1.1c-4.9-6-4.9-14.5-0.2-20.6c0.6-0.7,0.5-1.8-0.2-2.4C416.8,241.7,415.8,241.8,415.2,242.6L415.2,242.6z"/>
	<path class="st0" d="M420.1,247.2c-3.8,4.7-3.6,11.3,0.3,15.8c0.6,0.7,1.7,0.8,2.4,0.2c0.4-0.3,0.6-0.8,0.6-1.3
		c0-0.4-0.1-0.8-0.4-1.1c-2.9-3.3-3-8.2-0.2-11.6c0.5-0.8,0.4-1.8-0.4-2.4C421.6,246.4,420.6,246.5,420.1,247.2L420.1,247.2z"/>
	<path class="st0" d="M109.7,238c4,4.2,6.4,10.6,6.3,17.1c-0.1,6.5-2.6,13-6.7,17.1c-0.7,0.7-1.7,0.7-2.4,0s-0.7-1.7,0-2.4
		c0,0,0,0,0,0c3.5-3.5,5.7-9,5.7-14.8s-2-11.2-5.4-14.7c-0.7-0.7-0.7-1.7,0-2.4C107.9,237.3,109,237.3,109.7,238
		C109.6,238,109.7,238,109.7,238z"/>
	<path class="st0" d="M104.8,242.6c5.8,7.3,5.7,17.7-0.2,24.9c-0.6,0.7-1.7,0.8-2.4,0.2c-0.4-0.3-0.6-0.8-0.6-1.3
		c0-0.4,0.1-0.8,0.4-1.1c4.9-6,4.9-14.5,0.2-20.6c-0.6-0.7-0.5-1.8,0.2-2.4C103.1,241.7,104.2,241.8,104.8,242.6L104.8,242.6z"/>
	<path class="st0" d="M99.9,247.2c3.7,4.7,3.6,11.3-0.3,15.8c-0.6,0.7-1.7,0.8-2.4,0.2c0,0,0,0,0,0c-0.4-0.3-0.6-0.8-0.6-1.3
		c0-0.4,0.1-0.8,0.4-1.1c2.9-3.3,3-8.2,0.2-11.6c-0.6-0.7-0.5-1.8,0.3-2.4c0,0,0,0,0,0C98.3,246.3,99.3,246.4,99.9,247.2z"/>
	<path class="st0" d="M277.1,83.3c-4.2,4-10.6,6.4-17.1,6.3s-13-2.5-17.1-6.6c-0.7-0.7-0.7-1.7,0-2.4c0.3-0.3,0.8-0.5,1.2-0.5
		c0.4,0,0.9,0.2,1.2,0.5c3.5,3.5,9,5.7,14.8,5.7c5.4,0.1,10.7-1.8,14.7-5.4c0.7-0.6,1.7-0.6,2.4,0.1
		C277.8,81.6,277.8,82.7,277.1,83.3L277.1,83.3z"/>
	<path class="st0" d="M272.5,78.4c-7.3,5.8-17.7,5.7-24.9-0.2c-0.7-0.6-0.9-1.6-0.3-2.4c0.6-0.7,1.6-0.9,2.4-0.3
		c0,0,0.1,0.1,0.1,0.1c6,4.9,14.5,4.9,20.6,0.2c0.8-0.6,1.8-0.4,2.4,0.4C273.2,76.8,273.1,77.8,272.5,78.4z"/>
	<path class="st0" d="M267.9,73.5c-4.7,3.7-11.3,3.6-15.8-0.3c-0.7-0.6-0.8-1.7-0.2-2.4c0.3-0.4,0.8-0.6,1.3-0.6
		c0.4,0,0.8,0.1,1.1,0.4c3.3,2.9,8.2,3,11.6,0.2c0.7-0.6,1.8-0.4,2.4,0.3S268.6,72.9,267.9,73.5L267.9,73.5z"/>
</g>
<g id="freepik--Device--inject-7">
	<ellipse class="st0" cx="257.4" cy="375.6" rx="161.2" ry="50.4"/>
	<ellipse class="st6" cx="257.4" cy="375.6" rx="161.2" ry="50.4"/>
	<ellipse class="st7" cx="259" cy="370.2" rx="146.9" ry="44.6"/>
	<ellipse class="st8" cx="259" cy="359.3" rx="131" ry="37.8"/>
	<ellipse class="st8" cx="259" cy="358.1" rx="119.4" ry="33.3"/>
	<ellipse class="st8" cx="259" cy="363.5" rx="117.9" ry="27.9"/>
	<path class="st8" d="M146.5,386.5c0.3,2.2-1.3,4.3-3.5,4.6c-2.2,0.3-4.3-1.3-4.6-3.5c-0.3-2.2,1.3-4.3,3.5-4.6c0.2,0,0.4,0,0.6,0
		C144.6,382.8,146.4,384.4,146.5,386.5z"/>
	<ellipse class="st8" cx="200.7" cy="401.9" rx="4" ry="3.5"/>
	<path class="st8" d="M274,404.5c0.3,2.2-1.3,4.3-3.5,4.6s-4.3-1.3-4.6-3.5s1.3-4.3,3.5-4.6c0.2,0,0.4,0,0.6,0
		C272.1,400.8,273.9,402.4,274,404.5z"/>
	<ellipse class="st8" cx="338.6" cy="398.4" rx="4" ry="3.5"/>
	<ellipse class="st8" cx="383.1" cy="382.2" rx="4" ry="3.5"/>
	<path class="st8" d="M401.2,362.7c-0.7,1.3-3,1.4-5.2,0.2s-3.5-3.1-2.8-4.4s3-1.4,5.2-0.2S401.9,361.5,401.2,362.7z"/>
	<path class="st8" d="M116.8,362.7c0.7,1.3,3,1.4,5.2,0.2s3.5-3.1,2.8-4.4s-3-1.4-5.2-0.2S116.1,361.5,116.8,362.7z"/>
	<line class="st9" x1="139.4" y1="350.8" x2="139.4" y2="316.7"/>
	<line class="st9" x1="161.4" y1="375.7" x2="161.4" y2="358.6"/>
	<line class="st9" x1="161.4" y1="354.4" x2="161.4" y2="320.3"/>
	<line class="st9" x1="358.3" y1="377.1" x2="358.3" y2="343"/>
	<line class="st9" x1="337.6" y1="383" x2="337.6" y2="308"/>
	<line class="st9" x1="251.7" y1="390.6" x2="251.7" y2="375"/>
	<line class="st9" x1="186.1" y1="385" x2="186.1" y2="346.7"/>
	<line class="st9" x1="302.7" y1="389.6" x2="302.7" y2="381.9"/>
	<line class="st9" x1="302.7" y1="379.5" x2="302.7" y2="363.7"/>
	<line class="st9" x1="251.7" y1="367.9" x2="251.7" y2="359.4"/>
	<line class="st9" x1="358.3" y1="335.2" x2="358.3" y2="319.5"/>
	<line class="st9" x1="378.2" y1="362.2" x2="378.2" y2="286.1"/>
	<line class="st9" x1="139.4" y1="311.7" x2="139.4" y2="293.3"/>
	<rect x="319.9" y="255.6" class="st10" width="4.8" height="12.6"/>
	<rect x="196.4" y="162.4" class="st10" width="125" height="27.1"/>
	<rect x="319.9" y="329.7" class="st10" width="4.8" height="12.6"/>
	<rect x="192.8" y="329.7" class="st10" width="4.8" height="12.6"/>
	<rect x="192.1" y="183" class="st10" width="4.8" height="12.6"/>
	<rect x="192.1" y="293.2" class="st10" width="4.8" height="12.6"/>
	<rect x="192.1" y="255.6" class="st10" width="4.8" height="12.6"/>
	<rect x="321.1" y="183" class="st10" width="4.8" height="12.6"/>
	<rect x="321.1" y="293.2" class="st10" width="4.8" height="12.6"/>
	<rect x="192.1" y="219.2" class="st10" width="4.8" height="12.6"/>
	<rect x="321.1" y="219.2" class="st10" width="4.8" height="12.6"/>
	<rect x="196.4" y="176" class="st8" width="125" height="27.1"/>
	<rect x="222.9" y="182.9" class="st5" width="7.1" height="13.3"/>
	<rect x="211.9" y="182.9" class="st5" width="7.1" height="13.3"/>
	<rect x="202.4" y="182.9" class="st5" width="5.7" height="13.3"/>
	<rect x="233.8" y="182.9" class="st5" width="7.1" height="13.3"/>
	<rect x="244.8" y="182.9" class="st5" width="43.8" height="13.3"/>
	<circle class="st8" cx="300.3" cy="189" r="3.3"/>
	<path class="st5" d="M316.7,189c0-1.9-1.5-3.3-3.4-3.3c-1.9,0-3.4,1.5-3.4,3.4c0,1.9,1.5,3.3,3.4,3.3c0,0,0,0,0,0
		C315.2,192.3,316.7,190.8,316.7,189z"/>
	<circle class="st8" cx="280.8" cy="189" r="3.3"/>
	<rect x="201.2" y="203.1" class="st10" width="115.5" height="9.3"/>
	<rect x="196.4" y="212.4" class="st8" width="125" height="27.1"/>
	<rect x="211.9" y="219.3" class="st5" width="7.1" height="13.3"/>
	<rect x="233.8" y="219.3" class="st5" width="7.1" height="13.3"/>
	<rect x="222.9" y="219.3" class="st5" width="7.1" height="13.3"/>
	<rect x="202.4" y="219.3" class="st5" width="5.7" height="13.3"/>
	<rect x="244.8" y="219.3" class="st5" width="43.8" height="13.3"/>
	<circle class="st5" cx="300.3" cy="225.3" r="3.3"/>
	<path class="st8" d="M316.7,225.3c0-1.9-1.5-3.4-3.3-3.4c-1.9,0-3.4,1.5-3.4,3.3c0,1.9,1.5,3.4,3.3,3.4c0,0,0,0,0,0
		C315.2,228.7,316.7,227.2,316.7,225.3z"/>
	<circle class="st8" cx="280.8" cy="225.3" r="3.3"/>
	<rect x="201.2" y="239.5" class="st10" width="115.5" height="9.3"/>
	<rect x="196.4" y="248.7" class="st8" width="125" height="27.1"/>
	<rect x="222.9" y="255.6" class="st5" width="7.1" height="13.3"/>
	<rect x="233.8" y="255.6" class="st5" width="7.1" height="13.3"/>
	<rect x="211.9" y="255.6" class="st5" width="7.1" height="13.3"/>
	<rect x="244.8" y="255.6" class="st5" width="43.8" height="13.3"/>
	<rect x="202.4" y="255.6" class="st5" width="5.7" height="13.3"/>
	<circle class="st8" cx="300.3" cy="261.7" r="3.3"/>
	<path class="st5" d="M316.7,261.7c0-1.9-1.5-3.3-3.4-3.3c-1.9,0-3.4,1.5-3.4,3.4c0,1.9,1.5,3.4,3.4,3.3c0,0,0,0,0,0
		C315.2,265,316.7,263.5,316.7,261.7z"/>
	<circle class="st8" cx="280.8" cy="261.7" r="3.3"/>
	<rect x="201.2" y="275.8" class="st10" width="115.5" height="9.3"/>
	<rect x="196.4" y="285.1" class="st8" width="125" height="27.1"/>
	<rect x="233.8" y="292" class="st5" width="7.1" height="13.3"/>
	<rect x="211.9" y="292" class="st5" width="7.1" height="13.3"/>
	<rect x="222.9" y="292" class="st5" width="7.1" height="13.3"/>
	<rect x="202.4" y="292" class="st5" width="5.7" height="13.3"/>
	<rect x="244.8" y="292" class="st5" width="43.8" height="13.3"/>
	<circle class="st5" cx="300.3" cy="298" r="3.3"/>
	<path class="st8" d="M316.7,298c0-1.9-1.5-3.4-3.3-3.4c-1.9,0-3.4,1.5-3.4,3.3c0,1.9,1.5,3.4,3.3,3.4c0,0,0,0,0,0
		C315.2,301.4,316.7,299.9,316.7,298z"/>
	<circle class="st8" cx="280.8" cy="298" r="3.3"/>
	<rect x="201.2" y="312.2" class="st10" width="115.5" height="9.3"/>
	<rect x="196.4" y="321.4" class="st8" width="125" height="27.1"/>
	<rect x="211.9" y="328.4" class="st5" width="7.1" height="13.3"/>
	<rect x="222.9" y="328.4" class="st5" width="7.1" height="13.3"/>
	<rect x="233.8" y="328.4" class="st5" width="7.1" height="13.3"/>
	<rect x="202.4" y="328.4" class="st5" width="5.7" height="13.3"/>
	<rect x="244.8" y="328.4" class="st5" width="43.8" height="13.3"/>
	<circle class="st8" cx="300.3" cy="334.4" r="3.3"/>
	<path class="st5" d="M316.7,334.4c0-1.9-1.5-3.3-3.4-3.3c-1.9,0-3.4,1.5-3.4,3.4c0,1.9,1.5,3.4,3.4,3.3c0,0,0,0,0,0
		C315.2,337.7,316.7,336.2,316.7,334.4z"/>
	<circle class="st8" cx="280.8" cy="334.4" r="3.3"/>
</g>
</svg>
