<?xml version="1.0" encoding="utf-8"?>
<!-- Generator: Adobe Illustrator 24.2.1, SVG Export Plug-In . SVG Version: 6.00 Build 0)  -->
<svg version="1.1" id="Layer_1" xmlns="http://www.w3.org/2000/svg" xmlns:xlink="http://www.w3.org/1999/xlink" x="0px" y="0px"
	 viewBox="0 0 750 500" style="enable-background:new 0 0 750 500;" xml:space="preserve">
<style type="text/css">
	.st0{fill:#EBEBEB;}
	.st1{fill:#F5F5F5;}
	.st2{fill:#E0E0E0;}
	.st3{fill:#FAFAFA;}
	.st4{fill:#263238;}
	.st5{fill:#455A64;}
	.st6{fill:#FFFFFF;}
	.st7{fill:#FF8C00;}
	.st8{fill:#4B7BEC;}
	.st9{opacity:0.3;enable-background:new    ;}
	.st10{opacity:0.3;}
	.st11{opacity:0.2;enable-background:new    ;}
	.st12{opacity:0.4;}
	.st13{fill:#FFBE9D;}
	.st14{fill:#EB996E;}
	.st15{opacity:0.4;enable-background:new    ;}
	.st16{opacity:0.6;}
	.st17{opacity:0.5;enable-background:new    ;}
</style>
<g id="freepik--background-complete--inject-45">
	<path class="st0" d="M118.4,437c0,3-10.6,5.4-23.7,5.4S71.1,440,71.1,437s10.6-5.4,23.6-5.4S118.4,434,118.4,437z"/>
	<path class="st0" d="M94.7,442.9c-11.7,0-24.1-2.1-24.1-5.9s12.4-5.9,24.1-5.9s24.2,2.1,24.2,5.9S106.4,442.9,94.7,442.9z
		 M94.7,432.1c-13.6,0-23.1,2.6-23.1,4.9s9.5,4.9,23.1,4.9s23.2-2.6,23.2-4.9S108.4,432.1,94.7,432.1L94.7,432.1z"/>
	<rect x="149.3" y="163.1" class="st0" width="84.8" height="259.6"/>
	<rect x="233.8" y="163.1" class="st1" width="67" height="258.8"/>
	<rect x="153.8" y="204.6" class="st2" width="71.9" height="20.2"/>
	<rect x="155.8" y="207.2" class="st1" width="4" height="15.5"/>
	<circle class="st3" cx="163.3" cy="210.4" r="1.3"/>
	<circle class="st3" cx="163.3" cy="215.9" r="1.3"/>
	<rect x="169.7" y="209.1" class="st1" width="4" height="11.9"/>
	<rect x="175.4" y="209.1" class="st1" width="4" height="11.9"/>
	<rect x="181.1" y="209.1" class="st1" width="4" height="11.9"/>
	<rect x="186.8" y="209.1" class="st1" width="4" height="11.9"/>
	<rect x="192.6" y="209.1" class="st1" width="4" height="11.9"/>
	<rect x="198.3" y="209.1" class="st1" width="4" height="11.9"/>
	<rect x="204" y="209.1" class="st1" width="4" height="11.9"/>
	<rect x="209.7" y="209.1" class="st1" width="4" height="11.9"/>
	<rect x="215.4" y="209.1" class="st1" width="4" height="11.9"/>
	<rect x="221.1" y="209.1" class="st1" width="4" height="11.9"/>
	<rect x="153.8" y="237.1" class="st2" width="71.9" height="20.2"/>
	<rect x="155.8" y="239.6" class="st1" width="4" height="15.5"/>
	<circle class="st3" cx="163.3" cy="242.9" r="1.3"/>
	<circle class="st3" cx="163.3" cy="248.3" r="1.3"/>
	<rect x="169.7" y="241.6" class="st1" width="4" height="11.9"/>
	<rect x="175.4" y="241.6" class="st1" width="4" height="11.9"/>
	<rect x="181.1" y="241.6" class="st1" width="4" height="11.9"/>
	<rect x="186.8" y="241.6" class="st1" width="4" height="11.9"/>
	<rect x="192.6" y="241.6" class="st1" width="4" height="11.9"/>
	<rect x="198.3" y="241.6" class="st1" width="4" height="11.9"/>
	<rect x="204" y="241.6" class="st1" width="4" height="11.9"/>
	<rect x="209.7" y="241.6" class="st1" width="4" height="11.9"/>
	<rect x="215.4" y="241.6" class="st1" width="4" height="11.9"/>
	<rect x="221.1" y="241.6" class="st1" width="4" height="11.9"/>
	<rect x="153.8" y="269.5" class="st2" width="71.9" height="20.2"/>
	<rect x="155.8" y="272" class="st1" width="4" height="15.5"/>
	<circle class="st3" cx="163.3" cy="275.3" r="1.3"/>
	<path class="st3" d="M164.6,280.8c0,0.7-0.6,1.3-1.3,1.3s-1.3-0.6-1.3-1.3c0-0.7,0.6-1.3,1.3-1.3l0,0
		C164,279.5,164.6,280,164.6,280.8z"/>
	<rect x="169.7" y="274" class="st1" width="4" height="11.9"/>
	<rect x="175.4" y="274" class="st1" width="4" height="11.9"/>
	<rect x="181.1" y="274" class="st1" width="4" height="11.9"/>
	<rect x="186.8" y="274" class="st1" width="4" height="11.9"/>
	<rect x="192.6" y="274" class="st1" width="4" height="11.9"/>
	<rect x="198.3" y="274" class="st1" width="4" height="11.9"/>
	<rect x="204" y="274" class="st1" width="4" height="11.9"/>
	<rect x="209.7" y="274" class="st1" width="4" height="11.9"/>
	<rect x="215.4" y="274" class="st1" width="4" height="11.9"/>
	<rect x="221.1" y="274" class="st1" width="4" height="11.9"/>
	<rect x="153.8" y="301.9" class="st2" width="71.9" height="20.2"/>
	<rect x="155.8" y="304.4" class="st1" width="4" height="15.5"/>
	<circle class="st3" cx="163.3" cy="307.7" r="1.3"/>
	<path class="st3" d="M164.6,313.2c0,0.7-0.6,1.3-1.3,1.3c-0.7,0-1.3-0.6-1.3-1.3c0,0,0,0,0,0c0-0.7,0.6-1.3,1.3-1.3
		C164,311.9,164.6,312.5,164.6,313.2C164.6,313.2,164.6,313.2,164.6,313.2z"/>
	<rect x="169.7" y="306.4" class="st1" width="4" height="11.9"/>
	<rect x="175.4" y="306.4" class="st1" width="4" height="11.9"/>
	<rect x="181.1" y="306.4" class="st1" width="4" height="11.9"/>
	<rect x="186.8" y="306.4" class="st1" width="4" height="11.9"/>
	<rect x="192.6" y="306.4" class="st1" width="4" height="11.9"/>
	<rect x="198.3" y="306.4" class="st1" width="4" height="11.9"/>
	<rect x="204" y="306.4" class="st1" width="4" height="11.9"/>
	<rect x="209.7" y="306.4" class="st1" width="4" height="11.9"/>
	<rect x="215.4" y="306.4" class="st1" width="4" height="11.9"/>
	<rect x="221.1" y="306.4" class="st1" width="4" height="11.9"/>
	<rect x="153.8" y="334.3" class="st2" width="71.9" height="20.2"/>
	<rect x="155.8" y="336.9" class="st1" width="4" height="15.5"/>
	<circle class="st3" cx="163.3" cy="340.1" r="1.3"/>
	<path class="st3" d="M164.6,345.6c0,0.7-0.6,1.3-1.3,1.3s-1.3-0.6-1.3-1.3c0-0.7,0.6-1.3,1.3-1.3l0,0
		C164,344.3,164.6,344.9,164.6,345.6z"/>
	<rect x="169.7" y="338.9" class="st1" width="4" height="11.9"/>
	<rect x="175.4" y="338.9" class="st1" width="4" height="11.9"/>
	<rect x="181.1" y="338.9" class="st1" width="4" height="11.9"/>
	<rect x="186.8" y="338.9" class="st1" width="4" height="11.9"/>
	<rect x="192.6" y="338.9" class="st1" width="4" height="11.9"/>
	<rect x="198.3" y="338.9" class="st1" width="4" height="11.9"/>
	<rect x="204" y="338.9" class="st1" width="4" height="11.9"/>
	<rect x="209.7" y="338.9" class="st1" width="4" height="11.9"/>
	<rect x="215.4" y="338.9" class="st1" width="4" height="11.9"/>
	<rect x="221.1" y="338.9" class="st1" width="4" height="11.9"/>
	<rect x="153.8" y="366.7" class="st2" width="71.9" height="20.2"/>
	<rect x="155.8" y="369.3" class="st1" width="4" height="15.5"/>
	<circle class="st3" cx="163.3" cy="372.5" r="1.3"/>
	<path class="st3" d="M164.6,378c0,0.7-0.6,1.3-1.3,1.3s-1.3-0.6-1.3-1.3c0-0.7,0.6-1.3,1.3-1.3l0,0
		C164,376.7,164.6,377.3,164.6,378z"/>
	<rect x="169.7" y="371.3" class="st1" width="4" height="11.9"/>
	<rect x="175.4" y="371.3" class="st1" width="4" height="11.9"/>
	<rect x="181.1" y="371.3" class="st1" width="4" height="11.9"/>
	<rect x="186.8" y="371.3" class="st1" width="4" height="11.9"/>
	<rect x="192.6" y="371.3" class="st1" width="4" height="11.9"/>
	<rect x="198.3" y="371.3" class="st1" width="4" height="11.9"/>
	<rect x="204" y="371.3" class="st1" width="4" height="11.9"/>
	<rect x="209.7" y="371.3" class="st1" width="4" height="11.9"/>
	<rect x="215.4" y="371.3" class="st1" width="4" height="11.9"/>
	<rect x="221.1" y="371.3" class="st1" width="4" height="11.9"/>
	<rect x="153.8" y="399.2" class="st2" width="71.9" height="20.2"/>
	<rect x="155.8" y="401.7" class="st1" width="4" height="15.5"/>
	<circle class="st3" cx="163.3" cy="405" r="1.3"/>
	<path class="st3" d="M164.6,410.5c0,0.7-0.6,1.3-1.3,1.3c-0.7,0-1.3-0.6-1.3-1.3c0-0.7,0.6-1.3,1.3-1.3
		C164,409.2,164.6,409.7,164.6,410.5z"/>
	<rect x="169.7" y="403.7" class="st1" width="4" height="11.9"/>
	<rect x="175.4" y="403.7" class="st1" width="4" height="11.9"/>
	<rect x="181.1" y="403.7" class="st1" width="4" height="11.9"/>
	<rect x="186.8" y="403.7" class="st1" width="4" height="11.9"/>
	<rect x="192.6" y="403.7" class="st1" width="4" height="11.9"/>
	<rect x="198.3" y="403.7" class="st1" width="4" height="11.9"/>
	<rect x="204" y="403.7" class="st1" width="4" height="11.9"/>
	<rect x="209.7" y="403.7" class="st1" width="4" height="11.9"/>
	<rect x="215.4" y="403.7" class="st1" width="4" height="11.9"/>
	<rect x="221.1" y="403.7" class="st1" width="4" height="11.9"/>
	<path class="st2" d="M198.3,204.6c-0.1-0.2-0.1-0.4-0.1-0.6c0-0.4-0.1-1-0.1-1.8s0-1.7-0.1-2.8c0-1.2-0.2-2.5-0.5-3.7
		c-0.4-1.4-1.1-2.8-1.9-4c-1-1.4-2.3-2.5-3.9-3.2c-1.8-0.7-3.7-1-5.6-1.1l-6.2-0.5c-8.5-0.7-16.2-1.2-21.8-1.3c-2.8-0.1-5,0-6.6,0
		h-1.8c-0.2,0-0.4,0-0.6,0c0.2-0.1,0.4-0.1,0.6-0.1l1.8-0.1c1.6-0.1,3.8-0.1,6.6-0.1c5.6,0,13.3,0.4,21.8,1.2l6.2,0.6
		c2,0.1,3.9,0.5,5.7,1.2c1.7,0.7,3.1,1.9,4.1,3.4c0.9,1.3,1.5,2.7,1.9,4.2c0.3,1.2,0.4,2.5,0.4,3.8c0,1.1,0,2.1,0,2.9s0,1.3,0,1.8
		C198.3,204.3,198.3,204.5,198.3,204.6z"/>
	<path class="st2" d="M176.5,204.6c0-0.2-0.1-0.4-0.1-0.6c0-0.4,0-1,0-1.7s0-1.6-0.1-2.7c-0.1-1.2-0.4-2.3-0.9-3.3
		c-0.8-1.2-1.9-2-3.2-2.5c-1.5-0.6-3.1-0.8-4.7-0.5c-0.9,0.1-1.7,0.4-2.4,0.8c-0.8,0.4-1.4,1-1.9,1.8c-0.4,0.8-0.4,1.7,0,2.5
		c0.5,0.8,1.2,1.4,2.1,1.6c0.9,0.2,1.8-0.1,2.5-0.7c1.3-1.3,1.5-3.4,0.4-4.8c-0.5-0.7-1.1-1.3-1.9-1.7c-0.7-0.3-1.5-0.6-2.4-0.6
		c-0.8-0.1-1.6-0.2-2.4-0.3c-1.5-0.2-3-0.3-4.3-0.3c-2.6-0.1-4.7-0.1-6.2-0.1h-1.7c-0.2,0-0.4,0-0.6,0c0.2,0,0.4-0.1,0.6-0.1
		l1.7-0.1c1.5-0.1,3.6-0.1,6.2-0.1c1.3,0,2.8,0.1,4.3,0.3c0.8,0.1,1.6,0.2,2.4,0.3c0.4,0.1,0.8,0.1,1.3,0.2c0.4,0.1,0.9,0.2,1.3,0.4
		c0.8,0.4,1.5,1,2.1,1.8c1.3,1.7,1.1,4-0.4,5.5c-0.8,0.8-1.9,1.1-3,0.9c-1-0.2-1.9-0.9-2.5-1.9c-0.5-0.9-0.5-2.1,0-3
		c0.5-0.9,1.2-1.5,2.1-2c0.8-0.4,1.7-0.7,2.6-0.9c1.7-0.3,3.4-0.1,5,0.6c1.4,0.5,2.6,1.4,3.4,2.7c0.5,1.1,0.8,2.3,0.9,3.5
		c0,0.9,0,1.8,0,2.7c0,0.7-0.1,1.2-0.1,1.7C176.5,204.3,176.5,204.4,176.5,204.6z"/>
	<path class="st2" d="M204.1,204.6c-0.1-0.2-0.1-0.4-0.1-0.6c-0.1-0.4-0.2-1.1-0.4-1.9c-0.5-2.3-1.2-4.6-2.1-6.9
		c-1.3-3.3-3.5-6.2-6.3-8.4c-1.7-1.2-3.7-2-5.7-2.2c-2.2-0.2-4.5-0.4-6.7-0.4c-9.3-0.2-17.7-0.1-23.8-0.4c-3-0.1-5.5-0.3-7.2-0.4
		l-2-0.2c-0.2,0-0.5,0-0.7-0.1c0.2,0,0.5,0,0.7,0l2,0.1c1.7,0.1,4.2,0.1,7.2,0.2c6.1,0.1,14.5,0.1,23.8,0.2c2.3,0,4.5,0.1,6.8,0.4
		c2.1,0.2,4.2,1,5.9,2.3c1.6,1.2,2.9,2.6,4,4.2c0.9,1.4,1.7,2.9,2.3,4.4c0.9,2.3,1.6,4.6,2,7c0.1,0.8,0.2,1.5,0.3,1.9
		C204.2,204.2,204.2,204.4,204.1,204.6z"/>
	<rect x="154.8" y="166.3" class="st2" width="69.9" height="10.1"/>
	<rect x="170.2" y="171.4" class="st1" width="38.1" height="5.1"/>
	<rect x="415" y="163.1" class="st0" width="84.8" height="259.6"/>
	<rect x="499.5" y="163.1" class="st1" width="67" height="258.8"/>
	<rect x="419.5" y="204.6" class="st2" width="71.9" height="20.2"/>
	<rect x="421.5" y="207.2" class="st1" width="4" height="15.5"/>
	<circle class="st3" cx="429" cy="210.4" r="1.3"/>
	<circle class="st3" cx="429" cy="215.9" r="1.3"/>
	<rect x="435.4" y="209.1" class="st1" width="4" height="11.9"/>
	<rect x="441.1" y="209.1" class="st1" width="4" height="11.9"/>
	<rect x="446.9" y="209.1" class="st1" width="4" height="11.9"/>
	<rect x="452.6" y="209.1" class="st1" width="4" height="11.9"/>
	<rect x="458.3" y="209.1" class="st1" width="4" height="11.9"/>
	<rect x="464" y="209.1" class="st1" width="4" height="11.9"/>
	<rect x="469.7" y="209.1" class="st1" width="4" height="11.9"/>
	<rect x="475.4" y="209.1" class="st1" width="4" height="11.9"/>
	<rect x="481.1" y="209.1" class="st1" width="4" height="11.9"/>
	<rect x="486.9" y="209.1" class="st1" width="4" height="11.9"/>
	<rect x="419.5" y="237.1" class="st2" width="71.9" height="20.2"/>
	<rect x="421.5" y="239.6" class="st1" width="4" height="15.5"/>
	<circle class="st3" cx="429" cy="242.9" r="1.3"/>
	<circle class="st3" cx="429" cy="248.3" r="1.3"/>
	<rect x="435.4" y="241.6" class="st1" width="4" height="11.9"/>
	<rect x="441.1" y="241.6" class="st1" width="4" height="11.9"/>
	<rect x="446.9" y="241.6" class="st1" width="4" height="11.9"/>
	<rect x="452.6" y="241.6" class="st1" width="4" height="11.9"/>
	<rect x="458.3" y="241.6" class="st1" width="4" height="11.9"/>
	<rect x="464" y="241.6" class="st1" width="4" height="11.9"/>
	<rect x="469.7" y="241.6" class="st1" width="4" height="11.9"/>
	<rect x="475.4" y="241.6" class="st1" width="4" height="11.9"/>
	<rect x="481.1" y="241.6" class="st1" width="4" height="11.9"/>
	<rect x="486.9" y="241.6" class="st1" width="4" height="11.9"/>
	<rect x="419.5" y="269.5" class="st2" width="71.9" height="20.2"/>
	<rect x="421.5" y="272" class="st1" width="4" height="15.5"/>
	<circle class="st3" cx="429" cy="275.3" r="1.3"/>
	<path class="st3" d="M430.3,280.8c0,0.7-0.6,1.3-1.3,1.3s-1.3-0.6-1.3-1.3c0-0.7,0.6-1.3,1.3-1.3l0,0
		C429.7,279.5,430.3,280,430.3,280.8z"/>
	<rect x="435.4" y="274" class="st1" width="4" height="11.9"/>
	<rect x="441.1" y="274" class="st1" width="4" height="11.9"/>
	<rect x="446.9" y="274" class="st1" width="4" height="11.9"/>
	<rect x="452.6" y="274" class="st1" width="4" height="11.9"/>
	<rect x="458.3" y="274" class="st1" width="4" height="11.9"/>
	<rect x="464" y="274" class="st1" width="4" height="11.9"/>
	<rect x="469.7" y="274" class="st1" width="4" height="11.9"/>
	<rect x="475.4" y="274" class="st1" width="4" height="11.9"/>
	<rect x="481.1" y="274" class="st1" width="4" height="11.9"/>
	<rect x="486.9" y="274" class="st1" width="4" height="11.9"/>
	<rect x="419.5" y="301.9" class="st2" width="71.9" height="20.2"/>
	<rect x="421.5" y="304.4" class="st1" width="4" height="15.5"/>
	<circle class="st3" cx="429" cy="307.7" r="1.3"/>
	<path class="st3" d="M430.3,313.2c0,0.7-0.6,1.3-1.3,1.3c-0.7,0-1.3-0.6-1.3-1.3c0-0.7,0.6-1.3,1.3-1.3
		C429.7,311.9,430.3,312.5,430.3,313.2z"/>
	<rect x="435.4" y="306.4" class="st1" width="4" height="11.9"/>
	<rect x="441.1" y="306.4" class="st1" width="4" height="11.9"/>
	<rect x="446.9" y="306.4" class="st1" width="4" height="11.9"/>
	<rect x="452.6" y="306.4" class="st1" width="4" height="11.9"/>
	<rect x="458.3" y="306.4" class="st1" width="4" height="11.9"/>
	<rect x="464" y="306.4" class="st1" width="4" height="11.9"/>
	<rect x="469.7" y="306.4" class="st1" width="4" height="11.9"/>
	<rect x="475.4" y="306.4" class="st1" width="4" height="11.9"/>
	<rect x="481.1" y="306.4" class="st1" width="4" height="11.9"/>
	<rect x="486.9" y="306.4" class="st1" width="4" height="11.9"/>
	<rect x="419.5" y="334.3" class="st2" width="71.9" height="20.2"/>
	<rect x="421.5" y="336.9" class="st1" width="4" height="15.5"/>
	<circle class="st3" cx="429" cy="340.1" r="1.3"/>
	<path class="st3" d="M430.3,345.6c0,0.7-0.6,1.3-1.3,1.3s-1.3-0.6-1.3-1.3c0-0.7,0.6-1.3,1.3-1.3l0,0
		C429.7,344.3,430.3,344.9,430.3,345.6z"/>
	<rect x="435.4" y="338.9" class="st1" width="4" height="11.9"/>
	<rect x="441.1" y="338.9" class="st1" width="4" height="11.9"/>
	<rect x="446.9" y="338.9" class="st1" width="4" height="11.9"/>
	<rect x="452.6" y="338.9" class="st1" width="4" height="11.9"/>
	<rect x="458.3" y="338.9" class="st1" width="4" height="11.9"/>
	<rect x="464" y="338.9" class="st1" width="4" height="11.9"/>
	<rect x="469.7" y="338.9" class="st1" width="4" height="11.9"/>
	<rect x="475.4" y="338.9" class="st1" width="4" height="11.9"/>
	<rect x="481.1" y="338.9" class="st1" width="4" height="11.9"/>
	<rect x="486.9" y="338.9" class="st1" width="4" height="11.9"/>
	<rect x="419.5" y="366.7" class="st2" width="71.9" height="20.2"/>
	<rect x="421.5" y="369.3" class="st1" width="4" height="15.5"/>
	<circle class="st3" cx="429" cy="372.5" r="1.3"/>
	<path class="st3" d="M430.3,378c0,0.7-0.6,1.3-1.3,1.3s-1.3-0.6-1.3-1.3c0-0.7,0.6-1.3,1.3-1.3l0,0
		C429.7,376.7,430.3,377.3,430.3,378z"/>
	<rect x="435.4" y="371.3" class="st1" width="4" height="11.9"/>
	<rect x="441.1" y="371.3" class="st1" width="4" height="11.9"/>
	<rect x="446.9" y="371.3" class="st1" width="4" height="11.9"/>
	<rect x="452.6" y="371.3" class="st1" width="4" height="11.9"/>
	<rect x="458.3" y="371.3" class="st1" width="4" height="11.9"/>
	<rect x="464" y="371.3" class="st1" width="4" height="11.9"/>
	<rect x="469.7" y="371.3" class="st1" width="4" height="11.9"/>
	<rect x="475.4" y="371.3" class="st1" width="4" height="11.9"/>
	<rect x="481.1" y="371.3" class="st1" width="4" height="11.9"/>
	<rect x="486.9" y="371.3" class="st1" width="4" height="11.9"/>
	<rect x="419.5" y="399.2" class="st2" width="71.9" height="20.2"/>
	<rect x="421.5" y="401.7" class="st1" width="4" height="15.5"/>
	<circle class="st3" cx="429" cy="405" r="1.3"/>
	<path class="st3" d="M430.3,410.5c0,0.7-0.6,1.3-1.3,1.3c-0.7,0-1.3-0.6-1.3-1.3c0-0.7,0.6-1.3,1.3-1.3
		C429.7,409.2,430.3,409.7,430.3,410.5z"/>
	<rect x="435.4" y="403.7" class="st1" width="4" height="11.9"/>
	<rect x="441.1" y="403.7" class="st1" width="4" height="11.9"/>
	<rect x="446.9" y="403.7" class="st1" width="4" height="11.9"/>
	<rect x="452.6" y="403.7" class="st1" width="4" height="11.9"/>
	<rect x="458.3" y="403.7" class="st1" width="4" height="11.9"/>
	<rect x="464" y="403.7" class="st1" width="4" height="11.9"/>
	<rect x="469.7" y="403.7" class="st1" width="4" height="11.9"/>
	<rect x="475.4" y="403.7" class="st1" width="4" height="11.9"/>
	<rect x="481.1" y="403.7" class="st1" width="4" height="11.9"/>
	<rect x="486.9" y="403.7" class="st1" width="4" height="11.9"/>
	<path class="st2" d="M464,204.6c-0.1-0.2-0.1-0.4-0.1-0.6c0-0.4-0.1-1-0.1-1.8s0-1.7-0.1-2.8c0-1.2-0.2-2.5-0.5-3.7
		c-0.4-1.4-1.1-2.8-1.9-4c-1-1.4-2.3-2.5-3.9-3.2c-1.8-0.7-3.7-1-5.6-1.1l-6.2-0.5c-8.5-0.7-16.2-1.2-21.8-1.3c-2.8-0.1-5,0-6.6,0
		h-1.8c-0.2,0-0.4,0-0.6,0c0.2-0.1,0.4-0.1,0.6-0.1l1.8-0.1c1.6-0.1,3.8-0.1,6.6-0.1c5.6,0,13.3,0.4,21.8,1.2l6.2,0.6
		c2,0.1,3.9,0.5,5.7,1.2c1.7,0.7,3.1,1.9,4.1,3.4c0.9,1.3,1.5,2.7,1.9,4.2c0.3,1.2,0.4,2.5,0.4,3.8c0,1.1,0,2.1,0,2.9s0,1.3,0,1.8
		C464,204.3,464,204.5,464,204.6z"/>
	<path class="st2" d="M442.2,204.6c0-0.2,0-0.4,0-0.6c0-0.4,0-1,0-1.7s0-1.6-0.1-2.7c-0.1-1.2-0.4-2.3-0.9-3.3
		c-0.8-1.2-1.9-2-3.2-2.5c-1.5-0.6-3.1-0.8-4.7-0.5c-0.8,0.1-1.7,0.4-2.4,0.8c-0.8,0.4-1.4,1-1.9,1.8c-0.4,0.8-0.4,1.7,0,2.5
		c0.5,0.8,1.2,1.4,2.1,1.6c0.9,0.2,1.8-0.1,2.5-0.7c1.3-1.3,1.5-3.4,0.4-4.8c-0.5-0.7-1.1-1.3-1.9-1.7c-0.7-0.3-1.5-0.6-2.4-0.6
		c-0.8-0.1-1.6-0.2-2.4-0.3c-1.5-0.2-3-0.3-4.3-0.3c-2.6-0.1-4.7-0.1-6.2-0.1h-1.7c-0.2,0-0.4,0-0.6,0c0.2,0,0.4-0.1,0.6-0.1
		l1.7-0.1c1.5-0.1,3.6-0.1,6.2-0.1c1.3,0,2.8,0.1,4.3,0.3c0.8,0.1,1.6,0.2,2.4,0.3c0.4,0.1,0.8,0.1,1.3,0.2c0.4,0.1,0.9,0.2,1.3,0.4
		c0.8,0.4,1.5,1,2.1,1.8c0.6,0.8,0.9,1.8,0.9,2.8c-0.1,1-0.5,2-1.3,2.7c-0.8,0.8-1.9,1.1-3,0.9c-1-0.3-1.9-0.9-2.5-1.9
		c-0.5-0.9-0.5-2.1,0-3c0.5-0.9,1.2-1.5,2.1-2c0.8-0.4,1.7-0.7,2.6-0.9c1.7-0.3,3.4-0.1,5,0.6c1.4,0.5,2.6,1.4,3.4,2.7
		c0.5,1.1,0.8,2.3,0.9,3.5c0,0.9,0,1.8,0,2.7c0,0.7,0,1.2-0.1,1.7C442.3,204.3,442.2,204.5,442.2,204.6z"/>
	<path class="st2" d="M469.9,204.6c-0.1-0.2-0.1-0.4-0.2-0.7c-0.1-0.4-0.2-1.1-0.4-1.9c-0.5-2.3-1.2-4.6-2.1-6.9
		c-1.3-3.3-3.4-6.2-6.2-8.4c-1.7-1.2-3.7-2-5.7-2.2c-2.2-0.2-4.5-0.4-6.7-0.4c-9.3-0.2-17.7-0.1-23.8-0.4c-3-0.1-5.5-0.3-7.2-0.4
		l-2-0.2c-0.2,0-0.5,0-0.7-0.1c0.2,0,0.5,0,0.7,0l2,0.1c1.7,0.1,4.2,0.1,7.2,0.2c6.1,0.1,14.5,0.1,23.8,0.2c2.3,0,4.5,0.1,6.8,0.4
		c2.1,0.2,4.2,1,5.9,2.3c1.6,1.2,2.9,2.6,4,4.2c0.9,1.4,1.7,2.9,2.3,4.4c0.9,2.3,1.6,4.6,2,7c0.1,0.8,0.2,1.5,0.3,1.9
		C469.9,204.2,469.9,204.4,469.9,204.6z"/>
	<rect x="420.5" y="166.3" class="st2" width="69.9" height="10.1"/>
	<rect x="435.9" y="171.4" class="st1" width="38.1" height="5.1"/>
</g>
<g id="freepik--Floor--inject-45">
	<path class="st4" d="M688.3,422.4c0,0.1-141.4,0.3-315.9,0.3s-315.9-0.1-315.9-0.3s141.4-0.3,315.9-0.3S688.3,422.3,688.3,422.4z"
		/>
</g>
<g id="freepik--Server--inject-45">
	<rect x="244.1" y="126.2" class="st0" width="96.6" height="296"/>
	<rect x="340.6" y="126.2" class="st2" width="76.4" height="295"/>
	<rect x="249.4" y="273.6" class="st4" width="81.9" height="23.1"/>
	<rect x="249.4" y="173.6" class="st4" width="81.9" height="23.1"/>
	<rect x="251.7" y="176.5" class="st5" width="4.6" height="17.7"/>
	<path class="st6" d="M261.7,180.2c0,0.8-0.7,1.5-1.5,1.5c-0.8,0-1.5-0.7-1.5-1.5c0-0.8,0.7-1.5,1.5-1.5l0,0
		C261.1,178.7,261.7,179.4,261.7,180.2z"/>
	<path class="st6" d="M261.7,186.4c0,0.8-0.7,1.5-1.5,1.5c-0.8,0-1.5-0.7-1.5-1.5c0-0.8,0.7-1.5,1.5-1.5l0,0
		C261.1,185,261.7,185.6,261.7,186.4z"/>
	<rect x="267.6" y="178.7" class="st5" width="4.5" height="13.6"/>
	<rect x="274.1" y="178.7" class="st5" width="4.5" height="13.6"/>
	<rect x="280.6" y="178.7" class="st5" width="4.5" height="13.6"/>
	<rect x="287.1" y="178.7" class="st5" width="4.5" height="13.6"/>
	<rect x="293.6" y="178.7" class="st5" width="4.5" height="13.6"/>
	<rect x="300.1" y="178.7" class="st5" width="4.5" height="13.6"/>
	<rect x="306.6" y="178.7" class="st5" width="4.5" height="13.6"/>
	<rect x="313.2" y="178.7" class="st5" width="4.5" height="13.6"/>
	<rect x="319.7" y="178.7" class="st5" width="4.5" height="13.6"/>
	<rect x="326.2" y="178.7" class="st5" width="4.5" height="13.6"/>
	<rect x="249.4" y="206.7" class="st4" width="81.9" height="23.1"/>
	<rect x="251.7" y="209.6" class="st5" width="4.6" height="17.7"/>
	<path class="st6" d="M261.7,213.3c0,0.8-0.6,1.5-1.4,1.5c-0.8,0-1.5-0.6-1.5-1.4s0.6-1.5,1.4-1.5c0,0,0,0,0,0
		C261.1,211.9,261.7,212.5,261.7,213.3z"/>
	<path class="st6" d="M261.7,219.6c0,0.8-0.7,1.5-1.5,1.5c-0.8,0-1.5-0.7-1.5-1.5c0-0.8,0.7-1.5,1.5-1.5l0,0
		C261.1,218.1,261.7,218.8,261.7,219.6z"/>
	<rect x="267.6" y="211.9" class="st5" width="4.5" height="13.6"/>
	<rect x="274.1" y="211.9" class="st5" width="4.5" height="13.6"/>
	<rect x="280.6" y="211.9" class="st5" width="4.5" height="13.6"/>
	<rect x="287.1" y="211.9" class="st5" width="4.5" height="13.6"/>
	<rect x="293.6" y="211.9" class="st5" width="4.5" height="13.6"/>
	<rect x="300.1" y="211.9" class="st5" width="4.5" height="13.6"/>
	<rect x="306.6" y="211.9" class="st5" width="4.5" height="13.6"/>
	<rect x="313.2" y="211.9" class="st5" width="4.5" height="13.6"/>
	<rect x="319.7" y="211.9" class="st5" width="4.5" height="13.6"/>
	<rect x="326.2" y="211.9" class="st5" width="4.5" height="13.6"/>
	<rect x="249.4" y="240.1" class="st4" width="81.9" height="23.1"/>
	<rect x="251.7" y="243" class="st5" width="4.6" height="17.7"/>
	<path class="st6" d="M261.7,246.8c0,0.8-0.6,1.5-1.4,1.5c-0.8,0-1.5-0.6-1.5-1.4s0.6-1.5,1.4-1.5c0,0,0,0,0,0
		C261.1,245.3,261.7,245.9,261.7,246.8z"/>
	<path class="st6" d="M261.7,253c0,0.8-0.6,1.5-1.4,1.5c-0.8,0-1.5-0.6-1.5-1.4s0.6-1.5,1.4-1.5c0,0,0,0,0,0
		C261.1,251.5,261.7,252.2,261.7,253z"/>
	<rect x="267.6" y="245.3" class="st5" width="4.5" height="13.6"/>
	<rect x="274.1" y="245.3" class="st5" width="4.5" height="13.6"/>
	<rect x="280.6" y="245.3" class="st5" width="4.5" height="13.6"/>
	<rect x="287.1" y="245.3" class="st5" width="4.5" height="13.6"/>
	<rect x="293.6" y="245.3" class="st5" width="4.5" height="13.6"/>
	<rect x="300.1" y="245.3" class="st5" width="4.5" height="13.6"/>
	<rect x="306.6" y="245.3" class="st5" width="4.5" height="13.6"/>
	<rect x="313.2" y="245.3" class="st5" width="4.5" height="13.6"/>
	<rect x="319.7" y="245.3" class="st5" width="4.5" height="13.6"/>
	<rect x="326.2" y="245.3" class="st5" width="4.5" height="13.6"/>
	<rect x="249.4" y="312.7" class="st4" width="81.9" height="23.1"/>
	<rect x="251.7" y="315.6" class="st5" width="4.6" height="17.7"/>
	<path class="st6" d="M261.7,319.3c0,0.8-0.7,1.5-1.5,1.5c-0.8,0-1.5-0.7-1.5-1.5c0-0.8,0.7-1.5,1.5-1.5c0,0,0,0,0,0
		C261.1,317.8,261.7,318.5,261.7,319.3C261.7,319.3,261.7,319.3,261.7,319.3z"/>
	<path class="st6" d="M261.7,325.5c0,0.8-0.7,1.5-1.5,1.5c-0.8,0-1.5-0.7-1.5-1.5c0-0.8,0.7-1.5,1.5-1.5c0,0,0,0,0,0
		C261.1,324.1,261.7,324.7,261.7,325.5C261.7,325.5,261.7,325.5,261.7,325.5z"/>
	<rect x="267.6" y="317.8" class="st5" width="4.5" height="13.6"/>
	<rect x="274.1" y="317.8" class="st5" width="4.5" height="13.6"/>
	<rect x="280.6" y="317.8" class="st5" width="4.5" height="13.6"/>
	<rect x="287.1" y="317.8" class="st5" width="4.5" height="13.6"/>
	<rect x="293.6" y="317.8" class="st5" width="4.5" height="13.6"/>
	<rect x="300.1" y="317.8" class="st5" width="4.5" height="13.6"/>
	<rect x="306.6" y="317.8" class="st5" width="4.5" height="13.6"/>
	<rect x="313.2" y="317.8" class="st5" width="4.5" height="13.6"/>
	<rect x="319.7" y="317.8" class="st5" width="4.5" height="13.6"/>
	<rect x="326.2" y="317.8" class="st5" width="4.5" height="13.6"/>
	<rect x="249.4" y="385.2" class="st4" width="81.9" height="23.1"/>
	<rect x="251.7" y="388.1" class="st5" width="4.6" height="17.7"/>
	<path class="st6" d="M261.7,391.8c0,0.8-0.7,1.5-1.5,1.5c-0.8,0-1.5-0.7-1.5-1.5c0-0.8,0.7-1.5,1.5-1.5c0,0,0,0,0,0
		C261.1,390.4,261.7,391,261.7,391.8z"/>
	<path class="st6" d="M261.7,398.1c0,0.8-0.7,1.5-1.5,1.5c-0.8,0-1.5-0.7-1.5-1.5c0-0.8,0.7-1.5,1.5-1.5c0,0,0,0,0,0
		C261.1,396.6,261.7,397.3,261.7,398.1z"/>
	<rect x="267.6" y="390.4" class="st5" width="4.5" height="13.6"/>
	<rect x="274.1" y="390.4" class="st5" width="4.5" height="13.6"/>
	<rect x="280.6" y="390.4" class="st5" width="4.5" height="13.6"/>
	<rect x="287.1" y="390.4" class="st5" width="4.5" height="13.6"/>
	<rect x="293.6" y="390.4" class="st5" width="4.5" height="13.6"/>
	<rect x="300.1" y="390.4" class="st5" width="4.5" height="13.6"/>
	<rect x="306.6" y="390.4" class="st5" width="4.5" height="13.6"/>
	<rect x="313.2" y="390.4" class="st5" width="4.5" height="13.6"/>
	<rect x="319.7" y="390.4" class="st5" width="4.5" height="13.6"/>
	<rect x="326.2" y="390.4" class="st5" width="4.5" height="13.6"/>
	<rect x="249.4" y="349" class="st4" width="81.9" height="23.1"/>
	<rect x="251.7" y="351.9" class="st5" width="4.6" height="17.7"/>
	<path class="st6" d="M261.7,355.6c0,0.8-0.7,1.5-1.5,1.5c-0.8,0-1.5-0.7-1.5-1.5c0-0.8,0.7-1.5,1.5-1.5c0,0,0,0,0,0
		C261.1,354.1,261.7,354.8,261.7,355.6z"/>
	<path class="st6" d="M261.7,361.8c0,0.8-0.7,1.5-1.5,1.5c-0.8,0-1.5-0.7-1.5-1.5c0-0.8,0.7-1.5,1.5-1.5c0,0,0,0,0,0
		C261.1,360.4,261.7,361,261.7,361.8z"/>
	<rect x="267.6" y="354.1" class="st5" width="4.5" height="13.6"/>
	<rect x="274.1" y="354.1" class="st5" width="4.5" height="13.6"/>
	<rect x="280.6" y="354.1" class="st5" width="4.5" height="13.6"/>
	<rect x="287.1" y="354.1" class="st5" width="4.5" height="13.6"/>
	<rect x="293.6" y="354.1" class="st5" width="4.5" height="13.6"/>
	<rect x="300.1" y="354.1" class="st5" width="4.5" height="13.6"/>
	<rect x="306.6" y="354.1" class="st5" width="4.5" height="13.6"/>
	<rect x="313.2" y="354.1" class="st5" width="4.5" height="13.6"/>
	<rect x="319.7" y="354.1" class="st5" width="4.5" height="13.6"/>
	<rect x="326.2" y="354.1" class="st5" width="4.5" height="13.6"/>
	<path class="st4" d="M300.1,173.6c0-0.2-0.1-0.5-0.1-0.7c0-0.5-0.1-1.2-0.1-2.1s0-2-0.1-3.2c0-1.4-0.2-2.8-0.6-4.2
		c-0.5-1.7-1.2-3.2-2.2-4.6c-1.1-1.6-2.7-2.9-4.5-3.6c-2-0.7-4.2-1.2-6.4-1.3l-7.1-0.6c-9.7-0.8-18.5-1.4-24.8-1.5
		c-3.2-0.1-5.8-0.1-7.5,0h-2.1c-0.2,0-0.5,0-0.7,0c0.2-0.1,0.5-0.1,0.7-0.1l2.1-0.1c1.8-0.1,4.4-0.1,7.5-0.1
		c6.4,0,15.2,0.5,24.8,1.3l7.1,0.6c2.2,0.1,4.4,0.6,6.5,1.4c1.9,0.8,3.5,2.1,4.7,3.8c1,1.5,1.7,3.1,2.2,4.8c0.3,1.4,0.5,2.8,0.5,4.3
		c0,1.3,0,2.4,0,3.3s0,1.5,0,2.1C300.2,173.1,300.2,173.4,300.1,173.6z"/>
	<path class="st4" d="M275.3,173.6c0-0.2,0-0.4,0-0.7V171c0-0.8,0-1.9-0.1-3c-0.1-1.3-0.4-2.6-1-3.8c-0.9-1.3-2.2-2.3-3.7-2.9
		c-1.7-0.7-3.6-0.9-5.4-0.6c-1,0.2-1.9,0.5-2.8,0.9c-0.9,0.5-1.7,1.2-2.2,2.1c-0.5,0.9-0.5,2,0,2.9c0.5,0.9,1.4,1.6,2.5,1.9
		c1,0.2,2.1-0.1,2.9-0.8c0.7-0.7,1.2-1.7,1.3-2.7c0.1-1-0.2-2-0.9-2.8c-0.6-0.8-1.3-1.5-2.2-1.9c-0.9-0.4-1.8-0.6-2.7-0.7
		c-0.9-0.1-1.8-0.3-2.7-0.4c-1.7-0.2-3.4-0.3-4.9-0.4c-3-0.1-5.4-0.1-7.1-0.1h-1.9c-0.2,0-0.5,0-0.7,0c0.2,0,0.4-0.1,0.7-0.1
		l1.9-0.1c1.7-0.1,4.1-0.2,7.1-0.1c1.5,0,3.1,0.1,4.9,0.3c0.9,0.1,1.8,0.2,2.7,0.3c0.5,0.1,0.9,0.1,1.4,0.2c0.5,0.1,1,0.3,1.4,0.5
		c0.9,0.5,1.7,1.2,2.4,2c0.7,0.9,1.1,2,1,3.1c-0.1,1.2-0.6,2.3-1.4,3.1c-0.9,0.9-2.1,1.3-3.4,1c-1.2-0.3-2.2-1-2.8-2.1
		c-0.6-1.1-0.6-2.3,0-3.4c0.6-1,1.4-1.7,2.4-2.3c0.9-0.5,1.9-0.8,3-1c1.9-0.3,3.8-0.1,5.6,0.6c1.6,0.6,3,1.6,3.9,3.1
		c0.6,1.2,1,2.6,1,4c0.1,1.2,0,2.2,0,3.1s0,1.4-0.1,1.9C275.4,173.2,275.4,173.4,275.3,173.6z"/>
	<path class="st4" d="M306.8,173.6c-0.1-0.2-0.1-0.5-0.2-0.8c-0.1-0.5-0.2-1.2-0.4-2.2c-0.6-2.7-1.4-5.3-2.4-7.8
		c-1.5-3.8-3.9-7.1-7.1-9.6c-1.9-1.4-4.2-2.3-6.5-2.5c-2.6-0.3-5.1-0.4-7.7-0.4c-10.6-0.2-20.2-0.1-27.1-0.4
		c-3.5-0.1-6.3-0.3-8.2-0.4l-2.2-0.2c-0.3,0-0.5,0-0.8-0.1c0.3,0,0.5,0,0.8,0l2.2,0.1c1.9,0.1,4.7,0.2,8.2,0.3
		c6.9,0.2,16.5,0.1,27.1,0.3c2.6,0,5.2,0.1,7.8,0.4c2.4,0.3,4.8,1.2,6.8,2.6c1.7,1.3,3.3,2.9,4.5,4.8c1.1,1.6,2,3.2,2.7,5
		c1,2.6,1.8,5.2,2.3,7.9c0.2,1,0.3,1.7,0.3,2.2C306.8,173,306.8,173.3,306.8,173.6z"/>
	<rect x="250.6" y="129.9" class="st4" width="79.7" height="11.6"/>
	<rect x="268.1" y="135.7" class="st5" width="43.4" height="5.8"/>
	<path class="st4" d="M362.8,369.9c0,0.1-0.9,0.1-2.4,0.6c-2.1,0.7-4.2,1.7-6,3c-1.3,0.9-2.4,1.9-3.4,3.1c-0.5,0.7-1,1.4-1.4,2.1
		c-0.4,0.8-0.7,1.7-0.9,2.6c-0.9,3.7-0.6,7.8-0.5,12.2s-0.1,8.7-1.8,12.2c-0.8,1.7-1.9,3.1-3.3,4.3c-1.2,1-2.5,1.9-4,2.5
		c-1.2,0.5-2.4,0.9-3.7,1.1c-1,0.2-2,0.2-2.9,0.1c-0.6,0-1.2-0.1-1.8-0.3c-0.2,0-0.4-0.1-0.6-0.2c0-0.1,0.9,0.2,2.5,0.3
		c1,0,1.9,0,2.9-0.2c1.3-0.2,2.5-0.6,3.6-1.2c1.4-0.6,2.7-1.5,3.9-2.5c1.3-1.2,2.4-2.6,3.1-4.2c1.6-3.4,1.9-7.6,1.7-12
		s-0.5-8.6,0.5-12.3c0.2-0.9,0.5-1.8,0.9-2.7c0.4-0.8,0.9-1.5,1.5-2.2c1-1.2,2.2-2.3,3.5-3.2c1.9-1.3,4-2.3,6.2-2.9
		c0.6-0.2,1.2-0.3,1.8-0.3C362.4,369.8,362.6,369.8,362.8,369.9z"/>
	<rect x="326" y="409.7" class="st4" width="6.5" height="8"/>
	<rect x="362.8" y="349.8" class="st5" width="36.7" height="40.2"/>
	<circle class="st4" cx="379.7" cy="370.8" r="12"/>
	<path class="st5" d="M387.2,370c0,3.3-2.7,6-6,6s-6-2.7-6-6s2.7-6,6-6S387.2,366.7,387.2,370z"/>
	<circle class="st4" cx="367.8" cy="356" r="1.1"/>
	<circle class="st4" cx="393.9" cy="356" r="1.1"/>
	<circle class="st4" cx="394.1" cy="385.7" r="1.1"/>
	<circle class="st4" cx="367.8" cy="386.1" r="1.1"/>
	<rect x="399.5" y="349.8" class="st4" width="3" height="40.2"/>
	<path class="st4" d="M506.4,386.9c0.1,0.1,0.2,0.2,0.3,0.4c0.2,0.3,0.4,0.7,0.7,1.2c0.4,0.6,0.7,1.3,1,2c0.4,0.9,0.8,1.9,1.1,2.8
		c0.8,2.7,1.2,5.5,1.2,8.3c-0.1,3.7-0.9,7.4-2.4,10.8c-0.2,0.5-0.4,0.9-0.6,1.4l-0.8,1.4c-0.6,0.9-1.2,1.9-1.8,2.7
		c-1.4,1.8-3.1,3.5-5.1,4.8l-0.7,0.5l-0.8,0.5c-0.5,0.3-1.1,0.6-1.6,0.9l-1.8,0.8c-0.6,0.3-1.2,0.4-1.8,0.6c-2.6,0.7-5.2,1.1-7.9,1
		c-2.8-0.1-5.6-0.5-8.2-1.4c-2.8-0.9-5.4-2.3-7.7-4c-2.5-1.8-4.5-4-6.1-6.6c-1.5-2.7-2.8-5.5-4-8.4c-1.1-2.8-2.8-5.4-4.9-7.7
		c-1.1-1-2.3-1.8-3.7-2.4c-1.4-0.5-2.8-0.9-4.2-0.9c-5.8-0.3-11.5,3-13.5,8c-0.5,1.2-0.7,2.5-0.6,3.8c0.1,1.3,0.5,2.4,1.4,3.4
		c0.9,0.9,2.1,1.3,3.3,1.2c1.2-0.1,2.3-0.5,3.2-1.3c1.7-1.6,2.5-3.8,2.4-6.1c-0.1-2.1-0.6-4.2-1.6-6.1c-3.9-7.4-13.1-10.3-20.5-6.4
		c-0.2,0.1-0.3,0.2-0.5,0.3c-1,0.6-1.5,1-1.5,1c0.5-0.4,1-0.8,1.5-1.1c1.5-0.9,3.2-1.6,4.9-1.9c2.8-0.6,5.6-0.3,8.3,0.6
		c3.5,1.4,6.4,3.9,8.2,7.3c1,1.9,1.6,4,1.7,6.2c0,1.2-0.1,2.3-0.5,3.4c-0.4,1.2-1.1,2.2-2,3c-1,0.8-2.2,1.3-3.5,1.4
		c-1.3,0.1-2.7-0.4-3.6-1.4c-0.9-1-1.4-2.3-1.5-3.7c-0.1-1.4,0.1-2.7,0.6-4c2-5.2,8-8.6,13.9-8.3c1.5,0.1,3,0.4,4.4,1
		c1.4,0.6,2.7,1.4,3.8,2.5c2.1,2.3,3.8,4.9,5,7.8c1.2,2.8,2.5,5.6,4,8.3c1.6,2.5,3.6,4.7,6,6.5c2.3,1.7,4.9,3,7.6,3.9
		c2.6,0.8,5.3,1.3,8.1,1.4c2.6,0.1,5.2-0.3,7.7-1c0.6-0.2,1.2-0.4,1.8-0.6l1.7-0.7c0.6-0.3,1.1-0.6,1.6-0.9l0.8-0.4l0.7-0.5
		c1.9-1.3,3.6-2.9,5-4.7c0.7-0.9,1.3-1.8,1.8-2.7l0.8-1.4c0.2-0.5,0.4-0.9,0.6-1.4c1.5-3.3,2.3-7,2.4-10.6c0.1-2.8-0.3-5.5-1-8.2
		c-0.3-1-0.6-1.9-1-2.8c-0.3-0.7-0.6-1.4-1-2c-0.3-0.5-0.5-0.9-0.7-1.2L506.4,386.9z"/>
	<rect x="498.5" y="375" class="st4" width="19" height="19"/>
	<rect x="425.9" y="222" class="st6" width="64.8" height="47.6"/>
	<path class="st4" d="M490.7,269.6c0,0,0-0.3,0-0.9s0-1.4,0-2.5c0-2.2,0-5.5-0.1-9.6c0-8.3-0.1-20.2-0.1-34.6l0.2,0.2l-64.8,0.1l0,0
		l0.3-0.3c0,17.1,0,33.3,0,47.6l-0.2-0.2l46.7,0.1l13.3,0.1h3.5h0.9L490.7,269.6c0,0-0.1,0-0.2-0.1h-0.9h-3.5l-13.2,0.1l-46.8,0.1
		h-0.2v-0.2c0-14.3,0-30.5,0-47.6v-0.3h0.3l64.8,0.1h0.2v0.3c0,14.4-0.1,26.4-0.1,34.7c0,4.1,0,7.4-0.1,9.6c0,1.1,0,1.9,0,2.5
		S490.7,269.6,490.7,269.6z"/>
	<path class="st7" d="M442.7,237c-0.1,0.2,1.5,21.1,1.5,20.9s29.4,0,29.4,0l0.4-18.6H452l-1-2.6L442.7,237z"/>
	<path class="st4" d="M490.1,237c0,0,0.1,0,0.2,0h0.5h2.1l8-0.1l12.2-0.1h3.6c1.2,0,2.5,0,3.8-0.1c1.3-0.1,2.5-0.7,3.4-1.6
		c0.8-1,1.3-2.4,1.2-3.7l0,0c0-7.2,0-15.2,0-23.5c0-17.1,0-32.6,0.1-43.9c0-5.6,0.1-10.1,0.1-13.3c0-1.6,0-2.8,0-3.6
		c0-0.4,0-0.7,0-0.9c0-0.1,0-0.2,0-0.3c0,0,0,0.1,0,0.3s0,0.6,0,0.9c0,0.9,0,2.1,0,3.6c0,3.2,0,7.7,0.1,13.3c0,11.3,0,26.8,0.1,43.9
		c0,8.3,0,16.3,0,23.5l0,0c0.1,1.5-0.4,2.9-1.3,4c-1,1-2.3,1.6-3.7,1.8c-1.3,0.1-2.6,0-3.8,0h-3.6l-12.2-0.1l-8-0.1h-2.1h-0.5
		L490.1,237z"/>
	<path class="st4" d="M425.9,251.3h-0.2H425h-2.6h-9.7h-14.4h-8.5c-1.6,0.1-3.1-0.3-4.4-1.2c-1.3-1-2-2.6-2-4.2c0-0.2,0-0.3,0-0.5
		l0,0c0-6.2,0-12.1,0-17.5c0-2.7,0-5.3,0-7.6c0-1.2,0-2.4,0-3.5c0-1-0.2-2.1-0.6-3c-0.5-0.8-1.3-1.3-2.2-1.4
		c-0.9-0.1-1.7-0.2-2.6-0.4c-0.7-0.3-1.3-0.9-1.5-1.7c-0.2-0.6-0.4-1.2-0.4-1.9c-0.1-0.9-0.1-1.8,0-2.6c0-0.3,0.1-0.5,0.1-0.7
		c0-0.1,0-0.2,0.1-0.2c0,0,0,0.3-0.1,0.9c-0.1,0.9-0.1,1.7,0,2.6c0.1,0.6,0.2,1.2,0.5,1.8c0.3,0.7,0.8,1.2,1.4,1.5
		c0.8,0.2,1.7,0.3,2.5,0.4c0.5,0.1,0.9,0.2,1.4,0.5c0.5,0.3,0.9,0.6,1.1,1.1c0.5,1,0.7,2.1,0.7,3.2c0.1,1.1,0.1,2.3,0.1,3.5
		c0,2.4,0,5,0,7.6c0,5.4,0,11.3,0,17.5l0,0v0.5c0,1.5,0.7,2.9,1.8,3.8c1.2,0.8,2.7,1.2,4.1,1.1h8.5l14.4,0.1l9.7,0.1l2.6,0.1h0.7
		L425.9,251.3z"/>
	<path class="st4" d="M378.1,204c0,1.2-0.9,2.1-2.1,2.1s-2.1-0.9-2.1-2.1c0-1.2,0.9-2.1,2.1-2.1c0,0,0,0,0,0
		C377.2,201.9,378.1,202.8,378.1,204C378.1,204,378.1,204,378.1,204z"/>
	<path class="st4" d="M425.9,245.1c-0.3,0-0.5,0.1-0.8,0.1l-2.2,0.1l-8.2,0.1l-12.3,0.1h-3.6c-1.3,0-2.5,0-3.8-0.1
		c-1.4-0.2-2.6-0.8-3.5-1.9c-0.9-1.1-1.3-2.5-1.2-3.9v-3.2c0-5.8,0-11.3,0-16.3c0-2.5,0-4.9,0-7.1c0-1.1,0-2.1-0.2-3.2
		c0-1-0.4-1.9-1.1-2.6c-0.7-0.5-1.5-0.8-2.4-0.9c-0.8,0-1.7-0.2-2.4-0.6c-0.6-0.4-1-1.1-1.2-1.8c-0.2-0.6-0.3-1.2-0.3-1.8
		c-0.1-0.8,0-1.6,0.1-2.4c0-0.3,0.1-0.6,0.2-0.8c0,0,0,0.3,0,0.9c-0.1,0.8-0.1,1.6,0,2.4c0,0.6,0.2,1.1,0.3,1.7
		c0.2,0.6,0.6,1.2,1.1,1.6c0.7,0.4,1.5,0.5,2.2,0.5c0.9,0,1.8,0.4,2.6,0.9c0.7,0.7,1.2,1.7,1.2,2.8c0.1,1.1,0.2,2.2,0.2,3.2
		c0,2.2,0,4.6,0,7.1c0,5,0,10.5,0,16.3v3.2c-0.1,1.3,0.3,2.5,1.1,3.5c0.8,0.9,1.9,1.5,3.2,1.7c1.2,0.1,2.4,0.2,3.7,0.1h3.6l12.3,0.1
		l8.2,0.1l2.2,0.1C425.4,245.1,425.6,245.1,425.9,245.1z"/>
	<circle class="st4" cx="383.3" cy="197.9" r="2.1"/>
	<polygon class="st5" points="425.9,222 425.9,229.1 490.7,228.3 490.7,222 	"/>
</g>
<g id="freepik--Robot--inject-45">
	<path class="st8" d="M122.3,262.8c0.3,0.2,40.9,5.1,37.5,12.8s-39.3,4.8-39.3,4.8L122.3,262.8z"/>
	<path class="st9" d="M122.3,262.8c0.3,0.2,40.9,5.1,37.5,12.8s-39.3,4.8-39.3,4.8L122.3,262.8z"/>
	<rect x="122.4" y="271.7" class="st5" width="81.9" height="23.1"/>
	<rect x="124.7" y="274.6" class="st4" width="4.6" height="17.7"/>
	<path class="st6" d="M134.7,278.4c0,0.8-0.6,1.5-1.4,1.5c-0.8,0-1.5-0.6-1.5-1.4c0-0.8,0.6-1.5,1.4-1.5c0,0,0,0,0,0
		C134,276.9,134.7,277.5,134.7,278.4z"/>
	<path class="st6" d="M134.7,284.6c0,0.8-0.6,1.5-1.4,1.5c-0.8,0-1.5-0.6-1.5-1.4c0-0.8,0.6-1.5,1.4-1.5c0,0,0,0,0,0
		C134,283.1,134.7,283.8,134.7,284.6z"/>
	<rect x="140.5" y="276.9" class="st4" width="4.5" height="13.6"/>
	<rect x="147" y="276.9" class="st4" width="4.5" height="13.6"/>
	<rect x="153.5" y="276.9" class="st4" width="4.5" height="13.6"/>
	<rect x="160" y="276.9" class="st4" width="4.5" height="13.6"/>
	<rect x="166.6" y="276.9" class="st4" width="4.5" height="13.6"/>
	<rect x="173.1" y="276.9" class="st4" width="4.5" height="13.6"/>
	<rect x="179.6" y="276.9" class="st4" width="4.5" height="13.6"/>
	<rect x="186.1" y="276.9" class="st4" width="4.5" height="13.6"/>
	<rect x="192.6" y="276.9" class="st4" width="4.5" height="13.6"/>
	<rect x="199.1" y="276.9" class="st4" width="4.5" height="13.6"/>
	<rect x="204.3" y="271.7" class="st4" width="13.3" height="23.1"/>
	<path class="st4" d="M215.9,286c7.6,4,5.5,13.2,9.7,19.5c2.4,3.6,6.5,5.7,10.8,5.8c4.8,0,9.3-2.4,12.1-6.3
		c3.8-5.1,6.8-19.7,16.4-14.8c0.3,0.1,0.5-0.3,0.3-0.4c-10.9-5.6-14.4,13.5-20.1,17.9c-4.2,3.4-10.1,4-14.9,1.4
		c-4.3-2.5-5.8-6.8-6.9-11.3c-1.2-4.9-2.4-9.7-7.1-12.2C215.9,285.4,215.7,285.9,215.9,286L215.9,286z"/>
	<path class="st8" d="M123.6,263.9c0.4,0.3-1.3,56.7-25.3,56.7c-24.3,0-30.1-51.4-27.9-55.6C73.8,258.4,102.3,246.2,123.6,263.9z"/>
	<path class="st6" d="M69.3,264.3c0.2,0,0.4,0.1,0.6,0.2l1.5,0.5c0.7,0.3,1.5,0.6,2.4,0.9s2,0.7,3.3,1s2.6,0.7,4,1s3,0.6,4.7,0.9
		c3.6,0.5,7.2,0.8,10.9,0.9c3.6,0,7.3-0.3,10.9-0.8c1.7-0.3,3.2-0.5,4.7-0.8s2.8-0.6,4-1s2.3-0.7,3.3-1s1.8-0.6,2.5-0.8l1.5-0.5
		c0.2-0.1,0.4-0.1,0.6-0.1c-0.2,0.1-0.3,0.2-0.5,0.3l-1.5,0.6c-0.7,0.3-1.5,0.6-2.4,0.9s-2,0.7-3.3,1s-2.6,0.7-4,1s-3,0.6-4.7,0.9
		c-3.6,0.5-7.3,0.8-10.9,0.8c-3.7,0-7.3-0.3-10.9-0.9c-1.7-0.3-3.3-0.6-4.7-0.9s-2.8-0.7-4-1.1s-2.3-0.8-3.3-1.1s-1.8-0.6-2.4-0.9
		l-1.5-0.6C69.6,264.4,69.4,264.3,69.3,264.3z"/>
	<g class="st10">
		<path d="M75.9,260.2c4.9,6.3,12.5,8.3,20.5,8.3s15.5-2.6,20.5-8.8c0,0-6-5.8-20.8-5.8C88.9,253.9,81.8,256.1,75.9,260.2z"/>
	</g>
	<path class="st6" d="M97.6,319.7c-0.2-0.1-0.3-0.1-0.5-0.2c-0.4-0.3-0.8-0.6-1.2-0.9c-1.3-1.3-2.3-3-2.9-4.8
		c-0.7-2.7-1-5.5-0.8-8.3c0.1-3.1,0.3-6.5,0.4-10.1c0.3-7.2,0.6-13.7,0.9-18.4c0.1-2.3,0.3-4.2,0.3-5.6c0-0.6,0.1-1.1,0.1-1.5
		c0-0.2,0-0.4,0.1-0.5c0,0.2,0,0.4,0,0.5c0,0.4,0,0.9,0,1.5c0,1.4-0.1,3.3-0.2,5.6c-0.2,4.7-0.4,11.2-0.7,18.4
		c-0.2,3.6-0.3,7-0.5,10.1c-0.2,2.7,0,5.5,0.7,8.1c0.5,1.8,1.4,3.4,2.7,4.8C96.6,318.8,97.1,319.3,97.6,319.7z"/>
	<path class="st6" d="M94.6,306.7c0,0,0.3-0.3,0.8-0.2c0.3,0.1,0.6,0.3,0.8,0.6c0.2,0.4,0.1,0.9-0.3,1.2c-0.3,0.4-0.8,0.4-1.2,0.2
		c-0.3-0.2-0.5-0.5-0.5-0.9c0-0.2,0.1-0.5,0.3-0.6c0.1-0.1,0.2-0.1,0.2-0.1s-0.2,0.3-0.1,0.7c0,0.2,0.2,0.4,0.3,0.5
		c0.2,0.1,0.5,0,0.7-0.2c0.3-0.3,0.3-0.7,0-1c-0.1-0.1-0.2-0.1-0.3-0.2C95,306.7,94.7,306.8,94.6,306.7z"/>
	<path class="st6" d="M96.1,298.4c0,0,0-0.1,0.2-0.1c0.2,0,0.4,0,0.6,0.2c0.3,0.2,0.4,0.5,0.3,0.9c-0.1,0.4-0.5,0.7-0.9,0.6
		c-0.4,0-0.8-0.2-0.9-0.6c-0.1-0.3-0.1-0.6,0-0.9c0.2-0.5,0.6-0.5,0.6-0.5s-0.2,0.2-0.2,0.6c-0.1,0.3,0.1,0.7,0.4,0.8
		c0.1,0,0.1,0,0.2,0c0.2,0,0.4-0.1,0.5-0.3c0-0.2,0-0.3-0.1-0.5C96.4,298.4,96.1,298.4,96.1,298.4z"/>
	<path class="st11" d="M93.1,293.9c0,0,13.8,7.8,24.9,5.8l0.8-2.5c0,0-16.3-1.6-25.7-4.3V293.9z"/>
	<path class="st8" d="M97.3,280.8c0,0,43.9,3.3,38.4,11.4s-24.9,3.6-24.9,3.6S98.3,286.8,97.3,280.8z"/>
	<path class="st6" d="M119.4,297.2c-0.3,0-0.7,0-1,0c-0.7,0-1.7-0.1-2.9-0.2c-2.4-0.2-5.7-0.6-9.4-1.2s-6.9-1.3-9.3-1.9
		c-1.2-0.3-2.1-0.5-2.8-0.7c-0.3-0.1-0.7-0.2-1-0.4c0.3,0,0.7,0.1,1,0.1l2.8,0.6c2.4,0.5,5.6,1.1,9.3,1.7s7,1,9.3,1.3l2.8,0.4
		C118.7,297,119.1,297.1,119.4,297.2z"/>
	<path class="st6" d="M126.6,285.2c-0.4,0-0.9-0.1-1.3-0.2l-3.5-0.7c-3-0.6-7-1.5-11.6-2.2s-8.7-1.4-11.7-1.7
		c-1.5-0.2-2.7-0.3-3.6-0.4c-0.4,0-0.9-0.1-1.3-0.2c0.4,0,0.9,0,1.3,0c0.8,0,2.1,0.1,3.6,0.2c3,0.2,7.2,0.8,11.7,1.6
		s8.6,1.7,11.6,2.4c1.5,0.4,2.7,0.7,3.5,0.9C125.8,284.9,126.2,285.1,126.6,285.2z"/>
	<g class="st12">
		<path class="st6" d="M122,268.2c0.1,0.3-2.4,1.8-7,3.4c-1.1,0.4-2.4,0.8-3.8,1.1s-2.9,0.7-4.4,1c-3.4,0.6-6.9,0.9-10.4,0.9
			c-3.5,0-7-0.4-10.4-0.9c-1.6-0.3-3.1-0.6-4.4-1s-2.7-0.7-3.8-1.1c-4.6-1.6-7.1-3.1-7-3.4s3,0.6,7.5,1.6c1.2,0.3,2.4,0.6,3.8,0.8
			s2.8,0.5,4.3,0.7c3.3,0.4,6.7,0.6,10,0.7c3.3,0,6.7-0.2,10-0.7c1.5-0.2,3-0.4,4.3-0.7s2.6-0.5,3.8-0.8
			C119,268.8,121.8,267.8,122,268.2z"/>
	</g>
	<circle class="st8" cx="97.1" cy="237.4" r="26.5"/>
	<path class="st4" d="M123.3,233.8c-9.5,1.5-19.1,1.9-28.6,1.2c-3.5-0.3-6.5,2.3-6.8,5.8c0,0.1,0,0.1,0,0.2l0,0
		c-0.1,3.4,2.5,6.3,5.9,6.6c10.4,0.7,19.9,0.7,28.2-1.1C122,246.4,124.6,242.1,123.3,233.8z"/>
	<path class="st6" d="M99.1,241.3c-0.4,0-0.7-0.4-0.7-0.8c0-0.4,0.4-0.7,0.8-0.7c0.4,0,0.7,0.4,0.7,0.8c0,0,0,0,0,0
		C99.9,241,99.5,241.3,99.1,241.3z"/>
	<path class="st6" d="M118,240.7c-0.4,0-0.7-0.4-0.7-0.8c0-0.4,0.4-0.7,0.8-0.7c0.4,0,0.7,0.4,0.7,0.8c0,0,0,0,0,0
		C118.8,240.5,118.4,240.8,118,240.7z"/>
	<path class="st6" d="M113.4,240.9c0.1,0-0.1,0.6-0.7,1.4c-0.8,1.1-2,1.8-3.3,1.9c-1.3,0.1-2.6-0.4-3.5-1.4
		c-0.7-0.7-0.9-1.3-0.8-1.3s0.4,0.5,1.1,1.1c0.9,0.8,2.1,1.2,3.3,1.2c1.2-0.2,2.2-0.8,3-1.7C113.1,241.4,113.3,240.9,113.4,240.9z"
		/>
	<path class="st6" d="M98,210.9c0,0,0.1,0,0.3,0c0.3,0,0.6,0.1,0.8,0.2c1,0.3,2,0.7,2.9,1.3c1.3,0.8,2.5,1.9,3.4,3.2
		c1.1,1.6,2,3.3,2.7,5.1c1.3,3.3,1.9,6.7,1.8,10.2c0,1.1-0.1,2.1-0.2,3.1c0,0.4-0.1,0.8-0.3,1.1c-0.1,0,0.2-1.6,0.1-4.3
		c-0.1-3.4-0.8-6.8-2-10c-0.7-1.8-1.5-3.4-2.6-5c-0.9-1.2-2-2.3-3.3-3.2C100.6,211.9,99.3,211.3,98,210.9z"/>
	<path class="st6" d="M79.4,237.9c0,0,0-0.1,0-0.4c0-0.4,0-0.7,0.1-1.1c0.1-1.4,0.4-2.7,0.7-4c1.2-4.3,3.5-8.2,6.6-11.4
		c3.1-3.3,7-5.6,11.4-6.7c1.3-0.3,2.7-0.4,4-0.4c0.4,0,0.7,0,1.1,0.1c0.3,0,0.4,0.1,0.4,0.1c-1.8,0-3.6,0.2-5.4,0.6
		c-4.3,1.2-8.1,3.5-11.1,6.7c-3.1,3.2-5.3,7-6.6,11.2C80,234.3,79.7,236.1,79.4,237.9z"/>
	<path class="st6" d="M104.4,219.3c0-0.1,0.3-0.2,0.6,0c0.2,0.2,0.3,0.4,0.3,0.7c-0.1,0.3-0.3,0.6-0.7,0.7c-0.3,0.1-0.7-0.1-0.9-0.4
		c-0.1-0.2-0.1-0.5,0-0.8C104,219.2,104.3,219.2,104.4,219.3c-0.1,0.1-0.2,0.2-0.3,0.4c0,0.1,0,0.2,0.1,0.3c0.1,0.1,0.2,0.2,0.4,0.1
		c0.1,0,0.2-0.1,0.3-0.3c0-0.1,0-0.2-0.1-0.3C104.6,219.4,104.4,219.4,104.4,219.3z"/>
	<path class="st6" d="M85.5,237.6c0-0.1,0.3-0.2,0.6,0c0.2,0.2,0.3,0.4,0.3,0.7c-0.1,0.3-0.3,0.6-0.7,0.7c-0.3,0.1-0.7-0.1-0.9-0.4
		c-0.1-0.2-0.1-0.5,0-0.8C85.1,237.4,85.4,237.5,85.5,237.6c-0.1,0-0.2,0.2-0.3,0.4c0,0.1,0,0.2,0.1,0.3c0.1,0.1,0.2,0.2,0.4,0.1
		c0.1,0,0.2-0.1,0.3-0.3c0-0.1,0-0.2-0.1-0.3C85.7,237.7,85.5,237.6,85.5,237.6z"/>
	<path class="st6" d="M106.2,225.9c0-0.1,0.2-0.2,0.6,0c0.2,0.2,0.3,0.4,0.3,0.7c-0.1,0.4-0.5,0.8-0.9,0.7c-0.2,0-0.5-0.2-0.6-0.4
		c-0.1-0.2-0.1-0.5,0-0.8C105.8,225.8,106.1,225.8,106.2,225.9c-0.1,0-0.2,0.2-0.3,0.4c0,0.1,0,0.2,0.1,0.3c0.1,0.1,0.2,0.2,0.4,0.1
		c0.1,0,0.2-0.1,0.3-0.3c0-0.1,0-0.2-0.1-0.3C106.4,226,106.2,226,106.2,225.9z"/>
	<path class="st6" d="M73.4,236.9c0-0.1,0.2-0.2,0.6,0c0.2,0.2,0.3,0.4,0.3,0.7c-0.1,0.4-0.5,0.8-0.9,0.7c-0.2,0-0.5-0.2-0.6-0.4
		c-0.1-0.2-0.1-0.5,0-0.8C73.1,236.8,73.4,236.8,73.4,236.9c-0.1,0.1-0.2,0.2-0.3,0.4c0,0.1,0,0.2,0.1,0.3c0.1,0.1,0.2,0.2,0.4,0.1
		c0.1,0,0.2-0.1,0.3-0.3c0-0.1,0-0.2-0.1-0.3C73.7,237,73.4,237,73.4,236.9z"/>
	<path class="st6" d="M88.1,240.8c-2.9,0-5.8-0.2-8.7-0.5c-2.9-0.2-5.8-0.5-8.7-1.1c2.9,0,5.8,0.2,8.7,0.5
		C82.3,239.9,85.2,240.3,88.1,240.8z"/>
	<path class="st4" d="M77.1,239.8c0,1.3,1,2.3,2.3,2.3s2.3-1,2.3-2.3c0-1.3-1-2.3-2.3-2.3c0,0,0,0,0,0
		C78.2,237.4,77.1,238.5,77.1,239.8z"/>
	<g class="st12">
		<path class="st6" d="M82.1,255.1c-0.1,0.1-0.9,0-2.1-0.8c-1.7-1.2-3.1-2.8-4.1-4.7c-1.4-2.7-2.3-5.6-2.7-8.6
			c-0.4-3.7-0.1-7.5,0.9-11.1c2-6.6,6.5-12.2,12.5-15.4c1.8-1,3.7-1.7,5.7-2.2c1.4-0.3,2.2-0.3,2.2-0.1c0.1,0.4-2.9,1.2-7,3.9
			c-2.3,1.6-4.4,3.5-6.2,5.6c-2.2,2.7-3.8,5.7-4.8,9c-1,3.3-1.3,6.7-1,10.1c0.2,2.8,0.9,5.5,2,8.1c0.7,1.7,1.7,3.3,3,4.7
			C81.5,254.5,82.2,254.9,82.1,255.1z"/>
	</g>
</g>
<g id="freepik--Character--inject-45">
	<path class="st5" d="M531.2,111.3c0.2,0.5,2.7,35.9,2.7,35.9l-19.6-1.5l-2.9-29L531.2,111.3z"/>
	<polygon class="st4" points="533.9,147.2 535.8,146.6 533,110.8 531,111.3 	"/>
	<path class="st4" d="M521.3,118.4c0,0.5-0.4,0.8-0.8,0.8c-0.5,0-0.8-0.4-0.8-0.8s0.4-0.8,0.8-0.8S521.3,118,521.3,118.4
		C521.3,118.4,521.3,118.4,521.3,118.4z"/>
	<path class="st4" d="M582.5,127.1c-0.3,0.8,0.1,1.7,0.9,2c0.4,0.2,0.8,0.1,1.2,0c1-0.5,1.3-1.9,1.1-3s-0.5-2.4,0.1-3.4
		c0.5-0.7,1.1-1.3,1.9-1.8c1.1-1,1.7-2.6,1.6-4.1c-0.2-1.6-1.2-2.9-2.7-3.4c-1.5-0.5-3.3-0.1-4.4-1.3c-0.8-0.8-0.8-2.1-1.3-3.1
		c-0.9-1.5-2.9-1.9-4.7-1.7s-3.5,0.6-5.2,0.1c-1.4-0.4-2.5-1.5-3.8-2.2c-3.8-2-8.4-0.5-10.4,3.2c-1.1,2.1-1.2,4.6-0.2,6.8
		c0.4,1.1,1.2,2,2.3,2.5"/>
	<path class="st13" d="M580.8,157l-16.6-1.3c-0.1-1.9,0-9.4,0-9.4s-6.9-1.1-7-8s1.1-22.7,1.1-22.7l0,0c8-3.4,17.2-2.3,24,3l1,0.8
		L580.8,157z"/>
	<path class="st4" d="M560,127.4c0.4-0.4,0.4-1,0.1-1.4s-1-0.4-1.4-0.1c-0.4,0.4-0.4,1-0.1,1.4c0,0,0,0,0,0
		C559,127.8,559.6,127.8,560,127.4z"/>
	<path class="st4" d="M558.3,125.8c0.1,0.1,0.8-0.4,1.7-0.4s1.6,0.5,1.7,0.4s-0.1-0.3-0.4-0.5c-0.4-0.3-0.9-0.5-1.4-0.4
		c-0.5,0-1,0.2-1.4,0.5C558.4,125.6,558.3,125.8,558.3,125.8z"/>
	<path class="st4" d="M569.3,126.7c-0.5,0.3-0.6,0.9-0.3,1.4c0.3,0.5,0.9,0.6,1.4,0.3c0.5-0.3,0.6-0.9,0.3-1.4
		C570.3,126.5,569.7,126.4,569.3,126.7C569.3,126.7,569.3,126.7,569.3,126.7z"/>
	<path class="st4" d="M568.6,126.7c0.1,0.1,0.8-0.4,1.7-0.4s1.6,0.5,1.7,0.4s0-0.3-0.3-0.5c-0.4-0.3-0.9-0.4-1.4-0.4
		c-0.5,0-1,0.2-1.4,0.5C568.7,126.4,568.6,126.6,568.6,126.7z"/>
	<path class="st4" d="M564.8,134.5c-0.5-0.2-1-0.3-1.5-0.3c-0.3,0-0.4-0.1-0.5-0.2c0-0.2,0.1-0.5,0.2-0.7c0.2-0.6,0.5-1.3,0.8-1.9
		c0.7-1.6,1.2-3.3,1.6-5.1c-0.9,1.6-1.6,3.2-2.1,4.9c-0.2,0.7-0.5,1.3-0.7,1.9c-0.2,0.3-0.2,0.7-0.1,1c0.1,0.2,0.2,0.3,0.4,0.4
		c0.1,0,0.3,0.1,0.4,0.1C563.8,134.6,564.3,134.6,564.8,134.5z"/>
	<path class="st6" d="M567.9,135.6c-1.5,0.7-3.1,1.1-4.7,1.4c0.7,1,2,1.4,3.1,1C568.4,137.2,567.9,135.6,567.9,135.6z"/>
	<path class="st14" d="M564.3,146.1c3.2,0.1,6.3-0.8,9-2.6c0,0-2.1,5-9,4.3V146.1z"/>
	<path class="st4" d="M558.3,117.3c0,0,4,2.3,9.7,0c3.7-1.5,7.9-2.1,8.8-1.3s0.8,4.5,4.2,5.8c0,0-0.8,7,2.1,7s1.9-11,1.9-11
		l-6.6-3.8l-7.4-2l-7.1,0.5l-5.5,1.1V117.3z"/>
	<path class="st13" d="M582.6,126.5c0.1-0.1,4.7-1.4,4.6,3.3c-0.1,4.7-4.8,3.6-4.8,3.4S582.6,126.5,582.6,126.5z"/>
	<path class="st14" d="M583.9,131.6c0,0,0.1,0.1,0.2,0.1c0.2,0.1,0.4,0.1,0.6,0c0.6-0.4,1-1.1,1-1.8c0-0.4,0-0.8-0.2-1.2
		c-0.1-0.3-0.3-0.5-0.6-0.6c-0.2-0.1-0.4,0-0.5,0.2c-0.1,0.1,0,0.2-0.1,0.2s-0.1-0.1,0-0.3c0-0.1,0.1-0.2,0.2-0.3
		c0.1-0.1,0.3-0.1,0.5-0.1c0.4,0.1,0.7,0.4,0.8,0.8c0.2,0.4,0.3,0.9,0.2,1.3c0,0.9-0.5,1.6-1.3,2c-0.3,0.1-0.5,0-0.8-0.1
		C583.9,131.7,583.8,131.6,583.9,131.6z"/>
	<path class="st4" d="M585.8,111.9c0,0.2-0.7,0.1-1.5,0.3s-1.3,0.7-1.4,0.6s0.3-0.8,1.3-1.1S585.9,111.8,585.8,111.9z"/>
	<path class="st4" d="M583.2,109c0.3,0.7,0.3,1.5,0.1,2.2c-0.3,1.3-1,2-1.1,1.9s0.4-0.9,0.6-2S583,109,583.2,109z"/>
	<path class="st4" d="M562.9,124.3c-0.2,0.3-1,0-2.1,0s-2,0.1-2.1-0.2s0.8-0.9,2.2-0.9S563.1,124.1,562.9,124.3z"/>
	<path class="st4" d="M573.5,123.4c-0.1,0.3-1,0-2.1,0s-2,0.1-2.1-0.2s0.8-0.9,2.2-0.9S573.7,123.2,573.5,123.4z"/>
	<path class="st8" d="M612.5,414.5l1.6,6.9c0,0,11.3,14.6,14.8,13.9c2.3-0.5-0.5-4.3-4.8-15.4l-0.9-4.6L612.5,414.5z"/>
	<path class="st4" d="M629.3,433.1c0,0.1,0,0.1-0.1,0.2c-0.1,0.2-0.3,0.3-0.5,0.4c-0.3,0.2-0.7,0.2-1,0.2c-0.5,0-0.9-0.2-1.3-0.5
		c-2-1.6-3.9-3.4-5.7-5.3c-1.8-1.9-3.4-3.8-5-5.9c-0.6-0.8-1.1-1.4-1.4-1.9l-0.4-0.5c-0.1-0.1-0.1-0.2-0.1-0.2l0.2,0.2l0.4,0.5
		c0.4,0.5,0.9,1.1,1.4,1.9c1.2,1.5,3,3.7,5.1,5.9c1.8,1.9,3.6,3.7,5.6,5.3c0.6,0.5,1.4,0.6,2.2,0.3
		C629,433.6,629.2,433.4,629.3,433.1z"/>
	<path class="st4" d="M627.8,428.4c0,0-0.4,0-0.9,0c-0.7,0.1-1.4,0.4-2,0.8c-0.6,0.4-1.2,0.9-1.5,1.5c-0.3,0.5-0.3,0.8-0.4,0.8
		c0-0.3,0.1-0.6,0.3-0.9c0.3-0.7,0.9-1.3,1.5-1.6c0.6-0.4,1.4-0.7,2.1-0.7C627.2,428.3,627.5,428.3,627.8,428.4z"/>
	<path class="st4" d="M617.1,425c0,0,0.1-0.5,0.2-1.3c0.1-1-0.1-2.1-0.6-3c-0.5-0.9-1.2-1.7-2.2-2.2c-0.4-0.2-0.8-0.3-1.2-0.4
		c0.1,0,0.2,0,0.3,0c0.3,0.1,0.6,0.2,0.9,0.3c1,0.5,1.8,1.2,2.3,2.2c0.5,1,0.7,2.1,0.5,3.1c0,0.3-0.1,0.6-0.2,1
		C617.2,424.8,617.1,424.9,617.1,425z"/>
	<path class="st4" d="M613.2,415.7c0.3,0.7,0.5,1.4,0.6,2.2c0.2,1.2,0.4,2.2,0.4,2.2c-0.3-0.7-0.5-1.4-0.6-2.2
		C613.4,416.6,613.2,415.7,613.2,415.7z"/>
	<path class="st4" d="M624.3,420.9c0,0.1-0.6,0-1.4,0.2s-1.3,0.5-1.3,0.4c0.4-0.3,0.8-0.5,1.3-0.6
		C623.3,420.7,623.8,420.7,624.3,420.9z"/>
	<path class="st4" d="M624.5,422c0,0.1-0.5,0-1.2,0.2s-1.1,0.4-1.1,0.4c0.3-0.3,0.7-0.5,1.1-0.6C623.7,421.9,624.1,421.9,624.5,422z
		"/>
	<path class="st4" d="M625.4,423.5c-0.8-0.1-1.6,0.1-2.3,0.5c0.2-0.4,0.6-0.6,1.1-0.7C624.6,423.2,625,423.3,625.4,423.5z"/>
	<path class="st4" d="M623.5,420.4c-0.1,0-0.3,0-0.4,0c-0.3-0.1-0.7-0.2-1-0.3c-0.5-0.2-1-0.4-1.4-0.6c-0.2-0.1-0.5-0.3-0.7-0.4
		c-0.3-0.2-0.5-0.5-0.6-0.9c0.1-0.4,0.4-0.6,0.8-0.6c0,0,0.1,0,0.1,0c0.3,0.1,0.6,0.3,0.8,0.5c0.4,0.4,0.8,0.8,1,1.1
		s0.5,0.6,0.6,0.8c0.1,0.1,0.1,0.2,0.2,0.3c0,0-0.3-0.4-0.9-1.1c-0.3-0.3-0.6-0.7-1-1.1c-0.2-0.2-0.4-0.4-0.7-0.5
		c-0.3-0.1-0.6,0.1-0.6,0.3s0.3,0.5,0.5,0.7s0.5,0.3,0.8,0.5c0.4,0.2,0.9,0.5,1.4,0.6C623,420.2,623.5,420.3,623.5,420.4z"/>
	<path class="st4" d="M622.9,420.2c0-0.1,0-0.2,0-0.3c0-0.2,0-0.5,0.1-0.9c0.1-0.5,0.2-0.9,0.3-1.4c0.1-0.3,0.3-0.5,0.5-0.7
		c0.2-0.3,0.6-0.4,0.9-0.3c0.3,0.2,0.4,0.6,0.3,0.9c0,0.3-0.1,0.6-0.3,0.8c-0.2,0.4-0.5,0.8-0.8,1.2c-0.2,0.2-0.5,0.4-0.7,0.6
		C623.1,420.1,623,420.2,622.9,420.2c0,0,0.4-0.3,0.9-0.9c0.3-0.3,0.6-0.7,0.7-1.1c0.1-0.2,0.2-0.5,0.2-0.8c0-0.3,0-0.6-0.2-0.7
		s-0.5,0-0.6,0.2c-0.2,0.2-0.3,0.4-0.4,0.7c-0.2,0.4-0.3,0.9-0.4,1.3C623.1,419.4,623,419.8,622.9,420.2z"/>
	<path class="st15" d="M614.1,421.4l-0.8-3.3c0,0,2.8,0.5,3.5,2.6c0.4,1.1,0.6,2.3,0.5,3.5l6,6.5c0,0,1.5-3,4.2-2.2
		c0,0,2.1,4.7,2.1,5.9s-1.4,1-1.9,0.8c-2-1.1-3.8-2.6-5.4-4.2C619.2,427.6,615.7,423.4,614.1,421.4z"/>
	<path class="st8" d="M556.4,418v-9.2l17.2-0.2l0.2,13.5l-1.1,0.1c-4.8,0.3-24.2,1.3-27.4,0.4C541.8,421.5,556.4,418,556.4,418z"/>
	<g class="st12">
		<path d="M567.6,422c0.2-1.5,1-2.8,2.2-3.7c1.1-0.9,2.6-1.4,4-1.3l0.1,4.8L567.6,422z"/>
	</g>
	<path class="st15" d="M549.3,419.9c0,0-5.1,1.5-4.5,2.4s20.3,0.6,29-0.3v-0.4l-22.9,0.5C550.9,422.1,550.3,420,549.3,419.9z"/>
	<path class="st4" d="M574.1,421.6h-0.3l-0.8,0.1l-3.1,0.2c-2.7,0.1-6.3,0.3-10.3,0.3s-7.7,0-10.3,0l-3.1-0.1h-0.8h-0.3
		c0.1,0,0.2,0,0.3,0h0.9h3.1c2.6,0,6.3,0,10.3,0s7.7-0.2,10.3-0.3l3.1-0.1h0.8L574.1,421.6z"/>
	<path class="st4" d="M550.9,422.4c-0.1-0.5-0.3-1-0.6-1.5c-0.3-0.4-0.7-0.8-1.1-1.2c0.5,0.2,1,0.6,1.3,1.1
		C550.8,421.3,550.9,421.8,550.9,422.4z"/>
	<path class="st4" d="M555.9,419.8c0,0-0.3-0.3-0.5-0.6s-0.4-0.7-0.4-0.8s0.3,0.3,0.5,0.6S556,419.7,555.9,419.8z"/>
	<path class="st4" d="M557.3,419c0,0-0.3-0.1-0.6-0.4s-0.5-0.5-0.5-0.6s0.3,0.1,0.6,0.4S557.3,419,557.3,419z"/>
	<path class="st4" d="M558.2,417.4c-0.3,0.1-0.6,0.1-0.9,0.1c-0.3,0-0.6,0-0.9-0.1c0.3-0.1,0.6-0.2,0.9-0.1
		C557.6,417.2,557.9,417.3,558.2,417.4z"/>
	<path class="st4" d="M558.5,416.2c-0.3,0.2-0.6,0.3-1,0.3c-0.3,0.1-0.7,0-1-0.1c0.3-0.1,0.7-0.1,1-0.1
		C557.8,416.2,558.1,416.2,558.5,416.2z"/>
	<path class="st4" d="M555.3,418.3c-0.4,0.1-0.7,0.1-1.1,0c-0.4,0-0.8-0.1-1.2-0.3c-0.2-0.1-0.5-0.2-0.7-0.3
		c-0.1-0.1-0.2-0.2-0.3-0.3c0-0.2,0-0.3,0.2-0.5c0.9-0.5,1.9-0.2,2.5,0.6c0.2,0.2,0.3,0.5,0.4,0.7c0,0.1,0,0.2,0,0.3
		c-0.1-0.3-0.3-0.7-0.5-0.9c-0.3-0.3-0.6-0.5-1-0.6c-0.4-0.1-0.9-0.1-1.3,0.1c-0.2,0.1-0.1,0.3,0.1,0.5c0.2,0.1,0.4,0.2,0.6,0.3
		c0.4,0.1,0.8,0.2,1.1,0.3C554.9,418.2,555.3,418.2,555.3,418.3z"/>
	<path class="st4" d="M555,418.3c-0.1-0.2-0.2-0.5-0.1-0.8c0-0.3,0.1-0.6,0.3-0.8c0.2-0.3,0.5-0.5,0.9-0.6c0.2,0,0.4,0.3,0.3,0.5
		c0,0.2-0.1,0.3-0.2,0.5c-0.1,0.2-0.3,0.5-0.5,0.7C555.6,418,555.3,418.2,555,418.3c0.1,0,0.3-0.2,0.6-0.6c0.2-0.2,0.3-0.4,0.5-0.7
		c0.2-0.2,0.3-0.7,0-0.7s-0.6,0.3-0.7,0.5c-0.2,0.2-0.3,0.5-0.3,0.7C555,417.8,555,418.1,555,418.3z"/>
	<path class="st4" d="M573.7,416.9c-0.4,0-0.8,0-1.3,0.1c-2.1,0.3-3.8,1.7-4.5,3.6c-0.3,0.7-0.3,1.2-0.3,1.2c0-0.1,0-0.2,0-0.3
		c0-0.3,0.1-0.6,0.2-0.9c0.6-2.1,2.4-3.6,4.6-3.8c0.3,0,0.6,0,1,0C573.5,416.9,573.7,416.9,573.7,416.9z"/>
	<path class="st4" d="M571.8,409.8c0.2,2.4,0.3,4.7,0.2,7.1C571.8,414.5,571.7,412.1,571.8,409.8z"/>
	<path class="st4" d="M565.4,420.3c-0.8,0.2-1.7,0.3-2.5,0.3c-0.8,0.1-1.7,0-2.5-0.2c0-0.1,1.1,0,2.5,0S565.4,420.3,565.4,420.3z"/>
	<path class="st4" d="M568.8,420.3c0,0-0.1,0.2-0.2,0.5s-0.2,0.5-0.2,0.5s-0.1-0.3,0-0.6S568.7,420.2,568.8,420.3z"/>
	<path class="st4" d="M570,418.7c0,0-0.1,0.2-0.3,0.4s-0.3,0.3-0.4,0.3s0.1-0.2,0.2-0.4S570,418.6,570,418.7z"/>
	<path class="st4" d="M571.8,417.9c0,0.1-0.2,0.1-0.5,0.1s-0.4,0.2-0.5,0.2s0.1-0.3,0.4-0.4S571.8,417.9,571.8,417.9z"/>
	<path class="st4" d="M573.1,417.6c0,0-0.1,0.1-0.2,0.2s-0.3,0.1-0.3,0s0.1-0.1,0.2-0.2S573.1,417.5,573.1,417.6z"/>
	<polyline class="st4" points="544.7,235.4 552.8,414 579.6,414.6 575.1,265 605.3,415.7 630.8,415.7 596.7,235.4 	"/>
	<polygon class="st5" points="604,413.3 604.6,415.9 630.8,416.3 630.4,412.1 	"/>
	<path class="st5" d="M624.4,413.1c0.1,0,0.3,0.3,0.4,0.7s0,0.8-0.1,0.8s-0.3-0.3-0.4-0.7S624.2,413.2,624.4,413.1z"/>
	<path class="st5" d="M623.4,407.3c0.2,0,0.4,0.6,0.5,1.4s0.1,1.5,0,1.5s-0.4-0.6-0.5-1.4S623.2,407.3,623.4,407.3z"/>
	<path class="st5" d="M622.4,401.4c0.1,0,0.4,0.6,0.5,1.4s0.1,1.5,0,1.5s-0.4-0.6-0.5-1.4S622.3,401.5,622.4,401.4z"/>
	<path class="st5" d="M621.4,395.6c0.1,0,0.4,0.6,0.5,1.4s0.1,1.5,0,1.5s-0.4-0.6-0.5-1.4S621.3,395.6,621.4,395.6z"/>
	<path class="st5" d="M620.4,389.7c0.1,0,0.4,0.6,0.5,1.4s0.1,1.5,0,1.5s-0.4-0.6-0.5-1.4S620.3,389.8,620.4,389.7z"/>
	<path class="st5" d="M619.5,383.9c0.1,0,0.4,0.6,0.5,1.4s0.1,1.5,0,1.5s-0.4-0.6-0.5-1.4S619.3,383.9,619.5,383.9z"/>
	<path class="st5" d="M618.5,378c0.1,0,0.4,0.6,0.5,1.4s0.1,1.5,0,1.5s-0.4-0.6-0.5-1.4S618.3,378.1,618.5,378z"/>
	<path class="st5" d="M617.5,372.2c0.1,0,0.4,0.6,0.5,1.4s0.1,1.5,0,1.5s-0.4-0.6-0.5-1.4S617.3,372.2,617.5,372.2z"/>
	<path class="st5" d="M616.5,366.3c0.1,0,0.4,0.6,0.5,1.4s0.1,1.5,0,1.5s-0.4-0.6-0.5-1.4S616.3,366.4,616.5,366.3z"/>
	<path class="st5" d="M615.5,360.5c0.2,0,0.4,0.6,0.5,1.4s0.1,1.5,0,1.5s-0.4-0.6-0.5-1.4S615.3,360.5,615.5,360.5z"/>
	<path class="st5" d="M614.5,354.6c0.1,0,0.4,0.6,0.5,1.4s0.1,1.5,0,1.5s-0.4-0.6-0.5-1.4S614.3,354.7,614.5,354.6z"/>
	<path class="st5" d="M613.5,348.8c0.1,0,0.4,0.6,0.5,1.4s0.1,1.5,0,1.5s-0.4-0.6-0.5-1.4S613.3,348.8,613.5,348.8z"/>
	<path class="st5" d="M612.4,343c0.1,0,0.4,0.6,0.5,1.4s0.1,1.5,0,1.5s-0.4-0.6-0.5-1.4S612.3,343,612.4,343z"/>
	<path class="st5" d="M611.4,337.1c0.2,0,0.4,0.6,0.5,1.4s0.1,1.5,0,1.5s-0.4-0.6-0.5-1.4S611.3,337.1,611.4,337.1z"/>
	<path class="st5" d="M610.4,331.3c0.1,0,0.4,0.6,0.5,1.4s0.1,1.5,0,1.5s-0.4-0.6-0.5-1.4S610.3,331.3,610.4,331.3z"/>
	<path class="st5" d="M609.3,325.4c0.1,0,0.4,0.6,0.5,1.4s0.1,1.5,0,1.5s-0.4-0.6-0.5-1.4S609.2,325.4,609.3,325.4z"/>
	<path class="st5" d="M608.3,319.6c0.1,0,0.4,0.6,0.5,1.4s0.2,1.5,0,1.5s-0.4-0.6-0.5-1.4S608.2,319.6,608.3,319.6z"/>
	<path class="st5" d="M607.3,313.7c0.1,0,0.4,0.6,0.5,1.4s0.2,1.5,0,1.5s-0.4-0.6-0.5-1.4S607.1,313.8,607.3,313.7z"/>
	<path class="st5" d="M606.2,307.9c0.1,0,0.4,0.6,0.5,1.4s0.2,1.5,0,1.5s-0.4-0.6-0.5-1.4S606.1,307.9,606.2,307.9z"/>
	<path class="st5" d="M605.1,302.1c0.1,0,0.4,0.6,0.5,1.4s0.2,1.5,0,1.5s-0.4-0.6-0.5-1.4S605,302.1,605.1,302.1z"/>
	<path class="st5" d="M604.1,296.2c0.2,0,0.4,0.6,0.5,1.4s0.2,1.5,0,1.5s-0.4-0.6-0.5-1.4S603.9,296.3,604.1,296.2z"/>
	<path class="st5" d="M603,290.4c0.1,0,0.4,0.6,0.5,1.4s0.2,1.5,0,1.5s-0.4-0.6-0.5-1.4S602.8,290.4,603,290.4z"/>
	<path class="st5" d="M601.9,284.6c0.2,0,0.4,0.6,0.5,1.4s0.2,1.5,0,1.5s-0.4-0.6-0.5-1.4S601.7,284.6,601.9,284.6z"/>
	<path class="st5" d="M600.8,278.7c0.1,0,0.4,0.6,0.5,1.4s0.2,1.5,0,1.5s-0.4-0.6-0.5-1.4S600.6,278.8,600.8,278.7z"/>
	<path class="st5" d="M599.7,272.9c0.1,0,0.4,0.6,0.5,1.4s0.2,1.5,0,1.5s-0.4-0.6-0.5-1.4S599.5,272.9,599.7,272.9z"/>
	<path class="st5" d="M598.5,267.1c0.1,0,0.4,0.6,0.5,1.4s0.2,1.5,0,1.5s-0.4-0.6-0.5-1.4S598.4,267.1,598.5,267.1z"/>
	<path class="st5" d="M597.4,261.3c0.1,0,0.4,0.6,0.5,1.4s0.2,1.5,0,1.5s-0.4-0.6-0.5-1.4S597.2,261.3,597.4,261.3z"/>
	<path class="st5" d="M596.2,255.4c0.1,0,0.4,0.6,0.5,1.4s0.2,1.5,0,1.5s-0.4-0.6-0.5-1.4S596.1,255.5,596.2,255.4z"/>
	<path class="st5" d="M595,249.6c0.1,0,0.4,0.6,0.5,1.4s0.2,1.5,0,1.5s-0.4-0.6-0.5-1.4S594.9,249.6,595,249.6z"/>
	<path class="st5" d="M593.9,243.8c0.1,0,0.4,0.6,0.5,1.4s0.2,1.5,0,1.5s-0.4-0.6-0.6-1.4S593.7,243.8,593.9,243.8z"/>
	<path class="st5" d="M593,239.4c0.2,0,0.3,0.3,0.4,0.7s0,0.8-0.1,0.8s-0.3-0.3-0.4-0.7S592.8,239.4,593,239.4z"/>
	<path class="st5" d="M575,413.1c0.1,0,0.3,0.3,0.3,0.7s-0.1,0.8-0.2,0.8s-0.3-0.3-0.3-0.7S574.8,413.1,575,413.1z"/>
	<path class="st5" d="M574.7,407.2c0.2,0,0.3,0.7,0.3,1.5s-0.1,1.5-0.2,1.5s-0.3-0.7-0.3-1.5S574.6,407.2,574.7,407.2z"/>
	<path class="st5" d="M574.5,401.2c0.1,0,0.3,0.7,0.3,1.5s-0.1,1.5-0.2,1.5s-0.3-0.7-0.3-1.5S574.4,401.2,574.5,401.2z"/>
	<path class="st5" d="M574.4,395.3c0.1,0,0.3,0.7,0.3,1.5s-0.1,1.5-0.2,1.5s-0.3-0.7-0.3-1.5S574.2,395.3,574.4,395.3z"/>
	<path class="st5" d="M574.2,389.3c0.1,0,0.3,0.7,0.3,1.5s-0.1,1.5-0.2,1.5s-0.3-0.7-0.3-1.5S574.1,389.3,574.2,389.3z"/>
	<path class="st5" d="M574.1,383.3c0.2,0,0.3,0.7,0.3,1.5s-0.1,1.5-0.2,1.5s-0.3-0.7-0.3-1.5S573.9,383.3,574.1,383.3z"/>
	<path class="st5" d="M573.9,377.4c0.2,0,0.3,0.7,0.3,1.5s-0.1,1.5-0.2,1.5s-0.3-0.7-0.3-1.5S573.7,377.4,573.9,377.4z"/>
	<path class="st5" d="M573.6,371.4c0.2,0,0.3,0.7,0.3,1.5s-0.1,1.5-0.2,1.5s-0.3-0.7-0.3-1.5S573.5,371.4,573.6,371.4z"/>
	<path class="st5" d="M573.4,365.5c0.2,0,0.3,0.6,0.3,1.5s-0.1,1.5-0.2,1.5s-0.3-0.6-0.3-1.5S573.3,365.5,573.4,365.5z"/>
	<path class="st5" d="M573.2,359.5c0.2,0,0.3,0.7,0.3,1.5s-0.1,1.5-0.2,1.5s-0.3-0.7-0.3-1.5S573,359.5,573.2,359.5z"/>
	<path class="st5" d="M573,353.6c0.2,0,0.3,0.6,0.3,1.5s-0.1,1.5-0.2,1.5s-0.3-0.7-0.3-1.5S572.9,353.6,573,353.6z"/>
	<path class="st5" d="M572.8,347.6c0.1,0,0.3,0.7,0.3,1.5s-0.1,1.5-0.2,1.5s-0.3-0.7-0.3-1.5S572.7,347.6,572.8,347.6z"/>
	<path class="st5" d="M572.7,341.7c0.1,0,0.3,0.7,0.3,1.5s-0.1,1.5-0.2,1.5s-0.3-0.7-0.3-1.5S572.6,341.7,572.7,341.7z"/>
	<path class="st5" d="M572.6,335.7c0.1,0,0.3,0.7,0.3,1.5s-0.1,1.5-0.2,1.5s-0.3-0.7-0.3-1.5S572.5,335.7,572.6,335.7z"/>
	<path class="st5" d="M572.5,329.7c0.1,0,0.3,0.7,0.3,1.5s-0.1,1.5-0.2,1.5s-0.3-0.7-0.3-1.5S572.4,329.8,572.5,329.7z"/>
	<path class="st5" d="M572.5,323.8c0.2,0,0.3,0.7,0.3,1.5s-0.1,1.5-0.3,1.5s-0.3-0.7-0.3-1.5S572.4,323.8,572.5,323.8z"/>
	<path class="st5" d="M572.5,317.8c0.1,0,0.3,0.7,0.3,1.5s-0.1,1.5-0.3,1.5s-0.3-0.7-0.3-1.5S572.3,317.8,572.5,317.8z"/>
	<path class="st5" d="M572.5,311.9c0.1,0,0.3,0.7,0.3,1.5s-0.1,1.5-0.3,1.5s-0.3-0.7-0.3-1.5S572.4,311.9,572.5,311.9z"/>
	<path class="st5" d="M572.5,305.9c0.2,0,0.3,0.7,0.3,1.5s-0.1,1.5-0.3,1.5s-0.3-0.7-0.3-1.5S572.4,305.9,572.5,305.9z"/>
	<path class="st5" d="M572.6,300c0.2,0,0.3,0.7,0.2,1.5s-0.1,1.5-0.3,1.5s-0.3-0.7-0.2-1.5S572.5,300,572.6,300z"/>
	<path class="st5" d="M572.7,294c0.1,0,0.3,0.7,0.2,1.5s-0.1,1.5-0.3,1.5s-0.3-0.7-0.2-1.5S572.6,294,572.7,294z"/>
	<path class="st5" d="M572.9,288c0.2,0,0.3,0.7,0.2,1.5s-0.2,1.5-0.3,1.5s-0.2-0.7-0.2-1.5S572.7,288,572.9,288z"/>
	<path class="st5" d="M573.1,282.1c0.2,0,0.2,0.7,0.2,1.5s-0.2,1.5-0.3,1.5s-0.2-0.7-0.2-1.5S572.9,282.1,573.1,282.1z"/>
	<path class="st5" d="M573.4,276.1c0.1,0,0.2,0.7,0.2,1.5s-0.2,1.5-0.4,1.5s-0.2-0.7-0.2-1.5S573.3,276.1,573.4,276.1z"/>
	<path class="st5" d="M574,270.2c0.2,0,0.2,0.7,0.1,1.5s-0.3,1.5-0.4,1.5s-0.2-0.7-0.1-1.5S573.8,270.2,574,270.2z"/>
	<path class="st5" d="M574.5,265.8c0.1,0,0.2,0.4,0.2,0.8s-0.2,0.7-0.4,0.7s-0.2-0.4-0.2-0.8S574.4,265.8,574.5,265.8z"/>
	<polygon class="st5" points="552,414.9 580.4,415.3 580.2,410.6 552,410.8 	"/>
	<path class="st5" d="M570.7,237.6c0.1,0.4,0.2,0.7,0.2,1.1c0.1,0.7,0.2,1.7,0.3,3c0.2,2.5,0.5,6,0.7,9.9c0.1,1.9,0.2,3.8,0.3,5.5
		c0,1.5,0.2,2.9,0.5,4.3c0.3,0.9,0.9,1.7,1.8,2.1c0.3,0.1,0.7,0.2,1,0.3c-0.1,0-0.2,0-0.3,0c-0.3,0-0.6,0-0.8-0.1
		c-1-0.4-1.7-1.2-2.1-2.2c-0.4-1.4-0.7-2.9-0.7-4.4c-0.1-1.7-0.2-3.5-0.3-5.4c-0.2-3.9-0.4-7.4-0.5-9.9c0-1.3-0.1-2.3-0.1-3
		C570.6,238.3,570.6,238,570.7,237.6z"/>
	<path class="st5" d="M573.4,240c0,0.1-0.2,0.2-0.3,0.7c0,0.2,0,0.5,0.2,0.6c0.2,0.2,0.5,0.2,0.7,0.1c0.2-0.1,0.4-0.3,0.4-0.6
		c0-0.2-0.1-0.4-0.3-0.6c-0.3-0.3-0.6-0.2-0.6-0.3s0.3-0.3,0.9,0c0.3,0.2,0.5,0.5,0.5,0.9c0,0.6-0.5,1.2-1.2,1.2
		c-0.3,0-0.6-0.1-0.8-0.4c-0.2-0.3-0.3-0.7-0.2-1C573,240,573.4,239.9,573.4,240z"/>
	<path class="st5" d="M598.6,244.2c-0.7,0.5-1.4,0.7-2.2,0.9c-3.9,0.8-8-1-10-4.5c-0.5-0.7-0.7-1.4-0.8-2.2c0.1,0,0.4,0.8,1.2,2
		c2.1,3.2,5.9,4.9,9.6,4.3C597.8,244.5,598.6,244.1,598.6,244.2z"/>
	<path class="st5" d="M554,237.6c0.1,0.6,0.1,1.3-0.1,1.9c-0.7,3.2-3.4,5.6-6.7,5.9c-0.6,0.1-1.3,0.1-1.9-0.2c0-0.1,0.7,0,1.9-0.2
		c3-0.5,5.5-2.7,6.4-5.6C553.9,238.4,554,237.6,554,237.6z"/>
	<path class="st13" d="M537.8,160.6l-25,6.5l4-29.6l0,0l0.5-1.4l9.2-1.4l-1.1-6.8c-0.5-3-3.4-5-6.4-4.4c-0.1,0-0.3,0.1-0.4,0.1
		l-3,0.8c-2.2,0.6-4,2-5,4c-1.7,3.4-3.4,7.1-3.3,6.8l0,0l-13.4,36.4c-2.4,4.8-1.8,10.5,1.5,14.6c4.3,5.6,14.8,1.7,19.7,0.8l32-7.1
		L537.8,160.6z"/>
	<path class="st13" d="M630,218.5c5.5-6.3,5.5-15.8-0.1-22.1l-26.7-30.3l-7.2,20c0.5,0.3,20.8,22.1,20.8,22.1l-17.5,21.8
		c-2.7,3.4-3.5,7.9-2.1,11.9l3,12.2l14.5-6.5l-1-1.5h-9.6l-0.6-2.3l0,0L630,218.5z"/>
	<path class="st14" d="M620.6,204.4c-0.5,0.9-1.2,1.7-2,2.4c-0.7,0.8-1.4,1.5-2.3,2.1c0.4-0.9,1.1-1.8,1.9-2.4
		C618.9,205.6,619.7,204.9,620.6,204.4z"/>
	<path class="st8" d="M539,241.7l57.7-3.9l-0.7-28.4v-20.6l6.4,9.5l17.2-17.9l-19.2-18.4l0,0c-3.2-3.4-7.2-6-11.7-7.6
		c-2.3-0.8-4.8-1.3-7.3-1.4l0,0c-5.7,1.8-11.9,1.8-17.7,0c-5.4,0.5-10.8,1.5-16,3l-22.5,6l7.4,27.5l13.5-4.5
		C546.3,185,538.8,236,539,241.7z"/>
	<polygon class="st8" points="602.5,198.3 606.4,197.1 605,195.6 	"/>
	<path class="st4" d="M596.6,189.8c-0.9-0.9-1.7-2-2.3-3.1c-0.8-1-1.4-2.2-1.9-3.4C594.1,185.3,595.5,187.5,596.6,189.8L596.6,189.8
		z"/>
	<polygon class="st8" points="532.8,189.8 528.3,183.9 531.1,183.3 	"/>
	<g class="st16">
		<path class="st6" d="M604.8,166.5c0,0-0.1,0.1-0.2,0.2l-0.7,0.6c-1,0.7-2,1.3-3.1,1.8c-1.8,0.7-3.6,1.1-5.5,1.2
			c-2.5,0.1-5-0.4-7.3-1.6c-1.4-0.6-2.5-1.6-3.4-2.8c-0.5-0.7-0.7-1.5-0.6-2.3c0.2-0.9,0.9-1.6,1.7-1.8c0.9-0.2,1.8,0,2.5,0.5
			c0.7,0.5,1.3,1.3,1.6,2.1c0.7,1.7,0.6,3.7-0.1,5.4c-0.7,1.8-2,3.3-3.7,4.3c-1.7,1-3.6,1.7-5.6,1.9c-2.1,0.3-4.1,0.1-6.1-0.5
			c-1-0.4-2-0.9-2.8-1.6c-0.8-0.7-1.5-1.6-2-2.5c-1.1-1.9-1.8-3.8-3.1-5.4c-1.3-1.5-3.1-2.5-5.1-2.7c-1.9-0.2-3.8,0.1-5.5,1
			c-1.7,0.8-3.1,2-4.3,3.4c-1.2,1.3-1.7,3-1.4,4.8c0.2,0.8,0.6,1.5,1.3,2c0.6,0.4,1.4,0.6,2.2,0.5c0.7-0.2,1.3-0.7,1.7-1.3
			c0.3-0.7,0.4-1.4,0.4-2.2c-0.1-1.4-0.4-2.8-0.9-4.2c-2.1-5.3-7-8.9-12.7-9.2c-0.8-0.1-1.2,0-1.2-0.1c0.4-0.1,0.8-0.1,1.2-0.1
			c1.2,0,2.4,0.2,3.5,0.5c1.8,0.5,3.5,1.4,5,2.6c2,1.6,3.5,3.6,4.4,6c0.6,1.4,0.9,2.8,1,4.3c0,0.8-0.1,1.6-0.4,2.4
			c-0.4,0.8-1.1,1.4-2,1.6c-0.9,0.2-1.8,0-2.5-0.5c-0.8-0.5-1.3-1.3-1.5-2.2c-0.2-0.9-0.2-1.9,0.1-2.7c0.3-0.9,0.8-1.7,1.4-2.4
			c1.2-1.5,2.8-2.7,4.5-3.5c1.8-0.9,3.8-1.3,5.8-1.1c2.1,0.2,4.1,1.2,5.4,2.9c1.3,1.6,2.1,3.7,3.2,5.5c0.5,0.9,1.1,1.7,1.9,2.4
			c0.8,0.7,1.6,1.2,2.6,1.5c1.9,0.6,3.9,0.8,5.9,0.5c1.9-0.2,3.8-0.9,5.4-1.8c1.6-0.9,2.8-2.4,3.5-4.1c0.7-1.6,0.7-3.4,0.1-5
			c-0.3-0.8-0.8-1.4-1.4-1.9c-0.6-0.5-1.4-0.7-2.2-0.5c-0.7,0.2-1.3,0.7-1.4,1.4c-0.1,0.7,0.1,1.4,0.5,2c0.8,1.2,1.9,2.1,3.2,2.7
			c2.2,1.1,4.7,1.7,7.1,1.6c1.9,0,3.7-0.4,5.5-1.1C602.1,168.3,603.5,167.5,604.8,166.5z"/>
	</g>
	<g class="st16">
		<path class="st6" d="M595.6,194.8h-0.3l-0.8-0.1c-0.7,0-1.7-0.2-3.1-0.2c-1.6-0.1-3.2,0-4.8,0.3c-2.1,0.4-4.1,1.3-5.7,2.7
			c-0.9,0.8-1.6,1.9-2,3c-0.5,1.2-0.3,2.6,0.4,3.7c0.4,0.5,1,0.9,1.6,1.1c0.7,0.2,1.4,0.1,1.9-0.3c0.6-0.4,1.1-1,1.3-1.6
			c0.3-0.7,0.3-1.4,0.2-2.2c-0.3-1.6-1-3-2.1-4.2c-1.1-1.3-2.4-2.3-3.8-3.1c-3.1-1.7-6.7-2.1-10.1-1.3c-3.4,0.9-6.5,2.7-8.8,5.4
			c-1.2,1.2-2.1,2.6-2.5,4.2c-0.2,0.7-0.1,1.5,0.2,2.2c0.4,0.7,0.9,1.1,1.7,1.4c1.4,0.5,3,0.1,4-1.1c0.9-1.1,1.2-2.5,1-3.9
			c-0.2-1.3-0.8-2.5-1.8-3.5c-0.9-0.9-1.9-1.6-3-2.1c-3.3-1.8-7.2-2.3-10.9-1.3c-1.3,0.4-2.5,1.2-3.5,2.1c0.2-0.3,0.5-0.5,0.8-0.8
			c0.8-0.7,1.7-1.2,2.7-1.5c3.7-1.1,7.7-0.7,11.1,1.1c1.2,0.6,2.2,1.3,3.1,2.2c1,1,1.7,2.3,1.9,3.7c0.3,1.5-0.1,3.1-1,4.3
			c-1.1,1.3-2.9,1.7-4.5,1.2c-0.9-0.2-1.6-0.8-2-1.6c-0.4-0.8-0.5-1.7-0.3-2.6c0.5-1.7,1.4-3.2,2.6-4.4c2.4-2.7,5.6-4.6,9.1-5.5
			c3.5-0.9,7.3-0.4,10.5,1.3c1.5,0.8,2.9,1.9,4,3.2c1.1,1.3,1.8,2.8,2.2,4.4c0.1,0.8,0.1,1.7-0.2,2.4c-0.3,0.8-0.8,1.4-1.5,1.9
			c-0.7,0.4-1.5,0.6-2.3,0.3c-0.7-0.2-1.4-0.7-1.8-1.3c-0.8-1.2-1-2.7-0.5-4.1c0.4-1.2,1.2-2.3,2.2-3.1c1.7-1.4,3.7-2.4,5.9-2.7
			c1.6-0.3,3.3-0.3,4.9-0.2c1.3,0.1,2.4,0.2,3.1,0.3l0.8,0.1C595.4,194.8,595.5,194.8,595.6,194.8z"/>
	</g>
	<g class="st16">
		<path class="st6" d="M596.7,227.4l-0.3,0.1c-0.2,0-0.4,0.1-0.8,0.1c-1,0.1-2,0-3-0.1c-1.6-0.2-3.1-0.7-4.5-1.5
			c-1.9-1-3.5-2.4-4.7-4.1c-0.4-0.5-0.7-1-0.9-1.6c-0.3-0.6-0.3-1.4,0-2c0.2-0.3,0.4-0.6,0.7-0.8c0.3-0.2,0.7-0.2,1.1-0.1
			c0.7,0.3,1.2,0.8,1.5,1.5c0.6,1.4,0.6,2.8,0.3,4.3c-0.4,1.5-1.1,2.8-2.1,4c-2.2,2.5-5.1,4.1-8.4,4.6c-3.5,0.6-7,0-10.1-1.6
			c-0.4-0.2-0.8-0.5-1.1-0.7s-0.7-0.5-1.1-0.8c-0.7-0.6-1.3-1.2-1.8-2c-0.5-0.8-0.6-1.7-0.5-2.6c0.2-1,0.9-1.7,1.8-2
			c0.9-0.2,1.8-0.1,2.6,0.4c0.7,0.4,1.3,1.1,1.7,1.9c0.7,1.5,0.8,3.2,0.1,4.7c-0.7,1.4-1.8,2.5-3.2,3.2c-1.3,0.6-2.7,1-4.2,1
			c-2.5-0.1-5.1-0.6-7.4-1.6c-3.4-1.4-6.5-3.4-9.1-6c-1-0.9-1.8-1.9-2.6-3c0.1,0.1,0.1,0.1,0.2,0.2l0.5,0.6c0.5,0.5,1.1,1.3,2,2.1
			c2.6,2.5,5.7,4.5,9.1,5.8c2.3,1,4.8,1.5,7.2,1.5c1.4,0,2.7-0.3,4-0.9c1.3-0.6,2.4-1.7,3-3c0.6-1.4,0.6-3-0.1-4.3
			c-0.3-0.7-0.9-1.3-1.5-1.6c-0.7-0.4-1.4-0.5-2.2-0.3c-0.7,0.2-1.3,0.8-1.4,1.6c-0.2,0.8,0,1.6,0.4,2.3c0.4,0.7,1,1.3,1.7,1.9
			c0.3,0.3,0.7,0.5,1,0.8s0.7,0.5,1.1,0.7c3,1.6,6.4,2.2,9.8,1.6c3.1-0.5,6-2,8.1-4.4c0.9-1.1,1.6-2.4,2-3.8c0.4-1.3,0.3-2.7-0.2-4
			c-0.2-0.5-0.7-0.9-1.2-1.2c-0.5-0.2-1.1,0.1-1.3,0.6c-0.2,0.5-0.2,1.1,0,1.6c0.2,0.5,0.5,1,0.9,1.5c1.2,1.7,2.8,3,4.6,4
			c1.4,0.7,2.8,1.3,4.4,1.5c1,0.2,1.9,0.2,2.9,0.2l0.8-0.1L596.7,227.4z"/>
	</g>
	<polygon class="st15" points="532.8,189.8 528.3,183.9 531.1,183.3 	"/>
	<polygon class="st17" points="602.5,198.3 606.4,197.1 605,195.6 	"/>
</g>
</svg>
