<?xml version="1.0" encoding="utf-8"?>
<!-- Generator: Adobe Illustrator 24.2.1, SVG Export Plug-In . SVG Version: 6.00 Build 0)  -->
<svg version="1.1" id="Layer_1" xmlns="http://www.w3.org/2000/svg" xmlns:xlink="http://www.w3.org/1999/xlink" x="0px" y="0px"
	 viewBox="0 0 640 677" style="enable-background:new 0 0 640 677;" xml:space="preserve">
<style type="text/css">
	.st0{opacity:0;}
	.st1{fill:#FFFFFF;fill-opacity:0;}
	.st2{fill:#DCEBF4;}
	.st3{fill:#062877;}
	.st4{fill:#4261BA;}
	.st5{fill:#FFFFFF;}
	.st6{fill:#E3212A;}
	.st7{fill:#E61E38;}
	.st8{fill:#069F56;}
	.st9{fill:#A7D066;}
	.st10{display:none;fill:#062877;}
	.st11{display:none;fill:#41156A;}
	.st12{display:none;fill:#FFFFFF;stroke:#000000;stroke-width:0.25;stroke-miterlimit:10;}
	.st13{display:none;fill:#52A7FF;}
	.st14{display:none;fill:#330059;}
	.st15{display:none;fill:#461E7B;}
	.st16{display:none;fill:#202248;}
	.st17{display:none;fill:#253961;}
	.st18{display:none;fill:#241F1F;}
	.st19{display:none;fill:#4E93F7;}
	.st20{display:none;fill:none;stroke:#000000;stroke-width:0.25;stroke-miterlimit:10;}
	.st21{display:none;}
	.st22{display:none;fill:none;stroke:#000000;stroke-width:0.25;stroke-linecap:round;stroke-miterlimit:10;}
	.st23{display:none;fill:#FFFFFF;stroke:#000000;stroke-width:0.5;stroke-miterlimit:10;}
	.st24{display:none;fill:#FFFFFF;stroke:#231F20;stroke-width:0.25;stroke-miterlimit:10;}
	.st25{display:none;fill:none;stroke:#000000;stroke-width:0.5;stroke-miterlimit:10;}
	.st26{display:none;fill:#FFFFFF;}
	.st27{fill:#461E7B;}
	.st28{fill:#374A4F;}
	.st29{fill:#FD5E5A;}
	.st30{opacity:0.5;fill:#727272;enable-background:new    ;}
	.st31{fill:#41156A;}
	.st32{fill:#260101;}
	.st33{fill:#FF8C00;}
	.st34{fill:#FC7575;}
	.st35{fill:#5C2C55;}
	.st36{fill:#52A7FF;}
	.st37{fill:#253961;}
	.st38{fill:#202248;}
	.st39{fill:#FF8C00;stroke:#000000;stroke-width:0.25;stroke-miterlimit:10;}
</style>
<g id="Layer_2_1_">
	<g id="Layer_1-2">
		<g id="Layer_6" class="st0">
			<rect class="st1" width="640" height="677"/>
		</g>
		<circle class="st2" cx="315.5" cy="341.1" r="299.3"/>
		<rect x="219.4" y="233.4" class="st3" width="16.6" height="352.7"/>
		<rect x="348.1" y="233.4" class="st3" width="16.6" height="352.7"/>
		<path class="st4" d="M207.8,348.5h167.7c1,0,1.8,0.8,1.8,1.8v50.2c0,1-0.8,1.8-1.8,1.8H207.8c-1,0-1.8-0.8-1.8-1.8v-50.2
			C206,349.3,206.8,348.5,207.8,348.5z"/>
		<rect x="211.9" y="355.6" class="st5" width="56.3" height="24.5"/>
		<rect x="273.9" y="356.1" class="st5" width="97.9" height="23.6"/>
		<rect x="332.3" y="360.6" class="st6" width="7.3" height="7.3"/>
		<rect x="343" y="360.6" class="st7" width="7.3" height="7.3"/>
		<rect x="353.6" y="360.6" class="st8" width="7.3" height="7.3"/>
		<path class="st4" d="M207.8,407.1h167.7c1,0,1.8,0.8,1.8,1.8v50.2c0,1-0.8,1.8-1.8,1.8H207.8c-1,0-1.8-0.8-1.8-1.8v-50.2
			C206,407.9,206.8,407.1,207.8,407.1z"/>
		<rect x="211.9" y="414.3" class="st5" width="56.3" height="24.5"/>
		<rect x="273.9" y="414.7" class="st5" width="97.9" height="23.6"/>
		<rect x="332.3" y="419.3" class="st6" width="7.3" height="7.3"/>
		<rect x="343" y="419.3" class="st7" width="7.3" height="7.3"/>
		<rect x="353.6" y="419.3" class="st8" width="7.3" height="7.3"/>
		<path class="st4" d="M207.8,465.8h167.7c1,0,1.8,0.8,1.8,1.8v50.2c0,1-0.8,1.8-1.8,1.8H207.8c-1,0-1.8-0.8-1.8-1.8v-50.2
			C206,466.6,206.8,465.8,207.8,465.8z"/>
		<rect x="211.9" y="473" class="st5" width="56.3" height="24.5"/>
		<rect x="273.9" y="473.4" class="st5" width="97.9" height="23.6"/>
		<rect x="332.3" y="477.9" class="st6" width="7.3" height="7.3"/>
		<rect x="343" y="477.9" class="st7" width="7.3" height="7.3"/>
		<rect x="353.6" y="477.9" class="st8" width="7.3" height="7.3"/>
		<path class="st4" d="M207.8,524.4h167.7c1,0,1.8,0.8,1.8,1.8v50.2c0,1-0.8,1.8-1.8,1.8H207.8c-1,0-1.8-0.8-1.8-1.8v-50.2
			C206,525.3,206.8,524.4,207.8,524.4z"/>
		<rect x="211.9" y="531.6" class="st5" width="56.3" height="24.5"/>
		<rect x="273.9" y="532" class="st5" width="97.9" height="23.6"/>
		<rect x="332.3" y="536.6" class="st6" width="7.3" height="7.3"/>
		<rect x="220.4" y="360.6" class="st9" width="7.3" height="7.3"/>
		<rect x="220.4" y="419.3" class="st9" width="7.3" height="7.3"/>
		<path class="st4" d="M207.5,230.4h167.7c1,0,1.8,0.8,1.8,1.8v50.2c0,1-0.8,1.8-1.8,1.8H207.5c-1,0-1.8-0.8-1.8-1.8v-50.2
			C205.7,231.2,206.5,230.4,207.5,230.4z"/>
		<rect x="211.9" y="237.6" class="st5" width="56.3" height="24.5"/>
		<rect x="273.9" y="238" class="st5" width="97.9" height="23.6"/>
		<rect x="332.3" y="242.6" class="st6" width="7.3" height="7.3"/>
		<rect x="343" y="242.6" class="st7" width="7.3" height="7.3"/>
		<rect x="353.6" y="242.6" class="st8" width="7.3" height="7.3"/>
		<path class="st4" d="M207.8,289.1h167.7c1,0,1.8,0.8,1.8,1.8v50.2c0,1-0.8,1.8-1.8,1.8H207.8c-1,0-1.8-0.8-1.8-1.8v-50.2
			C206,289.9,206.8,289.1,207.8,289.1z"/>
		<rect x="211.9" y="296.3" class="st5" width="56.3" height="24.5"/>
		<rect x="273.9" y="296.7" class="st5" width="97.9" height="23.6"/>
		<rect x="332.3" y="301.3" class="st6" width="7.3" height="7.3"/>
		<rect x="343" y="301.3" class="st7" width="7.3" height="7.3"/>
		<rect x="353.6" y="301.3" class="st8" width="7.3" height="7.3"/>
		<rect x="220.4" y="242.6" class="st9" width="7.3" height="7.3"/>
		<rect x="220.4" y="301.3" class="st9" width="7.3" height="7.3"/>
		<rect x="220.4" y="477.9" class="st9" width="7.3" height="7.3"/>
		<rect x="220.4" y="536.6" class="st9" width="7.3" height="7.3"/>
		<rect x="343" y="536.6" class="st7" width="7.3" height="7.3"/>
		<rect x="353.6" y="536.6" class="st8" width="7.3" height="7.3"/>
		<rect x="35.5" y="355.2" class="st3" width="16.6" height="230.9"/>
		<rect x="164.2" y="355.2" class="st3" width="16.6" height="230.9"/>
		<path class="st4" d="M24,465.8h167.7c1,0,1.8,0.8,1.8,1.8v50.2c0,1-0.8,1.8-1.8,1.8H24c-1,0-1.8-0.8-1.8-1.8v-50.2
			C22.1,466.6,23,465.8,24,465.8z"/>
		<rect x="28" y="473" class="st5" width="56.3" height="24.5"/>
		<rect x="90.1" y="473.4" class="st5" width="97.9" height="23.6"/>
		<rect x="148.5" y="477.9" class="st6" width="7.3" height="7.3"/>
		<rect x="159.1" y="477.9" class="st7" width="7.3" height="7.3"/>
		<rect x="169.8" y="477.9" class="st8" width="7.3" height="7.3"/>
		<path class="st4" d="M24,524.4h167.7c1,0,1.8,0.8,1.8,1.8v50.2c0,1-0.8,1.8-1.8,1.8H24c-1,0-1.8-0.8-1.8-1.8v-50.2
			C22.1,525.3,23,524.4,24,524.4z"/>
		<rect x="28" y="531.6" class="st5" width="56.3" height="24.5"/>
		<rect x="90.1" y="532" class="st5" width="97.9" height="23.6"/>
		<rect x="148.5" y="536.6" class="st6" width="7.3" height="7.3"/>
		<rect x="36.6" y="477.9" class="st9" width="7.3" height="7.3"/>
		<rect x="36.6" y="536.6" class="st9" width="7.3" height="7.3"/>
		<rect x="159.1" y="536.6" class="st7" width="7.3" height="7.3"/>
		<rect x="169.8" y="536.6" class="st8" width="7.3" height="7.3"/>
		<path class="st4" d="M24,348h167.7c1,0,1.8,0.8,1.8,1.8V400c0,1-0.8,1.8-1.8,1.8H24c-1,0-1.8-0.8-1.8-1.8v-50.2
			C22.1,348.9,23,348,24,348z"/>
		<rect x="28" y="355.2" class="st5" width="56.3" height="24.5"/>
		<rect x="90.1" y="355.7" class="st5" width="97.9" height="23.6"/>
		<rect x="148.5" y="360.2" class="st6" width="7.3" height="7.3"/>
		<rect x="159.1" y="360.2" class="st7" width="7.3" height="7.3"/>
		<rect x="169.8" y="360.2" class="st8" width="7.3" height="7.3"/>
		<path class="st4" d="M24,406.7h167.7c1,0,1.8,0.8,1.8,1.8v50.2c0,1-0.8,1.8-1.8,1.8H24c-1,0-1.8-0.8-1.8-1.8v-50.2
			C22.1,407.5,23,406.7,24,406.7z"/>
		<rect x="28" y="413.9" class="st5" width="56.3" height="24.5"/>
		<rect x="90.1" y="414.3" class="st5" width="97.9" height="23.6"/>
		<rect x="148.5" y="418.9" class="st6" width="7.3" height="7.3"/>
		<rect x="36.6" y="360.2" class="st9" width="7.3" height="7.3"/>
		<rect x="36.6" y="418.9" class="st9" width="7.3" height="7.3"/>
		<rect x="159.1" y="418.9" class="st7" width="7.3" height="7.3"/>
		<rect x="169.8" y="418.9" class="st8" width="7.3" height="7.3"/>
		<rect x="545.5" y="77.2" class="st10" width="7.6" height="18.9"/>
		<path class="st11" d="M453.3,366c-0.9,6.7-2.1,16.5-3.3,28.5c-2.5,24-6.3,61.5-6,106.8c0.3,37.4,3.3,74.7,8.9,111.6l18.3,1.7
			l13.1-116c9.8-28,19.5-56,29.3-84.1c7.7,29.9,13.7,60.2,18.1,90.8c5.2,36.4,8.2,73.1,8.7,109.9l18-0.5c5.8-34.1,10-63,13.1-85
			c10.4-75.4,11.5-107.1,11.4-131.3c-0.1-13.9-0.6-25.2-1-32.3L453.3,366z"/>
		<path class="st12" d="M619.7,226.9c-1.6-8.1-3.7-19-11.1-30c-6.6-9.7-10.3-9.2-29.2-28c-7.2-7.2-10.8-10.8-14.8-15.9
			c-7.5-9.9-13.1-21.1-16.4-33c-7.5,0.8-13.7,1.7-18.2,2.5c-3.3,0.6-10.3,1.8-10.4,3.9c0,1,1.6,1.4,2.1,3.1s-0.6,3.7-1.7,5.2
			c-14,21-24.9,29.4-31.4,34.6c-2.9,1.9-5.8,3.9-8.4,6.1c-5.6,5.2-10.3,11.4-13.9,18.2c-9.3,18-10,43.3-10,46.1
			c-0.7,36.3,4,46.7,4,70.9c-0.1,21-3.4,41.8-10,61.8h136.5c-2.8-12.6-2.5-25.7,1.1-38.1c0.1-0.2,0.1-0.5,0.2-0.8
			c2.8-9,7.1-17.5,12.7-25.2c4.4-6.2,10.8-19,19.8-47.6C622.1,249.3,621.8,237.9,619.7,226.9z"/>
		<path class="st13" d="M499.7,163.7c-9.6,2.4-18.9,6.1-27.5,11c-10.7,6.1-19.5,13.7-23.5,18.4c-18,20.6-4.6,53.7,0.7,106.1
			c2.5,25,2.9,50.1,1,75.1c23.9,3.3,48.1,4.9,72.2,4.7c21.6-0.2,43.1-1.7,64.5-4.7c-1.3-9.4-1.3-18.8-0.2-28.2
			c0.8-6.7,2.3-13.4,4.6-19.8c6.8-19.4,15-22.6,27.5-50.4c5.7-12.7,10.8-24.5,12.3-41c1.1-11.4,2.8-30.5-8.5-43.2
			c-3.3-3.7-5.5-4.2-19.6-12.5c-12.1-7.1-21.7-13.1-27.8-16.9c-8.9,3.1-14.5,6.9-18.8,8.9c-13.6,6.4-15.1,6.9-17.6,7.1
			c-6.5,0.6-6-1.8-25.8-6.5c-4.9-1.2-7-2.3-9.4-4.1C502.1,166.6,500.8,165.2,499.7,163.7z"/>
		<path class="st14" d="M532,206.7c1.4,34.5,2.8,69.1,4.2,103.6l-9.5,9l-7,6.6l-1.8-2.1c-4.5-5.5-9-10.9-13.5-16.4
			c1.2-6.6,2.3-13.3,3.5-19.9c5.5-30.9,10.9-61.8,16.4-92.6l-7-7.2l9.7-11.6l0.8-1l6.3,6.8l1.6,1.8l3.2,3.5l-7.6,8.4l0.2,6.1
			L532,206.7z"/>
		<path class="st11" d="M536.2,310.3l-9.5,9c0.5-0.6,1-1.3,1.4-1.9c5.4-8,5.1-18.5,4.5-28.1c-0.8-12.2-2-24.4-1.1-36.5
			c0.3-4.5,1-9,0.9-13.6c0-6-1.3-11.9-1.8-17.8c-0.4-4.8-0.5-10.1,1.3-14.7C533.4,241.2,534.8,275.8,536.2,310.3z"/>
		<path class="st15" d="M528.7,177.5c-0.3-0.1-0.5-0.2-0.7-0.3c-0.4-0.3-0.7-0.7-0.7-1.2l0.8-1l6.3,6.8l0,0
			C532,181,530.9,178.3,528.7,177.5z"/>
		<path class="st15" d="M531.5,195.4l0.2,6.1c-0.4-0.9-0.7-1.9-0.9-2.9c-0.3-2.2,0.8-4.4,2.1-6.3c1.5-1.7,2.9-3.5,4.1-5.4
			c0.1-0.1,0.2-0.3,0.2-0.5c0-0.4-0.4-0.5-0.7-0.7c-0.7-0.4-0.9-1.3-0.7-2c0-0.1,0-0.2,0.1-0.3l3.2,3.5L531.5,195.4z"/>
		<path class="st16" d="M428.6,198.9l25.1,67.6H372l-21.9-60.1c-1.1-2.9,0.4-6.1,3.3-7.2l0,0c0.6-0.2,1.3-0.3,1.9-0.3H428.6z"/>
		<path class="st17" d="M428.6,198.9h3.9c2.1,0,4,1.3,4.7,3.3l23.7,64.3h-7.2L428.6,198.9z"/>
		<path class="st17" d="M372.3,266.5h81.5v6.5h-78.5c-1.7,0-3-1.3-3-3V266.5L372.3,266.5L372.3,266.5z"/>
		<path class="st17" d="M453.8,273h50.4c1.8,0,3.2-1.5,3.3-3.3l0,0c0-1.8-1.5-3.3-3.2-3.3h-50.4L453.8,273L453.8,273z"/>
		<path class="st12" d="M406.6,232.5c1.5,4.7-0.3,9.5-4.2,10.8s-8.2-1.5-9.8-6.1s0.3-9.5,4.2-10.8S405.1,227.8,406.6,232.5z"/>
		<path class="st12" d="M462.7,193.8c-0.5-0.5-0.8-1.2-0.8-1.9c0-2.8,5.9-4.7,9.2-5.8c5.7-1.9,9.7-3.2,14.3-2.6
			c6.7,1,10.6,5.4,14.5,9c3.3,3,11.5,7.4,27.9,16.2c8.9,4.8,26.3,12.4,56.8,16.8c3.2,0.8,15.2,4,22.9,15.6
			c5.4,8.1,9.8,22.2,3.6,31.1c-7.6,10.9-28,9-39.4,5.9c-36.3-10-64.6-55.7-69.1-67.1c-0.6-1.6-1.9-5.3-5.3-7.3
			c-6.2-3.6-13.4,1.7-16.7-2c-2.1-2.4-0.7-6.7-3.8-8.9c-1-0.7-2.5,0.6-2.5,0.6c-1.8-0.5-2.9-1.6-3.8-1.4
			C468.6,192.6,466.2,193.1,462.7,193.8z"/>
		<path class="st12" d="M385.3,289.1c-1.4-5.2-3-14.7,1.6-18.2c2.2-1.7,4.9-1.5,6.3-1.3c12.2,0.9,24.4-0.3,36.7,0
			c8.3,0.3,16.5,0.1,24.7-0.8c11.1-1.2,22.2-3.5,22.6-1.9c0.4,1.2-5.5,3.3-5.1,5.2c0.3,1.2,3,1.6,6.8,2.1c2.9,0.4,5.8,0.5,8.7,0.5
			c-2.7,2.4-6.8,5.2-11.8,5.3s-6.3-2.1-10.3-1.6c-5.4,0.8-7.3,5.9-13.7,12.9c-4.5,4.7-9.5,8.9-15,12.4c-5.1,3.1-15.4,9.3-27.6,6.8
			C399.3,308.4,388.5,300.9,385.3,289.1z"/>
		<path class="st18" d="M429,633c6.8,6.2,13.6-0.2,32.9,2.3c4.1,0.5,8.5,1.4,11.7-1.2c2.2-1.9,3.5-4.7,3.5-7.6
			c0.1-4.5-3.1-6.4-4.4-14c-0.2-1.2-0.3-2.1-0.3-2.8l-20.5,0.3c-1.7,2.7-3.9,5.1-6.4,7.1c-8.8,6.6-18.7,4.6-20,8.8
			C424.6,628.9,428.5,632.6,429,633z"/>
		<path class="st18" d="M534.6,617.3c-1.5,2.7-5,11.1-2.2,14.9c1.7,2.2-2.6,0.8,15.4,1.6c8.8,0.4,14.2,1.1,15.6-1.5
			c0.5-1.2,0.7-2.4,0.7-3.7c0.2-1.6,0.2-3.3,0-4.9c-0.2-2.1-0.5-4.2-1.1-6.2c-0.9-3.3-2.1-6.5-3.8-9.5c-15.3-2.6-19.7-1.2-20.7,0.8
			c-0.2,0.5-0.5,1.6-1.5,3.8C536.3,614.2,535.5,615.8,534.6,617.3z"/>
		<path class="st19" d="M619.8,271.6c-0.3,4-1.3,5.8-2.3,6.6c-0.2,0.1-0.3,0.2-0.5,0.3c-2.1,1-3.5-1.2-7.2-0.8
			c-3.3,0.3-4,2.3-7.8,3.5c-2.5,0.7-5.2,0.8-7.7,0.2l-7.6-35.8l-4.6-21.4c2.6-3.7,4.8-4.6,6.3-4.6c1.5,0.1,3,0.6,4.1,1.6
			c1.4,1.2,3.2,1.9,5,1.9h0.2c2.5,0,3.2-1.4,5.5-1.9c2.7-0.6,6.8,0.1,12.6,5.9c1.5,3,2.8,6.1,3.8,9.3
			C624,251.1,621.7,264.3,619.8,271.6z"/>
		<path class="st20" d="M598.2,223.4c4.9,12.1,7.7,25.1,8.2,38.1"/>
		<path class="st20" d="M613.5,249.2c1.3,4.2,1.9,8.5,1.8,12.9c0,5.4-0.7,10.7-2.3,15.9"/>
		<path class="st19" d="M422.4,310c0,0.2-0.3,0.4-0.8,0.7c-2.9,1.4-12.9,3.1-19.7,1.6c-15.5-3.3-22.8-25-25.4-34.8
			c-0.6-2.4-1-4.1-1-4.6h9.4c1.8,8.5,5.8,16.5,11.7,22.9c10.1,10.9,22.3,13.3,23.5,12.9c0.4-0.1,0.8-0.1,1.2,0
			C421.8,309,422.2,309.4,422.4,310z"/>
		<path class="st20" d="M379.3,272.8c2.3,13.7,9.8,26,20.8,34.3"/>
		<path class="st20" d="M471.1,377.5c0.1,0.5,1,7.4-4.1,11.7c-2.3,1.9-5.2,3-8.2,2.9"/>
		<path class="st20" d="M562.2,377.5c-0.1,0.5-1,7.4,4.1,11.7c2.3,1.9,5.2,3,8.2,2.9"/>
		<path class="st11" d="M518,323.4v0.3c-4.5-5.5-9-11-13.5-16.4c1.2-6.6,2.3-13.3,3.5-19.9c0.3,8.5-1.3,17.7,3.3,24.9
			C513.7,316.1,517.5,319.1,518,323.4z"/>
		<path class="st13" d="M619.8,271.6c0,1.5-0.3,3.1-0.9,4.5c-0.5,1.2-1,2.3-2.2,2.7c-1.2,0.4-2.5,0.1-3.5-0.6
			c1.3-0.3,2.5-0.9,3.5-1.8c0.4-0.4,0.8-0.8,1.2-1.2c2.2-2.7,2.3-9.6,2.3-12.3c0.2-6.4,0.7-5.1,0.6-9.4c0.1-4.6-0.5-9.1-1.8-13.5
			c-1.6-5.4-3.8-8.5-7.5-13.7c-0.8-1.2-1.8-2.1-3.1-2.8c-0.7-0.3-4-1.9-6.5,0c-1.7,1.4-2.4,3.7-1.8,5.9c-0.1-2.3-1-4.6-2.6-6.3
			c2.5,0,3.2-1.4,5.5-1.9c2.7-0.6,6.8,0.1,12.6,5.9c1.5,3,2.8,6.1,3.8,9.3C624,251.1,621.7,264.3,619.8,271.6z"/>
		<path class="st13" d="M421.6,310.7c-2.9,1.4-12.9,3.1-19.7,1.6c-15.5-3.3-22.8-25-25.4-34.8c0.8,0.3,1.4,0.9,1.8,1.7
			c0.9,2.4,1.5,4.9,2.2,7.3c0.4,1.5,1,3,1.7,4.5c1,2,2.2,3.9,3.5,5.8c1.5,2.3,3.1,4.5,5,6.4c2,1.8,4.3,3.3,6.9,4.2
			c4.3,1.6,6.7,1,12.5,1.4C413.9,309.1,417.8,309.8,421.6,310.7z"/>
		<path class="st13" d="M592.5,221.3c-0.7,0.6-1.6,0.7-2.4,0.4c-3-0.9-5.6,0.1-5.6,3.7c0.1,1.7,0.5,3.4,1.1,5
			c0.8,3.8,1.2,7.7,1.1,11.6v3.7l-4.5-21.4c2.6-3.7,4.8-4.6,6.3-4.6C589.9,219.7,591.3,220.3,592.5,221.3z"/>
		<path class="st21" d="M507.4,126.8c-0.1-3.7-0.3-10.3,3.9-14.4c0,0,0.3-0.3,0.7-0.6c8.2-6.1,28.5,4.8,30.2,1.9
			c0.6-1-1.8-2.2-2.6-5.6c-1.4-6.1,3.8-13.4,6.4-13c0.9,0.2,2.1,3,4.5,8.6c0.2,0.6,1.2,2.9,1.6,3.9c6.2,16.9,1.8,29.5,1.8,29.5
			c-4.1,11.7-16.6,20.1-31.3,22.4l-15.5-8.2C507.5,141.2,507.6,133.3,507.4,126.8z"/>
		<path class="st12" d="M527.8,115c9.7,0.2,14.5,8.6,18.5,6.3c2.7-1.6,2.7-6.6,2.7-11.1c0-6.8-1.8-7.8-2.9-14.9
			c-1.9-12.2,1.3-19.5-3.3-23.7c-0.1-0.1-0.3-0.2-0.4-0.3C538,69,534,74,526,74.3c-7,0.2-8.4-1.9-11.2-0.4c-2.3,1.2-4,4.2-4.1,25.5
			c-0.1,15,0.7,17.7,2.8,18.8C517.2,120.1,520.2,114.9,527.8,115z"/>
		<path class="st21" d="M564.5,60.8c1.8,4-1.3,5.8-3.8,18.6c-2.6,13.6-0.8,20.8-4.8,22.6c-3.4,1.5-7.9-2.1-8.2-2.3
			c-1.5-1.2-3.2-3.3-4.4-9.2c-1.2-6.1-1.3-12.3-0.2-18.4c-2,0.5-4.8,1.2-8.4,1.7c-0.5,0.1-13.6,2-20,0.6
			c-16.1-3.4-27-35.5-20.7-40.5C499.1,29.8,561.5,54,564.5,60.8z"/>
		<path class="st22" d="M507.8,85.6c3.1-2.8,7.6-3.5,11.3-1.6"/>
		<path class="st22" d="M525.5,83.8c3.6-2.1,8.1-1.8,11.5,0.7"/>
		<path class="st23" d="M531.9,120.4c0.5,1.1-2.9,7.1-7.7,8c-4.3,0.9-8.5-2.7-8.3-3.9c0.2-0.9,2.5-0.1,7.1-1.1
			C528.8,122,531.4,119.5,531.9,120.4z"/>
		<path class="st24" d="M552.2,109.3c2.2,0.2,6-5,6.9-10.2s-0.5-11.4-3.4-11.8c-2.3-0.3-5.1,3.2-6.2,5.3c-1.5,3-1,5.5,0.1,10.5
			C550.5,107.2,551,109.1,552.2,109.3z"/>
		<circle class="st21" cx="533.5" cy="93.6" r="2.6"/>
		
			<ellipse transform="matrix(0.8113 -0.5846 0.5846 0.8113 42.2418 317.6046)" class="st21" cx="513.1" cy="93.4" rx="2.6" ry="2.6"/>
		<path class="st25" d="M554.8,95.8c0.9,0,1.5,0.8,1.5,1.6c0.1,1.6,0.3,3.4-0.5,3.8s-1.3-0.7-1.6-0.9"/>
		<circle class="st26" cx="532.8" cy="95.2" r="0.9"/>
		<polygon class="st26" points="540.3,85.9 552.8,81.7 542,86.6 		"/>
		<path class="st15" d="M528.3,174.9l-3.1,4.6v0.1l-4.2,6.1c-4.4-2.1-9-4.3-13.6-6.7c-1.5-0.8-3-1.6-4.5-2.4s-3.1-1.7-4.8-2.6
			c-3.8-2.1-7.5-4.3-11.1-6.4c0.8-1.2,1.8-2.3,2.9-3.2c0.3-0.2,0.7-0.5,1.2-0.9c1.1-0.8,2.3-1.5,3.6-2.1c0.9-0.5,1.9-0.9,2.8-1.2
			L528.3,174.9z"/>
		<path class="st25" d="M522.5,90.3l-4.9,24c0.4,0.1,0.7,0.1,1.1,0.1c1.7,0,3.3-0.6,4.6-1.7"/>
		<path class="st15" d="M495.7,171.9c2.4,1.4,5.1,2.7,7.2,4.6c-1.6-0.8-3.1-1.7-4.8-2.6c-3.8-2.1-7.5-4.3-11.1-6.4
			c0.8-1.2,1.8-2.3,2.9-3.2c0.3-0.2,0.7-0.5,1.2-0.9c1.1-0.8,2.3-1.5,3.6-2.1c-0.1,0.5-0.4,1-0.8,1.3c-0.6,0.4-1.2,0.7-1.8,1
			c-1.5,0.8-2.7,2.1-3.3,3.6C491,168.8,493.3,170.4,495.7,171.9z"/>
		<path class="st15" d="M525.1,179.5l-4.1,6.1c-4.4-2.1-9-4.3-13.6-6.7h0.3c2.3-0.1,4.3,1.6,6.4,2.7c1.9,0.9,4,1.4,6.1,1.3
			c1.2,0.1,2.4-0.4,3.3-1.3C524,180.9,524.4,179.9,525.1,179.5z"/>
		<path class="st15" d="M562.9,171.9c1-0.5,2-0.9,3-1.2c-2.2,1.3-4.4,2.5-6.8,3.8c-7.6,4-15.4,7.5-23.5,10.5l-5.8-7.5v-0.4
			c1.5,0.9,2,2.8,3.2,4c1.4,1.3,3.4,1.8,5.3,1.5c1.9-0.3,3.7-1,5.3-1.8L562.9,171.9z"/>
		<path class="st15" d="M575,164.1c0.3-0.2,0.5-0.5,0.5-0.8s-0.1-0.6-0.3-0.8c-1.3-1.7-3.7-2.1-5.3-3.5c-0.8-0.7-1.4-1.8-2.5-2.1
			c-1.5-0.6-3.1,0.6-4.6,1.3c-1.3,0.6-2.7,0.9-4.1,1l8.1-4.1c1.9,1,3.8,2.2,5.9,3.5c2.1,1.4,4.1,2.8,5.9,4.1
			c-2.1,1.4-4.3,2.9-6.6,4.3C572.9,166.1,573.9,165.1,575,164.1z"/>
		<path class="st20" d="M574.6,211.3c-0.7,4.2-0.6,8.5,0.2,12.6"/>
		<rect x="13.1" y="586.2" class="st10" width="379.7" height="2.3"/>
		<path class="st15" d="M578.5,162.7c-2.1,1.4-4.3,2.9-6.6,4.3c-1.9,1.2-3.9,2.4-6,3.7s-4.3,2.5-6.8,3.8c-7.6,4-15.5,7.5-23.5,10.5
			l-5.8-7.5c-0.7-0.9-1.4-1.8-2.1-2.7l31-15.7l8.1-4.1c1.9,1,3.8,2.2,5.9,3.5C574.8,160,576.7,161.4,578.5,162.7z"/>
	</g>
</g>
<g>
	<polygon class="st27" points="499.9,129.1 543,177.8 525,208.8 503.8,171.4 	"/>
	<polygon class="st28" points="535.4,234.1 481,226.4 607.8,229.3 613.7,237.4 	"/>
	<path class="st29" d="M440.8,132.9c0,0-61.3,78.5-59.1,93.5c2.2,15,21.3,10.6,28.2,3.7c7-7,36.3-60.8,36.3-60.8L440.8,132.9z"/>
	<path class="st30" d="M281.3,625.9c0,5.4,49,9.7,109.5,9.7s109.5-4.3,109.5-9.7s-49-9.7-109.5-9.7S281.3,620.5,281.3,625.9z"/>
	<g>
		<path class="st31" d="M481.4,364.8l-36,247.2l17.1-2.8l29.4-134c0,0,19.4-124.4,19.4-169.3L481.4,364.8z"/>
		<path class="st32" d="M388.7,626.9h32.2L400,614.3l2.3-10c-4.8,0-5.9,3.2-10.7,3.2C390.3,614.8,388.7,626.9,388.7,626.9z"/>
		<path class="st32" d="M447.5,623.9l32.6,1.3l-20.9-12.6l2.3-10c-4.8,0-5.9,3.2-10.7,3.2C449.4,613,447.5,623.9,447.5,623.9z"/>
		<path class="st31" d="M510,269.5c-35.5,0.8-50.3,20.7-83.3,29.8l1.3,9.4L425.8,467c0,0-34.1,111.5-40.9,148.6
			c0,0,19.5-1.2,18.4-1.2l57.3-132.3l25.9-120.9l21.2-47L510,269.5z"/>
		<polygon class="st31" points="486.4,361.2 455.4,480.4 403.2,614.4 460.5,482.1 		"/>
		<path class="st33" d="M456.8,124c0,0,22.3-7.3,45.9,6.6c21.2,12.5,27,134.8,23.5,182.5c-34.7,5.3-69.7,11.8-103.8,5.8l0.6-2.2
			l12.9-77.3l-3.1-44.9C432.9,194.6,416.4,134.1,456.8,124z"/>
		<path class="st34" d="M493.4,108.4c0,0-0.6,20.5-2.4,25.4c-1.8,4.9-16.4,8.4-22.7,1.2c-6.3-7.2-0.4-55.2-0.4-55.2L493.4,108.4z"/>
		<path class="st29" d="M466.7,91.5c0.6-6.8,1.2-11.6,1.2-11.6l25.5,28.5c0,0-0.1,4.3-0.4,9.4c-3.5,0.4-7.8-0.7-12.8-3.9
			C473.6,109.8,469.2,99.9,466.7,91.5z"/>
		<path class="st34" d="M501.2,49c0,0,6.3,3.6,9.1,16.1s-0.8,33.8-6.8,43.2c-3.5,5.6-10.2,6.7-20.1,0.5c-9.8-6.2-15.3-24.1-17-31.6
			C464.8,69.6,473.8,40.6,501.2,49z"/>
		<path class="st35" d="M504.7,67c0,0,3,7.9,10.4,7.9c7.4-0.1,6.1-6.7,9.1-11.4s20.8-19,0.8-31.7s-29.2,14-36.2,12.2
			s-19.7-9.4-23.9,1s2.3,12.3-2.5,16.9s5.7,21.7,6.9,25s7.5,6,5.6-2.6s-5-14.6-2.7-18.2c2.3-3.7,7.9-7.5,8.8-3.5
			c0.4,1.9,5.9,7.7,9.8,4.1s6.9,1.7,10,2.6C503.8,70.2,504.7,67,504.7,67z"/>
		<path class="st34" d="M470,85.4c-0.2-1.3,2.7-12.8-4.2-11.8s-6.2,13.1-0.8,14.6C470.3,89.7,470,85.4,470,85.4z"/>
		<path class="st29" d="M468.9,81c0,0-0.6-5.3-3.4-4s-1.7,8.4,1.2,9.4C469.5,87.3,468.9,81,468.9,81z"/>
		<g>
			<path d="M493.3,80.3c-0.3,1.6,0.4,3,1.4,3.2c1.1,0.2,2.2-0.9,2.5-2.5s-0.4-3-1.4-3.2C494.7,77.6,493.6,78.7,493.3,80.3z"/>
			<path d="M504.7,82.3c-0.3,1.6,0.4,3,1.4,3.2c1.1,0.2,2.2-0.9,2.5-2.5s-0.4-3-1.4-3.2C506.1,79.7,505,80.8,504.7,82.3z"/>
			<g>
				<path d="M491.4,102c-2.2-1.8-2.9-4.4-2.8-4.3c-0.2-0.6-1.2-0.3-0.9,0.3c0.8,1.8,1.8,3.2,3.4,4.4c2.3,1.6,5.1,2.1,5.1,1.9v-0.1
					C495.6,104.1,493.6,103.8,491.4,102z"/>
			</g>
			<path d="M497,70.9l0.3,1.9c0,0-2.7-1.6-5.1,0.6C492.2,73.4,494.8,70,497,70.9z"/>
			<path d="M509.7,77.3c0,0-1.8-1.8-3.3-2.1l1-1.2C507.4,74,510,75.7,509.7,77.3z"/>
			<g>
				<path d="M500.5,98.3c0-0.1,4.1-7.5,3-20.4c0-0.6-1-0.6-1,0.1c0,0.1,0.9,11.5-2.6,19.1c-2.7-1-3.6-1.9-4-1.1
					C495.8,96.8,497.1,96.7,500.5,98.3z"/>
			</g>
		</g>
		<path class="st36" d="M525.5,231.4L481,230v8.6c0,0,15.7,10.8,18.9,10.8c2.4,0,16.6-2,26.5,0.6
			C526.2,243.9,525.9,237.6,525.5,231.4z"/>
	</g>
	<polygon class="st37" points="607.8,229.3 481,226.4 481,233.7 518.8,237.4 613.7,237.4 	"/>
	<polygon class="st38" points="518.8,237.4 529,159.1 625,160.8 615.1,238.5 	"/>
	<path class="st38" d="M529,159.1l-10.3,78.2l96.3,1.2l0.8-6.5c-10.1,0.9-55.8,3.9-59.9-11.8c-3.6-13.6,14.5-46.3,22.8-60.3
		L529,159.1z"/>
	<polygon class="st37" points="529,159.1 518.8,237.4 615.1,238.5 523.1,232.4 	"/>
	<path class="st34" d="M563.8,237.9c0,0-7.8,6.7-18.4,7.6c-10.6,0.8-18.3-3.6-21.3-3.6s-12.2-0.6-16.9,0.8
		c-4.7,1.4-20.8-7.7-20.8-7.7s-7.1-9.6-5.1-10.2c2-0.6,11.3,11.3,13.6,11.3s-8.8-10.3-6.5-11.4c2.3-1,8.1,10.7,13.9,11.4
		s8.7-0.5,6.5-2.8c-2.3-2.3-8.5-5.1-6.3-5.9C504.8,226.6,562.3,236.3,563.8,237.9z"/>
	<path class="st34" d="M493.1,204.4c0,0-7-3.3-12.1-3.3s-13.2,3.3-27.9,3.3s-65,0.6-67.9,8.5s-9.3,18.3,3.8,22.8
		c13.1,4.5,77.3-18.9,83.9-20.4c0,0,4,5.9,8.1,5.9s7.3-0.2,7.3-0.2s7,1,8.2-0.2s5.1-1.1,5.1-1.1s8.1,8.3,11.2,8.3
		s-4.5-12.6-7.1-15.2C503.1,210.1,493.1,204.4,493.1,204.4z"/>
	<path class="st27" d="M447.5,127.7c0,0,11.4,23,2.7,39.6s-20.4,36-20.4,36l-36.3-12.5C393.4,190.9,429.1,129.5,447.5,127.7z"/>
	<path class="st27" d="M447.5,127.7c6.6,11.7,10,27.7,3.8,40.4c-7.8,14.8-17,29-21.6,35.2C447.1,167.6,459.6,161.2,447.5,127.7z"/>
</g>
<path class="st39" d="M565.3,195.5c2.2-4.4,6.9-6.5,10.5-4.7s4.8,6.9,2.6,11.3s-6.9,6.5-10.6,4.7S563.1,199.9,565.3,195.5z"/>
</svg>
