<?xml version="1.0" encoding="utf-8"?>
<!-- Generator: Adobe Illustrator 24.2.1, SVG Export Plug-In . SVG Version: 6.00 Build 0)  -->
<svg version="1.1" id="Layer_1" xmlns="http://www.w3.org/2000/svg" xmlns:xlink="http://www.w3.org/1999/xlink" x="0px" y="0px"
	 viewBox="0 0 500 500" style="enable-background:new 0 0 500 500;" xml:space="preserve">
<style type="text/css">
	.st0{fill:#4B7BEC;}
	.st1{opacity:0.7;fill:#FFFFFF;enable-background:new    ;}
	.st2{opacity:0.5;fill:#FFFFFF;enable-background:new    ;}
	.st3{fill:#4B7BEC;stroke:#263238;stroke-linecap:round;stroke-linejoin:round;}
	.st4{fill:#263238;}
	.st5{clip-path:url(#SVGID_2_);}
	.st6{fill:none;stroke:#4B7BEC;stroke-linecap:round;stroke-linejoin:round;}
	.st7{fill:none;stroke:#FFFFFF;stroke-linecap:round;stroke-linejoin:round;}
	.st8{fill:none;stroke:#263238;stroke-linecap:round;stroke-linejoin:round;}
	.st9{fill:#FFFFFF;stroke:#FFFFFF;stroke-linecap:round;stroke-linejoin:round;}
	.st10{fill:#FFFFFF;}
	.st11{fill:#263238;stroke:#263238;stroke-linecap:round;stroke-linejoin:round;}
	.st12{fill:none;stroke:#263238;stroke-miterlimit:10;}
	.st13{clip-path:url(#SVGID_4_);}
	.st14{opacity:0.17;enable-background:new    ;}
	.st15{fill:#4B7BEC;stroke:#263238;stroke-miterlimit:10;}
	.st16{opacity:0.17;}
	.st17{fill:none;stroke:#263238;stroke-width:0.5;stroke-miterlimit:10;}
	.st18{clip-path:url(#SVGID_6_);}
	.st19{fill:#FFFFFF;stroke:#263238;stroke-linecap:round;stroke-linejoin:round;}
	.st20{clip-path:url(#SVGID_8_);}
	.st21{opacity:0.3;fill:#FFFFFF;stroke:#263238;stroke-linecap:round;stroke-linejoin:round;enable-background:new    ;}
	.st22{fill:#FF8C00;stroke:#263238;stroke-linecap:round;stroke-linejoin:round;}
</style>
<g id="freepik--background-simple--inject-11">
	<path class="st0" d="M78.7,204.2c0,0-16,68.6,28.7,128.3S230,415.5,292.6,436s121.3-3.2,143.3-55.8s-22.4-81-32.2-149.8
		s-2-88.6-47.7-140.9s-139.6-51.1-203,2.6S78.7,204.2,78.7,204.2z"/>
	<path class="st1" d="M78.7,204.2c0,0-16,68.6,28.7,128.3S230,415.5,292.6,436s121.3-3.2,143.3-55.8s-22.4-81-32.2-149.8
		s-2-88.6-47.7-140.9s-139.6-51.1-203,2.6S78.7,204.2,78.7,204.2z"/>
</g>
<g id="freepik--Plants--inject-11">
	<path class="st0" d="M312,309.1c4.5,6.7,10.9,15.5,14.2,22.5c-1.3-4.6-2.5-9-3.7-13c-1.7-3.4-6.3-12-11.7-17.7
		c-6.8-7.3-9.7-11.9-6-12.3c2.5-0.3,9.9,9.6,14.6,19.4c-1-3.3-1.8-5.9-2.3-7.4c-0.2-0.7-0.4-1.4-0.6-2.2c-4.8-6.7-9.2-13.7-13.1-21
		c-6.8-12.8-9-24.9-4.5-19.7c4.2,4.8,11.5,28.5,17.3,39.7c-0.5-1.9-1-4-1.4-6.1c-0.8-2-1.9-4.1-2.5-6c-0.9-2.9-1.8-5.8-2.5-8.8
		c-1.1-4.6-1.7-9.4-1.7-14.1c0.1-5.6,1.2-11.1,4.4-15.8c0.8-1.2,5.6-8.4,7.1-4.7c0.2,0.6,0.2,1.3,0.1,1.9
		c-0.7,6.1-2.9,11.7-4.3,17.7c-2,8.9-0.7,23.9,0,30.2l1,3.7c-1-11.1,3.9-24.2,8.3-26.5c5.5-2.8,0.1,8.3-4.1,18
		c-2.8,6.3-3,11.1-2.8,13.7c0.9,3.2,1.9,6.8,2.9,10.4c0.2,0.5,0.4,1,0.6,1.5c-0.5-2.4-0.7-4.8-0.6-7.2c0.4-6.4,7.6-19.1,12.4-17.3
		s-3.3,8.5-7.7,16.3c-2.3,4.3-3.1,9.2-2.5,14c0,0.3,0.1,0.6,0.1,0.9c0.5,1.6,1,3.3,1.5,4.8c1.1,3.5,2.2,6.9,3.2,10.2
		c-1.2-4.7-1.8-9.6-1.6-14.5c0.6-9.3,6.1-18.1,10.6-19.3s-4.1,14-7,22.6c-1.6,5-1.8,10.3-0.8,15.4c1.4,4.6,2.7,9.2,4.1,14
		c-0.4-6.3-0.2-12.7,0.4-19c0.9-10.4,7.1-17,11.3-16.7s-0.2,6.2-6.3,18.8c-3.2,6.6-4.7,14-4.2,21.3c0.6,2,1.1,4.1,1.7,6.3
		c0.6,2.5,1.2,5.2,1.6,8c0.6-2.5,1.5-6.1,2.6-10.1c1.2-4.4,2.2-8.9,2.7-13.4c0.6-5.3,2-11.9,7.2-14.6c1.8-0.9,3.4-0.6,4.4,1.2
		c0.5,1.1,0.6,2.4,0.3,3.6c-0.7,3.6-1.9,7.1-3.5,10.3c1,2,1.5,4.2,1.4,6.4c0,0.8-0.1,1.6-0.1,2.5c0.5-0.8,0.9-1.6,1.3-2.3
		c0.7-1.2,1.7-2.4,2.7-3.4c-0.3-2-0.4-3.9-0.4-5.9c0-2.6,3-9.1,5.7-4.3c1.1,1.9,0.9,5.8,1,8.3c0.8,0.7,1,2.1,0.3,4.4
		c0.4,5.9,0.5,11.9-0.9,17.6l0.9-1.6c1.3-6.8,2.1-13.7,2.3-20.6c0.3-11.4-1.5-20.8,1.6-24.3s4.9,8.9,3.5,22.4
		c-0.6,6.2-2.3,12.2-4.9,17.8c3-5.5,6.1-11.1,8.9-16.5c1.2-2.9,4.1-10.7,3.4-18.5c-0.9-10-1.6-18.1,2.2-23.7s4.6-2,2.7,9.7
		c-1.3,8-2.6,18.7-5,26.1c2.2-4.3,4.3-8.3,6.1-12c1-3.7,3.5-13.1,3.5-20.9c0-9.9,1.1-15.3,4-13.1c2,1.5,0.7,13.8-2.6,24.1
		c1.5-3.1,2.7-5.5,3.4-7c0.3-0.6,0.6-1.3,1-2.1c1.1-8.2,2.7-16.3,4.8-24.3c3.7-14,10.4-24.4,10.1-17.4c-0.2,6.4-11,28.7-14.4,40.9
		c1-1.7,2.1-3.6,3.2-5.4c0.8-2,1.4-4.3,2.2-6.1c1.3-2.8,2.7-5.5,4.2-8.1c2.3-4.1,5.2-8,8.4-11.5c3.9-4.1,8.5-7.2,14-8.5
		c1.4-0.3,9.8-2.3,8.4,1.4c-0.3,0.6-0.7,1.1-1.2,1.5c-4.7,4-10.1,6.6-15.2,10c-7.6,5.1-16.8,17-20.6,22.1c-0.5,0.9-1.1,2-1.8,3.4
		c6.9-8.7,19.4-15,24.2-13.6c6,1.7-5.6,6.1-15.3,10.4c-6.3,2.7-9.7,6.1-11.3,8.1c-1.5,2.9-3.3,6.2-5,9.6c-0.2,0.5-0.4,1-0.6,1.5
		c1.3-2.1,2.8-4,4.5-5.7c4.6-4.4,18.6-8.8,20.9-4.2s-8.2,4-16.7,6.7c-4.6,1.6-8.6,4.6-11.4,8.5c-0.2,0.3-0.3,0.5-0.5,0.7
		c-0.8,1.5-1.5,3.1-2.2,4.5c-1.6,3.4-3.1,6.5-4.6,9.6c2.3-4.3,5.3-8.2,8.7-11.7c6.8-6.4,16.8-9.1,21-6.9s-12.5,7.5-20.5,11.7
		c-4.6,2.6-8.4,6.3-11.1,10.8c-2.1,4.3-4.3,8.6-6.6,13c4-4.9,8.5-9.4,13.2-13.6c7.7-7,16.8-7.6,19.7-4.5s-4.3,4.4-17.4,9.4
		c-6.9,2.6-13,7-17.6,12.8c-1,1.9-2,3.8-3.1,5.8c-1.2,2.3-2.7,4.6-4.2,6.9c2.1-1.4,5.3-3.4,8.8-5.6c3.9-2.4,7.7-5.1,11.2-8
		c4-3.5,9.6-7.4,15.2-5.8c1.9,0.5,2.9,1.9,2.4,3.8c-0.4,1.2-1.2,2.2-2.2,2.8c-5.4,4.1-12.5,6.1-18.8,8.6c-5.7,2.2-11.6,4.1-17.5,5.6
		c-1.5,2.1-3,4.2-4.6,6.2l2.8,0.1c3.3,0.1,18.3-6.7,25.8-8.8s14.7,1.9,6.7,6.2s-29.6,3.3-29.6,3.3l-6.2-0.2
		c-1.5,1.9-2.9,3.7-4.3,5.3h29.6v8.2H373l-4.8,29.2h-39.3l-4.8-29.2h-5.9v-8.2H338c0.2-3.5,0.1-7.1-0.3-10.6
		c-1.3-1.3-2.8-2.5-4.3-3.5c-8.6-6-23.2-6.5-27.1-17.9c-0.9-2.8,0.1-6.3,3.4-6.2c2.4,0.1,4.9,2.2,6.4,3.9c4.9,5.7,8.6,11.6,15,15.9
		c0.3,0.2,4.3,3.4,6.3,5.4c-0.2-1.9-0.5-3.9-0.9-6c-1.6-2.7-3.3-5.4-5.3-7.8c-5.3-6.5-13.3-10.3-18.9-16.5c-1.7-1.9-4-8.7,1.3-7
		c2.4,0.8,5.1,4.3,7,6c5.2,4.7,10.5,9.7,14,15.9c-0.1-0.6-0.3-1.2-0.4-1.8c-3.7-5.9-7.8-11.4-12.3-16.6
		c-7.5-8.6-15.3-14.2-15.4-18.9s9.6,3.2,17.9,13.9c3.7,4.9,6.7,10.5,8.6,16.3c-1.5-6.1-3.1-12.2-4.7-18.1
		c-1.1-2.9-4.3-10.6-10.2-15.9c-7.5-6.7-13.5-12.2-14.5-18.8S305.4,299.3,312,309.1z M353.7,384.6c1.1-1.5,2.3-3.2,3.5-5
		c0.7-3.1,1.2-6.2,1.5-9.3c0.2-2.7,0-5.4-0.4-8.1c-2,2.5-4.1,4.9-6.4,7.1c0.1,2.4,0.3,4.7,0.9,7
		C352.9,376.6,353.6,381.8,353.7,384.6L353.7,384.6z M347.3,392.3c1.5-1.6,3.2-3.5,5-5.8c-0.1-1.9-0.3-3.7-0.8-5.5
		c-0.7-2.8-1.8-5.6-3.1-8.2c-2.8,2.6-4.8,4.4-4.8,4.4l-4.7,4.1c0.4,4.1,0.6,7.9,0.7,11.1H347.3z M338.9,380.5l2.1-1.9
		c1.2-1.1,3.3-5.1,5.6-9.8c-1-2-1.8-4-2.6-6.1c-2.5,4.6-4.7,8.2-6,10.1C338.3,375.4,338.6,378,338.9,380.5L338.9,380.5z"/>
	<path class="st2" d="M312,309.1c4.5,6.7,10.9,15.5,14.2,22.5c-1.3-4.6-2.5-9-3.7-13c-1.7-3.4-6.3-12-11.7-17.7
		c-6.8-7.3-9.7-11.9-6-12.3c2.5-0.3,9.9,9.6,14.6,19.4c-1-3.3-1.8-5.9-2.3-7.4c-0.2-0.7-0.4-1.4-0.6-2.2c-4.8-6.7-9.2-13.7-13.1-21
		c-6.8-12.8-9-24.9-4.5-19.7c4.2,4.8,11.5,28.5,17.3,39.7c-0.5-1.9-1-4-1.4-6.1c-0.8-2-1.9-4.1-2.5-6c-0.9-2.9-1.8-5.8-2.5-8.8
		c-1.1-4.6-1.7-9.4-1.7-14.1c0.1-5.6,1.2-11.1,4.4-15.8c0.8-1.2,5.6-8.4,7.1-4.7c0.2,0.6,0.2,1.3,0.1,1.9
		c-0.7,6.1-2.9,11.7-4.3,17.7c-2,8.9-0.7,23.9,0,30.2l1,3.7c-1-11.1,3.9-24.2,8.3-26.5c5.5-2.8,0.1,8.3-4.1,18
		c-2.8,6.3-3,11.1-2.8,13.7c0.9,3.2,1.9,6.8,2.9,10.4c0.2,0.5,0.4,1,0.6,1.5c-0.5-2.4-0.7-4.8-0.6-7.2c0.4-6.4,7.6-19.1,12.4-17.3
		s-3.3,8.5-7.7,16.3c-2.3,4.3-3.1,9.2-2.5,14c0,0.3,0.1,0.6,0.1,0.9c0.5,1.6,1,3.3,1.5,4.8c1.1,3.5,2.2,6.9,3.2,10.2
		c-1.2-4.7-1.8-9.6-1.6-14.5c0.6-9.3,6.1-18.1,10.6-19.3s-4.1,14-7,22.6c-1.6,5-1.8,10.3-0.8,15.4c1.4,4.6,2.7,9.2,4.1,14
		c-0.4-6.3-0.2-12.7,0.4-19c0.9-10.4,7.1-17,11.3-16.7s-0.2,6.2-6.3,18.8c-3.2,6.6-4.7,14-4.2,21.3c0.6,2,1.1,4.1,1.7,6.3
		c0.6,2.5,1.2,5.2,1.6,8c0.6-2.5,1.5-6.1,2.6-10.1c1.2-4.4,2.2-8.9,2.7-13.4c0.6-5.3,2-11.9,7.2-14.6c1.8-0.9,3.4-0.6,4.4,1.2
		c0.5,1.1,0.6,2.4,0.3,3.6c-0.7,3.6-1.9,7.1-3.5,10.3c1,2,1.5,4.2,1.4,6.4c0,0.8-0.1,1.6-0.1,2.5c0.5-0.8,0.9-1.6,1.3-2.3
		c0.7-1.2,1.7-2.4,2.7-3.4c-0.3-2-0.4-3.9-0.4-5.9c0-2.6,3-9.1,5.7-4.3c1.1,1.9,0.9,5.8,1,8.3c0.8,0.7,1,2.1,0.3,4.4
		c0.4,5.9,0.5,11.9-0.9,17.6l0.9-1.6c1.3-6.8,2.1-13.7,2.3-20.6c0.3-11.4-1.5-20.8,1.6-24.3s4.9,8.9,3.5,22.4
		c-0.6,6.2-2.3,12.2-4.9,17.8c3-5.5,6.1-11.1,8.9-16.5c1.2-2.9,4.1-10.7,3.4-18.5c-0.9-10-1.6-18.1,2.2-23.7s4.6-2,2.7,9.7
		c-1.3,8-2.6,18.7-5,26.1c2.2-4.3,4.3-8.3,6.1-12c1-3.7,3.5-13.1,3.5-20.9c0-9.9,1.1-15.3,4-13.1c2,1.5,0.7,13.8-2.6,24.1
		c1.5-3.1,2.7-5.5,3.4-7c0.3-0.6,0.6-1.3,1-2.1c1.1-8.2,2.7-16.3,4.8-24.3c3.7-14,10.4-24.4,10.1-17.4c-0.2,6.4-11,28.7-14.4,40.9
		c1-1.7,2.1-3.6,3.2-5.4c0.8-2,1.4-4.3,2.2-6.1c1.3-2.8,2.7-5.5,4.2-8.1c2.3-4.1,5.2-8,8.4-11.5c3.9-4.1,8.5-7.2,14-8.5
		c1.4-0.3,9.8-2.3,8.4,1.4c-0.3,0.6-0.7,1.1-1.2,1.5c-4.7,4-10.1,6.6-15.2,10c-7.6,5.1-16.8,17-20.6,22.1c-0.5,0.9-1.1,2-1.8,3.4
		c6.9-8.7,19.4-15,24.2-13.6c6,1.7-5.6,6.1-15.3,10.4c-6.3,2.7-9.7,6.1-11.3,8.1c-1.5,2.9-3.3,6.2-5,9.6c-0.2,0.5-0.4,1-0.6,1.5
		c1.3-2.1,2.8-4,4.5-5.7c4.6-4.4,18.6-8.8,20.9-4.2s-8.2,4-16.7,6.7c-4.6,1.6-8.6,4.6-11.4,8.5c-0.2,0.3-0.3,0.5-0.5,0.7
		c-0.8,1.5-1.5,3.1-2.2,4.5c-1.6,3.4-3.1,6.5-4.6,9.6c2.3-4.3,5.3-8.2,8.7-11.7c6.8-6.4,16.8-9.1,21-6.9s-12.5,7.5-20.5,11.7
		c-4.6,2.6-8.4,6.3-11.1,10.8c-2.1,4.3-4.3,8.6-6.6,13c4-4.9,8.5-9.4,13.2-13.6c7.7-7,16.8-7.6,19.7-4.5s-4.3,4.4-17.4,9.4
		c-6.9,2.6-13,7-17.6,12.8c-1,1.9-2,3.8-3.1,5.8c-1.2,2.3-2.7,4.6-4.2,6.9c2.1-1.4,5.3-3.4,8.8-5.6c3.9-2.4,7.7-5.1,11.2-8
		c4-3.5,9.6-7.4,15.2-5.8c1.9,0.5,2.9,1.9,2.4,3.8c-0.4,1.2-1.2,2.2-2.2,2.8c-5.4,4.1-12.5,6.1-18.8,8.6c-5.7,2.2-11.6,4.1-17.5,5.6
		c-1.5,2.1-3,4.2-4.6,6.2l2.8,0.1c3.3,0.1,18.3-6.7,25.8-8.8s14.7,1.9,6.7,6.2s-29.6,3.3-29.6,3.3l-6.2-0.2
		c-1.5,1.9-2.9,3.7-4.3,5.3h29.6v8.2H373l-4.8,29.2h-39.3l-4.8-29.2h-5.9v-8.2H338c0.2-3.5,0.1-7.1-0.3-10.6
		c-1.3-1.3-2.8-2.5-4.3-3.5c-8.6-6-23.2-6.5-27.1-17.9c-0.9-2.8,0.1-6.3,3.4-6.2c2.4,0.1,4.9,2.2,6.4,3.9c4.9,5.7,8.6,11.6,15,15.9
		c0.3,0.2,4.3,3.4,6.3,5.4c-0.2-1.9-0.5-3.9-0.9-6c-1.6-2.7-3.3-5.4-5.3-7.8c-5.3-6.5-13.3-10.3-18.9-16.5c-1.7-1.9-4-8.7,1.3-7
		c2.4,0.8,5.1,4.3,7,6c5.2,4.7,10.5,9.7,14,15.9c-0.1-0.6-0.3-1.2-0.4-1.8c-3.7-5.9-7.8-11.4-12.3-16.6
		c-7.5-8.6-15.3-14.2-15.4-18.9s9.6,3.2,17.9,13.9c3.7,4.9,6.7,10.5,8.6,16.3c-1.5-6.1-3.1-12.2-4.7-18.1
		c-1.1-2.9-4.3-10.6-10.2-15.9c-7.5-6.7-13.5-12.2-14.5-18.8S305.4,299.3,312,309.1z M353.7,384.6c1.1-1.5,2.3-3.2,3.5-5
		c0.7-3.1,1.2-6.2,1.5-9.3c0.2-2.7,0-5.4-0.4-8.1c-2,2.5-4.1,4.9-6.4,7.1c0.1,2.4,0.3,4.7,0.9,7
		C352.9,376.6,353.6,381.8,353.7,384.6L353.7,384.6z M347.3,392.3c1.5-1.6,3.2-3.5,5-5.8c-0.1-1.9-0.3-3.7-0.8-5.5
		c-0.7-2.8-1.8-5.6-3.1-8.2c-2.8,2.6-4.8,4.4-4.8,4.4l-4.7,4.1c0.4,4.1,0.6,7.9,0.7,11.1H347.3z M338.9,380.5l2.1-1.9
		c1.2-1.1,3.3-5.1,5.6-9.8c-1-2-1.8-4-2.6-6.1c-2.5,4.6-4.7,8.2-6,10.1C338.3,375.4,338.6,378,338.9,380.5L338.9,380.5z"/>
	<path class="st0" d="M63.9,309.1c4.5,6.7,10.9,15.5,14.2,22.5c-1.3-4.6-2.5-9-3.7-13c-1.7-3.4-6.3-12-11.7-17.7
		c-6.8-7.3-9.7-11.9-6-12.3c2.5-0.3,9.9,9.6,14.6,19.4c-1-3.3-1.8-5.9-2.3-7.4c-0.2-0.7-0.4-1.4-0.7-2.2c-4.8-6.7-9.2-13.7-13.1-21
		c-6.8-12.8-9-24.9-4.5-19.7c4.2,4.8,11.5,28.5,17.3,39.7c-0.5-1.9-0.9-4-1.4-6.1c-0.8-2-1.9-4.1-2.5-6c-1-2.9-1.8-5.8-2.5-8.8
		c-1.1-4.6-1.7-9.4-1.7-14.1c0.1-5.6,1.2-11.1,4.4-15.8c0.8-1.2,5.6-8.4,7.1-4.7c0.2,0.6,0.2,1.3,0.1,1.9
		c-0.7,6.1-2.9,11.7-4.3,17.7c-2,8.9-0.7,23.9,0,30.2c0.3,1,0.6,2.3,1,3.7c-1-11.1,3.8-24.2,8.3-26.5c5.5-2.8,0.1,8.3-4.1,18
		c-2.8,6.3-3,11.1-2.8,13.7c0.9,3.2,1.9,6.8,2.9,10.4c0.2,0.5,0.4,1,0.6,1.5c-0.5-2.4-0.7-4.8-0.6-7.2c0.4-6.4,7.6-19.1,12.4-17.3
		s-3.3,8.5-7.7,16.3c-2.3,4.3-3.1,9.2-2.5,14c0,0.3,0.1,0.6,0.1,0.9c0.5,1.6,1,3.3,1.5,4.8c1.1,3.5,2.2,6.9,3.2,10.2
		c-1.2-4.7-1.8-9.6-1.6-14.5c0.6-9.3,6.1-18.1,10.6-19.3s-4.1,14-7,22.6c-1.6,5-1.8,10.4-0.7,15.5c1.4,4.6,2.7,9.2,4.1,14
		c-0.4-6.3-0.2-12.7,0.4-19c0.9-10.4,7.1-17,11.3-16.7s-0.2,6.2-6.3,18.8c-3.2,6.6-4.7,14-4.2,21.3c0.6,2,1.1,4.1,1.7,6.3
		c0.7,2.6,1.2,5.3,1.6,8c0.6-2.5,1.5-6.1,2.6-10.1c1.2-4.4,2.2-8.9,2.7-13.5c0.6-5.3,2-11.9,7.2-14.6c1.8-0.9,3.4-0.6,4.3,1.2
		c0.5,1.1,0.6,2.4,0.3,3.6c-0.7,3.6-1.9,7.1-3.6,10.4c1,2,1.5,4.2,1.3,6.4c0,0.8,0,1.7-0.1,2.5c0.4-0.8,0.9-1.6,1.3-2.3
		c0.7-1.2,1.7-2.4,2.7-3.4c-0.3-2-0.4-3.9-0.4-5.9c0-2.6,3-9.1,5.7-4.3c1.1,1.9,0.9,5.8,1,8.3c0.8,0.7,1,2.1,0.3,4.4
		c0.4,5.9,0.5,11.9-0.9,17.6l0.9-1.6c1.3-6.8,2.1-13.7,2.3-20.6c0.3-11.4-1.5-20.8,1.6-24.3s4.8,8.9,3.5,22.4
		c-0.6,6.2-2.3,12.2-4.9,17.8c3.1-5.5,6.1-11.1,8.9-16.5c1.2-2.9,4.1-10.7,3.4-18.5c-0.9-10-1.6-18.1,2.2-23.7s4.6-2,2.7,9.7
		c-1.3,8-2.6,18.7-5,26.1c2.2-4.3,4.3-8.3,6.1-12c1.1-3.7,3.5-13.1,3.5-20.9c0-9.9,1.1-15.3,4-13.1c2,1.5,0.7,13.8-2.6,24.1
		c1.5-3.1,2.7-5.5,3.4-7c0.3-0.6,0.6-1.3,1-2.1c1.1-8.2,2.7-16.3,4.8-24.3c3.7-14,10.4-24.4,10.1-17.4c-0.2,6.4-11.1,28.7-14.4,40.9
		c1-1.7,2.1-3.6,3.2-5.4c0.8-2,1.4-4.3,2.2-6.1c1.3-2.8,2.6-5.5,4.2-8.1c2.4-4.1,5.2-7.9,8.5-11.4c3.9-4.1,8.5-7.2,14-8.5
		c1.4-0.3,9.8-2.3,8.4,1.4c-0.3,0.6-0.7,1.1-1.2,1.5c-4.7,4-10.1,6.6-15.2,10c-7.6,5.1-16.8,17-20.6,22.1c-0.5,0.9-1.1,2-1.8,3.4
		c6.9-8.8,19.3-15.1,24.2-13.7c6,1.7-5.6,6.1-15.4,10.4c-4.4,1.7-8.3,4.5-11.3,8.1c-1.5,2.9-3.3,6.2-5,9.6c-0.2,0.5-0.4,1-0.6,1.5
		c1.3-2.1,2.8-4,4.5-5.7c4.6-4.4,18.6-8.8,20.9-4.2s-8.2,4-16.7,6.7c-4.6,1.6-8.6,4.6-11.4,8.5l-0.5,0.7c-0.8,1.5-1.5,3.1-2.2,4.5
		c-1.6,3.4-3.1,6.5-4.6,9.6c2.3-4.3,5.3-8.2,8.7-11.7c6.8-6.4,16.8-9.1,21-6.9s-12.6,7.5-20.5,11.7c-4.6,2.6-8.4,6.3-11.2,10.8
		c-2.1,4.3-4.3,8.6-6.6,13c4-4.9,8.5-9.4,13.2-13.6c7.7-7,16.8-7.6,19.7-4.5s-4.3,4.4-17.4,9.4c-6.9,2.6-13,7-17.6,12.8
		c-1,1.9-2,3.8-3.1,5.8c-1.2,2.3-2.7,4.6-4.2,6.9c2.1-1.4,5.3-3.4,8.8-5.6c3.9-2.4,7.7-5,11.2-8c4-3.5,9.6-7.4,15.2-5.8
		c1.9,0.5,2.9,1.9,2.4,3.8c-0.4,1.2-1.2,2.2-2.2,2.8c-5.4,4.1-12.6,6.1-18.8,8.6c-5.7,2.2-11.6,4.1-17.5,5.6c-1.5,2.1-3,4.2-4.6,6.2
		l2.8,0.1c3.3,0.1,18.2-6.7,25.8-8.8s14.7,1.9,6.7,6.2s-29.6,3.3-29.6,3.3l-6.2-0.2c-1.5,1.9-2.9,3.7-4.3,5.3h29.6v8.2h-5.8
		l-4.8,29.2H80.8L76,400.5h-5.8v-8.2h19.6c0.2-3.5,0.1-7.1-0.3-10.6c-1.3-1.3-2.8-2.5-4.3-3.5c-8.6-6-23.2-6.5-27.1-17.9
		c-0.9-2.8,0.1-6.3,3.4-6.2c2.4,0.1,4.9,2.2,6.4,3.9c4.9,5.7,8.6,11.6,15,15.9c0.3,0.2,4.3,3.4,6.3,5.4c-0.2-1.9-0.5-3.9-0.9-6
		c-1.5-2.8-3.3-5.4-5.3-7.8c-5.2-6.5-13.2-10.3-18.9-16.5c-1.7-1.9-4-8.7,1.3-7c2.4,0.8,5.2,4.3,7,6c5.2,4.7,10.5,9.7,14,15.9
		c-0.2-0.6-0.3-1.2-0.4-1.8c-3.7-5.9-7.8-11.4-12.3-16.6c-7.5-8.6-15.3-14.2-15.4-18.9s9.6,3.2,17.8,13.9c3.7,4.9,6.6,10.5,8.6,16.3
		c-1.5-6.1-3.1-12.2-4.7-18.1c-1.1-2.9-4.3-10.6-10.2-15.9c-7.5-6.7-13.5-12.2-14.5-18.8S57.3,299.3,63.9,309.1z M105.6,384.6
		c1.1-1.5,2.3-3.2,3.5-5c0.7-3.1,1.2-6.2,1.5-9.3c0.2-2.7,0-5.4-0.4-8.1c-2,2.5-4.1,4.9-6.4,7.1c0.1,2.4,0.3,4.7,0.9,7
		C104.7,376.6,105.5,381.8,105.6,384.6z M99.2,392.3c1.5-1.6,3.2-3.5,5-5.8c0-1.9-0.3-3.7-0.8-5.5c-0.7-2.8-1.7-5.6-3.1-8.2
		c-2.8,2.6-4.8,4.4-4.8,4.4l-4.7,4.1c0.4,4.1,0.6,7.9,0.7,11.1H99.2z M90.7,380.5l2.1-1.9c1.2-1.1,3.3-5.1,5.6-9.8
		c-1-2-1.9-4-2.6-6.1c-2.5,4.6-4.7,8.2-6,10.1C90.2,375.4,90.5,378,90.7,380.5L90.7,380.5z"/>
	<path class="st2" d="M63.9,309.1c4.5,6.7,10.9,15.5,14.2,22.5c-1.3-4.6-2.5-9-3.7-13c-1.7-3.4-6.3-12-11.7-17.7
		c-6.8-7.3-9.7-11.9-6-12.3c2.5-0.3,9.9,9.6,14.6,19.4c-1-3.3-1.8-5.9-2.3-7.4c-0.2-0.7-0.4-1.4-0.7-2.2c-4.8-6.7-9.2-13.7-13.1-21
		c-6.8-12.8-9-24.9-4.5-19.7c4.2,4.8,11.5,28.5,17.3,39.7c-0.5-1.9-0.9-4-1.4-6.1c-0.8-2-1.9-4.1-2.5-6c-1-2.9-1.8-5.8-2.5-8.8
		c-1.1-4.6-1.7-9.4-1.7-14.1c0.1-5.6,1.2-11.1,4.4-15.8c0.8-1.2,5.6-8.4,7.1-4.7c0.2,0.6,0.2,1.3,0.1,1.9
		c-0.7,6.1-2.9,11.7-4.3,17.7c-2,8.9-0.7,23.9,0,30.2c0.3,1,0.6,2.3,1,3.7c-1-11.1,3.8-24.2,8.3-26.5c5.5-2.8,0.1,8.3-4.1,18
		c-2.8,6.3-3,11.1-2.8,13.7c0.9,3.2,1.9,6.8,2.9,10.4c0.2,0.5,0.4,1,0.6,1.5c-0.5-2.4-0.7-4.8-0.6-7.2c0.4-6.4,7.6-19.1,12.4-17.3
		s-3.3,8.5-7.7,16.3c-2.3,4.3-3.1,9.2-2.5,14c0,0.3,0.1,0.6,0.1,0.9c0.5,1.6,1,3.3,1.5,4.8c1.1,3.5,2.2,6.9,3.2,10.2
		c-1.2-4.7-1.8-9.6-1.6-14.5c0.6-9.3,6.1-18.1,10.6-19.3s-4.1,14-7,22.6c-1.6,5-1.8,10.4-0.7,15.5c1.4,4.6,2.7,9.2,4.1,14
		c-0.4-6.3-0.2-12.7,0.4-19c0.9-10.4,7.1-17,11.3-16.7s-0.2,6.2-6.3,18.8c-3.2,6.6-4.7,14-4.2,21.3c0.6,2,1.1,4.1,1.7,6.3
		c0.7,2.6,1.2,5.3,1.6,8c0.6-2.5,1.5-6.1,2.6-10.1c1.2-4.4,2.2-8.9,2.7-13.5c0.6-5.3,2-11.9,7.2-14.6c1.8-0.9,3.4-0.6,4.3,1.2
		c0.5,1.1,0.6,2.4,0.3,3.6c-0.7,3.6-1.9,7.1-3.6,10.4c1,2,1.5,4.2,1.3,6.4c0,0.8,0,1.7-0.1,2.5c0.4-0.8,0.9-1.6,1.3-2.3
		c0.7-1.2,1.7-2.4,2.7-3.4c-0.3-2-0.4-3.9-0.4-5.9c0-2.6,3-9.1,5.7-4.3c1.1,1.9,0.9,5.8,1,8.3c0.8,0.7,1,2.1,0.3,4.4
		c0.4,5.9,0.5,11.9-0.9,17.6l0.9-1.6c1.3-6.8,2.1-13.7,2.3-20.6c0.3-11.4-1.5-20.8,1.6-24.3s4.8,8.9,3.5,22.4
		c-0.6,6.2-2.3,12.2-4.9,17.8c3.1-5.5,6.1-11.1,8.9-16.5c1.2-2.9,4.1-10.7,3.4-18.5c-0.9-10-1.6-18.1,2.2-23.7s4.6-2,2.7,9.7
		c-1.3,8-2.6,18.7-5,26.1c2.2-4.3,4.3-8.3,6.1-12c1.1-3.7,3.5-13.1,3.5-20.9c0-9.9,1.1-15.3,4-13.1c2,1.5,0.7,13.8-2.6,24.1
		c1.5-3.1,2.7-5.5,3.4-7c0.3-0.6,0.6-1.3,1-2.1c1.1-8.2,2.7-16.3,4.8-24.3c3.7-14,10.4-24.4,10.1-17.4c-0.2,6.4-11.1,28.7-14.4,40.9
		c1-1.7,2.1-3.6,3.2-5.4c0.8-2,1.4-4.3,2.2-6.1c1.3-2.8,2.6-5.5,4.2-8.1c2.4-4.1,5.2-7.9,8.5-11.4c3.9-4.1,8.5-7.2,14-8.5
		c1.4-0.3,9.8-2.3,8.4,1.4c-0.3,0.6-0.7,1.1-1.2,1.5c-4.7,4-10.1,6.6-15.2,10c-7.6,5.1-16.8,17-20.6,22.1c-0.5,0.9-1.1,2-1.8,3.4
		c6.9-8.8,19.3-15.1,24.2-13.7c6,1.7-5.6,6.1-15.4,10.4c-4.4,1.7-8.3,4.5-11.3,8.1c-1.5,2.9-3.3,6.2-5,9.6c-0.2,0.5-0.4,1-0.6,1.5
		c1.3-2.1,2.8-4,4.5-5.7c4.6-4.4,18.6-8.8,20.9-4.2s-8.2,4-16.7,6.7c-4.6,1.6-8.6,4.6-11.4,8.5l-0.5,0.7c-0.8,1.5-1.5,3.1-2.2,4.5
		c-1.6,3.4-3.1,6.5-4.6,9.6c2.3-4.3,5.3-8.2,8.7-11.7c6.8-6.4,16.8-9.1,21-6.9s-12.6,7.5-20.5,11.7c-4.6,2.6-8.4,6.3-11.2,10.8
		c-2.1,4.3-4.3,8.6-6.6,13c4-4.9,8.5-9.4,13.2-13.6c7.7-7,16.8-7.6,19.7-4.5s-4.3,4.4-17.4,9.4c-6.9,2.6-13,7-17.6,12.8
		c-1,1.9-2,3.8-3.1,5.8c-1.2,2.3-2.7,4.6-4.2,6.9c2.1-1.4,5.3-3.4,8.8-5.6c3.9-2.4,7.7-5,11.2-8c4-3.5,9.6-7.4,15.2-5.8
		c1.9,0.5,2.9,1.9,2.4,3.8c-0.4,1.2-1.2,2.2-2.2,2.8c-5.4,4.1-12.6,6.1-18.8,8.6c-5.7,2.2-11.6,4.1-17.5,5.6c-1.5,2.1-3,4.2-4.6,6.2
		l2.8,0.1c3.3,0.1,18.2-6.7,25.8-8.8s14.7,1.9,6.7,6.2s-29.6,3.3-29.6,3.3l-6.2-0.2c-1.5,1.9-2.9,3.7-4.3,5.3h29.6v8.2h-5.8
		l-4.8,29.2H80.8L76,400.5h-5.8v-8.2h19.6c0.2-3.5,0.1-7.1-0.3-10.6c-1.3-1.3-2.8-2.5-4.3-3.5c-8.6-6-23.2-6.5-27.1-17.9
		c-0.9-2.8,0.1-6.3,3.4-6.2c2.4,0.1,4.9,2.2,6.4,3.9c4.9,5.7,8.6,11.6,15,15.9c0.3,0.2,4.3,3.4,6.3,5.4c-0.2-1.9-0.5-3.9-0.9-6
		c-1.5-2.8-3.3-5.4-5.3-7.8c-5.2-6.5-13.2-10.3-18.9-16.5c-1.7-1.9-4-8.7,1.3-7c2.4,0.8,5.2,4.3,7,6c5.2,4.7,10.5,9.7,14,15.9
		c-0.2-0.6-0.3-1.2-0.4-1.8c-3.7-5.9-7.8-11.4-12.3-16.6c-7.5-8.6-15.3-14.2-15.4-18.9s9.6,3.2,17.8,13.9c3.7,4.9,6.6,10.5,8.6,16.3
		c-1.5-6.1-3.1-12.2-4.7-18.1c-1.1-2.9-4.3-10.6-10.2-15.9c-7.5-6.7-13.5-12.2-14.5-18.8S57.3,299.3,63.9,309.1z M105.6,384.6
		c1.1-1.5,2.3-3.2,3.5-5c0.7-3.1,1.2-6.2,1.5-9.3c0.2-2.7,0-5.4-0.4-8.1c-2,2.5-4.1,4.9-6.4,7.1c0.1,2.4,0.3,4.7,0.9,7
		C104.7,376.6,105.5,381.8,105.6,384.6z M99.2,392.3c1.5-1.6,3.2-3.5,5-5.8c0-1.9-0.3-3.7-0.8-5.5c-0.7-2.8-1.7-5.6-3.1-8.2
		c-2.8,2.6-4.8,4.4-4.8,4.4l-4.7,4.1c0.4,4.1,0.6,7.9,0.7,11.1H99.2z M90.7,380.5l2.1-1.9c1.2-1.1,3.3-5.1,5.6-9.8
		c-1-2-1.9-4-2.6-6.1c-2.5,4.6-4.7,8.2-6,10.1C90.2,375.4,90.5,378,90.7,380.5L90.7,380.5z"/>
</g>
<g id="freepik--Device--inject-11">
	<rect x="96.2" y="107.2" class="st3" width="155.2" height="322.4"/>
	<rect x="105" y="118.7" class="st4" width="137.7" height="299.4"/>
	<g>
		<defs>
			<rect id="SVGID_1_" x="105" y="118.7" width="137.7" height="299.4"/>
		</defs>
		<clipPath id="SVGID_2_">
			<use xlink:href="#SVGID_1_"  style="overflow:visible;"/>
		</clipPath>
		<g class="st5">
			<path class="st6" d="M101.5,419.3c0,0,4.8-2.4,17.8-12.7s25.3-15.7,33.2-15.7s13,6.2,39.4,18.1s35.3,19.5,58.5-4.5
				s26.7-26.7,26.7-26.7"/>
			<path class="st6" d="M103.2,423.7c0,0,4.8-2.4,17.8-12.7s25.3-15.7,33.2-15.7s13,6.2,39.4,18.1s35.3,19.5,58.5-4.5
				s26.7-26.7,26.7-26.7"/>
			<path class="st7" d="M100.8,422.4c0,0,4.8-2.4,17.8-12.7s25.3-15.7,33.2-15.7s13,6.2,39.4,18.1s35.3,19.5,58.5-4.5
				s26.7-26.7,26.7-26.7"/>
			<path class="st6" d="M98.1,408c0,0,5.5-7.5,21.2-1.4s23.6,19.2,41.8,11.6s18.1-17.1,42.8-16.8s46.9,19.9,46.9,19.9"/>
			<path class="st6" d="M98.1,405.2c0,0,5.5-7.5,21.2-1.4s23.6,19.1,41.8,11.6s18.1-17.1,42.8-16.8s46.9,19.9,46.9,19.9"/>
			<path class="st7" d="M98.1,401.5c0,0,5.5-7.5,21.2-1.4s23.6,19.2,41.8,11.6s18.1-17.1,42.8-16.8s46.9,19.9,46.9,19.9"/>
			<path class="st7" d="M98.1,411c0,0,5.5-7.5,21.2-1.4s23.6,19.2,41.8,11.6s18.1-17.1,42.8-16.8s46.9,19.9,46.9,19.9"/>
			<path class="st7" d="M121.7,390.2c0,0,19.9,13.7,33.9,24s34.2,9.2,52.7-1.4s39-15.4,39-15.4c5.5-0.3,10.9,0.5,16.1,2.4"/>
			<path class="st6" d="M130.6,390.5c0,0,19.9,13.7,33.9,24s34.2,9.2,52.7-1.4s39-15.4,39-15.4c5.5-0.3,10.9,0.5,16.1,2.4"/>
		</g>
	</g>
	<rect x="105" y="118.7" class="st8" width="137.7" height="299.4"/>
	<rect x="105" y="296.3" class="st3" width="137.7" height="23.2"/>
	<rect x="105" y="350.3" class="st3" width="137.7" height="9.5"/>
	<rect x="105" y="383" class="st3" width="137.7" height="9.5"/>
	<path class="st7" d="M234.7,138.7H112.6c-3.6,0-6.6-3-6.6-6.6l0,0l0,0c0-3.6,2.9-6.6,6.6-6.6c0,0,0,0,0,0h122.1
		c3.6,0,6.6,2.9,6.6,6.6c0,0,0,0,0,0l0,0C241.3,135.8,238.3,138.7,234.7,138.7L234.7,138.7z"/>
	<rect x="113.1" y="128.7" class="st7" width="42.7" height="6.2"/>
	<path class="st7" d="M164.7,129.8c0,0.8-0.6,1.4-1.4,1.4s-1.4-0.6-1.4-1.4s0.6-1.4,1.4-1.4l0,0C164.1,128.4,164.7,129,164.7,129.8z
		"/>
	<path class="st7" d="M169.8,129.8c0,0.8-0.6,1.4-1.4,1.4s-1.4-0.6-1.4-1.4s0.6-1.4,1.4-1.4l0,0C169.2,128.4,169.8,129,169.8,129.8z
		"/>
	<path class="st7" d="M174.9,129.8c0,0.8-0.6,1.4-1.4,1.4s-1.4-0.6-1.4-1.4s0.6-1.4,1.4-1.4l0,0C174.3,128.4,174.9,129,174.9,129.8z
		"/>
	<path class="st7" d="M180,129.8c0,0.8-0.6,1.4-1.4,1.4s-1.4-0.6-1.4-1.4s0.6-1.4,1.4-1.4c0,0,0,0,0,0
		C179.4,128.4,180,129,180,129.8z"/>
	<path class="st7" d="M185.1,129.8c0,0.8-0.6,1.4-1.4,1.4s-1.4-0.6-1.4-1.4s0.6-1.4,1.4-1.4l0,0C184.5,128.4,185.1,129,185.1,129.8z
		"/>
	<path class="st7" d="M190.2,129.8c0,0.8-0.6,1.4-1.4,1.4s-1.4-0.6-1.4-1.4s0.6-1.4,1.4-1.4c0,0,0,0,0,0
		C189.6,128.4,190.2,129,190.2,129.8z"/>
	<circle class="st7" cx="163.3" cy="134.3" r="1.4"/>
	<circle class="st7" cx="168.4" cy="134.3" r="1.4"/>
	<circle class="st7" cx="173.5" cy="134.3" r="1.4"/>
	<circle class="st7" cx="178.6" cy="134.3" r="1.4"/>
	<path class="st7" d="M185.1,134.3c0,0.8-0.6,1.4-1.4,1.4s-1.4-0.6-1.4-1.4s0.6-1.4,1.4-1.4l0,0
		C184.5,132.9,185.1,133.6,185.1,134.3z"/>
	<path class="st7" d="M190.2,134.3c0,0.8-0.6,1.4-1.4,1.4s-1.4-0.6-1.4-1.4s0.6-1.4,1.4-1.4c0,0,0,0,0,0
		C189.6,132.9,190.2,133.6,190.2,134.3z"/>
	<rect x="115" y="130.3" class="st0" width="38.8" height="3.1"/>
	<rect x="193.2" y="124" class="st9" width="4" height="15.9"/>
	<rect x="199.6" y="129.8" class="st10" width="34.3" height="4.4"/>
	<path class="st7" d="M234.7,157.7H112.6c-3.6,0-6.6-3-6.6-6.6l0,0l0,0c0-3.6,2.9-6.6,6.6-6.6c0,0,0,0,0,0h122.1
		c3.6,0,6.6,2.9,6.6,6.6c0,0,0,0,0,0l0,0C241.3,154.7,238.3,157.7,234.7,157.7L234.7,157.7z"/>
	<rect x="113.1" y="147.7" class="st7" width="42.7" height="6.2"/>
	<path class="st7" d="M164.7,148.7c0,0.8-0.6,1.4-1.4,1.4s-1.4-0.6-1.4-1.4s0.6-1.4,1.4-1.4l0,0C164.1,147.4,164.7,148,164.7,148.7z
		"/>
	<path class="st7" d="M169.8,148.7c0,0.8-0.6,1.4-1.4,1.4s-1.4-0.6-1.4-1.4s0.6-1.4,1.4-1.4l0,0C169.2,147.4,169.8,148,169.8,148.7z
		"/>
	<path class="st7" d="M174.9,148.7c0,0.8-0.6,1.4-1.4,1.4s-1.4-0.6-1.4-1.4s0.6-1.4,1.4-1.4l0,0C174.3,147.4,174.9,148,174.9,148.7z
		"/>
	<path class="st7" d="M180,148.7c0,0.8-0.6,1.4-1.4,1.4s-1.4-0.6-1.4-1.4s0.6-1.4,1.4-1.4c0,0,0,0,0,0
		C179.4,147.3,180,148,180,148.7z"/>
	<path class="st7" d="M185.1,148.7c0,0.8-0.6,1.4-1.4,1.4s-1.4-0.6-1.4-1.4s0.6-1.4,1.4-1.4l0,0C184.5,147.4,185.1,148,185.1,148.7z
		"/>
	<path class="st7" d="M190.2,148.7c0,0.8-0.6,1.4-1.4,1.4s-1.4-0.6-1.4-1.4s0.6-1.4,1.4-1.4c0,0,0,0,0,0
		C189.6,147.3,190.2,148,190.2,148.7z"/>
	<path class="st7" d="M164.7,153.3c0,0.8-0.6,1.4-1.4,1.4s-1.4-0.6-1.4-1.4s0.6-1.4,1.4-1.4l0,0
		C164.1,151.9,164.7,152.5,164.7,153.3z"/>
	<path class="st7" d="M169.8,153.3c0,0.8-0.6,1.4-1.4,1.4s-1.4-0.6-1.4-1.4s0.6-1.4,1.4-1.4l0,0
		C169.2,151.9,169.8,152.5,169.8,153.3z"/>
	<path class="st7" d="M174.9,153.3c0,0.8-0.6,1.4-1.4,1.4s-1.4-0.6-1.4-1.4s0.6-1.4,1.4-1.4l0,0
		C174.3,151.9,174.9,152.5,174.9,153.3z"/>
	<path class="st7" d="M180,153.3c0,0.8-0.6,1.4-1.4,1.4s-1.4-0.6-1.4-1.4s0.6-1.4,1.4-1.4c0,0,0,0,0,0
		C179.4,151.9,180,152.5,180,153.3z"/>
	<path class="st7" d="M185.1,153.3c0,0.8-0.6,1.4-1.4,1.4s-1.4-0.6-1.4-1.4s0.6-1.4,1.4-1.4l0,0
		C184.5,151.9,185.1,152.5,185.1,153.3z"/>
	<path class="st7" d="M190.2,153.3c0,0.8-0.6,1.4-1.4,1.4s-1.4-0.6-1.4-1.4s0.6-1.4,1.4-1.4c0,0,0,0,0,0
		C189.6,151.9,190.2,152.5,190.2,153.3z"/>
	<rect x="115" y="149.2" class="st0" width="38.8" height="3.1"/>
	<rect x="193.2" y="142.9" class="st9" width="4" height="15.9"/>
	<path class="st7" d="M234.7,144.5h-41.4v13.2h41.4c3.6,0,6.6-3,6.6-6.6C241.3,147.4,238.3,144.5,234.7,144.5L234.7,144.5z"/>
	<rect x="199.6" y="148.7" class="st10" width="34.3" height="4.4"/>
	<path class="st7" d="M234.7,176.6H112.6c-3.6,0-6.6-2.9-6.6-6.6c0,0,0,0,0,0l0,0c0-3.6,3-6.6,6.6-6.6c0,0,0,0,0,0h122.1
		c3.6,0,6.6,2.9,6.6,6.6c0,0,0,0,0,0l0,0C241.3,173.6,238.3,176.6,234.7,176.6C234.7,176.6,234.7,176.6,234.7,176.6z"/>
	<rect x="113.1" y="166.6" class="st7" width="42.7" height="6.2"/>
	<circle class="st7" cx="163.3" cy="167.7" r="1.4"/>
	<circle class="st7" cx="168.4" cy="167.7" r="1.4"/>
	<circle class="st7" cx="173.5" cy="167.7" r="1.4"/>
	<circle class="st7" cx="178.6" cy="167.7" r="1.4"/>
	<path class="st7" d="M185.1,167.7c0,0.8-0.6,1.4-1.4,1.4s-1.4-0.6-1.4-1.4s0.6-1.4,1.4-1.4l0,0
		C184.5,166.3,185.1,166.9,185.1,167.7z"/>
	<path class="st7" d="M190.2,167.7c0,0.8-0.6,1.4-1.4,1.4s-1.4-0.6-1.4-1.4s0.6-1.4,1.4-1.4c0,0,0,0,0,0
		C189.6,166.3,190.2,166.9,190.2,167.7z"/>
	<circle class="st7" cx="163.3" cy="172.2" r="1.4"/>
	<circle class="st7" cx="168.4" cy="172.2" r="1.4"/>
	<circle class="st7" cx="173.5" cy="172.2" r="1.4"/>
	<circle class="st7" cx="178.6" cy="172.2" r="1.4"/>
	<path class="st7" d="M185.1,172.2c0,0.8-0.6,1.4-1.4,1.4c-0.8,0-1.4-0.6-1.4-1.4c0-0.8,0.6-1.4,1.4-1.4
		C184.5,170.8,185.1,171.4,185.1,172.2C185.1,172.2,185.1,172.2,185.1,172.2z"/>
	<path class="st7" d="M190.2,172.2c0,0.8-0.6,1.4-1.4,1.4s-1.4-0.6-1.4-1.4c0-0.8,0.6-1.4,1.4-1.4h0
		C189.6,170.8,190.2,171.4,190.2,172.2z"/>
	<rect x="115" y="168.1" class="st0" width="38.8" height="3.1"/>
	<rect x="193.2" y="161.9" class="st9" width="4" height="15.9"/>
	<rect x="199.6" y="167.6" class="st0" width="34.3" height="4.4"/>
	<path class="st7" d="M112.6,182.4h122.1c3.6,0,6.6,3,6.6,6.6v0c0,3.6-3,6.6-6.6,6.6H112.6c-3.6,0-6.6-3-6.6-6.6v0
		C106,185.3,109,182.4,112.6,182.4z"/>
	<rect x="113.1" y="185.5" class="st7" width="42.7" height="6.2"/>
	<path class="st7" d="M164.7,186.6c0,0.8-0.6,1.4-1.4,1.4s-1.4-0.6-1.4-1.4s0.6-1.4,1.4-1.4l0,0
		C164.1,185.2,164.7,185.8,164.7,186.6z"/>
	<path class="st7" d="M169.8,186.6c0,0.8-0.6,1.4-1.4,1.4s-1.4-0.6-1.4-1.4s0.6-1.4,1.4-1.4l0,0
		C169.2,185.2,169.8,185.8,169.8,186.6z"/>
	<path class="st7" d="M174.9,186.6c0,0.8-0.6,1.4-1.4,1.4s-1.4-0.6-1.4-1.4s0.6-1.4,1.4-1.4l0,0
		C174.3,185.2,174.9,185.8,174.9,186.6z"/>
	<path class="st7" d="M180,186.6c0,0.8-0.6,1.4-1.4,1.4s-1.4-0.6-1.4-1.4s0.6-1.4,1.4-1.4c0,0,0,0,0,0
		C179.4,185.2,180,185.8,180,186.6z"/>
	<path class="st7" d="M185.1,186.6c0,0.8-0.6,1.4-1.4,1.4s-1.4-0.6-1.4-1.4s0.6-1.4,1.4-1.4l0,0
		C184.5,185.2,185.1,185.8,185.1,186.6z"/>
	<path class="st7" d="M190.2,186.6c0,0.8-0.6,1.4-1.4,1.4s-1.4-0.6-1.4-1.4s0.6-1.4,1.4-1.4c0,0,0,0,0,0
		C189.6,185.2,190.2,185.8,190.2,186.6z"/>
	<path class="st7" d="M164.7,191.1c0,0.8-0.6,1.4-1.4,1.4s-1.4-0.6-1.4-1.4s0.6-1.4,1.4-1.4l0,0
		C164.1,189.7,164.7,190.4,164.7,191.1z"/>
	<path class="st7" d="M169.8,191.1c0,0.8-0.6,1.4-1.4,1.4s-1.4-0.6-1.4-1.4s0.6-1.4,1.4-1.4l0,0
		C169.2,189.7,169.8,190.4,169.8,191.1z"/>
	<path class="st7" d="M174.9,191.1c0,0.8-0.6,1.4-1.4,1.4s-1.4-0.6-1.4-1.4s0.6-1.4,1.4-1.4l0,0
		C174.3,189.7,174.9,190.4,174.9,191.1z"/>
	<path class="st7" d="M180,191.1c0,0.8-0.6,1.4-1.4,1.4s-1.4-0.6-1.4-1.4s0.6-1.4,1.4-1.4c0,0,0,0,0,0
		C179.4,189.7,180,190.4,180,191.1z"/>
	<path class="st7" d="M185.1,191.1c0,0.8-0.6,1.4-1.4,1.4s-1.4-0.6-1.4-1.4s0.6-1.4,1.4-1.4l0,0
		C184.5,189.7,185.1,190.4,185.1,191.1z"/>
	<path class="st7" d="M190.2,191.1c0,0.8-0.6,1.4-1.4,1.4s-1.4-0.6-1.4-1.4s0.6-1.4,1.4-1.4c0,0,0,0,0,0
		C189.6,189.7,190.2,190.4,190.2,191.1z"/>
	<rect x="115" y="187.1" class="st0" width="38.8" height="3.1"/>
	<rect x="193.2" y="180.8" class="st9" width="4" height="15.9"/>
	<rect x="199.6" y="186.6" class="st0" width="34.3" height="4.4"/>
	<path class="st7" d="M234.7,214.5H112.6c-3.6,0-6.6-2.9-6.6-6.6c0,0,0,0,0,0l0,0c0-3.6,3-6.6,6.6-6.6c0,0,0,0,0,0h122.1
		c3.6,0,6.6,3,6.6,6.6v0l0,0C241.3,211.5,238.3,214.5,234.7,214.5C234.7,214.5,234.7,214.5,234.7,214.5z"/>
	<rect x="113.1" y="204.5" class="st7" width="42.7" height="6.2"/>
	<circle class="st7" cx="163.3" cy="205.6" r="1.4"/>
	<circle class="st7" cx="168.4" cy="205.6" r="1.4"/>
	<circle class="st7" cx="173.5" cy="205.6" r="1.4"/>
	<circle class="st7" cx="178.6" cy="205.6" r="1.4"/>
	<path class="st7" d="M185.1,205.6c0,0.8-0.6,1.4-1.4,1.4s-1.4-0.6-1.4-1.4s0.6-1.4,1.4-1.4l0,0
		C184.5,204.2,185.1,204.8,185.1,205.6z"/>
	<path class="st7" d="M190.2,205.6c0,0.8-0.6,1.4-1.4,1.4s-1.4-0.6-1.4-1.4s0.6-1.4,1.4-1.4c0,0,0,0,0,0
		C189.6,204.2,190.2,204.8,190.2,205.6z"/>
	<circle class="st7" cx="163.3" cy="210.1" r="1.4"/>
	<circle class="st7" cx="168.4" cy="210.1" r="1.4"/>
	<circle class="st7" cx="173.5" cy="210.1" r="1.4"/>
	<circle class="st7" cx="178.6" cy="210.1" r="1.4"/>
	<path class="st7" d="M185.1,210.1c0,0.8-0.6,1.4-1.4,1.4s-1.4-0.6-1.4-1.4s0.6-1.4,1.4-1.4l0,0
		C184.5,208.7,185.1,209.3,185.1,210.1z"/>
	<path class="st7" d="M190.2,210.1c0,0.8-0.6,1.4-1.4,1.4s-1.4-0.6-1.4-1.4s0.6-1.4,1.4-1.4c0,0,0,0,0,0
		C189.6,208.7,190.2,209.3,190.2,210.1z"/>
	<rect x="115" y="206" class="st0" width="38.8" height="3.1"/>
	<rect x="193.2" y="199.7" class="st9" width="4" height="15.9"/>
	<rect x="199.6" y="205.5" class="st10" width="34.3" height="4.4"/>
	<path class="st7" d="M234.7,378.3H112.6c-3.6,0-6.6-3-6.6-6.6l0,0l0,0c0-3.6,3-6.6,6.6-6.6c0,0,0,0,0,0h122.1c3.6,0,6.6,3,6.6,6.6
		l0,0l0,0C241.3,375.3,238.3,378.3,234.7,378.3L234.7,378.3z"/>
	<rect x="113.1" y="368.3" class="st7" width="42.7" height="6.2"/>
	<path class="st7" d="M164.7,369.4c0,0.8-0.6,1.4-1.4,1.4s-1.4-0.6-1.4-1.4c0-0.8,0.6-1.4,1.4-1.4S164.7,368.6,164.7,369.4
		L164.7,369.4z"/>
	<path class="st7" d="M169.8,369.4c0,0.8-0.6,1.4-1.4,1.4s-1.4-0.6-1.4-1.4c0-0.8,0.6-1.4,1.4-1.4S169.8,368.6,169.8,369.4
		L169.8,369.4z"/>
	<path class="st7" d="M174.9,369.4c0,0.8-0.6,1.4-1.4,1.4s-1.4-0.6-1.4-1.4c0-0.8,0.6-1.4,1.4-1.4S174.9,368.6,174.9,369.4
		L174.9,369.4z"/>
	<path class="st7" d="M180,369.4c0,0.8-0.6,1.4-1.4,1.4c-0.8,0-1.4-0.6-1.4-1.4c0-0.8,0.6-1.4,1.4-1.4c0,0,0,0,0,0
		C179.4,368,180,368.6,180,369.4z"/>
	<path class="st7" d="M185.1,369.4c0,0.8-0.6,1.4-1.4,1.4s-1.4-0.6-1.4-1.4c0-0.8,0.6-1.4,1.4-1.4S185.1,368.6,185.1,369.4
		L185.1,369.4z"/>
	<path class="st7" d="M190.2,369.4c0,0.8-0.6,1.4-1.4,1.4c-0.8,0-1.4-0.6-1.4-1.4c0-0.8,0.6-1.4,1.4-1.4c0,0,0,0,0,0
		C189.6,368,190.2,368.6,190.2,369.4z"/>
	<path class="st7" d="M164.7,373.9c0,0.8-0.6,1.4-1.4,1.4s-1.4-0.6-1.4-1.4c0-0.8,0.6-1.4,1.4-1.4S164.7,373.1,164.7,373.9
		L164.7,373.9z"/>
	<path class="st7" d="M169.8,373.9c0,0.8-0.6,1.4-1.4,1.4s-1.4-0.6-1.4-1.4c0-0.8,0.6-1.4,1.4-1.4S169.8,373.1,169.8,373.9
		L169.8,373.9z"/>
	<path class="st7" d="M174.9,373.9c0,0.8-0.6,1.4-1.4,1.4s-1.4-0.6-1.4-1.4c0-0.8,0.6-1.4,1.4-1.4S174.9,373.1,174.9,373.9
		L174.9,373.9z"/>
	<path class="st7" d="M180,373.9c0,0.8-0.6,1.4-1.4,1.4c-0.8,0-1.4-0.6-1.4-1.4c0-0.8,0.6-1.4,1.4-1.4c0,0,0,0,0,0
		C179.4,372.5,180,373.1,180,373.9z"/>
	<path class="st7" d="M185.1,373.9c0,0.8-0.6,1.4-1.4,1.4s-1.4-0.6-1.4-1.4c0-0.8,0.6-1.4,1.4-1.4S185.1,373.1,185.1,373.9
		L185.1,373.9z"/>
	<path class="st7" d="M190.2,373.9c0,0.8-0.6,1.4-1.4,1.4c-0.8,0-1.4-0.6-1.4-1.4c0-0.8,0.6-1.4,1.4-1.4c0,0,0,0,0,0
		C189.6,372.5,190.2,373.1,190.2,373.9z"/>
	<rect x="115" y="369.8" class="st0" width="38.8" height="3.1"/>
	<rect x="193.2" y="363.5" class="st9" width="4" height="15.9"/>
	<path class="st7" d="M234.7,365.1h-41.4v13.2h41.4c3.6,0,6.6-3,6.6-6.6S238.3,365.1,234.7,365.1L234.7,365.1z"/>
	<rect x="199.6" y="369.3" class="st10" width="34.3" height="4.4"/>
	<path class="st7" d="M234.7,233.4H112.6c-3.6,0-6.6-3-6.6-6.6l0,0l0,0c0-3.6,3-6.6,6.6-6.6c0,0,0,0,0,0h122.1c3.6,0,6.6,3,6.6,6.6
		v0l0,0C241.3,230.5,238.3,233.4,234.7,233.4L234.7,233.4z"/>
	<rect x="113.1" y="223.4" class="st7" width="42.7" height="6.2"/>
	<path class="st7" d="M164.7,224.5c0,0.8-0.6,1.4-1.4,1.4s-1.4-0.6-1.4-1.4s0.6-1.4,1.4-1.4l0,0
		C164.1,223.1,164.7,223.7,164.7,224.5z"/>
	<path class="st7" d="M169.8,224.5c0,0.8-0.6,1.4-1.4,1.4s-1.4-0.6-1.4-1.4s0.6-1.4,1.4-1.4l0,0
		C169.2,223.1,169.8,223.7,169.8,224.5z"/>
	<path class="st7" d="M174.9,224.5c0,0.8-0.6,1.4-1.4,1.4s-1.4-0.6-1.4-1.4s0.6-1.4,1.4-1.4l0,0
		C174.3,223.1,174.9,223.7,174.9,224.5z"/>
	<path class="st7" d="M180,224.5c0,0.8-0.6,1.4-1.4,1.4s-1.4-0.6-1.4-1.4s0.6-1.4,1.4-1.4c0,0,0,0,0,0
		C179.4,223.1,180,223.7,180,224.5z"/>
	<path class="st7" d="M185.1,224.5c0,0.8-0.6,1.4-1.4,1.4s-1.4-0.6-1.4-1.4s0.6-1.4,1.4-1.4l0,0
		C184.5,223.1,185.1,223.7,185.1,224.5z"/>
	<path class="st7" d="M190.2,224.5c0,0.8-0.6,1.4-1.4,1.4s-1.4-0.6-1.4-1.4s0.6-1.4,1.4-1.4c0,0,0,0,0,0
		C189.6,223.1,190.2,223.7,190.2,224.5z"/>
	<path class="st7" d="M164.7,229c0,0.8-0.6,1.4-1.4,1.4s-1.4-0.6-1.4-1.4s0.6-1.4,1.4-1.4l0,0C164.1,227.6,164.7,228.2,164.7,229z"
		/>
	<path class="st7" d="M169.8,229c0,0.8-0.6,1.4-1.4,1.4s-1.4-0.6-1.4-1.4s0.6-1.4,1.4-1.4l0,0C169.2,227.6,169.8,228.2,169.8,229z"
		/>
	<path class="st7" d="M174.9,229c0,0.8-0.6,1.4-1.4,1.4s-1.4-0.6-1.4-1.4s0.6-1.4,1.4-1.4l0,0C174.3,227.6,174.9,228.2,174.9,229z"
		/>
	<path class="st7" d="M180,229c0,0.8-0.6,1.4-1.4,1.4s-1.4-0.6-1.4-1.4s0.6-1.4,1.4-1.4c0,0,0,0,0,0C179.4,227.6,180,228.2,180,229z
		"/>
	<path class="st7" d="M185.1,229c0,0.8-0.6,1.4-1.4,1.4s-1.4-0.6-1.4-1.4s0.6-1.4,1.4-1.4l0,0C184.5,227.6,185.1,228.2,185.1,229z"
		/>
	<path class="st7" d="M190.2,229c0,0.8-0.6,1.4-1.4,1.4s-1.4-0.6-1.4-1.4s0.6-1.4,1.4-1.4c0,0,0,0,0,0
		C189.6,227.6,190.2,228.2,190.2,229z"/>
	<rect x="115" y="225" class="st0" width="38.8" height="3.1"/>
	<rect x="193.2" y="218.7" class="st9" width="4" height="15.9"/>
	<rect x="199.6" y="224.4" class="st10" width="34.3" height="4.4"/>
	<path class="st7" d="M234.7,252.4H112.6c-3.6,0-6.6-3-6.6-6.6l0,0l0,0c0-3.6,2.9-6.6,6.6-6.6c0,0,0,0,0,0h122.1
		c3.6,0,6.6,2.9,6.6,6.6c0,0,0,0,0,0l0,0C241.3,249.4,238.3,252.4,234.7,252.4L234.7,252.4z"/>
	<rect x="113.1" y="242.4" class="st7" width="42.7" height="6.2"/>
	<circle class="st7" cx="163.3" cy="243.4" r="1.4"/>
	<circle class="st7" cx="168.4" cy="243.4" r="1.4"/>
	<circle class="st7" cx="173.5" cy="243.4" r="1.4"/>
	<circle class="st7" cx="178.6" cy="243.4" r="1.4"/>
	<path class="st7" d="M185.1,243.4c0,0.8-0.6,1.4-1.4,1.4s-1.4-0.6-1.4-1.4s0.6-1.4,1.4-1.4l0,0C184.5,242,185.1,242.7,185.1,243.4z
		"/>
	<path class="st7" d="M190.2,243.4c0,0.8-0.6,1.4-1.4,1.4s-1.4-0.6-1.4-1.4s0.6-1.4,1.4-1.4c0,0,0,0,0,0
		C189.6,242,190.2,242.7,190.2,243.4z"/>
	<circle class="st7" cx="163.3" cy="247.9" r="1.4"/>
	<circle class="st7" cx="168.4" cy="247.9" r="1.4"/>
	<circle class="st7" cx="173.5" cy="247.9" r="1.4"/>
	<circle class="st7" cx="178.6" cy="247.9" r="1.4"/>
	<path class="st7" d="M185.1,248c0,0.8-0.6,1.4-1.4,1.4s-1.4-0.6-1.4-1.4s0.6-1.4,1.4-1.4l0,0C184.5,246.6,185.1,247.2,185.1,248z"
		/>
	<path class="st7" d="M190.2,248c0,0.8-0.6,1.4-1.4,1.4s-1.4-0.6-1.4-1.4s0.6-1.4,1.4-1.4c0,0,0,0,0,0
		C189.6,246.6,190.2,247.2,190.2,248z"/>
	<rect x="115" y="243.9" class="st0" width="38.8" height="3.1"/>
	<rect x="193.2" y="237.6" class="st9" width="4" height="15.9"/>
	<path class="st7" d="M234.7,239.2h-41.4v13.2h41.4c3.6,0,6.6-3,6.6-6.6C241.3,242.1,238.3,239.2,234.7,239.2L234.7,239.2z"/>
	<rect x="199.6" y="243.4" class="st10" width="34.3" height="4.4"/>
	<path class="st7" d="M112.6,259.6h122.1c3.6,0,6.6,3,6.6,6.6l0,0c0,3.6-3,6.6-6.6,6.6H112.6c-3.6,0-6.6-3-6.6-6.6l0,0
		C106,262.6,109,259.6,112.6,259.6z"/>
	<rect x="113.1" y="262.8" class="st7" width="42.7" height="6.2"/>
	<path class="st7" d="M164.7,263.9c0,0.8-0.6,1.4-1.4,1.4s-1.4-0.6-1.4-1.4c0-0.8,0.6-1.4,1.4-1.4
		C164.1,262.5,164.7,263.1,164.7,263.9z"/>
	<path class="st7" d="M169.8,263.9c0,0.8-0.6,1.4-1.4,1.4s-1.4-0.6-1.4-1.4c0-0.8,0.6-1.4,1.4-1.4
		C169.2,262.5,169.8,263.1,169.8,263.9z"/>
	<path class="st7" d="M174.9,263.9c0,0.8-0.6,1.4-1.4,1.4s-1.4-0.6-1.4-1.4c0-0.8,0.6-1.4,1.4-1.4
		C174.3,262.5,174.9,263.1,174.9,263.9z"/>
	<path class="st7" d="M180,263.9c0,0.8-0.6,1.4-1.4,1.4c-0.8,0-1.4-0.6-1.4-1.4c0-0.8,0.6-1.4,1.4-1.4c0,0,0,0,0,0
		C179.4,262.5,180,263.1,180,263.9z"/>
	<path class="st7" d="M185.1,263.9c0,0.8-0.6,1.4-1.4,1.4s-1.4-0.6-1.4-1.4c0-0.8,0.6-1.4,1.4-1.4
		C184.5,262.5,185.1,263.1,185.1,263.9z"/>
	<path class="st7" d="M190.2,263.9c0,0.8-0.6,1.4-1.4,1.4c-0.8,0-1.4-0.6-1.4-1.4c0-0.8,0.6-1.4,1.4-1.4c0,0,0,0,0,0
		C189.6,262.5,190.2,263.1,190.2,263.9z"/>
	<path class="st7" d="M164.7,268.4c0,0.8-0.6,1.4-1.4,1.4s-1.4-0.6-1.4-1.4c0-0.8,0.6-1.4,1.4-1.4S164.7,267.7,164.7,268.4
		L164.7,268.4z"/>
	<path class="st7" d="M169.8,268.4c0,0.8-0.6,1.4-1.4,1.4s-1.4-0.6-1.4-1.4c0-0.8,0.6-1.4,1.4-1.4S169.8,267.7,169.8,268.4
		L169.8,268.4z"/>
	<path class="st7" d="M174.9,268.4c0,0.8-0.6,1.4-1.4,1.4s-1.4-0.6-1.4-1.4c0-0.8,0.6-1.4,1.4-1.4S174.9,267.7,174.9,268.4
		L174.9,268.4z"/>
	<path class="st7" d="M180,268.4c0,0.8-0.6,1.4-1.4,1.4c-0.8,0-1.4-0.6-1.4-1.4c0-0.8,0.6-1.4,1.4-1.4c0,0,0,0,0,0
		C179.4,267,180,267.7,180,268.4z"/>
	<path class="st7" d="M185.1,268.4c0,0.8-0.6,1.4-1.4,1.4s-1.4-0.6-1.4-1.4c0-0.8,0.6-1.4,1.4-1.4S185.1,267.7,185.1,268.4
		L185.1,268.4z"/>
	<path class="st7" d="M190.2,268.4c0,0.8-0.6,1.4-1.4,1.4c-0.8,0-1.4-0.6-1.4-1.4c0-0.8,0.6-1.4,1.4-1.4c0,0,0,0,0,0
		C189.6,267,190.2,267.7,190.2,268.4z"/>
	<rect x="115" y="264.4" class="st0" width="38.8" height="3.1"/>
	<rect x="193.2" y="258.1" class="st9" width="4" height="15.9"/>
	<path class="st9" d="M234.7,259.6h-41.4v13.2h41.4c3.6,0,6.6-3,6.6-6.6S238.3,259.6,234.7,259.6L234.7,259.6z"/>
	<rect x="199.6" y="263.9" class="st11" width="34.3" height="4.4"/>
	<path class="st7" d="M112.6,278.1h122.1c3.6,0,6.6,3,6.6,6.6l0,0c0,3.6-3,6.6-6.6,6.6H112.6c-3.6,0-6.6-3-6.6-6.6l0,0
		C106,281,109,278.1,112.6,278.1z"/>
	<rect x="113.1" y="281.3" class="st7" width="42.7" height="6.2"/>
	<path class="st7" d="M164.7,282.3c0,0.8-0.6,1.4-1.4,1.4s-1.4-0.6-1.4-1.4c0-0.8,0.6-1.4,1.4-1.4S164.7,281.6,164.7,282.3
		L164.7,282.3z"/>
	<path class="st7" d="M169.8,282.3c0,0.8-0.6,1.4-1.4,1.4s-1.4-0.6-1.4-1.4c0-0.8,0.6-1.4,1.4-1.4S169.8,281.6,169.8,282.3
		L169.8,282.3z"/>
	<path class="st7" d="M174.9,282.3c0,0.8-0.6,1.4-1.4,1.4s-1.4-0.6-1.4-1.4c0-0.8,0.6-1.4,1.4-1.4S174.9,281.6,174.9,282.3
		L174.9,282.3z"/>
	<path class="st7" d="M180,282.3c0,0.8-0.6,1.4-1.4,1.4c-0.8,0-1.4-0.6-1.4-1.4c0-0.8,0.6-1.4,1.4-1.4c0,0,0,0,0,0
		C179.4,280.9,180,281.6,180,282.3z"/>
	<path class="st7" d="M185.1,282.3c0,0.8-0.6,1.4-1.4,1.4s-1.4-0.6-1.4-1.4c0-0.8,0.6-1.4,1.4-1.4S185.1,281.6,185.1,282.3
		L185.1,282.3z"/>
	<path class="st7" d="M190.2,282.3c0,0.8-0.6,1.4-1.4,1.4c-0.8,0-1.4-0.6-1.4-1.4c0-0.8,0.6-1.4,1.4-1.4c0,0,0,0,0,0
		C189.6,280.9,190.2,281.6,190.2,282.3z"/>
	<path class="st7" d="M164.7,286.9c0,0.8-0.6,1.4-1.4,1.4s-1.4-0.6-1.4-1.4c0-0.8,0.6-1.4,1.4-1.4S164.7,286.1,164.7,286.9
		L164.7,286.9z"/>
	<path class="st7" d="M169.8,286.9c0,0.8-0.6,1.4-1.4,1.4s-1.4-0.6-1.4-1.4c0-0.8,0.6-1.4,1.4-1.4S169.8,286.1,169.8,286.9
		L169.8,286.9z"/>
	<path class="st7" d="M174.9,286.9c0,0.8-0.6,1.4-1.4,1.4s-1.4-0.6-1.4-1.4c0-0.8,0.6-1.4,1.4-1.4S174.9,286.1,174.9,286.9
		L174.9,286.9z"/>
	<path class="st7" d="M180,286.9c0,0.8-0.6,1.4-1.4,1.4c-0.8,0-1.4-0.6-1.4-1.4c0-0.8,0.6-1.4,1.4-1.4c0,0,0,0,0,0
		C179.4,285.5,180,286.1,180,286.9z"/>
	<path class="st7" d="M185.1,286.9c0,0.8-0.6,1.4-1.4,1.4s-1.4-0.6-1.4-1.4c0-0.8,0.6-1.4,1.4-1.4S185.1,286.1,185.1,286.9
		L185.1,286.9z"/>
	<path class="st7" d="M190.2,286.9c0,0.8-0.6,1.4-1.4,1.4c-0.8,0-1.4-0.6-1.4-1.4c0-0.8,0.6-1.4,1.4-1.4c0,0,0,0,0,0
		C189.6,285.5,190.2,286.1,190.2,286.9z"/>
	<rect x="115" y="282.8" class="st0" width="38.8" height="3.1"/>
	<rect x="193.2" y="276.5" class="st9" width="4" height="15.9"/>
	<path class="st9" d="M234.7,278.1h-41.4v13.2h41.4c3.6,0,6.6-3,6.6-6.6S238.3,278.1,234.7,278.1L234.7,278.1z"/>
	<rect x="199.6" y="282.3" class="st11" width="34.3" height="4.4"/>
	<line class="st12" x1="45.2" y1="429.7" x2="451" y2="429.7"/>
</g>
<g id="freepik--Windows--inject-11">
	<polygon class="st4" points="337.6,129.3 332,120.6 283.6,120.6 283.6,129.3 283.6,132.5 283.6,278 427.1,278 427.1,129.3 	"/>
	<rect x="285.1" y="133.4" class="st10" width="140.7" height="141.5"/>
	<g>
		<defs>
			<rect id="SVGID_3_" x="285.1" y="133.4" width="140.7" height="141.5"/>
		</defs>
		<clipPath id="SVGID_4_">
			<use xlink:href="#SVGID_3_"  style="overflow:visible;"/>
		</clipPath>
		<g class="st13">
			<rect x="422.2" y="132.1" class="st14" width="4.6" height="143.8"/>
			<rect x="422.2" y="219.4" class="st14" width="4.6" height="55.4"/>
			<rect x="284.3" y="131.4" class="st15" width="141.8" height="7.7"/>
		</g>
	</g>
	<rect x="285.1" y="133.4" class="st8" width="140.7" height="141.5"/>
	<g class="st16">
		<path d="M387.5,146.6h-13.8c-0.7,0-1.2-0.5-1.2-1.2l0,0c0-0.7,0.5-1.2,1.2-1.2h13.8c0.7,0,1.2,0.5,1.2,1.2l0,0
			C388.7,146.1,388.2,146.6,387.5,146.6z"/>
		<path d="M415,146.6h-13.7c-0.7,0-1.2-0.5-1.2-1.2l0,0c0-0.7,0.5-1.2,1.2-1.2H415c0.7,0,1.2,0.5,1.2,1.2l0,0
			C416.2,146.1,415.7,146.6,415,146.6z"/>
	</g>
	<path class="st4" d="M321.1,172.7c0,0-0.1-0.1-0.1-0.1c0-0.1,0.1-0.2,0.1-0.3c0.1-0.1,0.2-0.1,0.3-0.1c0,0,0.1,0,0.1,0.1
		c0.3,0.2,0.6,0.4,0.9,0.5c0.4,0.2,0.8,0.2,1.2,0.2c0.5,0,0.9-0.1,1.4-0.4c0.3-0.2,0.5-0.6,0.5-1c0-0.2,0-0.4-0.1-0.6
		c-0.1-0.2-0.2-0.3-0.3-0.4c-0.1-0.1-0.3-0.2-0.4-0.3c-0.2-0.1-0.4-0.2-0.6-0.2l-1.4-0.5c-0.5-0.1-0.9-0.4-1.3-0.7
		c-0.3-0.3-0.5-0.8-0.4-1.2c0-0.4,0.1-0.8,0.4-1.1c0.3-0.3,0.6-0.6,1-0.7c0.9-0.3,1.9-0.3,2.8,0c0.4,0.1,0.7,0.3,1,0.6
		c0.1,0.1,0.1,0.1,0.1,0.2c0,0.1,0,0.2-0.1,0.2c-0.1,0.1-0.1,0.1-0.2,0.1c-0.1,0-0.2,0-0.2-0.1c-0.3-0.2-0.5-0.3-0.8-0.4
		c-0.4-0.1-0.7-0.2-1.1-0.2c-0.5,0-1,0.1-1.4,0.3c-0.3,0.2-0.5,0.6-0.5,0.9c0,0.3,0.1,0.6,0.3,0.8c0.3,0.2,0.6,0.4,1,0.5l1.4,0.5
		c0.3,0.1,0.5,0.2,0.8,0.3c0.2,0.1,0.4,0.2,0.6,0.4c0.2,0.2,0.3,0.3,0.4,0.6c0.1,0.2,0.1,0.5,0.1,0.8c0,0.6-0.2,1.2-0.8,1.6
		c-0.6,0.4-1.3,0.6-2.1,0.6C322.7,173.7,321.8,173.4,321.1,172.7z"/>
	<path class="st4" d="M330.2,173.7c-0.7,0-1.4-0.3-1.9-0.8c-0.5-0.5-0.8-1.3-0.7-2c0-0.5,0.1-1,0.3-1.4c0.2-0.4,0.5-0.8,0.9-1
		c0.4-0.3,0.9-0.4,1.4-0.4c0.3,0,0.6,0,0.9,0.1c0.3,0.1,0.5,0.2,0.7,0.4c0.2,0.2,0.3,0.4,0.5,0.6c0.1,0.2,0.2,0.5,0.3,0.7
		c0.1,0.3,0.1,0.5,0.1,0.8c0,0.1,0,0.2-0.1,0.2c-0.1,0.1-0.2,0.1-0.3,0.1h-3.9c0,0.6,0.1,1.1,0.5,1.5c0.3,0.4,0.8,0.6,1.3,0.6
		c0.3,0,0.7,0,1-0.2c0.3-0.1,0.6-0.3,0.8-0.5c0.1,0,0.1-0.1,0.2-0.1c0.1,0,0.1,0,0.2,0.1c0.1,0,0.1,0.1,0.1,0.2
		c0,0.1-0.1,0.2-0.1,0.3c-0.3,0.2-0.6,0.4-0.9,0.6C331.1,173.7,330.7,173.7,330.2,173.7L330.2,173.7z M331.9,170.5
		c0-0.5-0.2-1-0.5-1.4c-0.3-0.4-0.7-0.6-1.2-0.5c-0.5,0-1,0.2-1.3,0.6c-0.3,0.4-0.5,0.8-0.5,1.3H331.9z"/>
	<path class="st4" d="M334.3,173.5c-0.1-0.1-0.1-0.2-0.1-0.3v-4.6c0-0.1,0-0.2,0.1-0.3c0.1-0.1,0.2-0.1,0.3-0.1c0.1,0,0.2,0,0.3,0.1
		c0.1,0.1,0.1,0.2,0.1,0.3v0.6c0.1-0.3,0.3-0.6,0.5-0.8c0.3-0.2,0.6-0.3,1-0.3c0.1,0,0.2,0,0.2,0.1c0.1,0.1,0.1,0.2,0.1,0.3
		c0,0.1,0,0.2-0.1,0.2c-0.1,0.1-0.2,0.1-0.2,0.1c-0.2,0-0.5,0-0.7,0.1c-0.2,0.1-0.4,0.2-0.5,0.4c-0.1,0.1-0.2,0.3-0.3,0.5
		c-0.1,0.2-0.1,0.3-0.1,0.5v3c0,0.1,0,0.2-0.1,0.3c-0.1,0.1-0.2,0.1-0.3,0.1C334.4,173.6,334.4,173.5,334.3,173.5z"/>
	<path class="st4" d="M339.5,173.4c-0.1-0.1-0.2-0.3-0.3-0.5l-1.8-4.2c0,0,0-0.1,0-0.1c0-0.1,0-0.2,0.1-0.3c0.1-0.1,0.2-0.1,0.3-0.1
		c0.2,0,0.3,0.1,0.3,0.3l1.8,4.3l1.8-4.3c0.1-0.2,0.2-0.3,0.3-0.3c0.1,0,0.2,0,0.3,0.1c0.1,0.1,0.1,0.2,0.1,0.3c0,0,0,0.1,0,0.1
		l-1.8,4.2c-0.1,0.2-0.2,0.3-0.3,0.5C340.1,173.6,339.8,173.6,339.5,173.4L339.5,173.4z"/>
	<path class="st4" d="M345.7,173.7c-0.7,0-1.4-0.3-1.9-0.8c-0.5-0.5-0.8-1.3-0.7-2c0-0.5,0.1-1,0.3-1.4c0.2-0.4,0.5-0.8,0.9-1
		c0.4-0.3,0.9-0.4,1.4-0.4c0.3,0,0.6,0,0.9,0.1c0.2,0.1,0.5,0.2,0.7,0.4c0.2,0.2,0.3,0.4,0.5,0.6c0.1,0.2,0.2,0.5,0.3,0.7
		c0.1,0.3,0.1,0.5,0.1,0.8c0,0.1,0,0.2-0.1,0.2c-0.1,0.1-0.2,0.1-0.3,0.1h-3.9c0,0.6,0.2,1.1,0.5,1.5c0.3,0.4,0.8,0.6,1.3,0.6
		c0.3,0,0.7,0,1-0.2c0.3-0.1,0.6-0.3,0.8-0.5c0.1,0,0.1-0.1,0.2-0.1c0.1,0,0.1,0,0.2,0.1c0,0,0.1,0.1,0.1,0.2c0,0.1,0,0.2-0.1,0.3
		c-0.3,0.2-0.5,0.4-0.9,0.6C346.6,173.7,346.2,173.7,345.7,173.7L345.7,173.7z M347.4,170.5c0-0.5-0.2-1-0.5-1.4
		c-0.3-0.4-0.7-0.6-1.2-0.5c-0.5,0-1,0.2-1.3,0.6c-0.3,0.4-0.5,0.8-0.5,1.3H347.4z"/>
	<path class="st4" d="M349.8,173.5c-0.1-0.1-0.1-0.2-0.1-0.3v-4.6c0-0.1,0-0.2,0.1-0.3c0.1-0.1,0.2-0.1,0.3-0.1c0.1,0,0.2,0,0.3,0.1
		c0.1,0.1,0.1,0.2,0.1,0.3v0.6c0.1-0.3,0.3-0.6,0.5-0.8c0.3-0.2,0.6-0.3,1-0.3c0.1,0,0.2,0,0.2,0.1c0.1,0.1,0.1,0.2,0.1,0.3
		c0,0.1,0,0.2-0.1,0.2c-0.1,0.1-0.2,0.1-0.3,0.1c-0.2,0-0.5,0-0.7,0.1c-0.2,0.1-0.4,0.2-0.5,0.4c-0.1,0.1-0.2,0.3-0.3,0.5
		c-0.1,0.2-0.1,0.3-0.1,0.5v3c0,0.1,0,0.2-0.1,0.3c-0.1,0.1-0.2,0.1-0.3,0.1C350,173.6,349.9,173.5,349.8,173.5z"/>
	<path class="st4" d="M359,173.5c-0.1-0.1-0.1-0.2-0.1-0.3v-6.3l-1.2,0.8c-0.1,0-0.1,0.1-0.2,0.1c-0.1,0-0.2,0-0.2-0.1
		c-0.1-0.1-0.1-0.3,0-0.4c0,0,0,0,0.1-0.1l1.8-1.1c0.1,0,0.2-0.1,0.3-0.1c0.1,0,0.2,0,0.3,0.1c0.1,0.1,0.1,0.2,0.1,0.3v6.9
		c0,0.1,0,0.2-0.1,0.3c-0.1,0.1-0.2,0.1-0.3,0.1C359.2,173.6,359.1,173.5,359,173.5z"/>
	<rect x="292.8" y="165.1" class="st0" width="17.5" height="4.5"/>
	<rect x="292.8" y="170.1" class="st0" width="17.5" height="4.5"/>
	<rect x="311.1" y="165.1" class="st0" width="3.1" height="9.5"/>
	<path class="st4" d="M321.1,192.9c0,0-0.1-0.1-0.1-0.1c0-0.1,0.1-0.2,0.1-0.3c0.1-0.1,0.2-0.1,0.3-0.1c0,0,0.1,0,0.1,0
		c0.6,0.5,1.3,0.8,2.1,0.8c0.5,0,0.9-0.1,1.4-0.4c0.3-0.2,0.5-0.6,0.5-1c0-0.2,0-0.4-0.1-0.6c-0.1-0.2-0.2-0.3-0.3-0.4
		c-0.1-0.1-0.3-0.2-0.4-0.3c-0.2-0.1-0.4-0.1-0.6-0.2l-1.4-0.5c-0.5-0.1-0.9-0.4-1.3-0.7c-0.3-0.3-0.5-0.8-0.4-1.2
		c0-0.4,0.1-0.8,0.4-1.1c0.3-0.3,0.6-0.6,1-0.7c0.4-0.2,0.9-0.2,1.3-0.2c0.5,0,1,0.1,1.4,0.3c0.4,0.1,0.7,0.3,1,0.6
		c0.1,0.1,0.1,0.1,0.1,0.2c0,0.1,0,0.2-0.1,0.2c-0.1,0.1-0.1,0.1-0.2,0.1c-0.1,0-0.2,0-0.2-0.1c-0.3-0.2-0.5-0.3-0.8-0.4
		c-0.4-0.1-0.7-0.2-1.1-0.2c-0.5,0-1,0.1-1.4,0.4c-0.3,0.2-0.5,0.5-0.5,0.9c0,0.3,0.1,0.6,0.3,0.8c0.3,0.2,0.6,0.4,1,0.5l1.4,0.5
		c0.3,0.1,0.5,0.2,0.8,0.3c0.2,0.1,0.4,0.2,0.6,0.4c0.2,0.2,0.3,0.3,0.4,0.6c0.1,0.2,0.1,0.5,0.1,0.8c0,0.6-0.2,1.2-0.8,1.6
		c-0.6,0.4-1.3,0.6-2.1,0.6C322.7,193.9,321.8,193.5,321.1,192.9z"/>
	<path class="st4" d="M330.2,193.9c-0.7,0-1.4-0.3-1.9-0.8c-0.5-0.5-0.8-1.3-0.7-2c0-0.5,0.1-1,0.3-1.4c0.4-0.9,1.3-1.4,2.3-1.4
		c0.3,0,0.6,0,0.9,0.1c0.2,0.1,0.5,0.2,0.7,0.4c0.2,0.2,0.3,0.4,0.5,0.6c0.1,0.2,0.2,0.5,0.3,0.7c0.1,0.3,0.1,0.5,0.1,0.8
		c0,0.1,0,0.2-0.1,0.2c-0.1,0.1-0.2,0.1-0.3,0.1h-3.9c0,0.6,0.1,1.1,0.5,1.5c0.3,0.4,0.8,0.6,1.3,0.6c0.3,0,0.7,0,1-0.2
		c0.3-0.1,0.6-0.3,0.8-0.5c0.1,0,0.1-0.1,0.2-0.1c0.1,0,0.1,0,0.2,0.1c0.1,0,0.1,0.1,0.1,0.2c0,0.1-0.1,0.2-0.1,0.3
		c-0.3,0.2-0.6,0.4-0.9,0.6C331.1,193.8,330.7,193.9,330.2,193.9L330.2,193.9z M331.9,190.7c0-0.5-0.2-1-0.5-1.4
		c-0.3-0.4-0.7-0.6-1.2-0.5c-0.5,0-1,0.2-1.3,0.5c-0.3,0.4-0.5,0.8-0.5,1.3L331.9,190.7z"/>
	<path class="st4" d="M334.3,193.6c-0.1-0.1-0.1-0.2-0.1-0.3v-4.6c0-0.1,0-0.2,0.1-0.3c0.1-0.1,0.2-0.1,0.3-0.1c0.1,0,0.2,0,0.3,0.1
		c0.1,0.1,0.1,0.2,0.1,0.3v0.6c0.1-0.3,0.3-0.6,0.5-0.8c0.3-0.2,0.6-0.3,1-0.3c0.1,0,0.2,0,0.2,0.1c0.1,0.1,0.1,0.2,0.1,0.3
		c0,0.2-0.1,0.3-0.3,0.3c0,0,0,0,0,0c-0.2,0-0.5,0-0.7,0.1c-0.2,0.1-0.4,0.2-0.5,0.4c-0.1,0.1-0.2,0.3-0.3,0.5
		c-0.1,0.2-0.1,0.3-0.1,0.5v3c0,0.1,0,0.2-0.1,0.3c-0.1,0.1-0.2,0.1-0.3,0.1C334.4,193.7,334.4,193.7,334.3,193.6z"/>
	<path class="st4" d="M339.5,193.6c-0.1-0.1-0.2-0.3-0.3-0.5l-1.8-4.2c0,0,0-0.1,0-0.1c0-0.1,0-0.2,0.1-0.3c0.1-0.1,0.2-0.1,0.3-0.1
		c0.2,0,0.3,0.1,0.3,0.3l1.8,4.3l1.8-4.3c0.1-0.2,0.2-0.3,0.3-0.3c0.1,0,0.2,0,0.3,0.1c0.1,0.1,0.1,0.2,0.1,0.3c0,0,0,0.1,0,0.1
		l-1.8,4.2c-0.1,0.2-0.2,0.3-0.3,0.5C340.1,193.8,339.8,193.8,339.5,193.6L339.5,193.6z"/>
	<path class="st4" d="M345.7,193.9c-0.7,0-1.4-0.3-1.9-0.8c-0.5-0.5-0.8-1.3-0.7-2c0-0.5,0.1-1,0.3-1.4c0.2-0.4,0.5-0.8,0.9-1
		c0.4-0.3,0.9-0.4,1.4-0.4c0.3,0,0.6,0,0.9,0.1c0.2,0.1,0.5,0.2,0.7,0.4c0.2,0.2,0.3,0.4,0.5,0.6c0.1,0.2,0.2,0.5,0.3,0.7
		c0.1,0.3,0.1,0.5,0.1,0.8c0,0.1,0,0.2-0.1,0.2c-0.1,0.1-0.2,0.1-0.3,0.1h-3.9c0,0.6,0.2,1.1,0.5,1.5c0.3,0.4,0.8,0.6,1.3,0.6
		c0.3,0,0.7,0,1-0.2c0.3-0.1,0.6-0.3,0.8-0.5c0.1,0,0.1-0.1,0.2-0.1c0.1,0,0.1,0,0.2,0.1c0,0,0.1,0.1,0.1,0.2c0,0.1,0,0.2-0.1,0.3
		c-0.3,0.2-0.5,0.4-0.9,0.6C346.6,193.8,346.2,193.9,345.7,193.9L345.7,193.9z M347.4,190.7c0-0.5-0.2-1-0.5-1.4
		c-0.3-0.4-0.7-0.6-1.2-0.5c-0.5,0-1,0.2-1.3,0.5c-0.3,0.4-0.5,0.8-0.5,1.3L347.4,190.7z"/>
	<path class="st4" d="M349.8,193.6c-0.1-0.1-0.1-0.2-0.1-0.3v-4.6c0-0.1,0-0.2,0.1-0.3c0.1-0.1,0.2-0.1,0.3-0.1c0.1,0,0.2,0,0.3,0.1
		c0.1,0.1,0.1,0.2,0.1,0.3v0.6c0.1-0.3,0.3-0.6,0.5-0.8c0.3-0.2,0.6-0.3,1-0.3c0.1,0,0.2,0,0.2,0.1c0.1,0.1,0.1,0.2,0.1,0.3
		c0,0.1,0,0.2-0.1,0.2c-0.1,0.1-0.2,0.1-0.3,0.1c-0.2,0-0.5,0-0.7,0.1c-0.2,0.1-0.4,0.2-0.5,0.4c-0.1,0.1-0.2,0.3-0.3,0.5
		c-0.1,0.2-0.1,0.3-0.1,0.5v3c0,0.1,0,0.2-0.1,0.3c-0.1,0.1-0.2,0.1-0.3,0.1C350,193.7,349.9,193.7,349.8,193.6z"/>
	<path class="st4" d="M356.7,193.6c-0.1-0.1-0.2-0.2-0.2-0.3c0-0.2,0.1-0.3,0.2-0.5l2.8-2.9c0.3-0.3,0.5-0.6,0.7-0.9
		c0.1-0.3,0.2-0.5,0.2-0.8c0-0.4-0.1-0.8-0.4-1.1c-0.3-0.3-0.7-0.4-1.1-0.4c-0.2,0-0.5,0-0.7,0.1c-0.2,0-0.3,0.1-0.5,0.1
		c-0.1,0.1-0.3,0.1-0.4,0.2l-0.3,0.2c0,0-0.1,0-0.1,0c-0.1,0-0.2,0-0.3-0.1c-0.1-0.1-0.1-0.2-0.1-0.2c0-0.1,0.1-0.2,0.2-0.3l0.6-0.3
		c0.2-0.1,0.4-0.2,0.7-0.2c0.3-0.1,0.7-0.1,1-0.1c0.6,0,1.2,0.2,1.6,0.6c0.4,0.4,0.7,0.9,0.6,1.5c0,0.4-0.1,0.8-0.3,1.2
		c-0.3,0.5-0.6,0.9-1,1.2l-2.6,2.6h3.4c0.1,0,0.2,0,0.3,0.1c0.1,0.1,0.1,0.1,0.1,0.2c0,0.1,0,0.2-0.1,0.2c-0.1,0.1-0.2,0.1-0.3,0.1
		h-3.7C357,193.7,356.9,193.7,356.7,193.6z"/>
	<rect x="292.8" y="185.2" class="st0" width="17.5" height="4.5"/>
	<rect x="292.8" y="190.3" class="st0" width="17.5" height="4.5"/>
	<rect x="311.1" y="185.3" class="st0" width="3.1" height="9.5"/>
	<path class="st4" d="M321.1,213.1c0,0-0.1-0.1-0.1-0.1c0-0.1,0.1-0.2,0.1-0.3c0.1-0.1,0.2-0.1,0.3-0.1c0,0,0.1,0,0.1,0.1
		c0.6,0.5,1.3,0.8,2.1,0.7c0.5,0,0.9-0.1,1.4-0.4c0.3-0.2,0.5-0.6,0.5-1c0-0.2,0-0.4-0.1-0.6c-0.1-0.2-0.2-0.3-0.3-0.4
		c-0.1-0.1-0.3-0.2-0.4-0.3c-0.2-0.1-0.4-0.1-0.6-0.2l-1.4-0.5c-0.5-0.1-0.9-0.4-1.3-0.7c-0.3-0.3-0.5-0.7-0.4-1.2
		c0-0.4,0.1-0.8,0.4-1.1c0.3-0.3,0.6-0.6,1-0.7c0.4-0.2,0.9-0.2,1.3-0.2c0.5,0,1,0.1,1.4,0.3c0.4,0.1,0.7,0.3,1,0.6
		c0.1,0.1,0.1,0.1,0.1,0.2c0,0.1,0,0.2-0.1,0.2c-0.1,0.1-0.2,0.1-0.2,0.1c-0.1,0-0.2,0-0.2-0.1c-0.2-0.2-0.5-0.3-0.8-0.4
		c-0.4-0.1-0.7-0.2-1.1-0.2c-0.5,0-1,0.1-1.4,0.4c-0.3,0.2-0.5,0.5-0.5,0.9c0,0.3,0.1,0.6,0.3,0.8c0.3,0.2,0.6,0.4,1,0.5l1.4,0.5
		c0.3,0.1,0.5,0.2,0.8,0.3c0.2,0.1,0.4,0.2,0.6,0.4c0.2,0.2,0.3,0.3,0.4,0.6c0.1,0.2,0.1,0.5,0.1,0.8c0,0.6-0.2,1.2-0.8,1.6
		c-0.6,0.4-1.3,0.6-2.1,0.6C322.7,214.1,321.8,213.7,321.1,213.1z"/>
	<path class="st4" d="M330.2,214c-0.7,0-1.4-0.3-1.9-0.8c-0.5-0.5-0.8-1.3-0.7-2c0-0.5,0.1-1,0.3-1.4c0.2-0.4,0.5-0.8,0.9-1
		c0.4-0.3,0.9-0.4,1.4-0.4c0.3,0,0.6,0,0.9,0.1c0.3,0.1,0.5,0.2,0.7,0.4c0.2,0.2,0.3,0.4,0.5,0.6c0.1,0.2,0.2,0.5,0.3,0.7
		c0.1,0.3,0.1,0.5,0.1,0.8c0,0.1,0,0.2-0.1,0.2c-0.1,0.1-0.2,0.1-0.3,0.1h-3.9c0,0.6,0.1,1.1,0.5,1.5c0.3,0.4,0.8,0.6,1.3,0.6
		c0.3,0,0.7,0,1-0.2c0.3-0.1,0.6-0.3,0.8-0.5c0.1-0.1,0.1-0.1,0.2-0.1c0.1,0,0.1,0,0.2,0.1c0.1,0.1,0.1,0.1,0.1,0.2
		c0,0.1-0.1,0.2-0.1,0.3c-0.3,0.2-0.6,0.4-0.9,0.6C331.1,214,330.7,214.1,330.2,214L330.2,214z M331.9,210.8c0-0.5-0.2-1-0.5-1.4
		c-0.3-0.4-0.7-0.5-1.2-0.5c-0.5,0-1,0.2-1.3,0.5c-0.3,0.4-0.5,0.8-0.5,1.3H331.9z"/>
	<path class="st4" d="M334.3,213.8c-0.1-0.1-0.1-0.2-0.1-0.3v-4.6c0-0.1,0-0.2,0.1-0.3c0.1-0.1,0.2-0.1,0.3-0.1c0.1,0,0.2,0,0.3,0.1
		c0.1,0.1,0.1,0.2,0.1,0.3v0.6c0.1-0.3,0.3-0.6,0.5-0.8c0.3-0.2,0.6-0.4,1-0.3c0.1,0,0.2,0,0.2,0.1c0.1,0.1,0.1,0.2,0.1,0.3
		c0,0.1,0,0.2-0.1,0.2c-0.1,0.1-0.2,0.1-0.2,0.1c-0.2,0-0.5,0-0.7,0.1c-0.2,0.1-0.4,0.2-0.5,0.4c-0.1,0.1-0.2,0.3-0.3,0.5
		c-0.1,0.2-0.1,0.3-0.1,0.5v3c0,0.1,0,0.2-0.1,0.3c-0.1,0.1-0.2,0.1-0.3,0.1C334.4,213.9,334.4,213.9,334.3,213.8z"/>
	<path class="st4" d="M339.5,213.8c-0.1-0.1-0.2-0.3-0.3-0.5l-1.8-4.2c0,0,0-0.1,0-0.1c0-0.1,0-0.2,0.1-0.3c0.1-0.1,0.2-0.1,0.3-0.1
		c0.2,0,0.3,0.1,0.3,0.3l1.8,4.3l1.8-4.3c0.1-0.2,0.2-0.3,0.3-0.3c0.1,0,0.2,0,0.3,0.1c0.1,0.1,0.1,0.2,0.1,0.3c0,0,0,0.1,0,0.1
		l-1.8,4.2c-0.1,0.2-0.2,0.3-0.3,0.5C340.1,213.9,339.8,213.9,339.5,213.8L339.5,213.8z"/>
	<path class="st4" d="M345.7,214c-0.7,0-1.4-0.3-1.9-0.8c-0.5-0.5-0.8-1.3-0.7-2c0-0.5,0.1-1,0.3-1.4c0.4-0.9,1.3-1.4,2.3-1.4
		c0.3,0,0.6,0,0.9,0.1c0.3,0.1,0.5,0.2,0.7,0.4c0.2,0.2,0.3,0.4,0.5,0.6c0.1,0.2,0.2,0.5,0.3,0.7c0.1,0.3,0.1,0.5,0.1,0.8
		c0,0.1,0,0.2-0.1,0.2c-0.1,0.1-0.2,0.1-0.3,0.1h-3.9c0,0.6,0.2,1.1,0.5,1.5c0.3,0.4,0.8,0.6,1.3,0.6c0.3,0,0.7,0,1-0.2
		c0.3-0.1,0.6-0.3,0.8-0.5c0.1-0.1,0.1-0.1,0.2-0.1c0.1,0,0.1,0,0.2,0.1c0,0.1,0.1,0.1,0.1,0.2c0,0.1,0,0.2-0.1,0.3
		c-0.3,0.2-0.5,0.4-0.9,0.6C346.6,214,346.2,214,345.7,214L345.7,214z M347.4,210.8c0-0.5-0.2-1-0.5-1.4c-0.3-0.4-0.7-0.5-1.2-0.5
		c-0.5,0-1,0.2-1.3,0.5c-0.3,0.4-0.5,0.8-0.5,1.3H347.4z"/>
	<path class="st4" d="M349.8,213.8c-0.1-0.1-0.1-0.2-0.1-0.3v-4.6c0-0.1,0-0.2,0.1-0.3c0.1-0.1,0.2-0.1,0.3-0.1c0.1,0,0.2,0,0.3,0.1
		c0.1,0.1,0.1,0.2,0.1,0.3v0.6c0.1-0.3,0.3-0.6,0.5-0.8c0.3-0.2,0.6-0.4,1-0.3c0.1,0,0.2,0,0.2,0.1c0.1,0.1,0.1,0.2,0.1,0.3
		c0,0.1,0,0.2-0.1,0.2c-0.1,0.1-0.2,0.1-0.3,0.1c-0.2,0-0.5,0-0.7,0.1c-0.2,0.1-0.4,0.2-0.5,0.4c-0.1,0.1-0.2,0.3-0.3,0.5
		c-0.1,0.2-0.1,0.3-0.1,0.5v3c0,0.1,0,0.2-0.1,0.3c-0.1,0.1-0.2,0.1-0.3,0.1C350,213.9,349.9,213.9,349.8,213.8z"/>
	<path class="st4" d="M357.8,213.9c-0.3-0.1-0.5-0.1-0.8-0.3c-0.2-0.1-0.3-0.2-0.3-0.4c0-0.1,0-0.2,0.1-0.2c0.1-0.1,0.1-0.1,0.2-0.1
		h0.1c0.5,0.2,1,0.4,1.5,0.4c0.4,0,0.9-0.1,1.3-0.3c0.3-0.2,0.5-0.6,0.5-1c0-0.5-0.2-0.9-0.5-1.2c-0.4-0.3-0.9-0.5-1.4-0.4h-0.4
		c-0.1,0-0.2,0-0.3-0.1c-0.1-0.1-0.1-0.1-0.1-0.2c0-0.2,0.1-0.3,0.3-0.3c0,0,0,0,0,0h0.3c0.5,0,0.9-0.1,1.3-0.4
		c0.3-0.3,0.5-0.7,0.5-1.1c0-0.4-0.1-0.8-0.4-1c-0.3-0.2-0.7-0.4-1.1-0.4c-0.2,0-0.4,0-0.6,0.1c-0.2,0-0.3,0.1-0.5,0.1l-0.3,0.1
		l-0.2,0.1H357c-0.1,0-0.2,0-0.2-0.1c-0.1-0.1-0.1-0.2-0.1-0.3c0-0.1,0.1-0.2,0.2-0.3l0.4-0.1c0.2-0.1,0.4-0.1,0.7-0.2
		c0.3-0.1,0.5-0.1,0.8-0.1c0.3,0,0.7,0,1,0.1c0.3,0.1,0.5,0.2,0.8,0.4c0.2,0.2,0.4,0.4,0.5,0.6c0.1,0.3,0.2,0.6,0.2,0.9
		c0,0.4-0.1,0.8-0.4,1.1c-0.3,0.3-0.6,0.5-1,0.6c0.4,0.1,0.8,0.3,1.1,0.7c0.5,0.7,0.6,1.5,0.2,2.3c-0.1,0.3-0.3,0.5-0.6,0.7
		c-0.3,0.2-0.5,0.3-0.8,0.4c-0.3,0.1-0.6,0.1-1,0.1C358.5,214,358.1,214,357.8,213.9z"/>
	<rect x="292.8" y="205.4" class="st4" width="17.5" height="4.5"/>
	<rect x="292.8" y="210.5" class="st4" width="17.5" height="4.5"/>
	<rect x="311.1" y="205.4" class="st4" width="3.1" height="9.5"/>
	<path class="st4" d="M321.1,233.2c0,0-0.1-0.1-0.1-0.1c0-0.1,0.1-0.2,0.1-0.3c0.1-0.1,0.2-0.1,0.3-0.1c0,0,0.1,0,0.1,0.1
		c0.3,0.2,0.6,0.4,0.9,0.5c0.4,0.2,0.8,0.2,1.2,0.2c0.5,0,0.9-0.1,1.4-0.4c0.3-0.2,0.5-0.6,0.5-1c0-0.2,0-0.4-0.1-0.6
		c-0.1-0.2-0.2-0.3-0.3-0.4c-0.1-0.1-0.3-0.2-0.4-0.3c-0.2-0.1-0.4-0.2-0.6-0.2l-1.4-0.5c-0.5-0.1-0.9-0.4-1.3-0.7
		c-0.3-0.3-0.5-0.7-0.4-1.2c0-0.4,0.1-0.8,0.4-1.1c0.3-0.3,0.6-0.6,1-0.7c0.4-0.2,0.9-0.2,1.3-0.2c0.5,0,1,0.1,1.4,0.3
		c0.4,0.1,0.7,0.3,1,0.6c0.1,0.1,0.1,0.1,0.1,0.2c0,0.1,0,0.2-0.1,0.2c-0.1,0.1-0.1,0.1-0.2,0.1c-0.1,0-0.2,0-0.2-0.1
		c-0.3-0.2-0.5-0.3-0.8-0.4c-0.4-0.1-0.7-0.2-1.1-0.2c-0.5,0-1,0.1-1.4,0.4c-0.3,0.2-0.5,0.5-0.5,0.9c0,0.3,0.1,0.6,0.3,0.8
		c0.3,0.2,0.6,0.4,1,0.5l1.4,0.5c0.3,0.1,0.5,0.2,0.8,0.3c0.2,0.1,0.4,0.2,0.6,0.4c0.2,0.2,0.3,0.3,0.4,0.6c0.1,0.2,0.1,0.5,0.1,0.8
		c0,0.6-0.2,1.2-0.8,1.6c-0.6,0.4-1.3,0.6-2.1,0.6C322.7,234.2,321.8,233.9,321.1,233.2z"/>
	<path class="st4" d="M330.2,234.2c-0.7,0-1.4-0.3-1.9-0.8c-0.5-0.5-0.8-1.3-0.7-2c0-0.5,0.1-1,0.3-1.4c0.4-0.9,1.3-1.4,2.3-1.4
		c0.3,0,0.6,0,0.9,0.1c0.3,0.1,0.5,0.2,0.7,0.4c0.2,0.2,0.3,0.4,0.5,0.6c0.1,0.2,0.2,0.5,0.3,0.7c0.1,0.3,0.1,0.5,0.1,0.8
		c0,0.1,0,0.2-0.1,0.2c-0.1,0.1-0.2,0.1-0.3,0.1h-3.9c0,0.6,0.1,1.1,0.5,1.5c0.3,0.4,0.8,0.6,1.3,0.6c0.3,0,0.7,0,1-0.2
		c0.3-0.1,0.6-0.3,0.8-0.5c0.1-0.1,0.1-0.1,0.2-0.1c0.1,0,0.1,0,0.2,0.1c0.1,0,0.1,0.1,0.1,0.2c0,0.1-0.1,0.2-0.1,0.3
		c-0.3,0.2-0.6,0.4-0.9,0.6C331.1,234.1,330.7,234.2,330.2,234.2L330.2,234.2z M331.9,231c0-0.5-0.2-1-0.5-1.4
		c-0.3-0.4-0.7-0.5-1.2-0.5c-0.5,0-1,0.2-1.3,0.6c-0.3,0.4-0.5,0.8-0.5,1.3H331.9z"/>
	<path class="st4" d="M334.3,234c-0.1-0.1-0.1-0.2-0.1-0.3v-4.6c0-0.1,0-0.2,0.1-0.3c0.1-0.1,0.2-0.1,0.3-0.1c0.1,0,0.2,0,0.3,0.1
		c0.1,0.1,0.1,0.2,0.1,0.3v0.6c0.1-0.3,0.3-0.6,0.5-0.8c0.3-0.2,0.6-0.3,1-0.3c0.1,0,0.2,0,0.2,0.1c0.1,0.1,0.1,0.2,0.1,0.3
		c0,0.1,0,0.2-0.1,0.2c-0.1,0.1-0.1,0.1-0.2,0.1c-0.2,0-0.5,0-0.7,0.1c-0.2,0.1-0.3,0.2-0.5,0.4c-0.1,0.1-0.2,0.3-0.3,0.5
		c-0.1,0.2-0.1,0.3-0.1,0.5v3c0,0.1,0,0.2-0.1,0.3c-0.1,0.1-0.2,0.1-0.3,0.1C334.4,234.1,334.4,234.1,334.3,234z"/>
	<path class="st4" d="M339.5,233.9c-0.1-0.1-0.2-0.3-0.3-0.5l-1.8-4.2c0,0,0-0.1,0-0.1c0-0.1,0-0.2,0.1-0.3c0.1-0.1,0.2-0.1,0.3-0.1
		c0.2,0,0.3,0.1,0.3,0.3l1.8,4.3l1.8-4.3c0.1-0.2,0.2-0.3,0.3-0.3c0.1,0,0.2,0,0.3,0.1c0.1,0.1,0.1,0.2,0.1,0.3c0,0,0,0.1,0,0.1
		l-1.8,4.2c-0.1,0.2-0.2,0.3-0.3,0.5C340.1,234.1,339.8,234.1,339.5,233.9L339.5,233.9z"/>
	<path class="st4" d="M345.7,234.2c-0.7,0-1.4-0.3-1.9-0.8c-0.5-0.5-0.8-1.3-0.7-2c0-0.5,0.1-1,0.3-1.4c0.2-0.4,0.5-0.8,0.9-1
		c0.4-0.3,0.9-0.4,1.4-0.4c0.3,0,0.6,0,0.9,0.1c0.3,0.1,0.5,0.2,0.7,0.4c0.2,0.2,0.3,0.4,0.5,0.6c0.1,0.2,0.2,0.5,0.3,0.7
		c0.1,0.3,0.1,0.5,0.1,0.8c0,0.1,0,0.2-0.1,0.2c-0.1,0.1-0.2,0.1-0.3,0.1h-3.9c0,0.6,0.2,1.1,0.5,1.5c0.3,0.4,0.8,0.6,1.3,0.6
		c0.3,0,0.7,0,1-0.2c0.3-0.1,0.6-0.3,0.8-0.5c0.1-0.1,0.1-0.1,0.2-0.1c0.1,0,0.1,0,0.2,0.1c0,0,0.1,0.1,0.1,0.2c0,0.1,0,0.2-0.1,0.3
		c-0.3,0.2-0.5,0.4-0.9,0.6C346.6,234.2,346.2,234.2,345.7,234.2L345.7,234.2z M347.4,231c0-0.5-0.2-1-0.5-1.4
		c-0.3-0.4-0.7-0.5-1.2-0.5c-0.5,0-1,0.2-1.3,0.6c-0.3,0.4-0.5,0.8-0.5,1.3L347.4,231z"/>
	<path class="st4" d="M349.8,234c-0.1-0.1-0.1-0.2-0.1-0.3v-4.6c0-0.1,0-0.2,0.1-0.3c0.1-0.1,0.2-0.1,0.3-0.1c0.1,0,0.2,0,0.3,0.1
		c0.1,0.1,0.1,0.2,0.1,0.3v0.6c0.1-0.3,0.3-0.6,0.5-0.8c0.3-0.2,0.6-0.3,1-0.3c0.1,0,0.2,0,0.2,0.1c0.1,0.1,0.1,0.2,0.1,0.3
		c0,0.1,0,0.2-0.1,0.2c-0.1,0.1-0.2,0.1-0.3,0.1c-0.2,0-0.5,0-0.7,0.1c-0.2,0.1-0.3,0.2-0.5,0.4c-0.1,0.1-0.2,0.3-0.3,0.5
		c-0.1,0.2-0.1,0.3-0.1,0.5v3c0,0.1,0,0.2-0.1,0.3c-0.1,0.1-0.2,0.1-0.3,0.1C350,234.1,349.9,234.1,349.8,234z"/>
	<path class="st4" d="M360,234c-0.1-0.1-0.1-0.2-0.1-0.3v-1.3h-3.2c-0.1,0-0.3,0-0.4-0.1c-0.1-0.1-0.1-0.2-0.1-0.3
		c0-0.1,0-0.2,0.1-0.4l3.1-4.8c0.1-0.2,0.4-0.4,0.7-0.4c0.2,0,0.3,0,0.4,0.1c0.1,0.1,0.2,0.3,0.2,0.5v4.7h0.9c0.1,0,0.2,0,0.2,0.1
		c0.1,0.1,0.1,0.2,0.1,0.2c0,0.2-0.1,0.3-0.3,0.3c0,0,0,0,0,0h-0.9v1.3c0,0.1,0,0.2-0.1,0.3c-0.1,0.1-0.2,0.1-0.3,0.1
		C360.2,234.1,360.1,234.1,360,234z M359.9,231.7v-4.4l-2.9,4.4L359.9,231.7z"/>
	<rect x="292.8" y="225.6" class="st4" width="17.5" height="4.5"/>
	<rect x="292.8" y="230.6" class="st4" width="17.5" height="4.5"/>
	<rect x="311.1" y="225.6" class="st4" width="3.1" height="9.5"/>
	<line class="st17" x1="292.9" y1="179.4" x2="416.6" y2="179.4"/>
	<line class="st17" x1="292.9" y1="199.9" x2="416.6" y2="199.9"/>
	<line class="st17" x1="292.9" y1="218.5" x2="416.6" y2="218.5"/>
	<line class="st17" x1="292.9" y1="240.3" x2="416.6" y2="240.3"/>
	<polygon class="st4" points="366.5,263 361,254.3 312.6,254.3 312.6,263 312.6,266.2 312.6,365.8 456.1,365.8 456.1,263 	"/>
	<rect x="314.1" y="267" class="st10" width="140.7" height="95.6"/>
	<g>
		<defs>
			<rect id="SVGID_5_" x="314.1" y="267" width="140.7" height="95.6"/>
		</defs>
		<clipPath id="SVGID_6_">
			<use xlink:href="#SVGID_5_"  style="overflow:visible;"/>
		</clipPath>
		<g class="st18">
			<rect x="451.2" y="265.8" class="st14" width="4.6" height="97.9"/>
			<rect x="451.2" y="307.2" class="st14" width="4.6" height="55.4"/>
			<rect x="313.3" y="265.1" class="st15" width="141.8" height="7.7"/>
		</g>
	</g>
	<rect x="314.1" y="267" class="st8" width="140.7" height="95.6"/>
	<g class="st16">
		<path d="M416.5,280.3h-13.8c-0.7,0-1.2-0.5-1.2-1.2l0,0c0-0.7,0.5-1.2,1.2-1.2h13.8c0.7,0,1.2,0.6,1.2,1.2l0,0
			C417.7,279.8,417.2,280.3,416.5,280.3L416.5,280.3z"/>
		<path d="M444,280.3h-13.7c-0.7,0-1.2-0.5-1.2-1.2l0,0c0-0.7,0.5-1.2,1.2-1.2H444c0.7,0,1.2,0.6,1.2,1.2l0,0
			C445.2,279.8,444.7,280.3,444,280.3z"/>
	</g>
	<polyline class="st17" points="335.7,292.6 361.1,292.6 361.1,316.9 333.6,316.9 	"/>
	<polyline class="st17" points="365.8,342.4 385,342.4 385,303.5 366.9,303.5 	"/>
	<line class="st17" x1="401.6" y1="316.2" x2="416.4" y2="316.2"/>
	<line class="st17" x1="401.6" y1="320.5" x2="416.4" y2="320.5"/>
	<line class="st17" x1="401.6" y1="324.9" x2="416.4" y2="324.9"/>
	<line class="st17" x1="401.6" y1="329.2" x2="416.4" y2="329.2"/>
	<rect x="323.4" y="288.7" class="st0" width="15.9" height="9"/>
	<rect x="353.1" y="299.5" class="st0" width="15.9" height="9"/>
	<rect x="357.8" y="337.9" class="st0" width="15.9" height="9"/>
	<rect x="323.4" y="310.4" class="st0" width="15.9" height="9"/>
</g>
<g id="freepik--Character--inject-11">
	<ellipse class="st11" cx="246.2" cy="438.4" rx="46.1" ry="9.1"/>
	<path class="st19" d="M182.7,228.2c0,0-9.3-8.1-10.5-8.4s-9,0.9-9.9,1.2s0.9,7.7,0.9,7.7c-1,0.7-1.4,2-0.9,3.1c0.6,2.2,5,0.3,5,0.3
		s3.1,3.1,6.2,3.4c2.8,0.1,5.6,0,8.4-0.3L182.7,228.2z"/>
	<path class="st8" d="M163.2,228.8c0,0,2.8,1.2,7.4-3.7"/>
	<path class="st8" d="M164.1,223.6c0,0,0.5,3.8,3.9,3.8"/>
	<path class="st19" d="M189.5,227.6l-8.4-2.5c0,0-0.9-0.6-0.9,2.5s-1.5,5.3,0,9l9,2.2L189.5,227.6z"/>
	<path class="st19" d="M219.6,228.4c0,0-29.4-2.7-30.1-0.9s-4.6,8.7-3.1,12.1s32.2,9.3,32.2,9.3L219.6,228.4z"/>
	<path class="st3" d="M230.3,426.4c0,0-22.9,8.7-22.9,10.5s4.9,2.2,15.5,1.2s17.3-0.6,20.1-1.9s1.2-8,1.2-9.6
		S230.3,426.4,230.3,426.4z"/>
	<path class="st8" d="M207.4,436.9c4.4-0.5,8.9-0.7,13.4-0.7c5.9-0.1,11.8-0.6,17.6-1.5"/>
	<path class="st3" d="M245.2,431c0,0-17,9.9-15.2,12.7s30.3-3.1,31-11.8S245.2,431,245.2,431z"/>
	<path class="st8" d="M230.5,442.5c0,0,5,1.5,13.2-1.5c4.3-1.5,8.5-3.2,12.6-5.2"/>
	<path class="st4" d="M216.1,255.1c0,0-1.9,25.7-0.3,47.7s1.9,44,5.3,58.2s6.8,54.5,6.8,57s-3.1,3.1-2.2,5.6c0.6,1.5,1.3,3,2.2,4.3
		c2.5,0.8,5.1,1.4,7.7,1.9c2.5,0.4,4.9,0.6,7.4,0.6l-0.3,2.5c3.6,0.2,7.1,0.8,10.5,1.9c2.7,0.9,5.5,1.6,8.4,1.9c0,0,5-5.9,5-9.3
		s-0.6-9.3,0-13.9s1.5-47.4,1.5-59.2s1.2-58.5,1.5-64.7s1.2-21.4,0.9-27.9s-15.2,1.5-33.1-3.7S216.1,255.1,216.1,255.1z"/>
	<g>
		<defs>
			<path id="SVGID_7_" d="M216.1,255.1c0,0-1.9,25.7-0.3,47.7s1.9,44,5.3,58.2s6.8,54.5,6.8,57s-3.1,3.1-2.2,5.6
				c0.6,1.5,1.3,3,2.2,4.3c2.5,0.8,5.1,1.4,7.7,1.9c2.5,0.4,4.9,0.6,7.4,0.6l-0.3,2.5c3.6,0.2,7.1,0.8,10.5,1.9
				c2.7,0.9,5.5,1.6,8.4,1.9c0,0,5-5.9,5-9.3s-0.6-9.3,0-13.9s1.5-47.4,1.5-59.2s1.2-58.5,1.5-64.7s1.2-21.4,0.9-27.9
				s-15.2,1.5-33.1-3.7S216.1,255.1,216.1,255.1z"/>
		</defs>
		<clipPath id="SVGID_8_">
			<use xlink:href="#SVGID_7_"  style="overflow:visible;"/>
		</clipPath>
		<g class="st20">
			<path class="st21" d="M216.1,255.1c0,0-1.9,25.7-0.3,47.7s1.9,44,5.3,58.2s6.8,54.5,6.8,57s-3.1,3.1-2.2,5.6
				c0.6,1.5,1.3,3,2.2,4.3c2.5,0.8,5.1,1.4,7.7,1.9c2.5,0.4,4.9,0.6,7.4,0.6l-0.3,2.5c3.6,0.2,7.1,0.8,10.5,1.9
				c2.7,0.9,5.5,1.6,8.4,1.9c0,0,5-5.9,5-9.3s-0.6-9.3,0-13.9s1.5-47.4,1.5-59.2s1.2-58.5,1.5-64.7s1.2-21.4,0.9-27.9
				s-15.2,1.5-33.1-3.7S216.1,255.1,216.1,255.1z"/>
			<path class="st8" d="M265.2,291.1c0.4,10.9,0.8,26.9,0.6,33.3c-0.3,10.1-3.4,68.9-2.4,79s-1.3,18.5-1,21.9s0.3,6.7-0.3,8.4"/>
			<path class="st8" d="M264.8,280c0,0,0.1,1.8,0.2,4.7"/>
		</g>
	</g>
	<path class="st8" d="M216.1,255.1c0,0-1.9,25.7-0.3,47.7s1.9,44,5.3,58.2s6.8,54.5,6.8,57s-3.1,3.1-2.2,5.6c0.6,1.5,1.3,3,2.2,4.3
		c2.5,0.8,5.1,1.4,7.7,1.9c2.5,0.4,4.9,0.6,7.4,0.6l-0.3,2.5c3.6,0.2,7.1,0.8,10.5,1.9c2.7,0.9,5.5,1.6,8.4,1.9c0,0,5-5.9,5-9.3
		s-0.6-9.3,0-13.9s1.5-47.4,1.5-59.2s1.2-58.5,1.5-64.7s1.2-21.4,0.9-27.9s-15.2,1.5-33.1-3.7S216.1,255.1,216.1,255.1z"/>
	<polyline class="st8" points="227.6,284 227.6,299 230.3,302.5 	"/>
	<polyline class="st8" points="232.4,284.4 232.4,299.4 232.6,299.7 	"/>
	<path class="st8" d="M236.2,319.5c1.3,8.4,3.2,22.5,4.7,41.2c2.5,31.3,4.9,55.8,4.9,58.2s-3.4,9-2.8,11.5"/>
	<path class="st8" d="M233.4,303.5c0,0,1.6,8.8,2,11.5"/>
	<path class="st19" d="M270.6,271.3c-0.3-6.5-15.2,1.5-33.1-3.7s-21.4-2.8-21.4-2.8s-0.3,2.8-0.6,7.6c2.3,2,7.1,4.7,17.3,6.3
		c16.1,2.6,25.8,4.9,37.8-5.7C270.6,272.4,270.6,271.9,270.6,271.3z"/>
	<path class="st19" d="M241.9,187c0,0-13.1,2.5-16.9,7.8s-9,62.6-10.2,68.1s6.8,7.7,11.4,9.9s18.9,5.6,28.8,4.6s17-2.8,18.3-7.1
		s3.7-64.4,3.1-70.3s-18.5-20.8-22-21.7S241.9,187,241.9,187z"/>
	<path class="st8" d="M239.2,194.6c-2.1,6.3-3.6,12.8-4.5,19.4c-1.7,11.8-7.2,58.1-7.2,58.1l1.4,1.7"/>
	<polygon class="st19" points="233.8,185.6 232.5,194.2 238.2,189.3 	"/>
	<polygon class="st19" points="238.6,182.6 237.8,183.1 233.8,185.6 239.2,194.6 247.8,182 	"/>
	<path class="st19" d="M221.1,146.6c0,0-3.3,2-2.9,4.6s1.6,13.3,1,14.5s-2.9,3.3-1.3,4.6c1,0.8,2.1,1.5,3.4,1.9c0,0,2.3,8.8,3.9,10
		s4.9,1.8,6,2.1s6.4,2.9,6.4,2.9l2.1,7.4l16.6-14.9l-6-10.7c4.3-6.3,5.8-14,4.2-21.5c-2.9-12.4-12.4-14.3-24.4-13.6
		S215.7,141.3,221.1,146.6z"/>
	<polyline class="st8" points="221,162.4 224.1,163.2 221.8,163.9 	"/>
	<path class="st8" d="M220.3,160.1c0,0,1.2-2.6,5.1-0.1"/>
	<path class="st8" d="M241.5,159.8c0,0-2.3-1-3.1,0.1c-0.6,1-1.1,2.2-1.5,3.3c0,0,3.5-0.5,2.2,1.6l-1.3,2.1"/>
	<path class="st11" d="M230.1,134.1c-12,0.8-16.8,9.7-11.4,15c0,0,8.6-5.9,7.9-0.8s-2.9,5.8,1.8,6.9s3.9-0.8,4.3,1.6
		s-2.1,5.2,0.6,5.1s2-5.6,4.4-6.3s7.4,0.9,6.4,7.7s-4.8,7.6-4.8,7.6s1,1.6,11.4-1.3l-0.3-0.5c4.3-6.3,5.8-14,4.2-21.5
		C251.6,135.3,242.1,133.3,230.1,134.1z"/>
	<polygon class="st19" points="240.8,190.8 246.8,200 260,177.9 255.3,172.4 	"/>
	<path class="st22" d="M194.6,217.3l17.3,36.2c0.3,0.6,0.9,1,1.6,1.1l30.2,1.6c1,0.1,1.9-0.7,2-1.8c0-0.3,0-0.6-0.1-0.8l-14.5-35.2
		c-0.3-0.7-0.9-1.1-1.6-1.2l-33-2.7c-1-0.1-2,0.7-2.1,1.7C194.4,216.6,194.5,217,194.6,217.3z"/>
	<polygon class="st8" points="225.1,272.8 224.1,276.2 232.8,278.7 232.5,275 	"/>
	<path class="st7" d="M167.2,232.2v70.6c0,0-0.1,16.1,19.3,16.1s17.4-18.6,17.4-18.6v-52.8c0-4.9-1.4-6.3,1.6-6.2"/>
	<path class="st19" d="M231.4,246.1c0,0-3.3-5.4-5.2-8.4s-5.4-7-6.6-9.4s-2.8-0.3-2.3,1.7s3,6,3,6.7s-0.3,0.8-2,0s-9.5-3.4-11-4.2
		s-3.4-1.3-3.6,0s1.2,1.6,2.4,2.5c1,0.8,1.9,1.7,2.7,2.6c0,0-2.7-1.3-3.2-1s-0.3,1.5,1.1,2.4c0.8,0.5,1.5,1.3,1.9,2.2
		c1.6,1.5,3.3,2.9,5.1,4.1c3.8,2.6,8.1,4.5,12.6,5.6l6,1.4l0.4-4.5L231.4,246.1z"/>
	<line class="st8" x1="208.8" y1="237.8" x2="216.2" y2="242.3"/>
	<line class="st8" x1="208.3" y1="240.9" x2="214.8" y2="244.1"/>
	<polygon class="st19" points="241.5,245.2 231.6,244.3 231.1,254.6 242,254.4 	"/>
	<path class="st19" d="M268.1,198.5c-2.4,3.7-4.1,7.8-5,12.1c-1.9,7.7-4.6,30.3-4.6,30.3l-17.6,3.1l-0.5,12.4c0,0,34.5,4.3,37,2.1
		s6.5-31.9,4.6-44.9s-8.7-16.1-8.7-16.1"/>
	<path class="st8" d="M258.5,240.9c0,0,4-1.2,11.8,4.6"/>
	<path class="st8" d="M258.8,239.7c0,0,7.4-3.7,15.2-1.6"/>
</g>
</svg>
