<?xml version="1.0" encoding="utf-8"?>
<!-- Generator: Adobe Illustrator 24.2.1, SVG Export Plug-In . SVG Version: 6.00 Build 0)  -->
<svg version="1.1" id="Layer_1" xmlns="http://www.w3.org/2000/svg" xmlns:xlink="http://www.w3.org/1999/xlink" x="0px" y="0px"
	 viewBox="0 0 533.4 374.8" style="enable-background:new 0 0 533.4 374.8;" xml:space="preserve">
<style type="text/css">
	.st0{fill:#E3EBFF;}
	.st1{fill:#AED5FA;}
	.st2{fill:#0038F6;}
	.st3{fill:#FFFFFF;}
	.st4{fill:#89A1F0;}
	.st5{fill:#F9CE9B;}
</style>
<path class="st0" d="M78.8,326.7c-43.2,0-78.2-35-78.2-78.1c0-28.6,15.6-55,40.8-68.7c2.1-39.4,35.8-69.6,75.2-67.5
	c2.1,0.1,4.1,0.3,6.2,0.6c18-74.1,92.7-119.6,166.8-101.5c38.8,9.4,71.6,35.2,89.9,70.6c43.9-14.7,91.3,9,106,52.9
	c4.6,13.8,5.6,28.6,2.7,42.9c39,18.5,55.7,65.1,37.2,104.1c-12.9,27.3-40.5,44.8-70.7,44.7H78.8z"/>
<path class="st1" d="M86.7,335.1c-42.4,0-76.8-34.4-76.9-76.8c0-28.1,15.3-54,40.1-67.5c2.1-38.7,35.2-68.4,73.9-66.3
	c2.1,0.1,4.1,0.3,6.1,0.6C147.6,52.3,221,7.7,293.8,25.4c38.1,9.3,70.3,34.6,88.3,69.3c43.1-14.4,89.8,8.9,104.1,52.1
	c4.5,13.5,5.4,28,2.7,42c38.4,18.1,54.7,63.9,36.6,102.3c-12.7,26.9-39.8,44-69.5,44H86.7z"/>
<path class="st2" d="M454.6,327.2H349.3c-0.3,0.1-0.6-0.1-0.6-0.4c-0.1-0.3,0.1-0.6,0.4-0.6c0.1,0,0.2,0,0.3,0h105.3
	c42.9,0,77.7-34.7,77.7-77.6c0-30-17.3-57.4-44.4-70.3c-0.2-0.1-0.3-0.3-0.3-0.6c8.9-45.2-20.5-89-65.7-97.9
	c-14.1-2.8-28.7-1.9-42.3,2.7c-0.2,0.1-0.5,0-0.6-0.2c-35-67.4-118-93.8-185.4-58.8c-35.3,18.3-61,51-70.4,89.6
	c-0.1,0.3-0.3,0.4-0.6,0.4c-3.3-0.5-6.7-0.7-10-0.7c-37.7,0-68.8,29.5-70.8,67.1c0,0.2-0.1,0.3-0.3,0.4
	c-37.7,20.6-51.6,67.8-31,105.5c13.6,24.9,39.8,40.5,68.2,40.4h127.5c0.3,0.1,0.4,0.4,0.4,0.6s-0.2,0.3-0.4,0.4H78.8
	C35.3,327.3,0,292.1,0,248.6c0-28.7,15.6-55.2,40.8-69.1c2.3-39.7,36.4-70,76.1-67.7c1.8,0.1,3.6,0.3,5.4,0.5
	C140.6,38.1,215.7-7.3,290,11c38.6,9.5,71.2,35.1,89.6,70.4c44.3-14.5,91.9,9.7,106.3,53.9c4.5,13.6,5.4,28.1,2.7,42.2
	c39.2,18.8,55.7,65.8,36.9,105C512.5,309.8,484.9,327.2,454.6,327.2L454.6,327.2z"/>
<polygon class="st3" points="105.3,107 100.1,110.1 98.7,109.9 93.9,111.6 91.8,108.2 97.6,105.3 103.1,104.4 "/>
<path class="st2" d="M327.9,369.4L327.9,369.4z"/>
<path class="st4" d="M223.6,145.9h114.9c6.1,0,11,4.9,11,11.1v206.7c0,6.1-4.9,11-11,11H223.6c-6.1,0-11.1-4.9-11.1-11V157
	C212.6,150.9,217.5,145.9,223.6,145.9z"/>
<path class="st3" d="M218.2,144.4h114c6.1,0,11,4.9,11,11v205c0,6.1-4.9,11-11,11h-114c-6.1,0-11-4.9-11-11v-205
	C207.2,149.4,212.1,144.4,218.2,144.4z"/>
<path class="st4" d="M235.9,298.8c0-5.9,4.8-10.7,10.7-10.7h65.3c1.8,0,3.6,0.5,5.1,1.3c-1.8-3.6-5.5-5.9-9.5-5.9h-65.3
	c-5.9,0-10.7,4.8-10.7,10.7v77.2h4.4V298.8z"/>
<path class="st4" d="M332.2,144.4h-6.3c6.1,0,11,4.9,11,11v25.7h-5.3c0,0,5.3,2.5,5.3,6.9v19.4h-5.3c0,0,5.3,2.5,5.3,6.9v19.4h-5.3
	c0,0,5.3,2.5,5.3,6.9V260h-5.3c0,0,5.3,2.5,5.3,6.9v93.5c0,6.1-4.9,11-11,11l0,0h6.3c6.1,0,11-4.9,11-11l0,0v-205
	C343.2,149.4,338.2,144.4,332.2,144.4z"/>
<rect x="290.1" y="181.1" class="st5" width="37.5" height="6.9"/>
<rect x="290.1" y="207.4" class="st5" width="37.5" height="6.9"/>
<rect x="290.1" y="233.7" class="st5" width="37.5" height="6.9"/>
<rect x="290.1" y="260.4" class="st5" width="37.5" height="6.9"/>
<path class="st2" d="M332.2,372h-114c-6.4,0-11.6-5.2-11.6-11.6v-205c0-6.4,5.2-11.6,11.6-11.6h114c6.4,0,11.6,5.2,11.6,11.6v205
	C343.7,366.8,338.5,372,332.2,372z M218.2,145c-5.7,0-10.4,4.6-10.4,10.4v205.1c0,5.7,4.6,10.4,10.4,10.4h114
	c5.7,0,10.3-4.6,10.4-10.4v-205c0-5.7-4.6-10.3-10.4-10.4L218.2,145z"/>
<path class="st2" d="M343.1,181.7H207.2c-0.3,0-0.6-0.3-0.5-0.7c0-0.3,0.3-0.5,0.5-0.5h135.9c0.3,0,0.6,0.3,0.5,0.7
	C343.6,181.4,343.4,181.6,343.1,181.7z"/>
<path class="st2" d="M343.1,208H207.2c-0.3,0-0.6-0.3-0.6-0.6s0.3-0.6,0.6-0.6h135.9c0.3,0,0.6,0.3,0.6,0.6
	C343.7,207.7,343.5,208,343.1,208L343.1,208z"/>
<path class="st2" d="M343.1,234.3H207.2c-0.3,0-0.6-0.3-0.5-0.7c0-0.3,0.3-0.5,0.5-0.5h135.9c0.3,0,0.6,0.3,0.5,0.7
	C343.6,234.1,343.4,234.3,343.1,234.3z"/>
<path class="st2" d="M343.1,260.6H207.2c-0.3,0-0.6-0.3-0.5-0.7c0-0.3,0.3-0.5,0.5-0.5h135.9c0.3,0,0.6,0.3,0.5,0.7
	C343.6,260.4,343.4,260.6,343.1,260.6z"/>
<path class="st2" d="M343.1,188.6H207.2c-0.3,0-0.6-0.3-0.5-0.7c0-0.3,0.3-0.5,0.5-0.5h135.9c0.3,0,0.6,0.3,0.5,0.7
	C343.6,188.3,343.4,188.5,343.1,188.6z"/>
<path class="st2" d="M343.1,214.9H207.2c-0.3,0-0.6-0.3-0.5-0.7c0-0.3,0.3-0.5,0.5-0.5h135.9c0.3,0,0.6,0.3,0.5,0.7
	C343.6,214.6,343.4,214.9,343.1,214.9z"/>
<path class="st2" d="M343.1,241.2H207.2c-0.3,0-0.6-0.3-0.5-0.7c0-0.3,0.3-0.5,0.5-0.5h135.9c0.3,0,0.6,0.3,0.5,0.7
	C343.6,241,343.4,241.2,343.1,241.2z"/>
<path class="st2" d="M343.1,267.5H207.2c-0.3,0-0.6-0.3-0.5-0.7c0-0.3,0.3-0.5,0.5-0.5h135.9c0.3,0,0.6,0.3,0.5,0.7
	C343.6,267.3,343.4,267.5,343.1,267.5z"/>
<path class="st2" d="M318.1,372h-86.7c-0.3,0-0.6-0.3-0.6-0.6v-77.2c0-6.2,5.1-11.3,11.3-11.3h65.3c6.2,0,11.3,5.1,11.3,11.3v77.2
	C318.7,371.7,318.5,372,318.1,372z M232,370.8h85.5v-76.6c0-5.6-4.5-10.1-10.1-10.1h-65.3c-5.6,0-10.1,4.5-10.1,10.1l0,0L232,370.8
	L232,370.8z"/>
<path class="st5" d="M275.1,294.3L275.1,294.3c2.3,0,4.1,1.8,4.1,4.1v33.9c0,2.2-1.8,4.1-4.1,4.1l0,0c-2.2,0-4.1-1.8-4.1-4.1v-33.9
	C271.1,296.1,272.9,294.3,275.1,294.3z"/>
<path class="st2" d="M275.2,361.3c-3.8,0-6.9-3.1-6.9-6.9s3.1-6.9,6.9-6.9s6.9,3.1,6.9,6.9l0,0C282,358.2,278.9,361.3,275.2,361.3z
	 M275.2,348.8c-3.1,0-5.6,2.5-5.6,5.6s2.5,5.6,5.6,5.6s5.6-2.5,5.6-5.6l0,0C280.8,351.3,278.3,348.8,275.2,348.8z"/>
</svg>
