<?xml version="1.0" encoding="utf-8"?>
<!-- Generator: Adobe Illustrator 24.2.1, SVG Export Plug-In . SVG Version: 6.00 Build 0)  -->
<svg version="1.1" id="Layer_1" xmlns="http://www.w3.org/2000/svg" xmlns:xlink="http://www.w3.org/1999/xlink" x="0px" y="0px"
	 viewBox="0 0 533.4 374.8" style="enable-background:new 0 0 533.4 374.8;" xml:space="preserve">
<style type="text/css">
	.st0{fill:#E3EBFF;}
	.st1{fill:#B0C7F7;}
	.st2{fill:#004CF4;}
	.st3{fill:#FFFFFF;}
	.st4{fill:#0038F6;}
	.st5{fill:#89A1F0;}
	.st6{fill:#AED5FA;}
	.st7{fill:#F9CE9B;}
</style>
<path class="st0" d="M78.8,322.3c-43.2,0-78.2-35-78.2-78.2c0-28.6,15.6-55,40.8-68.7c2.2-39.4,35.9-69.6,75.4-67.4
	c2,0.1,4,0.3,6,0.6C140.7,34.5,215.4-11,289.5,7c38.8,9.4,71.6,35.2,90,70.6c43.9-14.7,91.3,9,106,52.9c4.6,13.8,5.6,28.6,2.7,42.9
	c39,18.5,55.7,65.1,37.2,104.1c-12.9,27.3-40.5,44.8-70.7,44.8H78.8z"/>
<path class="st1" d="M86.7,330.6c-42.4,0-76.8-34.4-76.8-76.9c0-28.1,15.3-53.9,40-67.4c2.1-38.7,35.3-68.4,74-66.3
	c2,0.1,4,0.3,6,0.6C147.6,47.8,221,3.2,293.8,20.9c38.1,9.3,70.3,34.6,88.3,69.3c43.1-14.4,89.8,8.9,104.1,52
	c4.5,13.5,5.4,28,2.7,42.1c38.3,18.2,54.6,64,36.4,102.4c-12.7,26.8-39.7,43.9-69.4,43.9H86.7z"/>
<path class="st2" d="M454.6,322.8H349.3c-0.3,0-0.5-0.2-0.5-0.5s0.2-0.5,0.5-0.5h105.3c42.9,0,77.7-34.7,77.7-77.6
	c0-30.1-17.3-57.4-44.5-70.3c-0.2-0.1-0.3-0.3-0.3-0.6c8.9-45.1-20.5-89-65.6-97.9c-14.1-2.8-28.7-1.9-42.4,2.7
	c-0.2,0.1-0.5,0-0.6-0.3c-35-67.4-118-93.8-185.4-58.8c-35.3,18.3-61,51-70.4,89.6c-0.1,0.3-0.3,0.4-0.6,0.4
	c-38.8-5.5-74.7,21.4-80.2,60.2c-0.3,2.1-0.5,4.1-0.6,6.2c0,0.2-0.1,0.3-0.3,0.4c-37.7,20.5-51.6,67.7-31,105.4
	c13.6,25,39.8,40.5,68.2,40.5h127.5c0.3,0,0.5,0.2,0.5,0.5l0,0c0,0.3-0.2,0.5-0.5,0.5H78.8C35.3,322.8,0,287.6,0,244.2
	c0-28.7,15.6-55.2,40.8-69c2.3-39.7,36.4-70,76.1-67.7c1.8,0.1,3.6,0.3,5.4,0.5C140.6,33.7,215.7-11.7,290,6.6
	c38.6,9.5,71.2,35.1,89.6,70.4c44.3-14.5,91.9,9.7,106.3,53.9c4.5,13.6,5.4,28.1,2.7,42.2c39.2,18.8,55.7,65.8,36.9,105
	C512.5,305.4,484.9,322.8,454.6,322.8L454.6,322.8z"/>
<path class="st3" d="M185.6,95.7c0.9-4.9,0.9-9.9,0-14.8l-14.3-1.5c-0.4-1.3-1-2.6-1.6-3.8l9-11.2c-2.8-4.1-6.4-7.6-10.5-10.5
	l-11.1,9c-1.2-0.6-2.5-1.1-3.8-1.6L151.8,47c-4.9-0.9-9.9-0.9-14.8,0l-1.5,14.3c-1.3,0.4-2.6,1-3.8,1.6l-11.2-9
	c-4.1,2.8-7.6,6.4-10.5,10.5l9,11.2c-0.6,1.2-1.1,2.5-1.6,3.8l-14.3,1.5c-0.9,4.9-0.9,9.9,0,14.8l14.3,1.5c0.4,1.3,1,2.6,1.6,3.8
	l-9,11.2c2.8,4.1,6.4,7.6,10.5,10.4l11.1-9l0,0c1.2,0.6,2.5,1.1,3.8,1.6l1.5,14.3c4.9,0.9,9.9,0.9,14.8,0l1.5-14.3
	c1.3-0.4,2.6-1,3.8-1.6l11.1,9c4.1-2.8,7.6-6.4,10.5-10.5l-9-11.2c0.6-1.2,1.1-2.5,1.6-3.8L185.6,95.7z M159.4,88.3
	c0,8.2-6.7,14.9-14.9,14.9s-14.9-6.7-14.9-14.9s6.7-14.9,14.9-14.9l0,0C152.7,73.4,159.4,80.1,159.4,88.3z"/>
<path class="st3" d="M238.3,125.2c0.1-1.7,0-3.4-0.2-5.1s-0.6-3.4-1.1-5l-9.9,0.2c-0.4-0.9-0.9-1.7-1.4-2.5l5.2-8.4
	c-2.3-2.5-5-4.7-8-6.2l-6.8,7.1c-0.9-0.3-1.8-0.6-2.7-0.8l-2.2-9.6c-3.4-0.2-6.8,0.2-10.1,1.2l0.2,9.8c-0.9,0.4-1.7,0.9-2.5,1.4
	l-8.4-5.2c-2.5,2.3-4.7,5-6.2,8l7.1,6.8c-0.3,0.9-0.6,1.8-0.8,2.7L181,122c-0.2,3.4,0.2,6.8,1.2,10.1l9.8-0.2
	c0.4,0.9,0.9,1.7,1.4,2.5l-5.2,8.4c2.3,2.5,5,4.7,8,6.2l6.8-7.1l0,0c0.9,0.3,1.8,0.6,2.7,0.8l2.2,9.6c3.4,0.2,6.8-0.2,10.1-1.2
	l-0.2-9.8c0.9-0.4,1.7-0.9,2.5-1.4l8.4,5.2c2.5-2.3,4.6-5,6.2-8l-7.1-6.9c0.3-0.9,0.6-1.8,0.8-2.7L238.3,125.2z M219.8,122.3
	c0.7,5.6-3.3,10.7-8.9,11.4c-5.6,0.7-10.7-3.3-11.4-8.9s3.3-10.7,8.9-11.4C214,112.8,219.1,116.7,219.8,122.3L219.8,122.3z"/>
<path class="st4" d="M141.4,128.7c-2.5,0-5-0.2-7.5-0.7c-0.3-0.1-0.5-0.3-0.5-0.5l-1.5-13.9c-1.1-0.4-2.1-0.8-3.2-1.3l-10.8,8.8
	c-0.2,0.2-0.5,0.2-0.7,0c-4.1-2.9-7.7-6.5-10.6-10.6c-0.2-0.2-0.2-0.5,0-0.7l8.8-10.8c-0.5-1-0.9-2.1-1.3-3.1l-13.9-1.5
	c-0.3,0-0.5-0.2-0.5-0.5c-0.9-5-0.9-10,0-15c0-0.3,0.3-0.5,0.5-0.5l13.9-1.5c0.4-1.1,0.8-2.2,1.3-3.2l-8.8-10.8
	c-0.2-0.2-0.2-0.5,0-0.7c2.9-4.1,6.5-7.7,10.6-10.6c0.2-0.2,0.5-0.2,0.7,0l10.9,8.8c1-0.5,2.1-0.9,3.2-1.3l1.5-13.9
	c0-0.3,0.2-0.5,0.5-0.5c5-0.9,10-0.9,15,0c0.3,0.1,0.5,0.3,0.5,0.5l1.5,13.9c1.1,0.4,2.1,0.8,3.1,1.4l10.9-8.8
	c0.2-0.2,0.5-0.2,0.7,0c4.1,2.9,7.7,6.5,10.6,10.6c0.2,0.2,0.2,0.5,0,0.7l-8.8,10.8c0.5,1,0.9,2.1,1.3,3.2l13.9,1.5
	c0.3,0,0.5,0.2,0.5,0.5c0.9,5,0.9,10,0,15c-0.1,0.3-0.3,0.5-0.5,0.5L168.8,96c-0.4,1.1-0.8,2.1-1.3,3.2l8.8,10.8
	c0.2,0.2,0.2,0.5,0,0.7c-2.9,4.1-6.5,7.7-10.6,10.6c-0.2,0.2-0.5,0.2-0.7,0l-10.8-8.8c-1,0.5-2.1,0.9-3.2,1.3l-1.5,13.9
	c0,0.3-0.2,0.5-0.5,0.5C146.4,128.4,143.9,128.7,141.4,128.7z M134.5,126.9c4.5,0.7,9.2,0.7,13.7,0l1.5-13.8c0-0.2,0.2-0.4,0.4-0.5
	c1.3-0.4,2.5-0.9,3.7-1.5c0.2-0.1,0.5-0.1,0.7,0.1l10.8,8.7c3.7-2.7,7-5.9,9.7-9.7l-8.7-10.8c-0.1-0.2-0.2-0.4-0.1-0.7
	c0.6-1.2,1.1-2.4,1.5-3.7c0.1-0.2,0.3-0.4,0.5-0.4l13.8-1.5c0.8-4.5,0.8-9.2,0-13.7L168.2,78c-0.2,0-0.4-0.2-0.5-0.4
	c-0.4-1.3-0.9-2.5-1.5-3.7c-0.1-0.2-0.1-0.5,0.1-0.7l8.7-10.8c-2.7-3.7-5.9-7-9.7-9.7l-10.8,8.7c-0.2,0.2-0.4,0.2-0.7,0.1
	c-1.2-0.6-2.4-1.1-3.7-1.5c-0.2-0.1-0.4-0.3-0.4-0.5l-1.5-13.8c-4.5-0.7-9.2-0.7-13.7,0L133,59.5c0,0.2-0.2,0.4-0.4,0.5
	c-1.3,0.4-2.5,0.9-3.7,1.5c-0.2,0.1-0.5,0.1-0.7-0.1l-10.8-8.7c-3.7,2.7-7,5.9-9.7,9.7l8.7,10.8c0.1,0.2,0.2,0.4,0.1,0.7
	c-0.6,1.2-1.1,2.5-1.5,3.8c-0.1,0.2-0.3,0.4-0.5,0.4l-13.8,1.5c-0.8,4.5-0.8,9.2,0,13.7l13.8,1.4c0.2,0,0.4,0.2,0.5,0.4
	c0.4,1.3,0.9,2.5,1.6,3.7c0.1,0.2,0.1,0.5-0.1,0.7l-8.7,10.8c2.7,3.7,5.9,7,9.7,9.7l10.8-8.7c0.2-0.2,0.4-0.2,0.7-0.1
	c1.2,0.6,2.5,1.1,3.7,1.5c0.2,0.1,0.4,0.3,0.4,0.5L134.5,126.9z M182.5,93.7L182.5,93.7z M141.4,101.8c-8.6,0-15.5-6.9-15.5-15.5
	s6.9-15.5,15.5-15.5s15.5,6.9,15.5,15.5C156.9,94.8,149.9,101.8,141.4,101.8L141.4,101.8z M141.4,72c-7.9,0-14.3,6.4-14.3,14.3
	s6.4,14.3,14.3,14.3c7.9,0,14.3-6.4,14.3-14.3l0,0C155.7,78.4,149.3,72,141.4,72L141.4,72z"/>
<path class="st4" d="M206.5,150.9c-0.5,0-1,0-1.6,0c-0.3,0-0.5-0.2-0.6-0.5l-2.1-9.2c-0.7-0.2-1.4-0.3-2.1-0.6l-6.6,6.8
	c-0.2,0.2-0.5,0.2-0.7,0.1c-3.1-1.6-5.9-3.8-8.2-6.4c-0.2-0.2-0.2-0.5-0.1-0.7l5-8c-0.4-0.6-0.7-1.2-1.1-1.9l-9.4,0.2l0,0
	c-0.3,0-0.5-0.2-0.6-0.4c-0.5-1.7-0.9-3.4-1.1-5.1c-0.2-1.7-0.3-3.5-0.2-5.2c0-0.3,0.2-0.5,0.5-0.6l9.2-2.2c0.1-0.7,0.3-1.4,0.6-2.1
	l-6.8-6.6c-0.2-0.2-0.2-0.5-0.1-0.7c1.6-3.1,3.8-5.9,6.4-8.2c0.2-0.2,0.5-0.2,0.7-0.1l8,5c0.6-0.4,1.2-0.7,1.9-1l-0.2-9.5
	c0-0.3,0.2-0.5,0.4-0.6c3.3-1,6.8-1.5,10.3-1.3c0.3,0,0.5,0.2,0.6,0.5l2.1,9.2c0.7,0.1,1.4,0.3,2.1,0.6l6.6-6.8
	c0.2-0.2,0.5-0.3,0.7-0.1c3.1,1.6,5.9,3.8,8.2,6.4c0.2,0.2,0.2,0.5,0.1,0.7l-5,8c0.4,0.6,0.7,1.2,1.1,1.9l9.5-0.2l0,0
	c0.3,0,0.5,0.2,0.6,0.4c1,3.3,1.5,6.8,1.3,10.3c0,0.3-0.2,0.5-0.5,0.6l-9.2,2.1c-0.2,0.7-0.3,1.4-0.6,2.1l6.8,6.6
	c0.2,0.2,0.2,0.5,0.1,0.7c-1.6,3.1-3.8,5.9-6.4,8.2c-0.2,0.2-0.5,0.2-0.7,0.1l-8-5c-0.6,0.4-1.2,0.7-1.9,1.1l0.2,9.4
	c0,0.3-0.2,0.5-0.4,0.6c-1.7,0.5-3.4,0.9-5.1,1.1C208.9,150.8,207.7,150.9,206.5,150.9z M205.5,149.7c1.5,0.1,3,0,4.5-0.2
	s3-0.5,4.4-0.9l-0.2-9.4c0-0.2,0.1-0.5,0.4-0.6c0.8-0.4,1.6-0.8,2.4-1.4c0.2-0.1,0.5-0.1,0.7,0l8,5c2.2-2.1,4.1-4.5,5.6-7.1
	l-6.8-6.5c-0.2-0.2-0.2-0.4-0.1-0.6c0.3-0.9,0.6-1.7,0.7-2.6c0-0.2,0.2-0.4,0.5-0.5l9.1-2.1c0.1-1.5,0-3-0.2-4.5s-0.5-3-0.9-4.4
	l-9.4,0.2l0,0c-0.2,0-0.5-0.1-0.6-0.3c-0.4-0.8-0.8-1.6-1.4-2.4c-0.1-0.2-0.1-0.5,0-0.7l5-8c-2.1-2.2-4.5-4.1-7.2-5.6l-6.5,6.8
	c-0.2,0.2-0.4,0.2-0.6,0.2c-0.9-0.3-1.7-0.6-2.6-0.7c-0.2,0-0.4-0.2-0.5-0.5l-2.1-9.1c-3-0.1-6.1,0.3-9,1.1l0.2,9.4
	c0,0.2-0.1,0.5-0.4,0.6c-0.8,0.4-1.6,0.8-2.4,1.3c-0.2,0.1-0.5,0.1-0.7,0l-8-5c-2.2,2.1-4.1,4.5-5.6,7.1l6.8,6.5
	c0.2,0.2,0.2,0.4,0.1,0.6c-0.3,0.9-0.6,1.7-0.7,2.7c0,0.2-0.2,0.4-0.5,0.5l-9.1,2.1c-0.1,1.5,0,3,0.2,4.5s0.5,3,0.9,4.4l9.4-0.2l0,0
	c0.2,0,0.4,0.1,0.6,0.3c0.4,0.8,0.8,1.6,1.4,2.4c0.1,0.2,0.1,0.5,0,0.7l-5,8c2.1,2.2,4.5,4.1,7.1,5.6l6.5-6.8
	c0.1-0.1,0.2-0.2,0.3-0.2s0.2,0,0.3,0c0.9,0.3,1.7,0.5,2.6,0.7c0.2,0,0.4,0.2,0.5,0.5L205.5,149.7z M235.2,123.1L235.2,123.1z
	 M206.6,132.4c-6,0-10.8-4.9-10.8-10.8c0-6,4.9-10.8,10.8-10.8c5.5,0,10.1,4.1,10.8,9.5l0,0c0.7,5.9-3.5,11.3-9.4,12.1
	C207.5,132.4,207,132.4,206.6,132.4L206.6,132.4z M206.6,112c-5.3,0-9.6,4.3-9.6,9.6s4.3,9.6,9.6,9.6c0.4,0,0.8,0,1.1-0.1
	c5.3-0.7,9-5.5,8.4-10.7C215.5,115.6,211.4,112,206.6,112L206.6,112z"/>
<path class="st5" d="M403.7,345.7c3,0,5.5-2.5,5.5-5.5V198.8c0-3-2.5-5.5-5.5-5.5H169.2c-3,0-5.5,2.5-5.5,5.5v141.3
	c0,3,2.5,5.5,5.5,5.5h-18.8v4.2c0,5.7,4.6,10.3,10.3,10.3l0,0h251.5c5.7,0,10.3-4.6,10.3-10.3l0,0v-4.2h-18.8V345.7z"/>
<path class="st3" d="M397.7,340.3c3,0,5.5-2.5,5.5-5.5V193.4c0-3-2.5-5.5-5.5-5.5H163.2c-3,0-5.5,2.5-5.5,5.5v141.3
	c0,3,2.5,5.5,5.5,5.5h-18.8v4.2c0,5.7,4.6,10.3,10.3,10.3h251.5c5.7,0,10.3-4.6,10.3-10.3v-4.2L397.7,340.3L397.7,340.3z"/>
<path class="st4" d="M406.2,355.4H154.7c-6,0-10.9-4.9-10.9-10.9v-4.2c0-0.4,0.3-0.6,0.6-0.6l0,0h272.1c0.3,0,0.6,0.3,0.6,0.6v4.2
	C417.1,350.5,412.3,355.4,406.2,355.4z M145,340.9v3.6c0,5.3,4.3,9.6,9.6,9.6h251.6c5.3,0,9.6-4.3,9.6-9.6v-3.6H145z"/>
<path class="st5" d="M395.2,207.9v112.5c0,4.5-3.6,8.1-8.1,8.1H173.9c-4.5,0-8.1-3.6-8.1-8.1v-98.8c0-12.1,9.8-21.8,21.8-21.8H387
	C391.5,199.8,395.1,203.4,395.2,207.9C395.1,207.9,395.2,207.9,395.2,207.9z"/>
<path class="st4" d="M397.7,340.9H163.2c-3.4,0-6.1-2.7-6.1-6.1V193.4c0-3.4,2.7-6.1,6.1-6.1h234.5c3.4,0,6.1,2.7,6.1,6.1v141.3
	C403.8,338.1,401.1,340.9,397.7,340.9z M163.2,188.6c-2.7,0-4.8,2.2-4.9,4.8v141.4c0,2.7,2.2,4.8,4.9,4.8h234.5
	c2.7,0,4.8-2.2,4.8-4.8V193.4c0-2.7-2.2-4.8-4.8-4.8L163.2,188.6z"/>
<path class="st6" d="M395.2,207.9v112.5c0,4.5-3.6,8.1-8.1,8.1H173.9c-4.5,0-8.1-3.6-8.1-8.1V207.9c0-4.5,3.6-8.1,8.1-8.1H387
	C391.5,199.8,395.2,203.4,395.2,207.9z"/>
<path class="st7" d="M210,273.5L210,273.5c4.3,0,7.8,3.5,7.8,7.8v32.2c0,4.3-3.5,7.8-7.8,7.8l0,0c-4.3,0-7.8-3.5-7.8-7.8v-32.2
	C202.2,277,205.7,273.5,210,273.5z"/>
<path class="st3" d="M237.6,248.8L237.6,248.8c4.3,0,7.8,3.5,7.8,7.8v56.9c0,4.3-3.5,7.8-7.8,7.8l0,0c-4.3,0-7.8-3.5-7.8-7.8v-56.9
	C229.8,252.3,233.3,248.8,237.6,248.8z"/>
<path class="st7" d="M267.4,264.6L267.4,264.6c4.3,0,7.8,3.5,7.8,7.8v41.1c0,4.3-3.5,7.8-7.8,7.8l0,0c-4.3,0-7.8-3.5-7.8-7.8v-41.1
	C259.5,268.1,263,264.6,267.4,264.6z"/>
<path class="st3" d="M297.1,263.1L297.1,263.1c4.3,0,7.8,3.5,7.8,7.8v42.6c0,4.3-3.5,7.8-7.8,7.8l0,0c-4.3,0-7.8-3.5-7.8-7.8v-42.6
	C289.3,266.6,292.8,263.1,297.1,263.1z"/>
<path class="st7" d="M326.8,245.4L326.8,245.4c4.3,0,7.8,3.5,7.8,7.8v60.2c0,4.3-3.5,7.8-7.8,7.8l0,0c-4.3,0-7.8-3.5-7.8-7.8v-60.2
	C319,248.9,322.5,245.4,326.8,245.4z"/>
<path class="st3" d="M356.6,237.9L356.6,237.9c4.3,0,7.8,3.5,7.8,7.8v67.7c0,4.3-3.5,7.8-7.8,7.8l0,0c-4.3,0-7.8-3.5-7.8-7.8v-67.7
	C348.8,241.4,352.3,237.9,356.6,237.9z"/>
<ellipse class="st3" cx="281.3" cy="219.8" rx="10.1" ry="11"/>
<ellipse class="st3" cx="293.6" cy="223.4" rx="4.4" ry="4.8"/>
<ellipse class="st3" cx="268.6" cy="221.3" rx="5.5" ry="5.9"/>
<path class="st3" d="M296.2,234.8h-31.6c-2.9,0-5.2-2.3-5.2-5.2v-0.5c0-2.9,2.3-5.2,5.2-5.2h31.6c2.9,0,5.2,2.3,5.2,5.2v0.5
	C301.4,232.5,299.1,234.8,296.2,234.8z"/>
<path class="st4" d="M207.2,319.8c-4.7,0-8.4-3.8-8.4-8.5v-32.2c0.2-4.7,4.1-8.3,8.7-8.2c4.4,0.2,8,3.7,8.2,8.2v32.2
	C215.6,316,211.8,319.8,207.2,319.8z M207.2,272c-4,0-7.2,3.2-7.2,7.2v32.2c-0.1,4,2.9,7.3,6.9,7.4s7.3-2.9,7.4-6.9
	c0-0.2,0-0.4,0-0.5v-32.2C214.3,275.2,211.1,272,207.2,272L207.2,272z"/>
<path class="st4" d="M234.8,319.8c-4.7,0-8.4-3.8-8.4-8.5v-56.9c0.2-4.7,4.1-8.3,8.7-8.2c4.4,0.2,8,3.7,8.2,8.2v56.9
	C243.2,316,239.5,319.8,234.8,319.8z M234.8,247.3c-4,0-7.2,3.2-7.2,7.2v56.9c-0.1,4,2.9,7.3,6.9,7.4s7.3-2.9,7.4-6.9
	c0-0.2,0-0.4,0-0.5v-56.9C242,250.5,238.8,247.3,234.8,247.3z"/>
<path class="st4" d="M264.5,319.8c-4.7,0-8.4-3.8-8.5-8.5v-41.1c0.2-4.7,4.1-8.3,8.7-8.2c4.4,0.2,8,3.7,8.2,8.2v41.1
	C273,316,269.2,319.8,264.5,319.8z M264.5,263.1c-4,0-7.2,3.2-7.2,7.2v41.1c-0.1,4,2.9,7.3,6.9,7.4s7.3-2.9,7.4-6.9
	c0-0.2,0-0.4,0-0.5v-41.1C271.7,266.3,268.5,263.1,264.5,263.1z"/>
<path class="st4" d="M294.3,319.8c-4.7,0-8.4-3.8-8.4-8.5v-42.6c-0.2-4.7,3.5-8.6,8.2-8.7c4.7-0.2,8.6,3.5,8.7,8.2
	c0,0.2,0,0.4,0,0.6v42.6C302.7,316,298.9,319.8,294.3,319.8z M294.3,261.6c-4,0-7.2,3.2-7.2,7.2v42.6c-0.1,4,2.9,7.3,6.9,7.4
	s7.3-2.9,7.4-6.9c0-0.2,0-0.4,0-0.5v-42.6C301.4,264.9,298.2,261.6,294.3,261.6z"/>
<path class="st4" d="M324,319.8c-4.7,0-8.4-3.8-8.4-8.5v-60.2c0.2-4.7,4.1-8.3,8.7-8.2c4.4,0.2,8,3.7,8.2,8.2v60.2
	C332.4,316,328.7,319.8,324,319.8z M324,244c-4,0-7.2,3.2-7.2,7.2v60.2c0,4,3.2,7.2,7.2,7.2s7.2-3.2,7.2-7.2v-60.2
	C331.2,247.2,328,244,324,244L324,244z"/>
<path class="st4" d="M353.8,319.8c-4.7,0-8.4-3.8-8.4-8.5v-67.7c0-4.7,3.8-8.4,8.4-8.4l0,0c4.7,0,8.4,3.8,8.5,8.4v67.7
	C362.2,316,358.4,319.8,353.8,319.8z M353.8,236.5c-4,0-7.2,3.2-7.2,7.2v67.7c0,4,3.2,7.2,7.2,7.2s7.2-3.2,7.2-7.2v-67.7
	C360.9,239.7,357.7,236.5,353.8,236.5L353.8,236.5z"/>
</svg>
