<?xml version="1.0" encoding="utf-8"?>
<!-- Generator: Adobe Illustrator 24.2.1, SVG Export Plug-In . SVG Version: 6.00 Build 0)  -->
<svg version="1.1" id="Layer_1" xmlns="http://www.w3.org/2000/svg" xmlns:xlink="http://www.w3.org/1999/xlink" x="0px" y="0px"
	 viewBox="0 0 533.4 373" style="enable-background:new 0 0 533.4 373;" xml:space="preserve">
<style type="text/css">
	.st0{fill:#E3EBFF;}
	.st1{fill:#AED5FA;}
	.st2{fill:#0038F6;}
	.st3{fill:#89A1F0;}
	.st4{fill:#FFFFFF;}
	.st5{fill:#EFC18B;}
	.st6{fill:#F9CE9B;}
	.st7{fill:#8BAAEF;}
</style>
<path class="st0" d="M78.8,323.9c-43.2,0-78.2-35-78.2-78.2c0-28.6,15.6-55,40.8-68.7c2.2-39.4,35.9-69.6,75.4-67.5
	c2,0.1,4,0.3,6,0.6C140.8,36,215.5-9.5,289.6,8.6c38.8,9.4,71.6,35.2,90,70.6c43.9-14.7,91.3,9,106,52.9c4.6,13.8,5.6,28.6,2.7,42.9
	c39,18.5,55.7,65.1,37.2,104.1c-12.9,27.3-40.5,44.8-70.7,44.8H78.8z"/>
<path class="st1" d="M86.7,332.3c-42.4,0-76.8-34.4-76.8-76.8c0-28.1,15.3-54,40-67.5c2.1-38.7,35.3-68.4,74-66.3c2,0.1,4,0.3,6,0.6
	C147.6,49.5,221,4.8,293.8,22.6c38.1,9.3,70.3,34.6,88.3,69.3c43.1-14.4,89.8,8.9,104.1,52c4.5,13.6,5.4,28,2.7,42.1
	c38.3,18.2,54.7,64,36.5,102.3c-12.7,26.8-39.8,43.9-69.5,43.9H86.7V332.3z"/>
<path class="st2" d="M454.6,324.4H349.3c-0.3-0.1-0.4-0.4-0.4-0.6s0.2-0.3,0.4-0.4h105.3c42.9,0,77.7-34.7,77.7-77.6
	c0-30.1-17.3-57.4-44.5-70.3c-0.2-0.1-0.3-0.3-0.3-0.6c8.9-45.1-20.5-89-65.6-97.9c-14.1-2.8-28.7-1.9-42.4,2.7
	c-0.2,0.1-0.5,0-0.6-0.3c-35-67.4-118-93.8-185.4-58.8c-35.3,18.3-61,51-70.4,89.6c-0.1,0.3-0.3,0.4-0.6,0.4
	c-38.8-5.5-74.7,21.4-80.2,60.2c-0.3,2.1-0.5,4.1-0.6,6.2c0,0.2-0.1,0.3-0.3,0.4C3.9,198.1-9.9,245.3,10.7,283
	c13.6,24.9,39.7,40.4,68.1,40.4h127.5c0.3,0.1,0.4,0.4,0.4,0.6s-0.2,0.3-0.4,0.4H78.8C35.3,324.4,0,289.2,0,245.8
	c0-28.7,15.6-55.2,40.8-69c2.3-39.7,36.4-70,76.1-67.7c1.8,0.1,3.6,0.3,5.4,0.5C140.6,35.3,215.7-10.1,290,8.2
	c38.6,9.5,71.2,35.1,89.7,70.4c44.3-14.5,91.9,9.7,106.4,53.9c4.4,13.6,5.4,28.1,2.6,42.2c39.2,18.8,55.7,65.8,36.9,105
	C512.5,307,484.9,324.4,454.6,324.4L454.6,324.4z"/>
<path class="st3" d="M371.8,184.9c-1.7-1.8-4.1-2.8-6.5-2.8H210.7c-5.4,0.1-9.6,4.6-9.5,9.9v27.8c-0.1,5.4,4.1,9.8,9.5,9.9
	c-5.4,0.1-9.6,4.6-9.5,9.9v27.8c-0.1,5.4,4.1,9.8,9.5,9.9c-5.4,0.1-9.6,4.6-9.5,9.9V315c-0.1,5.4,4.1,9.8,9.5,9.9
	c-5.4,0.1-9.6,4.6-9.5,9.9v27.7c-0.1,5.4,4.1,9.8,9.5,9.9h154.5c2.5,0,4.8-1,6.5-2.8c1.8-1.5,2.9-3.8,2.9-6.2V334
	c0-2.4-1.1-4.6-2.9-6.2c-1.7-1.8-4.1-2.7-6.5-2.8c2.5,0,4.8-1,6.5-2.8c1.8-1.5,2.9-3.8,2.9-6.2v-29.8c0-2.4-1.1-4.6-2.9-6.2
	c-1.7-1.8-4.1-2.7-6.5-2.8c2.5,0,4.8-1,6.5-2.8c1.8-1.5,2.9-3.8,2.9-6.2v-29.8c0-2.4-1.1-4.6-2.9-6.2c-1.7-1.8-4.1-2.8-6.5-2.8
	c2.5,0,4.8-1,6.5-2.8c1.8-1.5,2.9-3.8,2.9-6.2v-29.8C374.7,188.7,373.6,186.5,371.8,184.9z"/>
<path class="st4" d="M366,180.5c-1.7-1.8-4.1-2.8-6.5-2.8H204.9c-5.3,0.2-9.6,4.6-9.5,9.9v27.8c-0.1,5.4,4.1,9.8,9.5,9.9
	c-5.3,0.2-9.6,4.6-9.5,9.9V263c-0.1,5.4,4.1,9.8,9.5,9.9c-5.4,0.1-9.6,4.6-9.5,9.9v27.8c-0.1,5.4,4.1,9.8,9.5,9.9
	c-5.4,0.1-9.6,4.6-9.5,9.9v27.8c-0.1,5.4,4.1,9.8,9.5,9.9h154.5c2.5,0,4.8-1,6.5-2.8c1.8-1.5,2.9-3.8,2.9-6.2v-29.8
	c0-2.4-1.1-4.6-2.9-6.2c-1.7-1.8-4.1-2.8-6.5-2.8c2.5,0,4.8-1,6.5-2.8c1.8-1.5,2.9-3.8,2.9-6.2V282c0-2.4-1.1-4.6-2.9-6.2
	c-1.7-1.8-4.1-2.8-6.5-2.8c2.5,0,4.8-1,6.5-2.8c1.8-1.5,2.9-3.8,2.9-6.2v-29.8c0-2.4-1.1-4.6-2.9-6.2c-1.7-1.8-4.1-2.8-6.5-2.8
	c2.5,0,4.8-1,6.5-2.8c1.8-1.5,2.9-3.8,2.9-6.2v-29.8C368.9,184.3,367.8,182.1,366,180.5z"/>
<path class="st3" d="M358.4,320.6h-12c5.8,0,10.5,4,10.5,8.9v29.8c0,4.9-4.7,8.9-10.5,8.9h12c5.8,0,10.5-4,10.5-8.9v-29.8
	C368.9,324.7,364.1,320.6,358.4,320.6z"/>
<path class="st2" d="M359.4,369H204.9c-5.8-0.1-10.3-4.9-10.2-10.7v-27.7c-0.1-5.8,4.4-10.5,10.2-10.7h154.5
	c5.8,0.2,10.3,4.9,10.2,10.7v27.8C369.7,364.1,365.2,368.9,359.4,369z M204.9,321.4c-4.9,0.1-8.9,4.2-8.8,9.2v27.8
	c-0.1,4.9,3.8,9,8.8,9.2h154.5c4.9-0.1,8.9-4.2,8.8-9.2v-27.8c0.1-4.9-3.8-9-8.8-9.2H204.9z"/>
<path class="st2" d="M336.9,353.6c-5.1,0.2-9.4-3.6-9.6-8.7s3.6-9.4,8.7-9.6s9.4,3.6,9.6,8.7c0,0.1,0,0.3,0,0.4
	C345.7,349.4,341.8,353.5,336.9,353.6z M336.9,336.8c-4.2-0.2-7.8,3-8,7.3s3,7.8,7.3,8c4.2,0.2,7.8-3,8-7.3c0-0.1,0-0.2,0-0.4
	C344.3,340.3,341,336.9,336.9,336.8z"/>
<path class="st5" d="M288.2,341.2h23.2c1.8,0,3.2,1.4,3.2,3.2v0.2c0,1.8-1.4,3.2-3.2,3.2h-23.2c-1.8,0-3.2-1.4-3.2-3.2v-0.2
	C285,342.6,286.5,341.2,288.2,341.2z"/>
<path class="st5" d="M212.3,336.1L212.3,336.1c1.6,0,2.8,1.3,2.8,2.8V350c0,1.6-1.3,2.8-2.8,2.8l0,0c-1.6,0-2.8-1.3-2.8-2.8v-11.2
	C209.5,337.3,210.7,336.1,212.3,336.1z"/>
<path class="st5" d="M224.3,336.1L224.3,336.1c1.6,0,2.8,1.3,2.8,2.8V350c0,1.6-1.3,2.8-2.8,2.8l0,0c-1.6,0-2.8-1.3-2.8-2.8v-11.2
	C221.5,337.3,222.7,336.1,224.3,336.1z"/>
<path class="st5" d="M236.3,336.1L236.3,336.1c1.6,0,2.8,1.3,2.8,2.8V350c0,1.6-1.3,2.8-2.8,2.8l0,0c-1.6,0-2.8-1.3-2.8-2.8v-11.2
	C233.4,337.3,234.7,336.1,236.3,336.1z"/>
<path class="st5" d="M248.2,336.1L248.2,336.1c1.6,0,2.8,1.3,2.8,2.8V350c0,1.6-1.3,2.8-2.8,2.8l0,0c-1.6,0-2.8-1.3-2.8-2.8v-11.2
	C245.4,337.3,246.7,336.1,248.2,336.1z"/>
<path class="st5" d="M272.2,336.1L272.2,336.1c1.6,0,2.8,1.3,2.8,2.8V350c0,1.6-1.3,2.8-2.8,2.8l0,0c-1.6,0-2.8-1.3-2.8-2.8v-11.2
	C269.4,337.3,270.7,336.1,272.2,336.1z"/>
<path class="st3" d="M358.4,273h-12c5.8,0,10.5,4,10.5,8.9v29.8c0,4.9-4.7,8.9-10.5,8.9h12c5.8,0,10.5-4,10.5-8.9V282
	C368.9,277,364.1,273,358.4,273z"/>
<path class="st2" d="M359.4,321.4H204.9c-5.8-0.2-10.3-4.9-10.2-10.7V283c-0.1-5.8,4.4-10.5,10.2-10.7h154.5
	c5.8,0.2,10.3,4.9,10.2,10.7v27.8C369.7,316.5,365.2,321.3,359.4,321.4z M204.9,273.8c-4.9,0.1-8.9,4.2-8.8,9.2v27.8
	c-0.1,4.9,3.8,9,8.8,9.2h154.5c4.9-0.1,8.9-4.2,8.8-9.2V283c0.1-4.9-3.8-9-8.8-9.2H204.9z"/>
<path class="st2" d="M336.9,306c-5.1,0.2-9.4-3.6-9.6-8.7s3.6-9.4,8.7-9.6s9.4,3.6,9.6,8.7c0,0.1,0,0.3,0,0.4
	C345.7,301.8,341.8,305.9,336.9,306z M336.9,289.2c-4.2-0.2-7.8,3-8,7.3s3,7.8,7.3,8c4.2,0.2,7.8-3,8-7.3c0-0.1,0-0.2,0-0.4
	C344.3,292.7,341,289.3,336.9,289.2L336.9,289.2z"/>
<path class="st5" d="M288.2,293.5h23.2c1.8,0,3.2,1.4,3.2,3.2v0.2c0,1.8-1.4,3.2-3.2,3.2h-23.2c-1.8,0-3.2-1.4-3.2-3.2v-0.2
	C285,295,286.5,293.5,288.2,293.5z"/>
<path class="st5" d="M212.3,288.4L212.3,288.4c1.6,0,2.8,1.3,2.8,2.8v11.2c0,1.6-1.3,2.8-2.8,2.8l0,0c-1.6,0-2.8-1.3-2.8-2.8v-11.2
	C209.5,289.7,210.7,288.4,212.3,288.4z"/>
<path class="st5" d="M236.3,288.4L236.3,288.4c1.6,0,2.8,1.3,2.8,2.8v11.2c0,1.6-1.3,2.8-2.8,2.8l0,0c-1.6,0-2.8-1.3-2.8-2.8v-11.2
	C233.4,289.7,234.7,288.4,236.3,288.4z"/>
<path class="st5" d="M248.2,288.4L248.2,288.4c1.6,0,2.8,1.3,2.8,2.8v11.2c0,1.6-1.3,2.8-2.8,2.8l0,0c-1.6,0-2.8-1.3-2.8-2.8v-11.2
	C245.4,289.7,246.7,288.4,248.2,288.4z"/>
<path class="st5" d="M260.2,288.4L260.2,288.4c1.6,0,2.8,1.3,2.8,2.8v11.2c0,1.6-1.3,2.8-2.8,2.8l0,0c-1.6,0-2.8-1.3-2.8-2.8v-11.2
	C257.4,289.7,258.7,288.4,260.2,288.4z"/>
<path class="st5" d="M272.2,288.4L272.2,288.4c1.6,0,2.8,1.3,2.8,2.8v11.2c0,1.6-1.3,2.8-2.8,2.8l0,0c-1.6,0-2.8-1.3-2.8-2.8v-11.2
	C269.4,289.7,270.7,288.4,272.2,288.4z"/>
<path class="st3" d="M358.4,225.4h-12c5.8,0,10.5,4,10.5,8.9v29.8c0,4.9-4.7,8.9-10.5,8.9h12c5.8,0,10.5-4,10.5-8.9v-29.8
	C368.9,229.4,364.1,225.4,358.4,225.4z"/>
<path class="st2" d="M359.4,273.8H204.9c-5.8-0.2-10.3-4.9-10.2-10.7v-27.7c-0.1-5.8,4.4-10.5,10.2-10.7h154.5
	c5.8,0.1,10.3,4.9,10.2,10.7v27.8C369.7,268.8,365.2,273.6,359.4,273.8z M204.9,226.1c-4.9,0.1-8.9,4.2-8.8,9.2v27.8
	c-0.1,4.9,3.8,9,8.8,9.2h154.5c4.9-0.1,8.9-4.2,8.8-9.2v-27.7c0.1-4.9-3.8-9-8.8-9.2H204.9V226.1z"/>
<path class="st2" d="M336.9,258.4c-5.1,0.2-9.4-3.6-9.6-8.7c-0.2-5.1,3.6-9.4,8.7-9.6s9.4,3.6,9.6,8.7c0,0.1,0,0.3,0,0.4
	C345.7,254.1,341.8,258.2,336.9,258.4z M336.9,241.6c-4.2-0.2-7.8,3-8,7.3c-0.2,4.2,3,7.8,7.3,8c4.2,0.2,7.8-3,8-7.3
	c0-0.1,0-0.2,0-0.4C344.3,245.1,341,241.7,336.9,241.6L336.9,241.6z"/>
<path class="st5" d="M288.2,245.9h23.2c1.8,0,3.2,1.4,3.2,3.2v0.2c0,1.8-1.4,3.2-3.2,3.2h-23.2c-1.8,0-3.2-1.4-3.2-3.2v-0.2
	C285,247.4,286.5,245.9,288.2,245.9z"/>
<path class="st5" d="M212.3,240.8L212.3,240.8c1.6,0,2.8,1.3,2.8,2.8v11.2c0,1.6-1.3,2.8-2.8,2.8l0,0c-1.6,0-2.8-1.3-2.8-2.8v-11.2
	C209.5,242.1,210.7,240.8,212.3,240.8z"/>
<path class="st5" d="M224.3,240.8L224.3,240.8c1.6,0,2.8,1.3,2.8,2.8v11.2c0,1.6-1.3,2.8-2.8,2.8l0,0c-1.6,0-2.8-1.3-2.8-2.8v-11.2
	C221.5,242.1,222.7,240.8,224.3,240.8z"/>
<path class="st5" d="M236.3,240.8L236.3,240.8c1.6,0,2.8,1.3,2.8,2.8v11.2c0,1.6-1.3,2.8-2.8,2.8l0,0c-1.6,0-2.8-1.3-2.8-2.8v-11.2
	C233.4,242.1,234.7,240.8,236.3,240.8z"/>
<path class="st5" d="M260.2,240.8L260.2,240.8c1.6,0,2.8,1.3,2.8,2.8v11.2c0,1.6-1.3,2.8-2.8,2.8l0,0c-1.6,0-2.8-1.3-2.8-2.8v-11.2
	C257.4,242.1,258.7,240.8,260.2,240.8z"/>
<path class="st5" d="M272.2,240.8L272.2,240.8c1.6,0,2.8,1.3,2.8,2.8v11.2c0,1.6-1.3,2.8-2.8,2.8l0,0c-1.6,0-2.8-1.3-2.8-2.8v-11.2
	C269.4,242.1,270.7,240.8,272.2,240.8z"/>
<path class="st3" d="M358.4,177.8h-12c5.8,0,10.5,4,10.5,8.9v29.8c0,4.9-4.7,8.9-10.5,8.9h12c5.8,0,10.5-4,10.5-8.9v-29.8
	C368.9,181.8,364.1,177.8,358.4,177.8z"/>
<path class="st2" d="M359.4,226.1H204.9c-5.8-0.2-10.3-4.9-10.2-10.7v-27.8c-0.1-5.8,4.4-10.6,10.2-10.7h154.5
	c5.8,0.1,10.3,4.9,10.2,10.7v27.8C369.7,221.2,365.2,226,359.4,226.1z M204.9,178.5c-4.9,0.1-8.9,4.2-8.8,9.2v27.8
	c-0.1,4.9,3.8,9.1,8.8,9.2h154.5c4.9-0.1,8.9-4.2,8.8-9.2v-27.8c0.1-4.9-3.8-9-8.8-9.2H204.9z"/>
<path class="st2" d="M336.9,210.7c-5.1,0.2-9.4-3.6-9.6-8.7c-0.2-5.1,3.6-9.4,8.7-9.6s9.4,3.6,9.6,8.7c0,0.1,0,0.3,0,0.4
	C345.7,206.5,341.8,210.6,336.9,210.7z M336.9,193.9c-4.2-0.2-7.8,3-8,7.3s3,7.8,7.3,8s7.8-3,8-7.3c0-0.1,0-0.2,0-0.4
	C344.3,197.5,341,194.1,336.9,193.9z"/>
<path class="st5" d="M288.2,198.3h23.2c1.8,0,3.2,1.4,3.2,3.2v0.2c0,1.8-1.4,3.2-3.2,3.2h-23.2c-1.8,0-3.2-1.4-3.2-3.2v-0.2
	C285,199.7,286.5,198.3,288.2,198.3z"/>
<path class="st3" d="M212.3,193.2L212.3,193.2c1.6,0,2.8,1.3,2.8,2.8v11.2c0,1.6-1.3,2.8-2.8,2.8l0,0c-1.6,0-2.8-1.3-2.8-2.8V196
	C209.5,194.4,210.7,193.2,212.3,193.2z"/>
<path class="st5" d="M236.3,193.2L236.3,193.2c1.6,0,2.8,1.3,2.8,2.8v11.2c0,1.6-1.3,2.8-2.8,2.8l0,0c-1.6,0-2.8-1.3-2.8-2.8V196
	C233.4,194.4,234.7,193.2,236.3,193.2z"/>
<path class="st5" d="M248.2,193.2L248.2,193.2c1.6,0,2.8,1.3,2.8,2.8v11.2c0,1.6-1.3,2.8-2.8,2.8l0,0c-1.6,0-2.8-1.3-2.8-2.8V196
	C245.4,194.4,246.7,193.2,248.2,193.2z"/>
<path class="st5" d="M260.2,193.2L260.2,193.2c1.6,0,2.8,1.3,2.8,2.8v11.2c0,1.6-1.3,2.8-2.8,2.8l0,0c-1.6,0-2.8-1.3-2.8-2.8V196
	C257.4,194.4,258.7,193.2,260.2,193.2z"/>
<path class="st5" d="M272.2,193.2L272.2,193.2c1.6,0,2.8,1.3,2.8,2.8v11.2c0,1.6-1.3,2.8-2.8,2.8l0,0c-1.6,0-2.8-1.3-2.8-2.8V196
	C269.4,194.4,270.7,193.2,272.2,193.2z"/>
<g>
	<path class="st4" d="M444.6,19.9c-15.5,0.2-27.8,14.2-27.6,31.3l0.1,9.5l15.7-0.2l-0.1-9.4c-0.1-7.5,5.4-13.7,12.2-13.8
		s12.5,6,12.6,13.5l0.1,9.4l15.6-0.2l-0.1-9.4C472.8,33.3,460,19.7,444.6,19.9z"/>
	<path class="st4" d="M406.3,59.6l71.8-1c7.4-0.1,13.4,5.8,13.5,13.2l0.6,46.7c0.1,7.4-5.8,13.4-13.2,13.5l-71.8,1
		c-7.4,0.1-13.4-5.8-13.5-13.2l-0.6-46.7C393.1,65.8,399,59.7,406.3,59.6z"/>
	<path class="st4" d="M411.4,63.2l71.8-1c7.4-0.1,13.4,5.8,13.5,13.2l0.6,46.7c0.1,7.4-5.8,13.4-13.2,13.5l-71.8,1
		c-7.4,0.1-13.4-5.8-13.5-13.2l-0.6-46.7C398.1,69.4,404,63.3,411.4,63.2z"/>
	<path class="st6" d="M482.1,62.5l-71.8,1c-7.4,0.1-13.3,6.2-13.2,13.5l0.7,46.8c0,2.6,0.8,5.1,2.3,7.2c2.2,1.4,4.7,2.1,7.3,2.1
		l71.8-1c7.4-0.1,13.2-6.2,13.2-13.5l-0.7-46.8c0-2.6-0.8-5.1-2.3-7.2C487.2,63.1,484.7,62.4,482.1,62.5z"/>
	<path class="st4" d="M455.5,92.2c-0.1-5.6-4.7-10.1-10.3-10.1c-5.6,0.1-10.1,4.7-10.1,10.3c0,3.2,1.5,6.1,4.1,8l-2.4,20.2l9-0.1
		l9-0.1l-3-20.1C454.1,98.4,455.5,95.4,455.5,92.2z"/>
	<path class="st2" d="M413.7,60.4c-0.1,0-0.2-0.1-0.3-0.2c-0.2-0.2-0.3-0.4-0.3-0.7l-0.1-9.4c-0.2-17.6,12.6-32.1,28.6-32.3l0,0
		c7.9-0.1,15.4,3.3,20.7,9.1C467.8,33,471,41,471,49.3l0.1,9.4c0,0.3-0.1,0.5-0.3,0.7c-0.2,0.2-0.4,0.3-0.7,0.3L454.5,60
		c-0.6,0-1-0.4-1-1l-0.1-9.4c0-3.3-1.3-6.5-3.5-8.9c-3.9-4.4-10.6-4.8-14.9-0.9c-0.4,0.3-0.7,0.7-1.1,1.1c-2.2,2.5-3.3,5.7-3.2,9
		l0.1,9.4c0,0.6-0.4,1-1,1l-15.6,0.2C414,60.5,413.8,60.5,413.7,60.4z M441.6,19.8C426.7,20,414.7,33.6,414.9,50l0.1,8.4l13.6-0.2
		l-0.1-8.4c-0.1-3.8,1.3-7.5,3.8-10.4c4.5-5.3,12.4-6,17.7-1.5c0.4,0.4,0.9,0.8,1.3,1.2c2.6,2.8,4,6.5,4,10.3l0.1,8.4l13.7-0.1
		l-0.1-8.4c0-7.8-2.9-15.3-8.2-21.1C455.9,22.8,448.9,19.7,441.6,19.8z M441.6,18.8L441.6,18.8z"/>
	<path class="st2" d="M401.6,133c-5.2-2.2-8.7-7.3-8.8-13l-0.6-46.8c-0.1-7.9,6.2-14.4,14.2-14.6l71.8-1c7.9-0.1,14.4,6.2,14.6,14.1
		l0.6,46.8c0.1,7.9-6.2,14.4-14.2,14.6l0,0l-71.8,1C405.4,134.1,403.4,133.7,401.6,133z M483.1,60.6c-1.6-0.7-3.2-1-4.9-1l-71.8,1
		c-6.8,0.1-12.3,5.7-12.2,12.5l0,0l0.6,46.8c0.1,6.8,5.7,12.3,12.5,12.2l71.8-1c6.8-0.1,12.3-5.7,12.2-12.5l-0.6-46.8
		C490.6,66.9,487.6,62.5,483.1,60.6L483.1,60.6z M479.1,132.1L479.1,132.1z"/>
	<path class="st2" d="M433.6,119.9c-0.1-0.1-0.3-0.2-0.4-0.3c-0.2-0.2-0.3-0.5-0.2-0.8l2.4-19.6c-4.7-4-5.3-11.1-1.3-15.8
		c4-4.7,11.1-5.3,15.8-1.3c2.5,2.1,3.9,5.1,3.9,8.3l0,0c0.1,3.3-1.3,6.4-3.8,8.5l2.9,19.5c0,0.3,0,0.6-0.2,0.8
		c-0.2,0.2-0.5,0.4-0.8,0.3L434,120C433.9,120,433.7,120,433.6,119.9z M446.1,82.2c-3.5-1.5-7.5-0.6-10.1,2.1
		c-3.5,3.6-3.5,9.4,0.1,13c0.3,0.3,0.6,0.5,0.9,0.8c0.3,0.2,0.4,0.6,0.4,0.9l-2.3,19l15.6-0.2l-2.8-18.9c-0.1-0.4,0.1-0.7,0.4-0.9
		c4-3.2,4.6-8.9,1.5-12.9c-0.2-0.3-0.5-0.6-0.8-0.9C448.1,83.3,447.1,82.6,446.1,82.2z"/>
</g>
<path class="st2" d="M196.4,226.8c-0.1,0-0.2,0-0.3,0c-36.2-11.9-38.1-57.5-38.1-66.5c0-0.3,0.2-0.5,0.4-0.5
	c0.6-0.1,14.1-2,14.1-16.5c0-0.2,0.1-0.3,0.2-0.4c0.1-0.1,0.3-0.1,0.5-0.1c0.1,0,13.4,4.3,22.5-5c0.2-0.2,0.5-0.2,0.7,0l0,0
	c9.2,9.2,22.4,4.9,22.6,4.9c0.2-0.1,0.3,0,0.5,0.1c0.1,0.1,0.2,0.3,0.2,0.4c0,14.5,14,16.4,14.1,16.4c0.3,0,0.5,0.2,0.5,0.5
	C234.3,169.1,232.6,214.7,196.4,226.8L196.4,226.8z M159,160.7c0.1,9.8,2.4,53.5,37.2,65.1c34.8-11.7,37-55.4,37-65.2
	c-2.5-0.5-14.2-3.4-14.6-16.7c-2.9,0.8-14.2,3.1-22.6-5c-8.4,8-19.7,5.8-22.6,5C173.2,157.2,161.5,160.2,159,160.7z"/>
<path class="st4" d="M221,144.9c0,0-13.5,4.5-23.1-5c-9.5,9.6-23.1,5.1-23.1,5.1c0,15.1-14.5,17-14.5,17c0,17.8,5.7,55.5,37.8,66
	c32-10.6,37.6-48.3,37.5-66.2C235.6,161.8,221,160,221,144.9z"/>
<path class="st7" d="M216.2,151.1c-0.9,0.1-1.9,0.1-2.9,0.1c-5.5,0.1-10.9-1.5-15.5-4.5l0.1,75.4c27-10.3,31.4-43.1,32-56.3
	C223.2,163.5,218,158,216.2,151.1z"/>
<path class="st2" d="M196.4,226.8c-0.1,0-0.2,0-0.3,0c-36.2-11.9-38.1-57.5-38.1-66.5c0-0.3,0.2-0.5,0.4-0.5
	c0.6-0.1,14.1-2,14.1-16.5c0-0.2,0.1-0.3,0.2-0.4c0.1-0.1,0.3-0.1,0.5-0.1c0.1,0,13.4,4.3,22.5-5c0.2-0.2,0.5-0.2,0.7,0l0,0
	c9.2,9.2,22.4,4.9,22.6,4.9c0.2-0.1,0.3,0,0.5,0.1c0.1,0.1,0.2,0.3,0.2,0.4c0,14.5,14,16.4,14.1,16.4c0.3,0,0.5,0.2,0.5,0.5
	C234.3,169.1,232.6,214.7,196.4,226.8L196.4,226.8z M159,160.7c0.1,9.8,2.4,53.5,37.2,65.1c34.8-11.7,37-55.4,37-65.2
	c-2.5-0.5-14.2-3.4-14.6-16.7c-2.9,0.8-14.2,3.1-22.6-5c-8.4,8-19.7,5.8-22.6,5C173.2,157.2,161.5,160.2,159,160.7z"/>
<path class="st2" d="M196.4,221c-0.3,0.1-0.6-0.1-0.6-0.3c0-0.1,0-0.1,0-0.2l-0.1-75.4c0-0.2,0.1-0.4,0.3-0.5s0.4-0.1,0.5,0
	c4.5,3,9.8,4.5,15.2,4.4c0.9,0,1.9,0,2.9-0.1c0.3,0,0.5,0.1,0.5,0.4c1.8,6.7,6.8,12.1,13.4,14.4c0.2,0.1,0.3,0.3,0.3,0.5
	C228.1,177.8,223.6,210.6,196.4,221L196.4,221z M196.7,146.1l0.1,73.7c25.8-10.3,30.2-41.7,31-55.2c-6.6-2.4-11.6-7.8-13.6-14.5
	c-0.8,0.1-1.7,0.1-2.5,0.1C206.4,150.3,201.2,148.8,196.7,146.1L196.7,146.1z"/>
<path class="st2" d="M196.4,221c-0.1,0-0.2,0-0.3,0c-27.2-10.2-31.8-43-32.5-56.6c0-0.2,0.1-0.4,0.3-0.5c6.6-2.3,11.6-7.7,13.3-14.4
	c0.1-0.2,0.3-0.4,0.5-0.4c1,0.1,1.9,0.1,2.9,0.1l0,0c5.4,0.1,10.7-1.5,15.2-4.5c0.2-0.1,0.4-0.1,0.5,0c0.2,0.1,0.3,0.3,0.3,0.5
	l0.1,75.4c0,0.2-0.1,0.3-0.2,0.4C196.5,221,196.5,221,196.4,221z M164.6,164.7c0.8,13.5,5.4,44.8,31.2,55l-0.1-73.7
	c-4.5,2.8-9.7,4.2-15,4.1l0,0c-0.8,0-1.7,0-2.5-0.1C176.2,156.8,171.2,162.3,164.6,164.7L164.6,164.7z"/>
</svg>
