<svg xmlns="http://www.w3.org/2000/svg" id="Layer_1" x="0" y="0" version="1.0" viewBox="0 0 452.64 114" xml:space="preserve">
  <defs/>
  <style>
    .st9{fill:none}.st14{fill:#010101}
  </style>
  <switch>
    <g>
      <linearGradient id="SVGID_1_" x1="0" x2=".707" y1="0" y2=".707" gradientUnits="userSpaceOnUse">
        <stop offset="0" stop-color="#dedfe3"/>
        <stop offset=".174" stop-color="#d8d9dd"/>
        <stop offset=".352" stop-color="#c9cacd"/>
        <stop offset=".532" stop-color="#b4b5b8"/>
        <stop offset=".714" stop-color="#989a9c"/>
        <stop offset=".895" stop-color="#797c7e"/>
        <stop offset="1" stop-color="#656b6c"/>
      </linearGradient>
      <g id="XMLID_1426_">
        <linearGradient id="XMLID_2_" x1="128.953" x2="170.296" y1="36.94" y2="78.283" gradientUnits="userSpaceOnUse">
          <stop offset="0" stop-color="#00aeef"/>
          <stop offset=".409" stop-color="#0084cb"/>
          <stop offset=".816" stop-color="#005ead"/>
          <stop offset="1" stop-color="#014ea2"/>
        </linearGradient>
        <path id="XMLID_1442_" fill="url(#XMLID_2_)" d="M172.45 69.62c-1.11-1.1-2.53-3.79-4.24-8.07l-18.04-45.13h-.7l-17.89 43.91c-1.7 4.2-3.13 6.97-4.28 8.3-1.16 1.35-2.64 2.16-4.43 2.46v1.5h16.64v-1.5c-2.61-.22-4.24-.54-4.91-.97-1.12-.74-1.69-1.87-1.69-3.42 0-1.16.34-2.64 1.03-4.42l2.1-5.36h17.67l2.66 6.86c.69 1.79 1.06 2.8 1.1 3.04.15.52.23 1.01.23 1.51 0 .8-.27 1.43-.81 1.86-.79.6-2.15.89-4.1.89h-.99v1.5h24.19v-1.5c-1.52-.12-2.71-.61-3.54-1.46zm-35.12-15.7L145 34.97l7.46 18.95h-15.13z"/>
        <linearGradient id="XMLID_3_" x1="168.282" x2="205.114" y1="27.701" y2="64.532" gradientUnits="userSpaceOnUse">
          <stop offset="0" stop-color="#00aeef"/>
          <stop offset=".409" stop-color="#0084cb"/>
          <stop offset=".816" stop-color="#005ead"/>
          <stop offset="1" stop-color="#014ea2"/>
        </linearGradient>
        <path id="XMLID_1441_" fill="url(#XMLID_3_)" d="M197.06 71.13v1.46h-18.63v-1.46c1.52-.06 2.66-.54 3.4-1.47.49-.62.73-2.27.73-4.95V25.43c0-2.65-.28-4.34-.84-5.09-.57-.74-1.66-1.17-3.29-1.28v-1.5h14.46v47.16c0 2.68.28 4.39.85 5.14.56.73 1.67 1.16 3.32 1.27z"/>
        <linearGradient id="XMLID_4_" x1="192.717" x2="230.406" y1="41.204" y2="78.893" gradientUnits="userSpaceOnUse">
          <stop offset="0" stop-color="#00aeef"/>
          <stop offset=".409" stop-color="#0084cb"/>
          <stop offset=".816" stop-color="#005ead"/>
          <stop offset="1" stop-color="#014ea2"/>
        </linearGradient>
        <path id="XMLID_1438_" fill="url(#XMLID_4_)" d="M234.94 43.43c-1.08-3.09-2.67-5.52-4.74-7.28-2.07-1.76-4.38-2.65-6.92-2.65-2.11 0-4.07.64-5.86 1.92-1.25.86-2.49 2.27-3.69 4.21v-4.98h-14.46v1.5c1.62.11 2.72.53 3.28 1.28.57.74.85 2.45.85 5.13v40.06c0 2.6-.24 4.21-.74 4.83-.73.89-1.86 1.37-3.39 1.42v1.5h19.66v-1.5c-1.72 0-2.88-.17-3.47-.49-.59-.33-1.03-.84-1.31-1.54-.28-.71-.42-2.03-.42-3.98V68.73c1.35 1.71 2.64 2.91 3.87 3.62 1.65.92 3.42 1.38 5.31 1.38 2.61 0 4.97-.83 7.11-2.49 2.12-1.66 3.75-4.09 4.87-7.27 1.11-3.18 1.67-6.69 1.67-10.53.01-3.57-.54-6.92-1.62-10.01zm-11.13 23.85c-.86 1.54-1.96 2.32-3.29 2.32-2.42 0-4.67-1.65-6.79-4.95V44.39c1.59-3.95 3.64-5.92 6.12-5.92 1.57 0 2.83.79 3.76 2.39 1.4 2.4 2.1 6.88 2.1 13.43.01 6.38-.63 10.71-1.9 12.99z"/>
        <linearGradient id="XMLID_5_" x1="232.187" x2="278.334" y1="27.802" y2="73.949" gradientUnits="userSpaceOnUse">
          <stop offset="0" stop-color="#00aeef"/>
          <stop offset=".409" stop-color="#0084cb"/>
          <stop offset=".816" stop-color="#005ead"/>
          <stop offset="1" stop-color="#014ea2"/>
        </linearGradient>
        <path id="XMLID_1437_" fill="url(#XMLID_5_)" d="M279.69 71.13v1.46H262.2v-1.46c1.23-.2 2.15-.74 2.77-1.63.44-.69.66-2.41.66-5.15V47.43c0-3.14-.11-5.1-.33-5.91-.22-.79-.59-1.41-1.12-1.86-.53-.44-1.12-.67-1.79-.67-.98 0-1.93.37-2.88 1.12-.93.74-1.93 2.05-3.02 3.91v20.33c0 2.7.18 4.4.55 5.07.46.92 1.42 1.49 2.88 1.71v1.46h-17.49v-1.46c1.45-.17 2.49-.68 3.1-1.54.42-.6.63-2.34.63-5.24V25.8c0-2.87-.24-4.65-.72-5.36-.48-.69-1.48-1.16-3.01-1.38v-1.5h14.06v21.95c1.88-2.19 3.63-3.74 5.2-4.64 1.57-.9 3.21-1.37 4.9-1.37 2.16 0 4.02.68 5.55 2.04 1.53 1.35 2.56 2.93 3.07 4.76.5 1.83.75 4.91.75 9.23v14.82c0 2.9.25 4.7.74 5.41.5.72 1.49 1.18 2.99 1.37z"/>
        <linearGradient id="XMLID_6_" x1="286.001" x2="315.79" y1="40.963" y2="70.752" gradientUnits="userSpaceOnUse">
          <stop offset="0" stop-color="#00aeef"/>
          <stop offset=".409" stop-color="#0084cb"/>
          <stop offset=".816" stop-color="#005ead"/>
          <stop offset="1" stop-color="#014ea2"/>
        </linearGradient>
        <path id="XMLID_1434_" fill="url(#XMLID_6_)" d="M317.29 66.43c-.67.99-1.32 1.5-1.96 1.5-.31 0-.6-.11-.84-.33-.25-.21-.43-.54-.55-.99-.13-.44-.19-1.53-.19-3.26V48.61c0-4.09-.17-6.7-.51-7.84-.57-1.79-1.8-3.44-3.71-4.97-1.9-1.52-4.5-2.29-7.77-2.29-2.71 0-5.31.47-7.82 1.42-2.52.95-4.47 2.32-5.87 4.08-1.39 1.78-2.09 3.64-2.09 5.58 0 1.39.52 2.59 1.56 3.62 1.04 1.03 2.35 1.54 3.89 1.54 1.45 0 2.63-.47 3.53-1.4.89-.94 1.34-2.06 1.34-3.4 0-1.08-.46-2.19-1.4-3.36-.68-.84-1.03-1.54-1.03-2.11 0-.65.32-1.22.96-1.71 1.03-.78 2.35-1.18 3.95-1.18.98 0 1.86.28 2.66.84.78.55 1.32 1.2 1.6 1.94.28.75.42 2.56.42 5.42v3.81c-7.6 3.84-12.53 6.91-14.79 9.23-2.27 2.32-3.39 4.92-3.39 7.82 0 2.14.65 3.91 1.95 5.34 1.3 1.41 2.94 2.13 4.9 2.13 3.35 0 7.13-2.04 11.33-6.13.25 2.06.92 3.59 2.03 4.61 1.1 1.01 2.64 1.52 4.61 1.52 1.67 0 3.17-.45 4.48-1.36 1.31-.92 2.59-2.36 3.82-4.37l-1.11-.96zm-13.84-2.41c-1.62 1.52-3.05 2.28-4.28 2.28-1.1 0-1.96-.37-2.58-1.1-.81-.95-1.22-2.04-1.22-3.29 0-1.49.48-2.97 1.44-4.42 1.44-2.19 3.66-4.24 6.63-6.17v12.7z"/>
        <linearGradient id="XMLID_7_" x1="338.773" x2="389.497" y1="18.385" y2="69.11" gradientUnits="userSpaceOnUse">
          <stop offset="0" stop-color="#00aeef"/>
          <stop offset=".409" stop-color="#0084cb"/>
          <stop offset=".816" stop-color="#005ead"/>
          <stop offset="1" stop-color="#014ea2"/>
        </linearGradient>
        <path id="XMLID_1433_" fill="url(#XMLID_7_)" d="M391.33 17.56v1.5c-2.11.3-3.54.68-4.26 1.16-.73.47-1.29 1.25-1.7 2.32-.4 1.07-.6 2.9-.6 5.5v45.81h-1.26l-33.83-45.81v34.97c0 3.18.66 5.3 1.97 6.42 1.31 1.11 2.83 1.66 4.52 1.66h1.18v1.5H339.6v-1.5c2.76-.02 4.68-.65 5.76-1.86 1.07-1.22 1.62-3.3 1.62-6.22V24.17l-1.07-1.47c-1.06-1.46-1.99-2.41-2.81-2.88-.81-.46-1.97-.72-3.51-.77v-1.5h17.75l24.68 34.13V28.03c0-3.31-.43-5.54-1.29-6.7-1.17-1.57-3.16-2.33-5.93-2.27v-1.5h16.53z"/>
        <linearGradient id="XMLID_8_" x1="398.315" x2="423.434" y1="41.359" y2="66.478" gradientUnits="userSpaceOnUse">
          <stop offset="0" stop-color="#00aeef"/>
          <stop offset=".409" stop-color="#0084cb"/>
          <stop offset=".816" stop-color="#005ead"/>
          <stop offset="1" stop-color="#014ea2"/>
        </linearGradient>
        <path id="XMLID_1428_" fill="url(#XMLID_8_)" d="M419.73 66.19c-1.2.92-2.55 1.37-4.02 1.37-2.39 0-4.43-1.12-6.12-3.37-2.21-2.92-3.43-6.9-3.66-11.93h18.93c-.2-6.2-1.58-10.87-4.15-14.02-2.58-3.14-5.6-4.73-9.1-4.73-4.18 0-7.83 1.87-10.93 5.62-3.12 3.75-4.67 8.79-4.67 15.12 0 5.17 1.06 9.5 3.18 12.99 2.63 4.33 6.5 6.49 11.62 6.49 2.98 0 5.59-.87 7.86-2.61 2.27-1.74 4.33-4.72 6.2-8.91l-1.25-.89c-1.39 2.34-2.69 3.97-3.89 4.87zm-13.98-18.07c0-4.2.72-7.5 2.17-9.9.81-1.39 1.85-2.07 3.14-2.07.86 0 1.55.24 2.06.73.91.84 1.58 2.07 2.01 3.69.43 1.62.64 4.61.64 8.96h-10.03v-1.41z"/>
        <linearGradient id="XMLID_9_" x1="427.89" x2="455.876" y1="34.517" y2="62.502" gradientUnits="userSpaceOnUse">
          <stop offset="0" stop-color="#00aeef"/>
          <stop offset=".409" stop-color="#0084cb"/>
          <stop offset=".816" stop-color="#005ead"/>
          <stop offset="1" stop-color="#014ea2"/>
        </linearGradient>
        <path id="XMLID_1427_" fill="url(#XMLID_9_)" d="M442.86 38.66v23.42c0 2.18.09 3.61.28 4.23.18.64.5 1.16.97 1.54.47.4.9.6 1.29.6 1.59 0 3.11-1.35 4.54-4.02l1.1.89c-1.99 5.19-5.22 7.8-9.7 7.8-2.18 0-4.04-.67-5.55-2.01-1.51-1.35-2.48-2.83-2.9-4.49-.24-.92-.37-3.41-.37-7.46v-20.5h-4.5v-1.42c3.1-2.4 5.74-4.94 7.92-7.59a46.22 46.22 0 005.69-8.89h1.22v13.88h8.19v4.01h-8.18z"/>
      </g>
      <path d="M128.91 103.61h-4.67v4.33h5.21v1.3h-6.76V97.22h6.49v1.3h-4.94v3.8h4.67v1.29zM133.24 109.25V97.22h1.69l3.85 6.08c.89 1.41 1.59 2.67 2.16 3.91l.04-.02c-.14-1.6-.18-3.07-.18-4.94v-5.03h1.46v12.02h-1.57l-3.82-6.1c-.84-1.34-1.64-2.71-2.25-4.01l-.05.02c.09 1.52.12 2.96.12 4.96v5.14h-1.45zM149.05 98.54h-3.66v-1.32h8.9v1.32h-3.67v10.7h-1.57v-10.7zM163.64 103.61h-4.67v4.33h5.21v1.3h-6.76V97.22h6.49v1.3h-4.94v3.8h4.67v1.29zM167.98 97.38c.79-.16 1.91-.25 2.98-.25 1.66 0 2.73.3 3.48.98.61.54.95 1.36.95 2.28 0 1.59-1 2.64-2.27 3.07v.05c.93.32 1.48 1.18 1.77 2.43.39 1.68.68 2.84.93 3.3h-1.61c-.2-.34-.46-1.37-.8-2.87-.36-1.66-1-2.28-2.41-2.34h-1.46v5.21h-1.55V97.38zm1.55 5.48h1.59c1.66 0 2.71-.91 2.71-2.28 0-1.55-1.12-2.23-2.77-2.25-.75 0-1.28.07-1.53.14v4.39zM179.36 97.37c.75-.12 1.73-.23 2.98-.23 1.53 0 2.66.36 3.37 1 .66.57 1.05 1.44 1.05 2.51 0 1.09-.32 1.94-.93 2.57-.82.87-2.16 1.32-3.67 1.32-.46 0-.89-.02-1.25-.11v4.82h-1.55V97.37zm1.55 5.79c.34.09.77.12 1.28.12 1.87 0 3.01-.91 3.01-2.57 0-1.59-1.12-2.35-2.84-2.35-.68 0-1.19.05-1.46.12v4.68zM190.64 97.38c.79-.16 1.91-.25 2.98-.25 1.66 0 2.73.3 3.48.98.61.54.95 1.36.95 2.28 0 1.59-1 2.64-2.27 3.07v.05c.93.32 1.48 1.18 1.77 2.43.39 1.68.68 2.84.93 3.3h-1.61c-.2-.34-.46-1.37-.8-2.87-.36-1.66-1-2.28-2.41-2.34h-1.46v5.21h-1.55V97.38zm1.55 5.48h1.59c1.66 0 2.71-.91 2.71-2.28 0-1.55-1.12-2.23-2.77-2.25-.75 0-1.28.07-1.53.14v4.39zM203.57 97.22v12.02h-1.55V97.22h1.55zM207.85 107.35c.7.43 1.71.79 2.78.79 1.59 0 2.52-.84 2.52-2.05 0-1.12-.64-1.77-2.27-2.39-1.96-.7-3.17-1.71-3.17-3.41 0-1.87 1.55-3.26 3.89-3.26 1.23 0 2.12.29 2.66.59l-.43 1.27c-.39-.21-1.2-.57-2.28-.57-1.64 0-2.27.98-2.27 1.8 0 1.12.73 1.68 2.39 2.32 2.03.78 3.07 1.77 3.07 3.53 0 1.86-1.37 3.46-4.21 3.46-1.16 0-2.43-.34-3.07-.77l.39-1.31zM224.87 103.61h-4.67v4.33h5.21v1.3h-6.76V97.22h6.49v1.3h-4.94v3.8h4.67v1.29zM236.33 97.22v12.02h-1.55V97.22h1.55zM243.1 98.54h-3.66v-1.32h8.9v1.32h-3.67v10.7h-1.57v-10.7zM256.83 107.35c.7.43 1.71.79 2.78.79 1.59 0 2.52-.84 2.52-2.05 0-1.12-.64-1.77-2.27-2.39-1.96-.7-3.17-1.71-3.17-3.41 0-1.87 1.55-3.26 3.89-3.26 1.23 0 2.12.29 2.66.59l-.43 1.27c-.39-.21-1.2-.57-2.28-.57-1.64 0-2.27.98-2.27 1.8 0 1.12.73 1.68 2.39 2.32 2.03.78 3.07 1.77 3.07 3.53 0 1.86-1.37 3.46-4.21 3.46-1.16 0-2.43-.34-3.07-.77l.39-1.31zM277.89 103.11c0 4.14-2.51 6.33-5.58 6.33-3.17 0-5.4-2.46-5.4-6.1 0-3.82 2.37-6.31 5.58-6.31 3.28 0 5.4 2.51 5.4 6.08zm-9.33.2c0 2.57 1.39 4.87 3.83 4.87 2.46 0 3.85-2.27 3.85-4.99 0-2.39-1.25-4.89-3.83-4.89-2.56-.01-3.85 2.37-3.85 5.01zM281.7 97.22h1.55v10.72h5.14v1.3h-6.69V97.22zM292.81 97.22v7.12c0 2.69 1.2 3.83 2.8 3.83 1.78 0 2.93-1.18 2.93-3.83v-7.12h1.57v7.01c0 3.69-1.94 5.21-4.55 5.21-2.46 0-4.32-1.41-4.32-5.14v-7.08h1.57zM306.87 98.54h-3.66v-1.32h8.9v1.32h-3.67v10.7h-1.57v-10.7zM316.79 97.22v12.02h-1.55V97.22h1.55zM331.56 103.11c0 4.14-2.51 6.33-5.58 6.33-3.17 0-5.4-2.46-5.4-6.1 0-3.82 2.37-6.31 5.58-6.31 3.28 0 5.4 2.51 5.4 6.08zm-9.33.2c0 2.57 1.39 4.87 3.83 4.87 2.46 0 3.85-2.27 3.85-4.99 0-2.39-1.25-4.89-3.83-4.89-2.57-.01-3.85 2.37-3.85 5.01zM335.36 109.25V97.22h1.69l3.85 6.08c.89 1.41 1.59 2.67 2.16 3.91l.04-.02c-.14-1.6-.18-3.07-.18-4.94v-5.03h1.46v12.02h-1.57l-3.82-6.1c-.84-1.34-1.64-2.71-2.25-4.01l-.05.02c.09 1.52.12 2.96.12 4.96v5.14h-1.45zM348.67 107.35c.7.43 1.71.79 2.78.79 1.59 0 2.52-.84 2.52-2.05 0-1.12-.64-1.77-2.27-2.39-1.96-.7-3.17-1.71-3.17-3.41 0-1.87 1.55-3.26 3.89-3.26 1.23 0 2.12.29 2.66.59l-.43 1.27c-.39-.21-1.2-.57-2.28-.57-1.64 0-2.27.98-2.27 1.8 0 1.12.73 1.68 2.39 2.32 2.03.78 3.07 1.77 3.07 3.53 0 1.86-1.37 3.46-4.21 3.46-1.16 0-2.43-.34-3.07-.77l.39-1.31zM365.03 97.37c.75-.12 1.73-.23 2.98-.23 1.53 0 2.66.36 3.37 1 .66.57 1.05 1.44 1.05 2.51 0 1.09-.32 1.94-.93 2.57-.82.87-2.16 1.32-3.67 1.32-.46 0-.89-.02-1.25-.11v4.82h-1.55V97.37zm1.55 5.79c.34.09.77.12 1.28.12 1.87 0 3.01-.91 3.01-2.57 0-1.59-1.12-2.35-2.84-2.35-.68 0-1.2.05-1.46.12v4.68zM376.3 97.38c.79-.16 1.91-.25 2.98-.25 1.66 0 2.73.3 3.48.98.61.54.95 1.36.95 2.28 0 1.59-1 2.64-2.26 3.07v.05c.93.32 1.48 1.18 1.77 2.43.39 1.68.68 2.84.93 3.3h-1.61c-.2-.34-.46-1.37-.8-2.87-.36-1.66-1-2.28-2.41-2.34h-1.46v5.21h-1.55V97.38zm1.56 5.48h1.59c1.66 0 2.71-.91 2.71-2.28 0-1.55-1.12-2.23-2.76-2.25-.75 0-1.28.07-1.53.14v4.39zM398.02 103.11c0 4.14-2.51 6.33-5.58 6.33-3.17 0-5.4-2.46-5.4-6.1 0-3.82 2.37-6.31 5.58-6.31 3.27 0 5.4 2.51 5.4 6.08zm-9.33.2c0 2.57 1.39 4.87 3.83 4.87 2.46 0 3.85-2.27 3.85-4.99 0-2.39-1.25-4.89-3.83-4.89-2.57-.01-3.85 2.37-3.85 5.01zM404.46 109.25l-3.92-12.02h1.68l1.87 5.92c.52 1.62.96 3.09 1.28 4.5h.04c.34-1.39.84-2.91 1.37-4.48l2.03-5.94h1.66l-4.3 12.02h-1.71zM415.11 97.22v12.02h-1.55V97.22h1.55zM419.6 97.38c.95-.14 2.07-.25 3.3-.25 2.23 0 3.82.52 4.87 1.5 1.07.98 1.69 2.37 1.69 4.32 0 1.96-.61 3.57-1.73 4.67-1.12 1.12-2.98 1.73-5.32 1.73-1.11 0-2.03-.05-2.82-.14V97.38zm1.56 10.63c.39.07.96.09 1.57.09 3.32 0 5.12-1.86 5.12-5.1.02-2.84-1.59-4.64-4.87-4.64-.8 0-1.41.07-1.82.16v9.49zM439.5 103.61h-4.67v4.33h5.21v1.3h-6.76V97.22h6.49v1.3h-4.94v3.8h4.67v1.29zM443.83 97.38c.79-.16 1.91-.25 2.98-.25 1.66 0 2.73.3 3.48.98.61.54.95 1.36.95 2.28 0 1.59-1 2.64-2.26 3.07v.05c.93.32 1.48 1.18 1.77 2.43.39 1.68.68 2.84.93 3.3h-1.61c-.2-.34-.46-1.37-.8-2.87-.36-1.66-1-2.28-2.41-2.34h-1.46v5.21h-1.55V97.38zm1.55 5.48h1.59c1.66 0 2.71-.91 2.71-2.28 0-1.55-1.12-2.23-2.76-2.25-.75 0-1.28.07-1.53.14v4.39z"/>
      <g id="XMLID_41_">
        <path id="XMLID_1320_" fill="#fff" stroke="#818285" stroke-miterlimit="10" stroke-width=".887" d="M112.12 56.11L56.44.73h-.04L1.36 56.34v.04l34.25 34.44c.04.04 0 .04-.04.04H7.83c-1.14 0-2.05.9-2.05 2.04v17.32c0 1.3 1.03 2.32 2.33 2.32h96.95c1.1 0 2.01-.9 2.01-2V92.71c0-1.02-.83-1.85-1.85-1.85H77.67c-.04 0-.04-.04-.04-.04l34.45-34.64c.08-.03.08-.03.04-.07z"/>
        <g id="XMLID_42_">
          <g id="XMLID_1306_">
            <path id="XMLID_1319_" d="M58.69 86.35l-3.16 3.49h2.77l3.27-3.49z" class="st9"/>
            <path id="XMLID_1318_" d="M65.28 86.35l-3.16 3.49h2.77l3.27-3.49z" class="st9"/>
            <path id="XMLID_1317_" d="M52.1 86.35l-3.16 3.49h2.81l3.27-3.49z" class="st9"/>
            <path id="XMLID_1316_" d="M45.55 86.35l-3.2 3.49h2.81l3.27-3.49z" class="st9"/>
            <path id="XMLID_1313_" d="M87.18 69.42c2.41 0 4.02-.51 5.01-.94l-.47-2c-1.03.43-2.21.79-4.18.79-2.72 0-5.09-1.53-5.17-5.3h10.57c.04-.28.08-.75.08-1.3 0-2.79-1.3-7.19-6.19-7.19-4.38 0-7.06 3.61-7.06 8.25-.01 4.63 2.75 7.69 7.41 7.69zm-.59-13.9c3.08 0 3.83 2.75 3.79 4.52h-7.97c.23-1.97 1.42-4.52 4.18-4.52z" class="st9"/>
            <linearGradient id="XMLID_10_" x1="-244.616" x2="-244.616" y1="346.585" y2="309.428" gradientTransform="matrix(2.6667 0 0 -2.6667 720.932 930.398)" gradientUnits="userSpaceOnUse">
              <stop offset="0" stop-color="#2bace2"/>
              <stop offset=".409" stop-color="#1284c7"/>
              <stop offset=".816" stop-color="#0f60ad"/>
              <stop offset="1" stop-color="#07519f"/>
            </linearGradient>
            <path id="XMLID_1310_" fill="url(#XMLID_10_)" d="M45.55 86.35h2.88l-3.27 3.5h3.79l3.16-3.5h2.88l-3.27 3.5h3.79l3.16-3.5h2.88l-3.28 3.5h3.79l3.16-3.5h2.88l-3.27 3.5h9.35L97.3 66.83c-.2-.71-.28-1.57-.28-2.55v-8.33h-2.33v-2.12H97v-3.65l2.68-.71v4.4h3.91v2.12h-3.91v8.52l8.17-8.13L56.76 5.4 39.08 23c8.48-.31 15.66 6.13 15.43 18.58l7.77-16.65h9.94L54.39 60.59c-.75 1.92-.83 17.05 9.08 8.72 0 0 .04-.08.12-.16V58.03c0-1.57-.04-2.87-.12-4.12h2.41l.16 2.51h.08c.75-1.45 2.49-2.87 4.97-2.87 2.09 0 5.33 1.26 5.33 6.48v9.11H73.7v-8.8c0-2.47-.91-4.52-3.47-4.52-1.82 0-3.2 1.3-3.67 2.83-.12.35-.2.82-.2 1.3v9.19c-2.33 6.24-18.58 20.7-16.85-2.87-3.83 6.68-12.27 12.41-20.12 13.75l8.05 8.01 1.5-1.69h2.88l-2.96 3.14.36.35h3.12l3.21-3.48zm41.27-32.83c4.89 0 6.19 4.4 6.19 7.19 0 .55-.08 1.02-.08 1.3H82.37c.08 3.73 2.41 5.3 5.17 5.3 1.97 0 3.16-.35 4.18-.79l.47 2c-.95.43-2.6.94-5.01.94-4.62 0-7.38-3.1-7.38-7.7-.04-4.63 2.64-8.24 7.02-8.24z"/>
            <linearGradient id="XMLID_11_" x1="-266.36" x2="-266.36" y1="346.585" y2="309.428" gradientTransform="matrix(2.6667 0 0 -2.6667 720.932 930.398)" gradientUnits="userSpaceOnUse">
              <stop offset="0" stop-color="#2bace2"/>
              <stop offset=".409" stop-color="#1284c7"/>
              <stop offset=".816" stop-color="#0f60ad"/>
              <stop offset="1" stop-color="#07519f"/>
            </linearGradient>
            <path id="XMLID_1309_" fill="url(#XMLID_11_)" d="M15.68 46.29L5.58 56.34l7.26 7.23c0-4.63.87-10.33 2.84-17.28z"/>
            <linearGradient id="XMLID_12_" x1="-256.549" x2="-256.549" y1="346.584" y2="309.428" gradientTransform="matrix(2.6667 0 0 -2.6667 720.932 930.398)" gradientUnits="userSpaceOnUse">
              <stop offset="0" stop-color="#2bace2"/>
              <stop offset=".409" stop-color="#1284c7"/>
              <stop offset=".816" stop-color="#0f60ad"/>
              <stop offset="1" stop-color="#07519f"/>
            </linearGradient>
            <path id="XMLID_1308_" fill="url(#XMLID_12_)" d="M37.38 71.39c12.23-9.94 12.19-20.07 13.77-23.76 1.46-19.72-13.89-32.32-25.02-1.3C14.46 83.48 33 75.23 37.38 71.39z"/>
            <path id="XMLID_1307_" fill="#167ec2" d="M86.59 55.52c-2.76 0-3.99 2.59-4.18 4.52h7.97c.03-1.81-.71-4.52-3.79-4.52z"/>
          </g>
          <g id="XMLID_43_">
            <path id="XMLID_1303_" d="M14.5 99.51h1.62v7.7H14.5v-1.53c-.79 1.18-1.78 1.73-2.96 1.73-1.03 0-1.89-.39-2.6-1.18-.71-.79-1.07-1.77-1.07-2.91 0-1.06.36-2 1.1-2.83.71-.79 1.58-1.22 2.56-1.22.59 0 1.18.16 1.74.51.55.31.95.75 1.26 1.3v-1.57h-.03zm.19 3.85c0-.71-.24-1.3-.75-1.81s-1.1-.75-1.82-.75c-.67 0-1.3.24-1.82.75-.51.51-.75 1.1-.75 1.77 0 .71.24 1.34.75 1.85s1.1.75 1.82.75c.71 0 1.3-.24 1.82-.75.52-.52.75-1.11.75-1.81z" class="st14"/>
            <path id="XMLID_1302_" d="M18.76 95.11h1.62v12.1h-1.62v-12.1z" class="st14"/>
            <path id="XMLID_1299_" d="M24.6 99.51v1.53c.79-1.18 1.78-1.77 3-1.77.99 0 1.85.39 2.56 1.18.71.79 1.07 1.73 1.07 2.83s-.36 2.08-1.1 2.87c-.71.82-1.58 1.22-2.56 1.22-.59 0-1.1-.16-1.66-.43-.51-.31-.95-.75-1.3-1.3v5.15h-1.62V99.51h1.61zm4.93 3.81c0-.67-.24-1.26-.75-1.77s-1.1-.75-1.82-.75c-.71 0-1.3.24-1.81.75s-.79 1.1-.79 1.77c0 .71.24 1.3.75 1.81s1.1.79 1.82.79c.71 0 1.34-.24 1.85-.75.47-.52.75-1.15.75-1.85z" class="st14"/>
            <path id="XMLID_1298_" d="M32.96 95.11h1.62v5.66c.43-.51.87-.9 1.26-1.14.39-.24.87-.35 1.42-.35.67 0 1.22.24 1.7.75.47.51.71 1.1.71 1.81v5.34h-1.62v-4.87c0-.47-.12-.86-.36-1.18-.24-.27-.55-.43-.99-.43-.59 0-1.1.24-1.5.67-.43.43-.63.98-.63 1.61v4.24h-1.62V95.11z" class="st14"/>
            <path id="XMLID_1295_" d="M48.23 99.51h1.62v7.7h-1.62v-1.53c-.79 1.18-1.78 1.73-2.96 1.73-1.03 0-1.89-.39-2.6-1.18-.71-.79-1.07-1.77-1.07-2.91 0-1.06.36-2 1.1-2.83.71-.79 1.58-1.22 2.56-1.22.59 0 1.18.16 1.74.51.55.31.95.75 1.26 1.3v-1.57h-.03zm.2 3.85c0-.71-.24-1.3-.75-1.81s-1.1-.75-1.82-.75c-.67 0-1.3.24-1.82.75-.51.51-.75 1.1-.75 1.77 0 .71.24 1.34.75 1.85s1.1.75 1.82.75c.71 0 1.3-.24 1.82-.75.51-.52.75-1.11.75-1.81z" class="st14"/>
            <path id="XMLID_1294_" d="M52.02 106.1c0-.35.12-.63.36-.9.24-.24.55-.35.91-.35s.63.12.91.35c.24.24.36.55.36.9s-.12.63-.36.9c-.24.24-.55.35-.91.35s-.63-.12-.91-.35c-.24-.27-.36-.54-.36-.9z" class="st14"/>
            <path id="XMLID_1293_" d="M56.2 107.17v-7.7h1.58v1.26c.47-.51.91-.9 1.26-1.14.39-.24.79-.35 1.26-.35.71 0 1.3.24 1.78.71.51.47.75 1.02.75 1.65v5.54h-1.62v-5.07c0-.43-.12-.75-.39-1.02-.28-.27-.63-.39-1.03-.39-.55 0-1.03.24-1.42.67a2.51 2.51 0 00-.59 1.65v4.16H56.2v.03z" class="st14"/>
            <path id="XMLID_61_" d="M72.58 103.67h-6.59c.16.79.47 1.37.99 1.73.51.35 1.07.55 1.66.55.91 0 1.7-.39 2.33-1.14l1.18.9c-.91 1.14-2.09 1.73-3.59 1.73-1.14 0-2.09-.39-2.88-1.18-.79-.79-1.14-1.77-1.14-2.91 0-1.1.39-2.04 1.18-2.83.79-.79 1.74-1.18 2.88-1.18 1.1 0 2.05.39 2.84 1.22.78.75 1.14 1.81 1.14 3.11zm-6.39-1.3h4.7c-.51-1.06-1.3-1.57-2.33-1.57-1.11-.04-1.9.51-2.37 1.57z" class="st14"/>
            <path id="XMLID_60_" d="M74.99 97.27h1.62v2.24h1.62V101H76.6v6.21h-1.62V101h-1.26v-1.49h1.26v-2.24z" class="st14"/>
            <path id="XMLID_59_" d="M79.37 106.1c0-.35.12-.63.36-.9.24-.24.55-.35.91-.35s.63.12.91.35c.24.24.36.55.36.9s-.12.63-.36.9c-.24.24-.55.35-.91.35s-.63-.12-.91-.35c-.24-.27-.36-.54-.36-.9z" class="st14"/>
            <path id="XMLID_47_" d="M84.1 95.11h1.62v5.93c.71-1.14 1.7-1.73 2.96-1.73.99 0 1.85.39 2.6 1.18.75.79 1.1 1.73 1.1 2.83s-.36 2.04-1.07 2.87c-.71.82-1.58 1.22-2.53 1.22-.63 0-1.18-.16-1.78-.51-.55-.31-.99-.79-1.3-1.34v1.61h-1.6V95.11zm6.55 8.21c0-.71-.24-1.3-.75-1.81s-1.1-.75-1.82-.75c-.71 0-1.3.24-1.81.75s-.75 1.1-.75 1.81.24 1.34.75 1.81c.51.51 1.14.75 1.89.75.67 0 1.26-.24 1.78-.75.47-.52.71-1.11.71-1.81z" class="st14"/>
            <path id="XMLID_44_" d="M100.91 95.11h1.62v12.1h-1.58v-1.61c-.75 1.22-1.78 1.81-3 1.81-.99 0-1.85-.39-2.6-1.22-.71-.79-1.07-1.77-1.07-2.91 0-1.1.35-2.04 1.1-2.83.75-.79 1.62-1.18 2.6-1.18.59 0 1.18.16 1.7.51.51.35.95.79 1.26 1.3v-5.97h-.03zm.16 8.21c0-.71-.24-1.3-.75-1.81s-1.1-.75-1.82-.75c-.71 0-1.34.24-1.85.75s-.75 1.1-.75 1.81c0 .67.24 1.3.75 1.81s1.1.79 1.78.79c.71 0 1.34-.24 1.85-.75.55-.52.79-1.15.79-1.85z" class="st14"/>
          </g>
        </g>
      </g>
    </g>
  </switch>
</svg>
