<?xml version="1.0" encoding="utf-8"?>
<!-- Generator: Adobe Illustrator 24.0.0, SVG Export Plug-In . SVG Version: 6.00 Build 0)  -->
<svg version="1.1" id="Layer_1" xmlns="http://www.w3.org/2000/svg" xmlns:xlink="http://www.w3.org/1999/xlink" x="0px" y="0px"
	 viewBox="0 0 300 160" style="enable-background:new 0 0 300 160;" xml:space="preserve">
<style type="text/css">
	.st0{fill:#F1F2F2;}
	.st1{fill:#212124;}
	.st2{fill:#FEE700;}
	.st3{fill:#EC2227;}
	.st4{fill:#8D8E8E;}
	.st5{fill:#CC333E;}
</style>
<path class="st0" d="M288.91,160H11.09C4.96,160,0,155.04,0,148.91V11.09C0,4.96,4.96,0,11.09,0h277.83C295.04,0,300,4.96,300,11.09
	v137.83C300,155.04,295.04,160,288.91,160z"/>
<g>
	<g>
		<g>
			<path class="st1" d="M89.21,30.51c2.07-1.16,4.79-0.21,6.02,1.73c1.97,3.22,3.79,6.54,5.69,9.8c2.33-2.2,5.37-3.72,8.65-3.51
				c2.52-0.11,4.78,2.33,4.7,4.8c0.01,5.01,0.06,10.02-0.04,15.03c2.16-1.14,4.74-1.26,7.09-0.71c2.42,0.96,3.97,3.31,4.72,5.71
				c2.21-1.9,4.2-4.11,6.69-5.66c3.33-0.9,7.27-0.02,9.27,2.98c2.13,3.05,1.4,7.48-1.18,10.04c-2.34,2.4-4.77,4.71-7.09,7.14
				c2.59,2.49,5.13,5.05,7.59,7.67c2.89,2.96,2.41,8.39-0.86,10.89c-2.53,2.14-6.41,2.16-9.22,0.58c-1.86-1.45-3.43-3.24-5.2-4.8
				c-0.73,2.6-2.63,5.09-5.33,5.78c-3.36,0.16-6.73,0.05-10.09,0.06c0.03-2.38,0.02-4.75-0.01-7.12c-2.93,3.44-6.86,6.05-11.19,7.34
				c-3.8,0.21-7.62,0.06-11.41,0.08c-2.88-0.04-5.06-2.22-6.93-4.16c-4.7,9.19-13.76,16.09-23.99,17.75
				c-8.5,1.57-17.61-0.32-24.73-5.26c-7.35-4.94-12.6-12.94-14.06-21.7c-1.64-8.49,0.35-17.6,5.23-24.73
				C28.82,52.38,37.6,46.96,47,45.86c13.1-1.87,26.77,5.03,33.26,16.52c0.92-0.86,1.81-1.74,2.72-2.62
				c-2.94-2.69-5.81-5.5-8.36-8.57c-1.59-3.1-1.86-7.05-0.02-10.12c0.98-1.55,2.13-3.37,4.08-3.73c1.65-0.46,3.31,0.13,4.82,0.76
				C84.08,34.85,86.28,32.01,89.21,30.51z M86.92,40.76c1.66,4.68,4.89,8.6,6.88,13.13c-3.89-4.08-7.89-8.05-11.82-12.09
				c-0.73-0.66-1.57-1.84-2.68-1.13c-2.75,2.13-3.48,6.63-1.05,9.27c3.34,3.6,6.91,6.99,10.32,10.52c-3.62,0.96-5.65,4.29-8.34,6.6
				c-1.42,1.55-3.74,2.92-3.48,5.33c-0.02,4.56,0,9.12,0.01,13.68c3.1-0.63,6.71-1.72,8.15-4.82c0.55-2.29,0.16-4.71,0.26-7.06
				c2.17-2.24,4.52-4.87,7.89-4.9c4.48-0.54,8.6,3.15,9.15,7.5c0.63,3.9-2.26,7.67-5.75,9.08c-2.63,0.31-5.55,0.68-7.95-0.69
				c-3.2-1.72-6.85,0.02-9.62,1.77c1.81,1.85,3.66,3.65,5.48,5.49c1.05,0.99,2.09,2.25,3.66,2.3c3.17,0.14,6.33,0,9.5,0.08
				c2.46,0.16,4.62-1.22,6.6-2.49c4.32-2.65,6.71-7.51,7.55-12.36c0.51-2.79-0.58-5.48-0.97-8.2c-0.18-9.83,0.11-19.68-0.14-29.52
				c-2.64-0.52-5.57,0.32-7.17,2.56c-1.49,2.13-1.3,4.97-0.23,7.23c0.33,0.65,0.6,1.34,0.84,2.04c-0.47-0.32-1.42-0.97-1.9-1.3
				l0.96-0.19c-3.95-6.28-7.29-12.93-11.1-19.29C88.69,33.96,86.18,37.42,86.92,40.76z M44.88,49.66
				c-8.93,1.84-16.85,8.04-20.74,16.29c-2.96,5.75-3.5,12.41-2.53,18.71c1.46,7.17,5.46,13.8,11.31,18.23
				c7.7,5.95,18.4,7.8,27.62,4.67c7.94-2.48,14.63-8.56,18.03-16.14c-0.76-0.71-1.52-1.43-2.29-2.13c-0.99,0.19-1.98,0.37-2.96,0.54
				c-0.03-6.04-0.15-12.08,0-18.13c0.02-2.99,2.51-4.97,4.44-6.89c-2.59-4.53-6.17-8.53-10.64-11.26
				C60.61,49.37,52.42,48.09,44.88,49.66z M114.29,63.14c0.08,3.93-0.35,7.91,0.5,11.79c0.53,3.01,0.13,6.07-0.49,9.04
				c-0.24,3.62-0.01,7.25-0.1,10.88c2.84-0.03,6.85,0.67,8.37-2.46c0.41-2.9,0.08-5.85,0.17-8.78c3.29,3.32,6.59,6.64,9.89,9.95
				c0.99,1.16,2.71,1.31,4.11,1.02c2.95-0.35,4.11-4.61,2.1-6.61c-3.2-3.55-6.71-6.81-10.04-10.26c3.27-3.25,6.55-6.5,9.78-9.8
				c1.35-1.25,1.54-3.43,0.64-4.99c-1.26-2.24-4.66-2.85-6.53-1.02c-3.4,3.18-6.66,6.51-9.99,9.75c-0.11-2.67,0.21-5.38-0.19-8.03
				c-0.61-1.65-2.26-3.09-4.1-2.89C116.7,60.74,115.41,61.99,114.29,63.14z M88.87,75.45c0.01,1.97-0.11,3.93-0.55,5.85
				c1.06,0.32,2.05,0.82,2.91,1.51c1.79,0.01,3.8,0.44,5.33-0.76c3.75-2.19,2.43-9.26-2.14-9.37C92.05,72.15,90.47,74.1,88.87,75.45
				z"/>
		</g>
		<path class="st1" d="M40.29,67.68c2.43-0.94,5.42,1.27,4.92,3.89c-0.35,2.68-3.98,4.3-5.99,2.28
			C37.01,72.24,37.78,68.53,40.29,67.68z"/>
		<path class="st1" d="M59.34,67.76c2.29-1.02,5.35,0.75,5.08,3.38c0.28,2.84-3.65,4.83-5.75,2.84
			C56.42,72.43,56.93,68.83,59.34,67.76z"/>
		<path class="st1" d="M68.53,78.99c1.3,0.02,2.59,0.02,3.89,0.01c0.03,7.62-4.51,14.91-11.24,18.41
			c-6.89,3.68-15.67,3.13-22.08-1.32c-5.55-3.77-9.12-10.33-8.99-17.08c1.46,0.01,2.91,0.01,4.37,0.03
			c0.1,6.34,4.06,12.41,9.94,14.87c6.35,3.01,14.4,1.49,19.31-3.5C66.77,87.43,68.38,83.22,68.53,78.99z"/>
		<g>
			<path class="st2" d="M86.92,40.76c-0.73-3.34,1.78-6.81,5.06-7.49c3.63,6.07,6.84,12.38,10.55,18.4
				c0.36,0.59,0.85,1.08,1.43,1.45l1.07,0.68c0.47,0.33-0.05,0.53-1.01,0.25c-0.24-0.7-0.51-1.38-0.84-2.04
				c-1.07-2.26-1.26-5.1,0.23-7.23c1.61-2.24,4.54-3.08,7.17-2.56c0.25,9.83-0.04,19.68,0.14,29.52c0.39,2.72,1.47,5.41,0.97,8.2
				c-0.83,4.85-3.22,9.71-7.55,12.36c-1.98,1.27-4.15,2.65-6.6,2.49c-3.17-0.08-6.33,0.06-9.5-0.08c-1.57-0.05-2.61-1.31-3.66-2.3
				c-1.82-1.84-3.67-3.65-5.48-5.49c2.77-1.75,6.42-3.49,9.62-1.77c2.4,1.37,5.32,1,7.95,0.69c3.5-1.4,6.38-5.18,5.75-9.08
				c-0.54-4.34-4.66-8.03-9.15-7.5c-3.38,0.03-5.73,2.66-7.89,4.9c-0.1,2.34,0.29,4.77-0.26,7.06c-1.43,3.1-5.05,4.19-8.15,4.82
				c-0.01-4.56-0.03-9.12-0.01-13.68c-0.26-2.41,2.05-3.78,3.48-5.33c2.69-2.31,4.72-5.64,8.34-6.6
				c-3.41-3.53-6.98-6.92-10.32-10.52c-2.43-2.64-1.7-7.14,1.05-9.27c1.11-0.71,1.95,0.47,2.68,1.13
				c3.93,4.04,7.93,8.01,11.82,12.09C91.8,49.37,88.57,45.45,86.92,40.76z"/>
			<g>
				<path class="st2" d="M44.88,49.66c7.54-1.57,15.73-0.28,22.24,3.9c4.46,2.74,8.05,6.74,10.64,11.26
					c-1.93,1.92-4.42,3.9-4.44,6.89c-0.15,6.04-0.03,12.08,0,18.13c0.99-0.17,1.98-0.35,2.96-0.54c0.77,0.7,1.53,1.42,2.29,2.13
					c-3.41,7.57-10.09,13.65-18.03,16.14c-9.22,3.13-19.92,1.28-27.62-4.67c-5.85-4.42-9.85-11.06-11.31-18.23
					c-0.97-6.31-0.43-12.97,2.53-18.71C28.03,57.7,35.95,51.5,44.88,49.66z M40.29,67.68c-2.51,0.85-3.28,4.56-1.07,6.17
					c2.02,2.02,5.64,0.4,5.99-2.28C45.71,68.95,42.72,66.74,40.29,67.68z M59.34,67.76c-2.41,1.07-2.92,4.68-0.68,6.21
					c2.1,1.99,6.03,0.01,5.75-2.84C64.69,68.51,61.63,66.73,59.34,67.76z M68.53,78.99c-0.15,4.23-1.76,8.44-4.81,11.41
					c-4.91,4.99-12.97,6.51-19.31,3.5c-5.87-2.46-9.83-8.53-9.94-14.87c-1.46-0.01-2.91-0.02-4.37-0.03
					c-0.13,6.74,3.44,13.3,8.99,17.08c6.41,4.46,15.19,5,22.08,1.32C67.9,93.9,72.45,86.62,72.42,79
					C71.12,79.01,69.83,79.01,68.53,78.99z"/>
			</g>
			<path class="st2" d="M114.29,63.14c1.12-1.15,2.41-2.41,4.14-2.41c1.84-0.2,3.49,1.25,4.1,2.89c0.4,2.65,0.08,5.36,0.19,8.03
				c3.34-3.24,6.59-6.57,9.99-9.75c1.87-1.83,5.26-1.23,6.53,1.02c0.9,1.56,0.71,3.74-0.64,4.99c-3.22,3.3-6.51,6.54-9.78,9.8
				c3.32,3.44,6.83,6.71,10.04,10.26c2.01,2,0.84,6.26-2.1,6.61c-1.4,0.28-3.12,0.14-4.11-1.02c-3.3-3.31-6.6-6.63-9.89-9.95
				c-0.09,2.93,0.24,5.88-0.17,8.78c-1.52,3.13-5.53,2.43-8.37,2.46c0.09-3.63-0.14-7.26,0.1-10.88c0.62-2.96,1.02-6.02,0.49-9.04
				C113.93,71.06,114.36,67.08,114.29,63.14z"/>
		</g>
	</g>
	<g>
		<g>
			<g>
				<g>
					<path class="st1" d="M152.69,111.39c0.58-0.02,1.17-0.04,1.76-0.05c0,1.43-0.01,2.87-0.05,4.3c1.71-1.12,3.97-1.94,5.86-0.73
						c3.1,1.53,3.72,6.32,0.99,8.48c-1.74,1.79-4.71,1.71-6.52,0.07c-0.3,0.94-1.2,0.95-2.03,1.04
						C152.7,120.13,152.72,115.76,152.69,111.39z M156.28,116.48c-1.87,0.95-2.48,3.67-1.06,5.28c1.49,2.01,4.9,1.36,5.67-0.99
						C162.14,118.15,158.82,114.82,156.28,116.48z"/>
				</g>
				<path class="st1" d="M163.59,114.65c0.47-0.02,1.4-0.04,1.86-0.06c0.94,2.46,1.84,4.93,2.69,7.43c0.95-2.48,1.91-4.96,2.84-7.45
					c0.65,0.01,1.3,0.03,1.95,0.05c-1.8,4.34-3.51,8.72-5.33,13.05c-0.45-0.03-1.35-0.09-1.79-0.12c0.45-1.18,0.89-2.35,1.32-3.53
					C165.86,120.92,164.76,117.77,163.59,114.65z"/>
			</g>
			<g>
				<path class="st3" d="M179.42,116.42c1.92-4.99,8.44-7.46,13.17-4.91c4.91,2.17,7.02,8.79,4.31,13.43
					c-2.06,4.15-7.07,5.72-11.4,4.82c-0.65-5.32-0.01-10.74,2.07-15.69c-1.81,0.88-3.86,1.8-4.75,3.74
					c-0.68,1.03,0.05,2.24-0.27,3.35c-0.42,2.17-0.76,4.37-0.81,6.59C178.99,124.76,177.58,120.23,179.42,116.42z"/>
			</g>
			<g>
				<path class="st4" d="M216.54,117.97c-0.22,1.45-0.83,2.61-1.84,3.48c-1,0.87-2.22,1.31-3.66,1.31c-1.37,0-2.45-0.46-3.24-1.37
					c-0.78-0.91-1.07-2.05-0.86-3.42l0.3-2.03c0.21-1.44,0.82-2.59,1.83-3.47c1.01-0.88,2.24-1.32,3.69-1.32
					c1.36,0,2.43,0.46,3.21,1.37c0.77,0.91,1.06,2.05,0.86,3.42L216.54,117.97z M214.23,115.92c0.12-0.84,0.04-1.51-0.26-2.01
					c-0.3-0.5-0.8-0.75-1.5-0.75c-0.68,0-1.26,0.26-1.72,0.78c-0.47,0.52-0.76,1.18-0.88,1.98l-0.3,2.05
					c-0.13,0.85-0.04,1.52,0.26,2.02c0.3,0.5,0.81,0.75,1.52,0.75c0.66,0,1.23-0.26,1.69-0.78c0.47-0.52,0.76-1.19,0.89-1.99
					L214.23,115.92z"/>
				<path class="st4" d="M228.13,122.6h-2.61l-3.08-7.1l-0.05,0.01l-1.05,7.09h-2.62l1.69-11.28h2.62l3.07,7.09l0.05-0.01l1.06-7.08
					h2.61L228.13,122.6z"/>
				<path class="st4" d="M238.53,117.77h-3.98l-0.42,2.81h4.77l-0.3,2.01h-7.39l1.69-11.28h7.39l-0.3,2.01h-4.77l-0.36,2.43h3.98
					L238.53,117.77z"/>
				<path class="st4" d="M246.88,122.6l1.69-11.28h3.7c1.2,0,2.12,0.26,2.77,0.78s0.9,1.29,0.75,2.3c-0.08,0.52-0.28,0.97-0.62,1.36
					c-0.34,0.39-0.77,0.69-1.29,0.89c0.7,0.12,1.2,0.44,1.51,0.95c0.31,0.51,0.42,1.1,0.32,1.77c-0.17,1.1-0.64,1.92-1.4,2.45
					c-0.76,0.53-1.76,0.79-3,0.79H246.88z M249.53,117.47l-0.54,3.63h2.54c0.63,0,1.14-0.15,1.55-0.45c0.41-0.3,0.66-0.73,0.74-1.29
					c0.08-0.59-0.02-1.05-0.32-1.37c-0.29-0.32-0.76-0.5-1.39-0.52h-0.09H249.53z M249.74,116.06h2.02c0.56,0,1.04-0.14,1.43-0.42
					c0.39-0.28,0.62-0.67,0.7-1.17c0.08-0.58-0.03-1-0.34-1.26c-0.31-0.26-0.81-0.39-1.5-0.39h-1.81L249.74,116.06z"/>
				<path class="st4" d="M261.72,122.6c-0.04-0.2-0.06-0.4-0.07-0.61c-0.01-0.2-0.01-0.41,0-0.62c-0.32,0.39-0.7,0.72-1.17,0.99
					c-0.46,0.27-0.95,0.4-1.48,0.4c-0.84,0-1.47-0.23-1.89-0.68c-0.42-0.45-0.56-1.07-0.45-1.84c0.12-0.84,0.54-1.48,1.24-1.92
					c0.7-0.44,1.64-0.65,2.82-0.65h1.47l0.11-0.74c0.07-0.45-0.01-0.8-0.22-1.04c-0.22-0.24-0.57-0.36-1.06-0.36
					c-0.41,0-0.77,0.1-1.06,0.31c-0.29,0.21-0.46,0.47-0.5,0.79l-1.81,0.01l-0.02-0.05c0.07-0.69,0.45-1.28,1.15-1.78
					c0.7-0.5,1.55-0.75,2.57-0.75c0.95,0,1.69,0.25,2.23,0.75s0.74,1.21,0.61,2.13l-0.57,3.73c-0.05,0.36-0.08,0.7-0.08,1.01
					c0,0.31,0.03,0.62,0.09,0.92H261.72z M259.62,121.25c0.45,0,0.89-0.12,1.32-0.36c0.42-0.24,0.72-0.52,0.89-0.82l0.19-1.22h-1.5
					c-0.53,0-0.97,0.14-1.33,0.41c-0.36,0.27-0.57,0.59-0.63,0.95c-0.05,0.33,0.01,0.59,0.19,0.77
					C258.93,121.16,259.22,121.25,259.62,121.25z"/>
				<path class="st4" d="M268.07,115.37c0.34-0.42,0.74-0.74,1.19-0.97c0.45-0.23,0.93-0.35,1.46-0.35c0.84,0,1.47,0.27,1.9,0.81
					c0.42,0.54,0.55,1.38,0.38,2.51l-0.78,5.22h-1.88l0.78-5.2c0.1-0.68,0.04-1.15-0.17-1.41c-0.21-0.26-0.58-0.39-1.1-0.39
					c-0.39,0-0.75,0.08-1.06,0.24c-0.32,0.16-0.59,0.38-0.82,0.66l-0.91,6.1h-1.88l1.26-8.39h1.72L268.07,115.37z"/>
				<path class="st4" d="M277.17,118.93h-0.7l-0.55,3.67h-1.88l1.81-12.09h1.87l-1.04,6.91h0.64l2.75-3.21h2.15l0.02,0.04
					l-3.41,3.82l2.51,4.53h-2.19L277.17,118.93z"/>
			</g>
			<g>
				<path class="st4" d="M265.91,129.15l0.07,0.02l-0.26,0.83h-2.37v-0.08h0.12c0.13,0,0.22-0.04,0.28-0.13
					c0.03-0.05,0.05-0.16,0.05-0.33v-1.97c0-0.19-0.02-0.31-0.06-0.36c-0.06-0.07-0.15-0.1-0.26-0.1h-0.12v-0.08h1.38v0.08
					c-0.08,0-0.15,0-0.21,0.01c-0.05,0.01-0.1,0.02-0.14,0.03c-0.03,0.01-0.06,0.03-0.08,0.05c-0.02,0.02-0.04,0.04-0.05,0.07
					c-0.02,0.05-0.04,0.16-0.04,0.35v1.92c0,0.05,0,0.1,0.01,0.14c0,0.04,0.01,0.07,0.02,0.09s0.02,0.04,0.04,0.06
					c0.01,0.02,0.03,0.03,0.06,0.04c0.04,0.02,0.15,0.02,0.35,0.02h0.22c0.23,0,0.4-0.02,0.49-0.05c0.05-0.02,0.09-0.04,0.14-0.07
					c0.04-0.03,0.08-0.07,0.12-0.11c0.04-0.05,0.08-0.11,0.12-0.17C265.83,129.33,265.87,129.25,265.91,129.15z"/>
				<path class="st4" d="M267.54,129.91V130h-1.31v-0.08h0.11c0.13,0,0.22-0.04,0.28-0.11c0.04-0.05,0.05-0.16,0.05-0.35v-1.97
					c0-0.07,0-0.13,0-0.18c0-0.04-0.01-0.08-0.02-0.11c-0.01-0.03-0.02-0.05-0.04-0.07s-0.04-0.03-0.06-0.05
					c-0.07-0.04-0.14-0.05-0.21-0.05h-0.11v-0.08h1.31v0.08h-0.11c-0.13,0-0.22,0.04-0.27,0.11c-0.04,0.05-0.06,0.16-0.06,0.35v1.97
					c0,0.07,0,0.13,0,0.18c0,0.05,0.01,0.08,0.02,0.11c0.01,0.03,0.02,0.05,0.04,0.07c0.02,0.02,0.04,0.03,0.06,0.05
					c0.06,0.04,0.13,0.05,0.21,0.05H267.54z"/>
				<path class="st4" d="M269.58,130l-1.18-2.57v2.04c0,0.19,0.02,0.31,0.06,0.35c0.05,0.06,0.14,0.09,0.26,0.09h0.11V130h-1.06
					v-0.08h0.11c0.13,0,0.22-0.04,0.28-0.12c0.03-0.05,0.05-0.16,0.05-0.33v-2c0-0.13-0.02-0.23-0.05-0.29
					c-0.01-0.02-0.02-0.04-0.04-0.06s-0.04-0.03-0.07-0.05c-0.03-0.01-0.07-0.02-0.11-0.03c-0.04-0.01-0.1-0.01-0.16-0.01v-0.08
					h0.87l1.11,2.39l1.09-2.39h0.87v0.08h-0.11c-0.13,0-0.22,0.04-0.28,0.12c-0.03,0.05-0.05,0.16-0.05,0.33v2
					c0,0.19,0.02,0.31,0.06,0.35c0.05,0.06,0.14,0.09,0.26,0.09h0.11V130h-1.3v-0.08h0.11c0.13,0,0.22-0.04,0.28-0.12
					c0.03-0.05,0.05-0.16,0.05-0.33v-2.04l-1.18,2.57H269.58z"/>
				<path class="st4" d="M273.25,129.91V130h-1.31v-0.08h0.11c0.13,0,0.22-0.04,0.28-0.11c0.04-0.05,0.05-0.16,0.05-0.35v-1.97
					c0-0.07,0-0.13,0-0.18c0-0.04-0.01-0.08-0.02-0.11c-0.01-0.03-0.02-0.05-0.04-0.07s-0.04-0.03-0.06-0.05
					c-0.07-0.04-0.14-0.05-0.21-0.05h-0.11v-0.08h1.31v0.08h-0.11c-0.13,0-0.22,0.04-0.27,0.11c-0.04,0.05-0.06,0.16-0.06,0.35v1.97
					c0,0.07,0,0.13,0,0.18c0,0.05,0.01,0.08,0.02,0.11c0.01,0.03,0.02,0.05,0.04,0.07c0.02,0.02,0.04,0.03,0.06,0.05
					c0.06,0.04,0.13,0.05,0.21,0.05H273.25z"/>
				<path class="st4" d="M276.07,126.94v0.72h-0.05c-0.01-0.1-0.03-0.18-0.06-0.24c-0.03-0.07-0.06-0.12-0.11-0.16
					s-0.1-0.07-0.16-0.09c-0.06-0.02-0.14-0.03-0.23-0.03h-0.43v2.34c0,0.19,0.02,0.31,0.06,0.35c0.06,0.06,0.14,0.09,0.26,0.09
					h0.11V130h-1.3v-0.08h0.11c0.13,0,0.22-0.04,0.28-0.12c0.03-0.05,0.05-0.16,0.05-0.33v-2.34h-0.37c-0.09,0-0.17,0.01-0.24,0.02
					c-0.07,0.01-0.13,0.04-0.18,0.08c-0.05,0.04-0.09,0.09-0.12,0.16c-0.03,0.07-0.05,0.16-0.07,0.27h-0.09v-0.72H276.07z"/>
				<path class="st4" d="M277.22,127.11v1.21h0.67c0.1,0,0.18-0.01,0.24-0.03c0.06-0.02,0.11-0.04,0.14-0.08s0.06-0.08,0.07-0.14
					c0.01-0.06,0.02-0.12,0.03-0.2h0.08v1.06h-0.08c-0.01-0.07-0.02-0.14-0.03-0.18c-0.01-0.05-0.02-0.08-0.03-0.1
					c-0.01-0.03-0.03-0.05-0.05-0.07c-0.02-0.02-0.05-0.04-0.08-0.05c-0.03-0.01-0.07-0.03-0.12-0.03c-0.05-0.01-0.1-0.01-0.16-0.01
					h-0.67v1.01c0,0.13,0.01,0.22,0.02,0.25c0.01,0.01,0.01,0.03,0.02,0.04c0.01,0.01,0.02,0.02,0.04,0.03
					c0.02,0.01,0.04,0.01,0.07,0.02s0.06,0.01,0.11,0.01h0.52c0.09,0,0.16,0,0.22-0.01c0.06-0.01,0.11-0.01,0.16-0.03
					c0.04-0.01,0.08-0.03,0.12-0.05c0.03-0.02,0.07-0.05,0.11-0.09c0.05-0.04,0.09-0.1,0.14-0.17c0.05-0.07,0.1-0.15,0.14-0.25h0.09
					L278.7,130h-2.36v-0.08h0.11c0.03,0,0.06,0,0.09-0.01c0.03-0.01,0.06-0.02,0.09-0.03c0.03-0.01,0.05-0.03,0.07-0.05
					c0.02-0.02,0.04-0.04,0.05-0.07c0.02-0.05,0.03-0.15,0.03-0.3v-1.99c0-0.19-0.02-0.31-0.06-0.36c-0.05-0.06-0.14-0.09-0.27-0.09
					h-0.11v-0.08h2.36v0.67h-0.05c-0.02-0.08-0.03-0.15-0.05-0.2c-0.02-0.05-0.03-0.1-0.06-0.13c-0.02-0.03-0.05-0.06-0.07-0.08
					c-0.03-0.02-0.06-0.04-0.1-0.05c-0.06-0.02-0.17-0.03-0.32-0.03H277.22z"/>
				<path class="st4" d="M279.18,130v-0.08h0.11c0.13,0,0.22-0.04,0.28-0.12c0.03-0.05,0.05-0.16,0.05-0.33v-1.97
					c0-0.19-0.02-0.31-0.06-0.36c-0.06-0.07-0.15-0.1-0.26-0.1h-0.11v-0.08h1.24c0.46,0,0.8,0.05,1.04,0.16
					c0.24,0.1,0.43,0.28,0.58,0.52c0.15,0.24,0.22,0.52,0.22,0.84c0,0.22-0.04,0.43-0.11,0.62c-0.07,0.19-0.18,0.35-0.32,0.49
					c-0.14,0.14-0.32,0.24-0.54,0.32c-0.21,0.08-0.46,0.12-0.74,0.12H279.18z M280.05,129.78c0.19,0.04,0.35,0.06,0.48,0.06
					c0.17,0,0.33-0.03,0.48-0.1c0.15-0.06,0.28-0.15,0.38-0.27c0.11-0.12,0.19-0.26,0.25-0.43c0.06-0.17,0.09-0.36,0.09-0.57
					c0-0.21-0.03-0.4-0.09-0.57c-0.06-0.17-0.15-0.31-0.25-0.43c-0.11-0.12-0.24-0.21-0.39-0.27c-0.15-0.06-0.32-0.1-0.5-0.1
					c-0.07,0-0.14,0.01-0.22,0.02c-0.08,0.01-0.16,0.03-0.25,0.05V129.78z"/>
			</g>
			<rect x="206.4" y="124.72" class="st5" width="75.86" height="0.88"/>
		</g>
		<g>
			<path class="st1" d="M217.29,59.71c2.46-0.1,4.92-0.08,7.39-0.06c0.01,13.06,0.06,26.12-0.03,39.17c-2.33-0.01-4.96,0-7.38-0.01
				c0.02-2.23,0.05-4.27,0.03-6.45C217.29,81.48,217.31,70.59,217.29,59.71z"/>
			<path class="st1" d="M231.05,59.65c2.46-0.01,4.92-0.04,7.37,0.07c-0.03,11.93-0.01,23.85,0,35.78c-0.01,1.13,0,2.13,0,3.36
				c-2.34-0.04-5.01-0.04-7.35-0.03C231.03,85.76,231.07,72.7,231.05,59.65z"/>
			<path class="st1" d="M270.73,67.01c2.38-0.93,4.75-1.9,7.1-2.91c0.04,2.43,0.03,4.86,0.01,7.29c1.45,0.01,2.91,0.01,4.36,0.01
				c0.04,1.64,0.04,3.27,0.05,4.92c-1.47-0.01-2.94-0.01-4.41-0.01c0.04,5.85-0.05,11.7,0.08,17.55c1.31,0.81,2.86,0.66,4.34,0.61
				c-0.01,1.52-0.01,3.05-0.01,4.59c-2.81,0.39-5.87,0.85-8.49-0.49c-2.15-1.26-3.1-3.8-3.06-6.2c-0.06-5.34-0.01-10.69-0.01-16.03
				c-1.29-0.02-2.57-0.03-3.86-0.04c0-1.63,0.01-3.26,0.09-4.89c1.25-0.01,2.5-0.03,3.75-0.06
				C270.68,69.9,270.69,68.45,270.73,67.01z"/>
			<path class="st1" d="M180.67,71.4c2.43-0.01,4.85-0.01,7.28,0c-1.94,9.13-3.47,18.34-5.5,27.44c-3.1-0.04-6.21-0.02-9.31-0.03
				c-1.17-7.09-2.8-14.1-3.9-21.2c-1.76,7.03-2.92,14.2-4.68,21.22c-3.07-0.02-6.14-0.01-9.22-0.01
				c-1.88-9.13-3.79-18.25-5.45-27.42c2.36-0.01,4.73,0,7.09-0.01c1.27,7.15,2.18,14.37,3.41,21.53c1.21-7.1,2.59-14.18,3.74-21.31
				c3.12-0.38,6.26-0.15,9.4-0.22c1.43,7.1,2.88,14.2,4.2,21.32C178.75,85.62,179.96,78.54,180.67,71.4z"/>
			<g>
				<path class="st1" d="M247.73,72.14c2.47-1.52,5.48-1.16,8.25-1.13c2.65,0.09,5.63,1.32,6.66,3.95c1.5,3.61,1.06,7.58,1.15,11.4
					c-4.37,0.06-8.75,0.01-13.12,0.03c0.04,2.46-0.1,5.01,0.72,7.38c0.33,0.67,0.91,1.08,1.57,1.26c1.71,0.45,3.33-0.95,3.48-2.72
					c0.08-0.93,0.05-1.87,0.07-2.8c2.43-0.06,4.87-0.06,7.31-0.01c0.08,2.81-0.46,6.02-2.89,7.79c-3.28,2.32-7.7,2.59-11.52,1.68
					c-2.89-0.61-4.98-3.2-5.42-6.05c-0.6-3.93-0.32-7.94-0.28-11.9C243.87,77.77,244.54,73.79,247.73,72.14z M251.19,77.15
					c-0.51,1.58-0.54,3.31-0.56,4.98c1.95,0.02,3.91,0.02,5.87,0.02c-0.14-1.57,0.19-3.37-0.24-4.91c-0.31-1.11-1.36-1.85-2.51-1.86
					c-0.01,0-0.02,0-0.03,0C252.59,75.36,251.54,76.07,251.19,77.15z"/>
			</g>
			<path class="st1" d="M211.01,81.61c-0.04-2.03,0.15-4.12-0.48-6.08c-1.09-3.08-4.57-4.59-7.66-4.55
				c-3.26-0.09-7.07-0.21-9.51,2.35c-1.59,1.57-1.63,3.92-1.66,6.01c2.38,0.01,4.75,0.01,7.13,0.01c0.09-0.9,0.25-1.8,0.46-2.67
				c0.11-0.47,0.44-0.85,0.87-1.05c0.65-0.3,1.64-0.52,2.6,0.23c0.61,0.47,0.96,1.21,1.06,1.98c0.18,1.28,0.11,2.6,0.03,3.89
				c-3.76-0.01-8.25-0.5-11.1,2.51c-2.12,2.72-1.75,6.38-1.5,9.66c0.06,0.75,0.19,1.49,0.53,2.16c2.17,4.33,9.2,4.49,12.13,0.68
				c0.13,0.7,0.27,1.4,0.4,2.1c2.21-0.04,4.41-0.04,6.62,0.01C211.1,93.11,210.96,87.36,211.01,81.61z M202.83,94.09
				c-1.09,1.66-3.77,1.31-4.41-0.56c-0.39-1.96-0.38-4.13,0.48-5.97c0.97-1.75,3.25-1.68,4.99-1.83
				C203.84,88.5,204.39,91.61,202.83,94.09z"/>
		</g>
	</g>
</g>
</svg>
