<?xml version="1.0" encoding="utf-8"?>
<!-- Generator: Adobe Illustrator 24.2.1, SVG Export Plug-In . SVG Version: 6.00 Build 0)  -->
<svg version="1.1" id="Layer_1" xmlns="http://www.w3.org/2000/svg" xmlns:xlink="http://www.w3.org/1999/xlink" x="0px" y="0px"
	 viewBox="0 0 1600.1 1600" style="enable-background:new 0 0 1600.1 1600;" xml:space="preserve">
<style type="text/css">
	.st0{fill:#2B3990;}
	.st1{opacity:0.8333;fill:#2B3990;enable-background:new    ;}
	.st2{opacity:0.6667;fill:#2B3990;enable-background:new    ;}
	.st3{opacity:0.5;fill:#2B3990;enable-background:new    ;}
	.st4{opacity:0.3333;fill:#2B3990;enable-background:new    ;}
	.st5{opacity:0.1667;fill:#2B3990;enable-background:new    ;}
	.st6{fill:#2B3990;fill-opacity:0;}
	.st7{opacity:0.2;fill:#262262;enable-background:new    ;}
	.st8{opacity:0.2;}
	.st9{fill:#1B75BC;}
	.st10{fill:#94FFFF;}
	.st11{fill:#96AAC9;}
	.st12{fill:#0EB5E3;}
	.st13{enable-background:new    ;}
	.st14{fill:#8FEDFF;}
	.st15{fill:#F7F7F7;}
	.st16{opacity:0.5;}
	.st17{fill:#0521A8;}
	.st18{fill:#0F39B2;}
	.st19{fill:#EFB185;}
	.st20{fill:#D87A13;}
	.st21{fill:#F7941D;}
	.st22{fill:#E8A476;}
	.st23{fill:#DB9669;}
	.st24{fill:#F1B287;}
	.st25{fill:#B4B9BC;}
	.st26{fill:#7D8183;}
	.st27{fill:#E3E5E5;}
	.st28{fill:#BDBBBB;}
	.st29{fill:#D2D0D0;}
	.st30{fill:#D5DFE6;}
	.st31{fill:#E9F0F4;}
	.st32{fill:#9FE4FF;}
	.st33{fill:url(#SVGID_5_);}
	.st34{fill:url(#SVGID_6_);}
	.st35{fill:url(#SVGID_7_);}
	.st36{fill:url(#SVGID_8_);}
	.st37{fill:url(#SVGID_9_);}
	.st38{fill:url(#SVGID_10_);}
	.st39{fill:url(#SVGID_11_);}
	.st40{fill:url(#SVGID_12_);}
	.st41{fill:url(#SVGID_13_);}
	.st42{fill:url(#SVGID_14_);}
	.st43{fill:#FEFFFF;}
	.st44{fill:#DD9569;}
	.st45{fill:#F2B78F;}
	.st46{fill:#E6A376;}
	.st47{fill:url(#SVGID_15_);}
	.st48{fill:url(#SVGID_16_);}
	.st49{fill:url(#SVGID_17_);}
	.st50{fill:url(#SVGID_18_);}
	.st51{fill:url(#SVGID_19_);}
	.st52{fill:url(#SVGID_20_);}
	.st53{opacity:0.7;fill:#2AFBFE;enable-background:new    ;}
	.st54{opacity:0.4;fill:#2AFBFE;enable-background:new    ;}
	.st55{opacity:0.5;fill:#24D8DB;enable-background:new    ;}
	.st56{fill:#2AFBFE;}
	.st57{opacity:0.5;fill:#92B1D3;enable-background:new    ;}
	.st58{fill:url(#SVGID_21_);}
	.st59{fill:url(#SVGID_22_);}
	.st60{fill:url(#SVGID_23_);}
	.st61{fill:#013674;}
	.st62{fill:#00A3D2;}
	.st63{fill:url(#SVGID_24_);}
	.st64{fill:url(#SVGID_25_);}
	.st65{fill:url(#SVGID_26_);}
	.st66{fill:#0086FF;}
	.st67{fill:#00CFFF;}
	.st68{fill:#FF85A5;}
	.st69{fill:#F8FF9C;}
	.st70{fill:url(#SVGID_27_);}
	.st71{fill:url(#SVGID_28_);}
	.st72{fill:url(#SVGID_29_);}
	.st73{fill:url(#SVGID_30_);}
	.st74{fill:url(#SVGID_31_);}
	.st75{fill:url(#SVGID_32_);}
	.st76{fill:#15E8FF;}
	.st77{clip-path:url(#SVGID_35_);}
	.st78{clip-path:url(#SVGID_36_);fill:url(#SVGID_37_);}
	.st79{fill:url(#SVGID_38_);}
	.st80{clip-path:url(#SVGID_41_);}
	.st81{clip-path:url(#SVGID_42_);fill:url(#SVGID_43_);}
	.st82{clip-path:url(#SVGID_46_);}
	.st83{clip-path:url(#SVGID_47_);fill:url(#SVGID_48_);}
	.st84{fill:url(#SVGID_49_);}
	.st85{opacity:0.5;fill:#F5F6F7;enable-background:new    ;}
	.st86{opacity:0.3;fill:#24D8DB;enable-background:new    ;}
	.st87{fill:#F44336;}
	.st88{fill:#4CAF50;}
	.st89{fill:#2196F3;}
	.st90{fill:#FFC107;}
	.st91{fill:#FFFFFF;}
	.st92{fill:#E69629;}
</style>
<g>
	<g>
		<path class="st0" d="M319.4,365.9l5.4,2.2c1.7,0.7,3.7,0.7,5.4,0l5.5-2.1c3.6-1.4,3.6-4.9,0.1-6.3l-5.4-2.1
			c-1.7-0.7-3.7-0.7-5.4,0l-5.5,2.1C315.8,360.9,315.8,364.4,319.4,365.9z"/>
		<path class="st1" d="M319.5,327.8l5.4,2.2c1.7,0.7,3.7,0.7,5.4,0l5.5-2.1c3.6-1.4,3.6-4.9,0.1-6.3l-5.4-2.1
			c-1.7-0.7-3.7-0.7-5.4,0l-5.5,2.1C316,322.8,315.9,326.4,319.5,327.8z"/>
		<path class="st2" d="M319.6,289.7l5.4,2.2c1.7,0.7,3.7,0.7,5.4,0l5.5-2.1c3.6-1.4,3.6-4.9,0.1-6.3l-5.4-2.1
			c-1.7-0.7-3.7-0.7-5.4,0l-5.5,2.1C316.1,284.7,316.1,288.3,319.6,289.7z"/>
		<path class="st3" d="M319.8,251.6l5.4,2.2c1.7,0.7,3.7,0.7,5.4,0l5.5-2.1c3.6-1.4,3.6-4.9,0.1-6.3l-5.4-2.1
			c-1.7-0.7-3.7-0.7-5.4,0l-5.5,2.1C316.2,246.6,316.2,250.2,319.8,251.6z"/>
		<path class="st4" d="M319.9,213.5l5.4,2.2c1.7,0.6,3.7,0.7,5.4,0l5.5-2.1c3.6-1.4,3.6-4.9,0.1-6.3l-5.4-2.1
			c-1.7-0.7-3.7-0.7-5.4,0l-5.5,2.1C316.4,208.6,316.4,212.1,319.9,213.5z"/>
		<path class="st5" d="M320.1,175.4l5.4,2.2c1.7,0.6,3.7,0.7,5.4,0l5.5-2.1c3.6-1.4,3.6-4.9,0-6.3L331,167c-1.7-0.7-3.7-0.7-5.4,0
			l-5.5,2.1C316.5,170.5,316.5,174,320.1,175.4z"/>
		<path class="st6" d="M320.2,137.3l5.4,2.2c1.6,0.6,3.7,0.7,5.4,0l5.5-2.1c3.6-1.4,3.6-4.9,0-6.3l-5.4-2.1c-1.7-0.7-3.7-0.7-5.4,0
			l-5.5,2.1C316.6,132.4,316.6,135.9,320.2,137.3z"/>
	</g>
</g>
<path class="st7" d="M1178.5,1005.7c-226.5-130.8-593.9-130.8-820.5,0c-226.6,130.8-226.6,342.9,0,473.7
	c226.6,130.8,593.9,130.8,820.5,0C1405,1348.6,1405,1136.5,1178.5,1005.7z"/>
<g>
	<g>
		<path class="st0" d="M251,685.2l5.3,3.1c1.6,0.9,3.6,0.9,5.2,0l5.3-3c3.5-2,3.5-7,0.1-9l-5.3-3.1c-1.6-0.9-3.6-1-5.2,0l-5.3,3
			C247.6,678.2,247.6,683.2,251,685.2z"/>
		<path class="st1" d="M251.1,630.9l5.3,3.1c1.6,0.9,3.6,0.9,5.2,0l5.3-3c3.5-2,3.5-7,0.1-9l-5.3-3.1c-1.6-1-3.6-1-5.2,0l-5.3,3
			C247.7,623.9,247.7,628.9,251.1,630.9z"/>
		<path class="st2" d="M251.3,576.7l5.3,3.1c1.6,0.9,3.6,1,5.2,0l5.3-3c3.5-2,3.5-7,0.1-9l-5.3-3.1c-1.6-1-3.6-1-5.2,0l-5.3,3
			C247.8,569.6,247.8,574.6,251.3,576.7z"/>
		<path class="st3" d="M251.4,522.4l5.3,3.1c1.6,0.9,3.6,1,5.2,0l5.3-3c3.5-2,3.5-7,0.1-9l-5.3-3.1c-1.6-1-3.6-1-5.2,0l-5.3,3
			C248,515.3,247.9,520.3,251.4,522.4z"/>
		<path class="st4" d="M251.5,468.1l5.2,3.1c1.6,0.9,3.6,1,5.2,0l5.3-3c3.5-2,3.5-7,0.1-9l-5.3-3.1c-1.6-1-3.6-1-5.2,0l-5.3,3
			C248.1,461,248.1,466,251.5,468.1z"/>
		<path class="st5" d="M251.7,413.8l5.2,3.1c1.6,0.9,3.6,1,5.2,0l5.3-3c3.5-2,3.5-7,0-9l-5.3-3.1c-1.6-1-3.6-1-5.2,0l-5.3,3
			C248.2,406.8,248.2,411.8,251.7,413.8z"/>
		<path class="st6" d="M251.8,359.5l5.2,3.1c1.6,0.9,3.6,1,5.2,0l5.3-3c3.5-2,3.5-7,0-9l-5.3-3.1c-1.6-1-3.6-1-5.2,0l-5.3,3
			C248.4,352.5,248.4,357.5,251.8,359.5z"/>
	</g>
</g>
<g class="st8">
	<path class="st9" d="M1059.2,1031.2c161.8,93.4,162.6,244.8,2,338.2c-160.7,93.4-422.1,93.4-583.9,0
		c-161.8-93.4-162.7-244.8-1.9-338.2C636,937.8,897.4,937.8,1059.2,1031.2z"/>
</g>
<g>
	<g>
		<g>
			<path class="st10" d="M1031.4,901c146.2,84.4,147,221.3,1.7,305.7c-145.3,84.4-381.6,84.4-527.8,0
				c-146.2-84.4-147-221.3-1.7-305.7C648.9,816.6,885.2,816.6,1031.4,901z"/>
		</g>
		<g>
			<g>
				<g>
					<path class="st11" d="M980,923.1c-56.7-32.7-131.5-50.8-210.8-50.8s-154,18-210.3,50.8c-58.8,34.2-91.1,80.4-91,130.4
						c0,1.1,0,2.3,0.1,3.4c1.5,48.9,34.2,94.1,92.2,127.7c56.7,32.7,131.5,50.7,210.8,50.7c79.3,0,154-18,210.3-50.8
						c57.2-33.3,89.4-78.1,90.9-126.5c0-1.3,0.1-2.5,0.1-3.8C1072.3,1004,1039.5,957.4,980,923.1z M1041.9,1061.5
						c0.1,38.6-26.9,75.5-75.8,103.9c-53.6,31.2-124.2,46.8-195,46.8c-70.7,0-141.5-15.6-195.5-46.8c-49.6-28.7-77-65.9-77.1-104.7
						c0-1.3,0-2.6,0.1-3.8c0-1.2-0.1-2.3-0.1-3.5c0-38.5,26.8-75.5,75.8-103.9c53.7-31.2,124.2-46.7,194.9-46.7
						c70.7,0,141.6,15.6,195.5,46.8c49.7,28.7,77,65.9,77.1,104.7c0,1.2,0,2.4-0.1,3.7v0.1
						C1041.8,1059.2,1041.9,1060.3,1041.9,1061.5z"/>
				</g>
			</g>
			<g>
				<g>
					<path class="st12" d="M1072.3,1058c-1.5-48.9-34.2-94.1-92.3-127.7c-56.7-32.7-131.5-50.7-210.8-50.7s-154,18-210.3,50.8
						c-57.2,33.3-89.4,78-90.9,126.5c-0.1,1.3-0.1,2.6-0.1,3.8c0.1,50.2,32.9,96.8,92.3,131.1c56.7,32.7,131.5,50.7,210.8,50.7
						c79.3,0,154-18,210.3-50.7c58.7-34.2,91-80.4,91-130.3C1072.4,1060.3,1072.4,1059.2,1072.3,1058z M498.6,1056.9
						c1.7-37.2,28.4-72.6,75.7-100.1C628,925.6,698.5,910,769.2,910c70.7,0,141.6,15.6,195.5,46.8c48.1,27.7,75.3,63.5,77,101.1v0.1
						c0,1.2,0.1,2.4,0.1,3.6c0.1,38.6-26.9,75.5-75.8,103.9c-53.6,31.2-124.2,46.8-195,46.8c-70.7,0-141.5-15.6-195.5-46.8
						c-49.6-28.7-77-65.9-77.1-104.7C498.5,1059.4,498.5,1058.1,498.6,1056.9z"/>
				</g>
			</g>
		</g>
		<g>
			<g class="st13">
				<g class="st13">
					<g>
						<path id="SVGID_2_" class="st14" d="M1141.6,1054.9l-0.3,91.1c-0.2,55-36.3,109.9-108.5,151.8c-145.3,84.4-381.6,84.4-527.8,0
							c-73.6-42.5-110.3-98.3-110.2-154l0.3-91.1c-0.1,55.7,36.6,111.4,110.2,153.9c146.2,84.4,382.5,84.4,527.8,0
							C1105.3,1164.8,1141.4,1109.9,1141.6,1054.9z"/>
					</g>
				</g>
			</g>
		</g>
	</g>
</g>
<g>
	<g>
		<path class="st15" d="M900.8,992.1c73.7,42.5,74,111.5,0.8,154.1c-73.2,42.5-192.3,42.5-265.9,0c-73.7-42.6-74.1-111.6-0.9-154.1
			C708,949.5,827.1,949.5,900.8,992.1z"/>
	</g>
</g>
<g class="st16">
	<g>
		<path class="st15" d="M930.7,972.4c90.2,52.1,90.7,136.6,1,188.8c-89.7,52.1-235.6,52.1-325.8,0c-90.3-52.2-90.8-136.7-1.2-188.8
			C694.4,920.3,840.4,920.3,930.7,972.4z"/>
	</g>
</g>
<g>
	<path d="M273.9,1325.2c0,0-1.3,15.9-8.1,24.6c-6.8,8.6-38.7,28.7-36.2,37.5c2.4,8.7,25.4,9.2,39.6-5.6c14.3-14.7,18.1-17,24.2-18.4
		c6.1-1.4,14.8-9.2,8.2-22.6C301.7,1340.7,282,1335.4,273.9,1325.2z"/>
	<path d="M314.8,1354.7c0,0-2.4,16.6-10.1,25.3c-7.8,8.6-42.4,27.5-40.5,36.8c2,9.3,26,11.3,41.9-3.2c15.9-14.5,20.1-16.7,26.6-17.7
		c6.5-1.1,16.1-8.7,10.1-23.1C342.8,1372.8,322.5,1365.9,314.8,1354.7z"/>
	<path class="st17" d="M398.7,1115.8c0,0-114.9,64.4-121.9,84.8c-10,29.1-8.1,48.9-3.3,121.1l-0.3,17c0,0,14.8,12,30.8,3.9
		c5-2.5-0.1-50.1,7.9-76.5c0,0,2.5-31.4,0.1-39.8c0,0,92.7-32.2,114.4-52.1C448.1,1154.4,398.7,1115.8,398.7,1115.8z"/>
	<path class="st17" d="M496.5,1136.1c0,0,18.3,41.3-30.4,66.5c-51.7,26.7-106.3,58.9-106.3,58.9s1.4,32.6-2.6,52.4
		c-5.5,26.6-13.5,61.4-13.5,61.4s-22.1,8.9-34.6-3.2c0,0-1.2-128.1,13.9-142.5c15-14.5,90.3-71.7,90.3-71.7l-14.4-42.1L496.5,1136.1
		z"/>
	<path class="st18" d="M466.1,1202.6c-51.7,26.7-106.3,58.9-106.3,58.9s1.4,32.6-2.6,52.4c-5.5,26.6-9.4,60.2-9.4,60.2
		s-8.1,2.5-13.5,2.8c7.6-34.4,11-110.9,14.5-125c4.4-17.4,58.9-36.1,97.6-56.6c38.7-20.4,40.5-61.2,40.5-61.2l9.6,2
		C496.5,1136.1,514.8,1177.4,466.1,1202.6z"/>
	<path class="st18" d="M269.6,1319.3c-4.8-72.3-2.8-89.7,7.2-118.8c7-20.3,121.9-84.8,121.9-84.8s6.3,4.9,13.4,12.2
		c-31,15.3-105.3,53.9-119.2,79.9c-15.9,29.9-4,113.2-5.6,137c-7.1-0.6-16.7-4.2-16.7-4.2L269.6,1319.3z"/>
	<path class="st19" d="M347.3,1090.8c0,0-16.2-2.7-23.1,3.1c-7,5.8-12.4,7.7-15.5,13.8c-3,6,0.6,9.2,5.9,8.9
		c5.4-0.3,14.2-3.2,22.3-8.2c8.2-5,9.4-3.8,12.1-4.3C351.7,1103.6,355,1095.7,347.3,1090.8z"/>
	<path class="st20" d="M417.8,965.9c-7.9-0.9-20.5,3.6-20.1,24.5c0.5,20.9,2.5,79.4,2.5,79.4s-54.1,16.1-60.1,18.9
		c0,0,11,4.9,8.2,16.2c0,0,62.6,1.2,73.8-13.8C433.5,1076.2,450,969.5,417.8,965.9z"/>
	<path class="st21" d="M509.4,1007.6c0,0-18.8-32.5-93.3-43.1c0,0-11.9-5-10.8,33.6c0.2,5.5-5.6,15-9.5,20.1
		c-3.9,5-14.3,24.3,8.4,47.5c0,0,8.8,34.4-1.7,56.6c-9.4,19.8,39.6,39.2,81.4,35.2c5.1-0.5,16.5-3.9,12-21.8
		c-4.5-17.9-15.1-49.3-6.7-82.3C497.6,1020.5,515,1024.4,509.4,1007.6z"/>
	<path class="st20" d="M509.4,1007.6c5.6,16.8-11.7,12.9-20.1,45.9c-8.4,33,2.2,64.3,6.7,82.3c4.5,17.9-6.9,21.3-12,21.8
		c-6.9,0.7-14,0.7-21,0.2c14.6-32-4.1-90.2-5-122.3c-1-34,29.8-47.3,29.8-47.3C504,998.4,509.4,1007.6,509.4,1007.6z"/>
	<g>
		<path class="st18" d="M429.4,904.7c0,0,4.9,38.5,7.2,75.3c0.3,5.3-5.3,14.6-15.1,12.1c0,0-27.9-43.6-5.6-86.8
			c7-13.7,32.6-33,61.6-12.8L429.4,904.7z"/>
		<g>
			<path class="st22" d="M421.5,955.2c0,0,13.4,15.6,7.2,32.3c-1.7,4.7-5.9,23.6,22.8,15.7c0,0,29.7-15.2,20.8-24.2
				c-6-5.9-11.8-14.6-3.2-45.4L421.5,955.2z"/>
			<path class="st23" d="M472.3,979.1c1,1,1.4,2,1.5,3c-27.4,5.6-46.2-13.6-46.2-13.6l35.4-31.6l0,0c0,0,1.8,1.2,4.5,3.3
				C461.4,965.8,466.7,973.6,472.3,979.1z"/>
		</g>
		<path class="st24" d="M426.1,900.6c0,0-7.7,2.7-7.9,25.5c0,2.5-4.1,5.9-5.1,12.2c-1,6.4-2.4,31.8,12.4,34.5
			c10.7,1.9,37.1-4.9,45.9-30.6C480.1,916.5,458.1,883.5,426.1,900.6z"/>
		<path class="st17" d="M427.6,909.8c0,0,65.6,23.9,16.5,108.5c0,0,34.2,3.3,49.4-26.2c7.3-14.2,4.4-42.8,2.1-70
			c0,0-7.6-41.9-42.7-35.6C452.9,886.5,429.7,895.4,427.6,909.8z"/>
		<path class="st17" d="M427.6,909.8c0,0-11.5-2.1-17,19c0,0,1.8-59.6,58.2-41.6C468.8,887.1,435.1,888.8,427.6,909.8z"/>
		<path class="st24" d="M458.3,946.6c0,0,4-12.7,11.3-8.8c2.3,1.2,4.8,3.8,1.3,10.3c-3.5,6.6-10.6,12.5-16.4,11.8L458.3,946.6z"/>
	</g>
	<g>
		<g>
			<g class="st13">
				<g>
					<polygon class="st25" points="432.2,1158 432.4,1161.4 382.3,1197.2 382,1193.7 					"/>
				</g>
				<g>
					<polygon class="st26" points="382,1193.7 382.3,1197.2 288.6,1154.1 288.3,1150.7 					"/>
				</g>
				<g>
					<polygon class="st27" points="432.2,1158 382,1193.7 288.3,1150.7 338.5,1114.9 					"/>
				</g>
			</g>
		</g>
		<g>
			<g class="st13">
				<g>
					<polygon class="st28" points="367,1134.3 370.7,1130.8 386.3,1193.5 382.6,1197 					"/>
				</g>
				<g>
					<polygon class="st29" points="269,1089.3 272.8,1085.8 370.7,1130.8 367,1134.3 					"/>
				</g>
				<g>
					<polygon class="st30" points="367,1134.3 382.6,1197 284.7,1152 269,1089.3 					"/>
				</g>
				<g>
					<polygon class="st31" points="367,1134.3 367,1134.3 284.7,1152 269,1089.3 					"/>
				</g>
			</g>
		</g>
	</g>
	<g>
		<path class="st19" d="M424.1,1121.5c0,0-16.2,2.2-21.2,9.8c-5,7.6-11.9,15.7-13.1,22.3c-1.1,6.7,0.4,8.8,5.5,7.1
			c5-1.8,17.8-12.1,24.1-19.3c6.4-7.2,7.9-6.4,10.3-7.7C432.1,1132.4,433,1124,424.1,1121.5z"/>
		<path class="st23" d="M429.7,1133.7c-2.4,1.2-3.9,0.5-10.3,7.7c-6.3,7.2-19.1,17.4-24.1,19.3c-0.7,0.2-1.4,0.4-1.9,0.5
			c3.6-4.7,9.8-12.7,15.3-19.5c7-8.6,18.6-12.8,22.3-14C431.8,1130.3,430.9,1133,429.7,1133.7z"/>
		<path class="st21" d="M501.6,999.1c-7.9-1.1-20.6,3.2-20.5,24.1c0.1,20.9,1,79.4,1,79.4s-54.4,15.1-60.4,17.8
			c0,0,10.8,3.1,7.8,14.4c0,0,62.7,4.4,74.2-10.3C515.2,1109.7,533.7,1003.3,501.6,999.1z"/>
		<path class="st20" d="M421.7,1120.4c6-2.7,60.4-17.8,60.4-17.8s-0.9-58.5-1-79.4c-0.1-20.9,12.6-25.2,20.5-24.1
			c2.1,0.3,4,1,5.6,2.1l0.5,0.8c0,0-17.9,10.1-16.6,48.2c1.3,38.2,17.9,59.2-13.4,65.7c-18.7,3.9-37.1,7.8-49,10.3
			C426.4,1121.9,421.7,1120.4,421.7,1120.4z"/>
	</g>
</g>
<g>
	<g>
		<path class="st0" d="M1319.5,401.6l5.6,2.2c1.7,0.7,3.9,0.7,5.6,0l5.7-2.2c3.7-1.4,3.8-5.1,0.1-6.6l-5.6-2.2
			c-1.7-0.7-3.8-0.7-5.6,0l-5.7,2.2C1315.9,396.5,1315.8,400.2,1319.5,401.6z"/>
		<path class="st1" d="M1319.7,362.1l5.6,2.2c1.7,0.7,3.9,0.7,5.6,0l5.7-2.2c3.7-1.4,3.8-5.1,0.1-6.6l-5.6-2.2
			c-1.7-0.7-3.9-0.7-5.6,0l-5.7,2.2C1316,357,1316,360.6,1319.7,362.1z"/>
		<path class="st2" d="M1319.8,322.6l5.6,2.2c1.7,0.7,3.9,0.7,5.6,0l5.7-2.2c3.7-1.4,3.8-5.1,0.1-6.6l-5.6-2.2
			c-1.7-0.7-3.9-0.7-5.6,0l-5.7,2.2C1316.1,317.5,1316.1,321.1,1319.8,322.6z"/>
		<path class="st3" d="M1319.9,283.1l5.6,2.2c1.7,0.7,3.9,0.7,5.6,0l5.7-2.2c3.7-1.4,3.8-5.1,0.1-6.6l-5.6-2.2
			c-1.7-0.7-3.9-0.7-5.6,0l-5.7,2.2C1316.3,277.9,1316.3,281.6,1319.9,283.1z"/>
		<path class="st4" d="M1320.1,243.5l5.6,2.3c1.7,0.7,3.9,0.7,5.6,0l5.7-2.2c3.7-1.4,3.8-5.1,0.1-6.6l-5.6-2.2
			c-1.7-0.7-3.9-0.7-5.6,0l-5.7,2.2C1316.4,238.4,1316.4,242.1,1320.1,243.5z"/>
		<path class="st5" d="M1320.2,204l5.6,2.3c1.7,0.7,3.8,0.7,5.6,0l5.7-2.2c3.7-1.4,3.8-5.1,0.1-6.6l-5.6-2.2c-1.7-0.7-3.9-0.7-5.6,0
			l-5.7,2.2C1316.6,198.9,1316.5,202.5,1320.2,204z"/>
		<path class="st6" d="M1320.4,164.5l5.6,2.3c1.7,0.7,3.8,0.7,5.6,0l5.7-2.2c3.7-1.4,3.8-5.1,0.1-6.6l-5.6-2.2
			c-1.7-0.7-3.9-0.7-5.6,0l-5.7,2.2C1316.7,159.4,1316.7,163,1320.4,164.5z"/>
	</g>
</g>
<g>
	<g>
		<path class="st0" d="M1248.6,733l5.4,3.2c1.7,1,3.7,1,5.4,0l5.5-3.1c3.6-2,3.7-7.3,0.1-9.4l-5.4-3.2c-1.7-1-3.7-1-5.4,0l-5.5,3.1
			C1245,725.8,1245,731,1248.6,733z"/>
		<path class="st1" d="M1248.7,676.7l5.4,3.2c1.7,1,3.7,1,5.4,0l5.5-3.1c3.6-2,3.7-7.3,0.1-9.4l-5.4-3.2c-1.7-1-3.7-1-5.4,0
			l-5.5,3.1C1245.2,669.4,1245.1,674.6,1248.7,676.7z"/>
		<path class="st2" d="M1248.9,620.4l5.4,3.2c1.7,1,3.7,1,5.4,0l5.5-3.1c3.6-2,3.7-7.3,0.1-9.4l-5.4-3.2c-1.7-1-3.7-1-5.4,0
			l-5.5,3.1C1245.3,613.1,1245.3,618.3,1248.9,620.4z"/>
		<path class="st3" d="M1249,564l5.4,3.2c1.7,1,3.7,1,5.4,0l5.5-3.1c3.6-2,3.7-7.3,0.1-9.4l-5.4-3.2c-1.7-1-3.7-1-5.4,0l-5.5,3.1
			C1245.4,556.8,1245.4,561.9,1249,564z"/>
		<path class="st4" d="M1249.1,507.7l5.4,3.2c1.7,1,3.7,1,5.4,0l5.5-3.1c3.6-2,3.7-7.3,0.1-9.4l-5.4-3.2c-1.7-1-3.7-1-5.4,0
			l-5.5,3.1C1245.6,500.4,1245.6,505.6,1249.1,507.7z"/>
		<path class="st5" d="M1249.3,451.4l5.4,3.2c1.7,1,3.7,1,5.4,0l5.5-3.1c3.6-2,3.7-7.3,0.1-9.4l-5.4-3.2c-1.7-1-3.7-1-5.4,0
			l-5.5,3.1C1245.7,444.1,1245.7,449.3,1249.3,451.4z"/>
		<path class="st6" d="M1249.4,395l5.4,3.2c1.7,1,3.7,1,5.4,0l5.5-3.1c3.6-2,3.6-7.3,0.1-9.4l-5.4-3.2c-1.7-1-3.7-1-5.4,0l-5.5,3.1
			C1245.8,387.7,1245.8,392.9,1249.4,395z"/>
	</g>
</g>
<g>
	<g>
		<ellipse class="st32" cx="754.3" cy="898.8" rx="204.1" ry="128"/>
	</g>
</g>
<g>
	
		<linearGradient id="SVGID_5_" gradientUnits="userSpaceOnUse" x1="1153.2035" y1="531.9312" x2="1214.2899" y2="531.9312" gradientTransform="matrix(1 0 0 -1 0 1600)">
		<stop  offset="0" style="stop-color:#01064A"/>
		<stop  offset="0.374" style="stop-color:#02084C"/>
		<stop  offset="0.5176" style="stop-color:#050F52"/>
		<stop  offset="0.6217" style="stop-color:#0A1B5E"/>
		<stop  offset="0.7066" style="stop-color:#122C6E"/>
		<stop  offset="0.7799" style="stop-color:#1B4382"/>
		<stop  offset="0.8451" style="stop-color:#275E9C"/>
		<stop  offset="0.9043" style="stop-color:#357FBB"/>
		<stop  offset="0.9572" style="stop-color:#45A4DD"/>
		<stop  offset="1" style="stop-color:#55C8FF"/>
	</linearGradient>
	<path class="st33" d="M1174.9,980.1c0,0-20.5,0.8-21.6,24c-1.1,23.1,12,124.5,34.8,146.3c22.8,21.8,26.2-25.3,26.2-25.3
		S1211.3,978,1174.9,980.1z"/>
	<path class="st19" d="M1299.8,1150.4c0,0,27.5,7.6,47.2,1.2c19.7-6.3,15.2-7.3,14-10.4c-2.7-6.5-28-6.9-32.6-8.5
		c-4.6-1.6,4.3-4.6,6.4-7.6c2.2-3,6.9-6.4,5.5-7.6c-1.4-1.2-5.2-2.6-12.8,2.5c-7.5,5.1-26.1,11.2-26.1,11.2L1299.8,1150.4z"/>
	
		<linearGradient id="SVGID_6_" gradientUnits="userSpaceOnUse" x1="1245.8127" y1="440.1516" x2="1245.8127" y2="489.7899" gradientTransform="matrix(1 0 0 -1 0 1600)">
		<stop  offset="0" style="stop-color:#55C8FF"/>
		<stop  offset="4.280000e-02" style="stop-color:#45A4DD"/>
		<stop  offset="9.570000e-02" style="stop-color:#357FBB"/>
		<stop  offset="0.1549" style="stop-color:#275E9C"/>
		<stop  offset="0.2201" style="stop-color:#1B4382"/>
		<stop  offset="0.2934" style="stop-color:#122C6E"/>
		<stop  offset="0.3783" style="stop-color:#0A1B5E"/>
		<stop  offset="0.4824" style="stop-color:#050F52"/>
		<stop  offset="0.626" style="stop-color:#02084C"/>
		<stop  offset="1" style="stop-color:#01064A"/>
	</linearGradient>
	<path class="st34" d="M1305.6,1128.8c0,0-2,5.2-2.5,12.3c-0.6,8.6,2.8,14.7,2.8,14.7s-92.7,10.8-114.8-2.9c0,0-19.5-36.4,15.5-42.7
		L1305.6,1128.8z"/>
	
		<linearGradient id="SVGID_7_" gradientUnits="userSpaceOnUse" x1="1153.1947" y1="523.459" x2="1305.9402" y2="523.459" gradientTransform="matrix(1 0 0 -1 0 1600)">
		<stop  offset="0" style="stop-color:#55C8FF"/>
		<stop  offset="4.280000e-02" style="stop-color:#45A4DD"/>
		<stop  offset="9.570000e-02" style="stop-color:#357FBB"/>
		<stop  offset="0.1549" style="stop-color:#275E9C"/>
		<stop  offset="0.2201" style="stop-color:#1B4382"/>
		<stop  offset="0.2934" style="stop-color:#122C6E"/>
		<stop  offset="0.3783" style="stop-color:#0A1B5E"/>
		<stop  offset="0.4824" style="stop-color:#050F52"/>
		<stop  offset="0.626" style="stop-color:#02084C"/>
		<stop  offset="1" style="stop-color:#01064A"/>
	</linearGradient>
	<path class="st35" d="M1198.8,1156c-2.2,0-4.6-1-7.3-3c-0.1-0.1-0.2-0.1-0.3-0.2c0,0-0.1-0.1-0.1-0.2c-1-0.7-1.9-1.4-3-2.4
		c-22.8-21.8-35.9-123.2-34.8-146.3c0.2-4.5,1.3-7.8,2.6-10.8c5.3,26.3,30.3,146.9,40.8,149.9c9.6,2.7,81.1,4.4,106.8,4.9
		c0.8,4.7,2.5,7.7,2.5,7.7S1229.4,1164.7,1198.8,1156z"/>
	<g>
		
			<linearGradient id="SVGID_8_" gradientUnits="userSpaceOnUse" x1="1273.6387" y1="143.2103" x2="1379.2106" y2="143.2103" gradientTransform="matrix(1 0 0 -1 0 1600)">
			<stop  offset="0" style="stop-color:#55C8FF"/>
			<stop  offset="2.730000e-02" style="stop-color:#4DB6EE"/>
			<stop  offset="9.880000e-02" style="stop-color:#3B8DC8"/>
			<stop  offset="0.1769" style="stop-color:#2C69A6"/>
			<stop  offset="0.2606" style="stop-color:#1E4A89"/>
			<stop  offset="0.3519" style="stop-color:#143172"/>
			<stop  offset="0.4535" style="stop-color:#0B1E60"/>
			<stop  offset="0.5713" style="stop-color:#051054"/>
			<stop  offset="0.72" style="stop-color:#02084C"/>
			<stop  offset="1" style="stop-color:#01064A"/>
		</linearGradient>
		<path class="st36" d="M1274.7,1434.2c0,0-5.2,18.3,7.6,22.9c12.9,4.6,23.4,10.1,28.3,14c4.9,3.9,60.1,27.3,66.9,16.3
			c6.8-11.1-9.7-23.7-13.8-27.6c-4.2-3.9-41.8-36.4-41.8-36.4L1274.7,1434.2z"/>
		
			<linearGradient id="SVGID_9_" gradientUnits="userSpaceOnUse" x1="1229.0139" y1="111.4351" x2="1334.5693" y2="111.4351" gradientTransform="matrix(1 0 0 -1 0 1600)">
			<stop  offset="0" style="stop-color:#55C8FF"/>
			<stop  offset="2.730000e-02" style="stop-color:#4DB6EE"/>
			<stop  offset="9.880000e-02" style="stop-color:#3B8DC8"/>
			<stop  offset="0.1769" style="stop-color:#2C69A6"/>
			<stop  offset="0.2606" style="stop-color:#1E4A89"/>
			<stop  offset="0.3519" style="stop-color:#143172"/>
			<stop  offset="0.4535" style="stop-color:#0B1E60"/>
			<stop  offset="0.5713" style="stop-color:#051054"/>
			<stop  offset="0.72" style="stop-color:#02084C"/>
			<stop  offset="1" style="stop-color:#01064A"/>
		</linearGradient>
		<path class="st37" d="M1230,1466c0,0-5.2,18.3,7.7,22.9c12.8,4.5,23.4,10,28.3,13.9c4.9,3.9,60.1,27.4,66.9,16.3
			c6.8-11.1-9.7-23.7-13.8-27.5c-4.1-3.9-41.8-36.4-41.8-36.4L1230,1466z"/>
		
			<linearGradient id="SVGID_10_" gradientUnits="userSpaceOnUse" x1="1147.6479" y1="297.112" x2="1324.6982" y2="297.112" gradientTransform="matrix(1 0 0 -1 0 1600)">
			<stop  offset="0" style="stop-color:#55C8FF"/>
			<stop  offset="2.730000e-02" style="stop-color:#4DB6EE"/>
			<stop  offset="9.880000e-02" style="stop-color:#3B8DC8"/>
			<stop  offset="0.1769" style="stop-color:#2C69A6"/>
			<stop  offset="0.2606" style="stop-color:#1E4A89"/>
			<stop  offset="0.3519" style="stop-color:#143172"/>
			<stop  offset="0.4535" style="stop-color:#0B1E60"/>
			<stop  offset="0.5713" style="stop-color:#051054"/>
			<stop  offset="0.72" style="stop-color:#02084C"/>
			<stop  offset="1" style="stop-color:#01064A"/>
		</linearGradient>
		<path class="st38" d="M1182.3,1170.6c0,0,135.4,85.1,139.3,106.8c3.9,21.7,3.1,149.1,3.1,149.1s-34.7,14.9-51.4,5.6l-14-120.2
			c0,0-106.5-78.6-111.2-81.5C1143.3,1227.5,1182.3,1170.6,1182.3,1170.6z"/>
		
			<linearGradient id="SVGID_11_" gradientUnits="userSpaceOnUse" x1="1147.6439" y1="279.1759" x2="1304.0201" y2="279.1759" gradientTransform="matrix(1 0 0 -1 0 1600)">
			<stop  offset="0" style="stop-color:#00D7FF"/>
			<stop  offset="1.050000e-02" style="stop-color:#00D4FD"/>
			<stop  offset="0.3754" style="stop-color:#007DB1"/>
			<stop  offset="0.6728" style="stop-color:#013D79"/>
			<stop  offset="0.8882" style="stop-color:#011557"/>
			<stop  offset="1" style="stop-color:#01064A"/>
		</linearGradient>
		<path class="st39" d="M1148,1230.5c4.7,2.9,111.2,81.5,111.2,81.5l14,120.2c8.1,4.5,20.3,3.3,30.8,0.9
			c-4.7-36.5-15.5-116.8-19.3-137.2c-5.1-26.6-114.3-89.4-114.3-89.4l-22.2,20.8C1147.6,1229,1147.4,1230.1,1148,1230.5z"/>
		
			<linearGradient id="SVGID_12_" gradientUnits="userSpaceOnUse" x1="1062.4133" y1="278.1154" x2="1284.7" y2="278.1154" gradientTransform="matrix(1 0 0 -1 0 1600)">
			<stop  offset="0" style="stop-color:#55C8FF"/>
			<stop  offset="2.730000e-02" style="stop-color:#4DB6EE"/>
			<stop  offset="9.880000e-02" style="stop-color:#3B8DC8"/>
			<stop  offset="0.1769" style="stop-color:#2C69A6"/>
			<stop  offset="0.2606" style="stop-color:#1E4A89"/>
			<stop  offset="0.3519" style="stop-color:#143172"/>
			<stop  offset="0.4535" style="stop-color:#0B1E60"/>
			<stop  offset="0.5713" style="stop-color:#051054"/>
			<stop  offset="0.72" style="stop-color:#02084C"/>
			<stop  offset="1" style="stop-color:#01064A"/>
		</linearGradient>
		<path class="st40" d="M1182.4,1173.8c0,0-15.6,46.5-23.8,56.6c0,0,108.2,57.3,113.7,84.9c5.5,27.7,12.3,146.1,12.3,146.1
			s-24.2,15.8-56.8,4.2c0,0-12.1-91-13.4-127.6c0,0-163.6-43.3-151.5-132.8C1063.1,1205.3,1125.7,1230.2,1182.4,1173.8z"/>
		
			<linearGradient id="SVGID_13_" gradientUnits="userSpaceOnUse" x1="1062.5411" y1="260.3701" x2="1243.8601" y2="260.3701" gradientTransform="matrix(1 0 0 -1 0 1600)">
			<stop  offset="0" style="stop-color:#55C8FF"/>
			<stop  offset="2.730000e-02" style="stop-color:#4DB6EE"/>
			<stop  offset="9.880000e-02" style="stop-color:#3B8DC8"/>
			<stop  offset="0.1769" style="stop-color:#2C69A6"/>
			<stop  offset="0.2606" style="stop-color:#1E4A89"/>
			<stop  offset="0.3519" style="stop-color:#143172"/>
			<stop  offset="0.4535" style="stop-color:#0B1E60"/>
			<stop  offset="0.5713" style="stop-color:#051054"/>
			<stop  offset="0.72" style="stop-color:#02084C"/>
			<stop  offset="1" style="stop-color:#01064A"/>
		</linearGradient>
		<path class="st41" d="M1214.6,1338.1c1.3,36.6,13.4,127.6,13.4,127.6c5.6,2,10.9,3.1,15.9,3.7c-0.9-14.2-2.1-32.9-3.5-57.5
			c-5.4-91.8-19.6-90-19.6-90c-103.8-46.8-124.8-91.6-124.8-91.6l-33.3-20.5C1056.7,1296.3,1214.6,1338.1,1214.6,1338.1z"/>
	</g>
	
		<linearGradient id="SVGID_14_" gradientUnits="userSpaceOnUse" x1="1053.9167" y1="491.6158" x2="1199.7698" y2="491.6158" gradientTransform="matrix(1 0 0 -1 0 1600)">
		<stop  offset="0" style="stop-color:#55C8FF"/>
		<stop  offset="4.280000e-02" style="stop-color:#45A4DD"/>
		<stop  offset="9.570000e-02" style="stop-color:#357FBB"/>
		<stop  offset="0.1549" style="stop-color:#275E9C"/>
		<stop  offset="0.2201" style="stop-color:#1B4382"/>
		<stop  offset="0.2934" style="stop-color:#122C6E"/>
		<stop  offset="0.3783" style="stop-color:#0A1B5E"/>
		<stop  offset="0.4824" style="stop-color:#050F52"/>
		<stop  offset="0.626" style="stop-color:#02084C"/>
		<stop  offset="1" style="stop-color:#01064A"/>
	</linearGradient>
	<path class="st42" d="M1112.6,988.6c0,0-51.6,26.3-52.9,30.3c-1.3,4-14.7,13.6,4.4,58.9c0,0,25.7,49.3,12.8,98.5
		c-7.5,28.5-14.2,43.5-14.2,43.5s22.9,34,87.3,10.3c13-4.8,34.9-22.6,41.5-36.8c0,0-6-42.1,2.1-91.3c8.1-49.2,12.6-113.1-15.3-121.5
		C1178.3,980.5,1171.2,971.9,1112.6,988.6z"/>
	<path class="st43" d="M1130.7,972.8c0,0,37.5,19.8,20.8,48l17.6,9.7C1169.2,1030.6,1186.5,981,1130.7,972.8z"/>
	<path class="st19" d="M1106.7,952.9c0,0,15.8,24,3.3,40.2c-7,9,9.5,30.5,37.6,28.8c0,0,12.5-3.1,11.3-7.7
		c-2.9-10.3,1.2-16.2,5.7-24.1C1169,982.2,1106.7,952.9,1106.7,952.9z"/>
	<path class="st44" d="M1109.9,993c-0.8,1.1-1.3,2.3-1.5,3.7c10.6-10.8,30.8-11.6,30.8-11.6l-26.7-29.5c-1-0.5-1.9-0.9-2.7-1.3
		l-0.8,2.6C1112.8,964.6,1119.3,981,1109.9,993z"/>
	<path class="st45" d="M1158.8,1014.2c-2.7-16.4,1.2-16.2,5.7-24.1c1.2-2.2-2.6-6-8.8-10.3c-1.5,1.1-3.1,2.8-4.6,5.2
		c-10.9,16.8-10.8,29.9-9.5,36.9c1.9,0.1,3.8,0.3,5.8,0C1150.9,1021.3,1159.6,1019.3,1158.8,1014.2z"/>
	<g>
		<path class="st19" d="M1100.8,939.4c0,0,6.9,31.7,28.7,46.2c19.4,12.7,41.9,21.1,46-2c3.3-18.4,12.3-65.1-3.9-74.5
			c-20.9-12.1-28.5-27-52.7-18.1C1118.9,891,1091.3,903.7,1100.8,939.4z"/>
		<path class="st46" d="M1100.8,939.4c0,0,2.5,27.2,28.6,46.6c5.6,4.1,12.8,7.4,18.3,9.8c-10.2-7.5-11.2-9.8-19.1-19
			c-7.9-9.2,11.8-5.7-1.7-29.1c-4.5-8,17.8,2.3,22.8,2.2c29.8-0.7,27.6-17.8,28.2-25c-0.6-3.1-1.4-6.2-2.5-8.8l-2.8-5.5
			c-0.3-0.5-0.7-1-1-1.5c-3.3-4-6.4-7.6-9.7-10.6c-12.7,0.3-49,1.1-49.7,1.2c-0.5,0.2-6.7,8.6-12.5,16.6
			C1098.3,922.7,1098.3,930.3,1100.8,939.4z"/>
		
			<linearGradient id="SVGID_15_" gradientUnits="userSpaceOnUse" x1="1096.3746" y1="671.4948" x2="1181.9956" y2="671.4948" gradientTransform="matrix(1 0 0 -1 0 1600)">
			<stop  offset="0" style="stop-color:#55C8FF"/>
			<stop  offset="4.360000e-02" style="stop-color:#44A1DB"/>
			<stop  offset="9.350000e-02" style="stop-color:#357DB9"/>
			<stop  offset="0.1496" style="stop-color:#265D9B"/>
			<stop  offset="0.2116" style="stop-color:#1B4181"/>
			<stop  offset="0.2816" style="stop-color:#112B6D"/>
			<stop  offset="0.3634" style="stop-color:#0A1A5D"/>
			<stop  offset="0.4645" style="stop-color:#050F52"/>
			<stop  offset="0.6063" style="stop-color:#02084C"/>
			<stop  offset="1" style="stop-color:#01064A"/>
		</linearGradient>
		<path class="st47" d="M1113.9,970.2c0,0-24.1-22.1-15.7-53.9c0,0,4.5-25.5,32.8-28.9c13.6-1.6,39.6-0.8,49.9,26.6
			c3.2,8.5,1,27.2-32.5,18.5c-4.8-1.3-17.6-2.9-22.1,1.2c-4.5,4-5,11.7-2.8,18.2c1.9,5.7-3.1,6.3-3.8,5.1
			c-0.7-1.2-7.1-17.4-13.2-11.1C1101.1,951.5,1113.3,969,1113.9,970.2z"/>
		
			<linearGradient id="SVGID_16_" gradientUnits="userSpaceOnUse" x1="1096.3746" y1="665.92" x2="1148.47" y2="665.92" gradientTransform="matrix(1 0 0 -1 0 1600)">
			<stop  offset="0" style="stop-color:#55C8FF"/>
			<stop  offset="4.360000e-02" style="stop-color:#44A1DB"/>
			<stop  offset="9.350000e-02" style="stop-color:#357DB9"/>
			<stop  offset="0.1496" style="stop-color:#265D9B"/>
			<stop  offset="0.2116" style="stop-color:#1B4181"/>
			<stop  offset="0.2816" style="stop-color:#112B6D"/>
			<stop  offset="0.3634" style="stop-color:#0A1A5D"/>
			<stop  offset="0.4645" style="stop-color:#050F52"/>
			<stop  offset="0.6063" style="stop-color:#02084C"/>
			<stop  offset="1" style="stop-color:#01064A"/>
		</linearGradient>
		<path class="st48" d="M1113.9,970.2c-0.6-1.1-12.8-18.7-7.3-24.4c6.1-6.3,12.5,9.9,13.2,11.1c0.7,1.2,5.7,0.6,3.8-5.1
			c-2.2-6.5-1.7-14.1,2.8-18.2c4.1-3.7,15.3-1.8,22.1-1.2c-5.6-3.6-16.7-4.8-20.6-14.1c-5.3-12.4-12.7-18.2-19.7-20.4
			c-8.2,8.3-10,18.3-10,18.3C1089.8,948,1113.9,970.2,1113.9,970.2z"/>
	</g>
	<path class="st43" d="M1113.8,985.3c0,0,5.7,28.4,37.7,35.6l-9.2,22.3C1142.4,1043.2,1084.9,1014.4,1113.8,985.3z"/>
	
		<linearGradient id="SVGID_17_" gradientUnits="userSpaceOnUse" x1="1053.9169" y1="473.1751" x2="1112.7897" y2="473.1751" gradientTransform="matrix(1 0 0 -1 0 1600)">
		<stop  offset="0" style="stop-color:#55C8FF"/>
		<stop  offset="4.280000e-02" style="stop-color:#45A4DD"/>
		<stop  offset="9.570000e-02" style="stop-color:#357FBB"/>
		<stop  offset="0.1549" style="stop-color:#275E9C"/>
		<stop  offset="0.2201" style="stop-color:#1B4382"/>
		<stop  offset="0.2934" style="stop-color:#122C6E"/>
		<stop  offset="0.3783" style="stop-color:#0A1B5E"/>
		<stop  offset="0.4824" style="stop-color:#050F52"/>
		<stop  offset="0.626" style="stop-color:#02084C"/>
		<stop  offset="1" style="stop-color:#01064A"/>
	</linearGradient>
	<path class="st49" d="M1059.7,1018.9c-1.3,4-14.7,13.6,4.4,58.9c0,0,21.6,48.9,10.3,98.1c-4.8,21.1-7.1,16-15.1,34
		c-4.6,10.2,17.1,26.1,38.4,28c11-26.1,8-25.8,12.6-54.4c6.3-39.1,1.8-71.3-30.2-110.5c-28.1-34.5-16.3-47.9-16.9-57
		C1061.2,1017.2,1059.9,1018.3,1059.7,1018.9z"/>
	
		<linearGradient id="SVGID_18_" gradientUnits="userSpaceOnUse" x1="1106.9501" y1="688.9438" x2="1181.1217" y2="688.9438" gradientTransform="matrix(1 0 0 -1 0 1600)">
		<stop  offset="0" style="stop-color:#55C8FF"/>
		<stop  offset="4.360000e-02" style="stop-color:#44A1DB"/>
		<stop  offset="9.350000e-02" style="stop-color:#357DB9"/>
		<stop  offset="0.1496" style="stop-color:#265D9B"/>
		<stop  offset="0.2116" style="stop-color:#1B4181"/>
		<stop  offset="0.2816" style="stop-color:#112B6D"/>
		<stop  offset="0.3634" style="stop-color:#0A1A5D"/>
		<stop  offset="0.4645" style="stop-color:#050F52"/>
		<stop  offset="0.6063" style="stop-color:#02084C"/>
		<stop  offset="1" style="stop-color:#01064A"/>
	</linearGradient>
	<path class="st50" d="M1180.9,913.9c0,0,4.9,30.5-34,19.5c0,0-19.4-5.2-27.3-23.2c-1.7-3.8-6.2-10.2-12.7-10.9
		c0,0,10.4-14.7,37.2-12.8c12.6,0.9,25.7,13.2,28.9,15.2C1176.2,903.6,1171,916.4,1180.9,913.9z"/>
	<g>
		<g>
			<g class="st13">
				<g>
					<polygon class="st25" points="1115.1,1233.1 1114.7,1238 1185.7,1288.7 1186.1,1283.7 					"/>
				</g>
				<g>
					<polygon class="st26" points="1186.1,1283.7 1185.7,1288.7 1318.4,1227.7 1318.8,1222.8 					"/>
				</g>
				<g>
					<polygon class="st27" points="1115.1,1233.1 1186.1,1283.7 1318.8,1222.8 1247.8,1172.1 					"/>
				</g>
			</g>
		</g>
		<g>
			<g class="st13">
				<g>
					<polygon class="st28" points="1207.4,1199.6 1202.2,1194.7 1180,1283.5 1185.3,1288.4 					"/>
				</g>
				<g>
					<polygon class="st29" points="1346.2,1135.9 1340.8,1131 1202.2,1194.7 1207.4,1199.6 					"/>
				</g>
				<g>
					<polygon class="st30" points="1207.4,1199.6 1185.3,1288.4 1324,1224.6 1346.2,1135.9 					"/>
				</g>
				<g>
					<polygon class="st31" points="1207.4,1199.6 1207.4,1199.6 1324,1224.6 1346.2,1135.9 					"/>
				</g>
			</g>
		</g>
	</g>
	<g>
		<path class="st19" d="M1139.4,1238.5c0,0,25.6,30.9,56.4,30.7c0,0,1.4-7.8-11.2-13.1c-12.6-5.4-15.8-16.5-15.4-18
			c0.4-1.5,10.9-0.4,15.6,0.2c4.7,0.7,11.5-4.6,0.3-7.4c-11.1-2.9-29.6-10.9-41-10.6C1144.1,1220.2,1130.9,1229.9,1139.4,1238.5z"/>
		
			<linearGradient id="SVGID_19_" gradientUnits="userSpaceOnUse" x1="1015.4894" y1="471.68" x2="1149.4301" y2="471.68" gradientTransform="matrix(1 0 0 -1 0 1600)">
			<stop  offset="0" style="stop-color:#55C8FF"/>
			<stop  offset="2.730000e-02" style="stop-color:#4DB6EE"/>
			<stop  offset="9.880000e-02" style="stop-color:#3B8DC8"/>
			<stop  offset="0.1769" style="stop-color:#2C69A6"/>
			<stop  offset="0.2606" style="stop-color:#1E4A89"/>
			<stop  offset="0.3519" style="stop-color:#143172"/>
			<stop  offset="0.4535" style="stop-color:#0B1E60"/>
			<stop  offset="0.5713" style="stop-color:#051054"/>
			<stop  offset="0.72" style="stop-color:#02084C"/>
			<stop  offset="1" style="stop-color:#01064A"/>
		</linearGradient>
		<path class="st51" d="M1081.1,1011.4c0,0-26,1-36.3,21.8c-10.2,20.8-38.6,118.9-26.3,148c12.3,29.1,121.6,64,121.6,64
			c-4.8-18.5,9.3-30.4,9.3-30.4l-89-58.9C1060.4,1155.9,1103.3,1025.5,1081.1,1011.4z"/>
		
			<linearGradient id="SVGID_20_" gradientUnits="userSpaceOnUse" x1="1045.1323" y1="481.0551" x2="1149.4199" y2="481.0551" gradientTransform="matrix(1 0 0 -1 0 1600)">
			<stop  offset="0" style="stop-color:#55C8FF"/>
			<stop  offset="4.280000e-02" style="stop-color:#45A4DD"/>
			<stop  offset="9.570000e-02" style="stop-color:#357FBB"/>
			<stop  offset="0.1549" style="stop-color:#275E9C"/>
			<stop  offset="0.2201" style="stop-color:#1B4382"/>
			<stop  offset="0.2934" style="stop-color:#122C6E"/>
			<stop  offset="0.3783" style="stop-color:#0A1B5E"/>
			<stop  offset="0.4824" style="stop-color:#050F52"/>
			<stop  offset="0.626" style="stop-color:#02084C"/>
			<stop  offset="1" style="stop-color:#01064A"/>
		</linearGradient>
		<path class="st52" d="M1060.4,1155.9l89,58.9c0,0-2.4,2.1-4.9,5.8c-21.6-12.3-92.8-53.5-98.7-64.5c-6.5-12,33.3-121.8,39.5-138.8
			C1096.3,1046.5,1060.4,1155.9,1060.4,1155.9z"/>
	</g>
</g>
<path class="st53" d="M1105.6,542.3c0,0-10.2,69.8-85.1,109.8v64.5c0,0,82.1-46,86.2-94.3L1105.6,542.3z"/>
<path class="st54" d="M536,681.6c0,0-93.8-44.2-106.8-144.7l-6.8,70.3c0,0,0,81.5,115.2,125.6L536,681.6z"/>
<path class="st54" d="M640.3,459.7l-0.1,23.9c0,0,61.2-21,172.1-11.5v-20.6C812.3,451.5,735.6,435.5,640.3,459.7z"/>
<path class="st55" d="M425,732.4c15.6-30.1,54.7-74.3,96.8-97c43.2-23.3,98.9-47,153.4-53.7l-0.7-93.9
	c-54.5,6.7-106.3,21.6-149.5,45C436.7,580.4,414.4,648.5,425,732.4z"/>
<path class="st55" d="M1107.5,742.6c21.9-81.5-1.5-150.1-87.8-203.6c-31.6-19.5-68.2-34.6-107.5-45.2l-3.2,102.6
	c39.2,10.6,75.9,25.7,107.5,45.2C1058,667.3,1093.6,711.2,1107.5,742.6z"/>
<path class="st53" d="M584.9,491.8c0,0-84.4,22.9-123.1,72.4v-46.7c0,0,32.2-32.9,123.1-67.2V491.8z"/>
<path class="st53" d="M868.8,429.5V475c0,0,87.4,3.3,194.8,76.1v-57.3C1063.6,493.9,996.8,447.9,868.8,429.5z"/>
<path class="st56" d="M479.2,564.2c0,0,7-6,20.5-15c13.5-8.9,33.3-20.9,58.6-32.5c12.7-5.8,26.5-11.5,41.6-16.9
	c15-5.2,31-10.4,48-14.3c16.9-4.2,34.6-7.2,52.8-9.8c18.1-2.1,36.7-3.9,55.3-4c18.6-0.4,37.2,0.8,55.4,2.5
	c9.1,0.7,18.1,2.3,26.9,3.4c8.9,1.3,17.5,3.1,26.1,4.7c17,3.6,33.3,7.8,48.5,12.7c7.7,2.2,15,4.8,22,7.4c7,2.7,13.9,4.8,20.3,7.6
	c12.8,5.4,24.6,10.1,34.6,15.4c10.1,5,19,9.1,26,13.2c14.1,7.9,22.1,12.5,22.1,12.5s-8.3-4-22.8-11.1c-7.1-3.8-16.2-7.4-26.5-12
	c-10.2-4.7-22.2-8.8-35-13.9c-6.4-2.6-13.3-4.5-20.3-6.9c-7-2.4-14.3-4.8-22-6.7c-15.1-4.4-31.4-8-48.2-11.5
	c-8.5-1.4-17-3.2-25.8-4.4c-8.8-1-17.6-2.5-26.6-3.1c-18-1.5-36.3-2.4-54.5-2c-18.3-0.1-36.6,1.5-54.5,3.4
	c-17.9,2.3-35.4,5.1-52.1,9.1c-33.5,7.5-64,17.8-89.4,28.6c-12.6,5.5-24.2,10.7-34.1,15.8c-10,5.1-18.5,9.8-25.4,14
	C486.7,558.7,479.2,564.2,479.2,564.2z"/>
<g>
	<g class="st8">
		<path class="st57" d="M668.1,563.2c34.4-8.1,71.4-13.3,110-15.1V701c-38.7,1.8-75.7,7-110,15.1V563.2z"/>
		<path class="st57" d="M842.6,548.4c30.5,1.7,59.8,5.5,87.6,11.1v152.9c-27.8-5.7-57.2-9.4-87.6-11.1V548.4z"/>
	</g>
	<g>
		<g>
			
				<linearGradient id="SVGID_21_" gradientUnits="userSpaceOnUse" x1="689.46" y1="1013.2225" x2="689.46" y2="442.056" gradientTransform="matrix(1 0 0 -1 0 1600)">
				<stop  offset="0" style="stop-color:#00D7FF"/>
				<stop  offset="1.050000e-02" style="stop-color:#00D4FD"/>
				<stop  offset="0.3754" style="stop-color:#007DB1"/>
				<stop  offset="0.6728" style="stop-color:#013D79"/>
				<stop  offset="0.8882" style="stop-color:#011557"/>
				<stop  offset="1" style="stop-color:#01064A"/>
			</linearGradient>
			<polygon class="st58" points="567.7,473.2 567.7,1017.4 811.2,1155.2 811.2,612 			"/>
			
				<linearGradient id="SVGID_22_" gradientUnits="userSpaceOnUse" x1="1639.6429" y1="802.875" x2="1839.543" y2="802.875" gradientTransform="matrix(1 0 0 -1 -1050.1329 1600)">
				<stop  offset="0" style="stop-color:#01064A"/>
				<stop  offset="0.126" style="stop-color:#010A4E"/>
				<stop  offset="0.2641" style="stop-color:#011859"/>
				<stop  offset="0.4081" style="stop-color:#012E6C"/>
				<stop  offset="0.556" style="stop-color:#014C87"/>
				<stop  offset="0.7072" style="stop-color:#0074A9"/>
				<stop  offset="0.8585" style="stop-color:#00A3D2"/>
				<stop  offset="1" style="stop-color:#00D7FF"/>
			</linearGradient>
			<polygon class="st59" points="589.5,517.2 589.5,964 789.4,1077.1 789.4,631.1 			"/>
			
				<linearGradient id="SVGID_23_" gradientUnits="userSpaceOnUse" x1="1731.0383" y1="1046.428" x2="1757.7727" y2="1092.1007" gradientTransform="matrix(1 0 0 -1 -1050.1329 1600)">
				<stop  offset="0" style="stop-color:#00D7FF"/>
				<stop  offset="0.1104" style="stop-color:#00BFEA"/>
				<stop  offset="0.4193" style="stop-color:#0181B4"/>
				<stop  offset="0.6812" style="stop-color:#01548D"/>
				<stop  offset="0.8829" style="stop-color:#013875"/>
				<stop  offset="1" style="stop-color:#012E6C"/>
			</linearGradient>
			<polygon class="st60" points="811.2,612 821.8,586.7 577.6,449 567.7,473.2 			"/>
			<polygon class="st61" points="612.5,530.3 612.5,951.8 589.5,964 589.5,517.2 			"/>
			<polygon class="st62" points="612.5,951.8 789.4,1049 789.4,1077.1 589.5,964 			"/>
			
				<linearGradient id="SVGID_24_" gradientUnits="userSpaceOnUse" x1="1900.4292" y1="1240.1891" x2="1780.4502" y2="1012.8604" gradientTransform="matrix(1 0 0 -1 -1050.1329 1600)">
				<stop  offset="0" style="stop-color:#0073A9"/>
				<stop  offset="1.455247e-03" style="stop-color:#0073A9"/>
				<stop  offset="0.3235" style="stop-color:#004480"/>
				<stop  offset="0.6088" style="stop-color:#012263"/>
				<stop  offset="0.844" style="stop-color:#010D51"/>
				<stop  offset="1" style="stop-color:#01064A"/>
			</linearGradient>
			<polygon class="st63" points="577.6,449 774.2,336.1 1016.1,473.2 821.8,586.7 			"/>
			
				<linearGradient id="SVGID_25_" gradientUnits="userSpaceOnUse" x1="1859.4329" y1="786.64" x2="2067.1528" y2="786.64" gradientTransform="matrix(1 0 0 -1 -1050.1329 1600)">
				<stop  offset="0" style="stop-color:#00D7FF"/>
				<stop  offset="0.1415" style="stop-color:#00A3D2"/>
				<stop  offset="0.2928" style="stop-color:#0074A9"/>
				<stop  offset="0.444" style="stop-color:#014C87"/>
				<stop  offset="0.5919" style="stop-color:#012E6C"/>
				<stop  offset="0.7359" style="stop-color:#011859"/>
				<stop  offset="0.874" style="stop-color:#010A4E"/>
				<stop  offset="1" style="stop-color:#01064A"/>
			</linearGradient>
			<polygon class="st64" points="813.1,1155.2 809.3,1155.2 809.3,611.6 820.3,585.3 1015.1,471.6 1017,474.8 823.3,588 
				813.1,612.4 			"/>
			<g>
				<g>
					
						<linearGradient id="SVGID_26_" gradientUnits="userSpaceOnUse" x1="1666.0759" y1="1052.2032" x2="1842.7948" y2="907.3019" gradientTransform="matrix(1 0 0 -1 -1050.1329 1600)">
						<stop  offset="0" style="stop-color:#011153"/>
						<stop  offset="0.1659" style="stop-color:#011456"/>
						<stop  offset="0.3097" style="stop-color:#011F5F"/>
						<stop  offset="0.4454" style="stop-color:#01316F"/>
						<stop  offset="0.5761" style="stop-color:#014A85"/>
						<stop  offset="0.7032" style="stop-color:#016AA1"/>
						<stop  offset="0.8277" style="stop-color:#0092C3"/>
						<stop  offset="0.9477" style="stop-color:#00C0EB"/>
						<stop  offset="1" style="stop-color:#00D7FF"/>
					</linearGradient>
					<polygon class="st65" points="612.5,543.5 789.4,644.4 789.4,692.9 612.5,590.6 					"/>
					<g>
						<polygon class="st66" points="617.8,552.9 617.8,565.3 627.4,570.8 627.4,558.3 						"/>
						<polygon class="st67" points="639.3,565 639.3,577.4 648.9,582.9 648.9,570.4 						"/>
						<polygon class="st68" points="661.5,577.8 661.5,590.3 671,595.7 671,583.3 						"/>
						<polygon class="st67" points="683,590 683,602.4 692.5,607.8 692.5,595.4 						"/>
						<polygon class="st69" points="705,602.2 705,614.7 714.6,620.1 714.6,607.7 						"/>
						<polygon class="st68" points="726.5,614.3 726.5,626.8 736.1,632.2 736.1,619.8 						"/>
						<polygon class="st68" points="748.7,627.2 748.7,639.6 758.3,645 758.3,632.6 						"/>
						<polygon class="st69" points="770.2,639.3 770.2,651.7 779.8,657.2 779.8,644.7 						"/>
						<polygon class="st69" points="617.8,575.8 617.8,588.3 627.4,593.7 627.4,581.3 						"/>
						<polygon class="st68" points="639.3,588 639.3,600.4 648.9,605.8 648.9,593.4 						"/>
						<polygon class="st67" points="661.5,600.8 661.5,613.2 671,618.7 671,606.2 						"/>
						<polygon class="st68" points="683,612.9 683,625.4 692.5,630.8 692.5,618.4 						"/>
						<polygon class="st69" points="705,625.2 705,637.6 714.6,643 714.6,630.6 						"/>
						<polygon class="st67" points="726.5,637.3 726.5,649.7 736.1,655.2 736.1,642.7 						"/>
						<polygon class="st68" points="748.7,650.1 748.7,662.6 758.3,668 758.3,655.6 						"/>
						<polygon class="st68" points="770.2,662.3 770.2,674.7 779.8,680.1 779.8,667.7 						"/>
					</g>
				</g>
				<g>
					
						<linearGradient id="SVGID_27_" gradientUnits="userSpaceOnUse" x1="1666.0769" y1="984.6075" x2="1842.7957" y2="839.7062" gradientTransform="matrix(1 0 0 -1 -1050.1329 1600)">
						<stop  offset="0" style="stop-color:#011153"/>
						<stop  offset="0.1659" style="stop-color:#011456"/>
						<stop  offset="0.3097" style="stop-color:#011F5F"/>
						<stop  offset="0.4454" style="stop-color:#01316F"/>
						<stop  offset="0.5761" style="stop-color:#014A85"/>
						<stop  offset="0.7032" style="stop-color:#016AA1"/>
						<stop  offset="0.8277" style="stop-color:#0092C3"/>
						<stop  offset="0.9477" style="stop-color:#00C0EB"/>
						<stop  offset="1" style="stop-color:#00D7FF"/>
					</linearGradient>
					<polygon class="st70" points="612.5,611.2 789.4,712 789.4,760.5 612.5,658.2 					"/>
					<g>
						<polygon class="st68" points="617.8,620.5 617.8,632.9 627.4,638.3 627.4,625.9 						"/>
						<polygon class="st69" points="639.3,632.6 639.3,645 648.9,650.5 648.9,638 						"/>
						<polygon class="st68" points="661.5,645.4 661.5,657.9 671,663.3 671,650.9 						"/>
						<polygon class="st67" points="683,657.5 683,670 692.5,675.4 692.5,663 						"/>
						<polygon class="st69" points="705,669.8 705,682.3 714.6,687.7 714.6,675.3 						"/>
						<polygon class="st67" points="726.5,681.9 726.5,694.4 736.1,699.8 736.1,687.4 						"/>
						<polygon class="st68" points="748.7,694.8 748.7,707.2 758.3,712.6 758.3,700.2 						"/>
						<polygon class="st67" points="770.2,706.9 770.2,719.3 779.8,724.8 779.8,712.3 						"/>
						<polygon class="st69" points="617.8,643.4 617.8,655.9 627.4,661.3 627.4,648.9 						"/>
						<polygon class="st68" points="639.3,655.6 639.3,668 648.9,673.4 648.9,661 						"/>
						<polygon class="st67" points="661.5,668.4 661.5,680.8 671,686.3 671,673.8 						"/>
						<polygon class="st69" points="683,680.5 683,693 692.5,698.4 692.5,686 						"/>
						<polygon class="st68" points="705,692.8 705,705.2 714.6,710.7 714.6,698.2 						"/>
						<polygon class="st67" points="726.5,704.9 726.5,717.3 736.1,722.8 736.1,710.3 						"/>
						<polygon class="st69" points="748.7,717.7 748.7,730.2 758.3,735.6 758.3,723.2 						"/>
						<polygon class="st69" points="770.2,729.9 770.2,742.3 779.8,747.7 779.8,735.3 						"/>
					</g>
				</g>
				<g>
					
						<linearGradient id="SVGID_28_" gradientUnits="userSpaceOnUse" x1="1666.0776" y1="917.0119" x2="1842.7965" y2="772.1105" gradientTransform="matrix(1 0 0 -1 -1050.1329 1600)">
						<stop  offset="0" style="stop-color:#011153"/>
						<stop  offset="0.1659" style="stop-color:#011456"/>
						<stop  offset="0.3097" style="stop-color:#011F5F"/>
						<stop  offset="0.4454" style="stop-color:#01316F"/>
						<stop  offset="0.5761" style="stop-color:#014A85"/>
						<stop  offset="0.7032" style="stop-color:#016AA1"/>
						<stop  offset="0.8277" style="stop-color:#0092C3"/>
						<stop  offset="0.9477" style="stop-color:#00C0EB"/>
						<stop  offset="1" style="stop-color:#00D7FF"/>
					</linearGradient>
					<polygon class="st71" points="612.5,678.8 789.4,779.6 789.4,828.1 612.5,725.8 					"/>
					<g>
						<polygon class="st69" points="617.8,688.1 617.8,700.5 627.4,705.9 627.4,693.5 						"/>
						<polygon class="st67" points="639.3,700.2 639.3,712.6 648.9,718.1 648.9,705.6 						"/>
						<polygon class="st68" points="661.5,713 661.5,725.5 671,730.9 671,718.5 						"/>
						<polygon class="st69" points="683,725.2 683,737.6 692.5,743 692.5,730.6 						"/>
						<polygon class="st69" points="705,737.4 705,749.8 714.6,755.3 714.6,742.8 						"/>
						<polygon class="st67" points="726.5,749.5 726.5,762 736.1,767.4 736.1,755 						"/>
						<polygon class="st69" points="748.7,762.4 748.7,774.8 758.3,780.2 758.3,767.8 						"/>
						<polygon class="st69" points="770.2,774.5 770.2,786.9 779.8,792.4 779.8,779.9 						"/>
						<polygon class="st69" points="617.8,711 617.8,723.5 627.4,728.9 627.4,716.5 						"/>
						<polygon class="st69" points="639.3,723.2 639.3,735.6 648.9,741 648.9,728.6 						"/>
						<polygon class="st69" points="661.5,736 661.5,748.4 671,753.9 671,741.4 						"/>
						<polygon class="st68" points="683,748.1 683,760.5 692.5,766 692.5,753.5 						"/>
						<polygon class="st69" points="705,760.4 705,772.8 714.6,778.3 714.6,765.8 						"/>
						<polygon class="st69" points="726.5,772.5 726.5,784.9 736.1,790.4 736.1,777.9 						"/>
						<polygon class="st68" points="748.7,785.3 748.7,797.8 758.3,803.2 758.3,790.8 						"/>
						<polygon class="st68" points="770.2,797.5 770.2,809.9 779.8,815.3 779.8,802.9 						"/>
					</g>
				</g>
				<g>
					
						<linearGradient id="SVGID_29_" gradientUnits="userSpaceOnUse" x1="1666.076" y1="849.4131" x2="1842.7948" y2="704.5118" gradientTransform="matrix(1 0 0 -1 -1050.1329 1600)">
						<stop  offset="0" style="stop-color:#011153"/>
						<stop  offset="0.1659" style="stop-color:#011456"/>
						<stop  offset="0.3097" style="stop-color:#011F5F"/>
						<stop  offset="0.4454" style="stop-color:#01316F"/>
						<stop  offset="0.5761" style="stop-color:#014A85"/>
						<stop  offset="0.7032" style="stop-color:#016AA1"/>
						<stop  offset="0.8277" style="stop-color:#0092C3"/>
						<stop  offset="0.9477" style="stop-color:#00C0EB"/>
						<stop  offset="1" style="stop-color:#00D7FF"/>
					</linearGradient>
					<polygon class="st72" points="612.5,746.3 789.4,847.2 789.4,895.7 612.5,793.4 					"/>
					<g>
						<polygon class="st68" points="617.8,755.7 617.8,768.1 627.4,773.5 627.4,761.1 						"/>
						<polygon class="st68" points="639.3,767.8 639.3,780.2 648.9,785.7 648.9,773.2 						"/>
						<polygon class="st68" points="661.5,780.6 661.5,793.1 671,798.5 671,786.1 						"/>
						<polygon class="st68" points="683,792.8 683,805.2 692.5,810.6 692.5,798.2 						"/>
						<polygon class="st69" points="705,805 705,817.4 714.6,822.9 714.6,810.4 						"/>
						<polygon class="st67" points="726.5,817.1 726.5,829.6 736.1,835 736.1,822.6 						"/>
						<polygon class="st67" points="748.7,830 748.7,842.4 758.3,847.8 758.3,835.4 						"/>
						<polygon class="st68" points="770.2,842.1 770.2,854.5 779.8,860 779.8,847.5 						"/>
						<polygon class="st69" points="617.8,778.6 617.8,791.1 627.4,796.5 627.4,784.1 						"/>
						<polygon class="st68" points="639.3,790.8 639.3,803.2 648.9,808.6 648.9,796.2 						"/>
						<polygon class="st67" points="661.5,803.6 661.5,816 671,821.5 671,809 						"/>
						<polygon class="st68" points="683,815.7 683,828.2 692.5,833.6 692.5,821.2 						"/>
						<polygon class="st67" points="705,828 705,840.4 714.6,845.8 714.6,833.4 						"/>
						<polygon class="st67" points="726.5,840.1 726.5,852.5 736.1,858 736.1,845.5 						"/>
						<polygon class="st68" points="748.7,852.9 748.7,865.4 758.3,870.8 758.3,858.4 						"/>
						<polygon class="st68" points="770.2,865 770.2,877.5 779.8,882.9 779.8,870.5 						"/>
					</g>
				</g>
				<g>
					
						<linearGradient id="SVGID_30_" gradientUnits="userSpaceOnUse" x1="1666.0768" y1="781.8176" x2="1842.7955" y2="636.9162" gradientTransform="matrix(1 0 0 -1 -1050.1329 1600)">
						<stop  offset="0" style="stop-color:#011153"/>
						<stop  offset="0.1659" style="stop-color:#011456"/>
						<stop  offset="0.3097" style="stop-color:#011F5F"/>
						<stop  offset="0.4454" style="stop-color:#01316F"/>
						<stop  offset="0.5761" style="stop-color:#014A85"/>
						<stop  offset="0.7032" style="stop-color:#016AA1"/>
						<stop  offset="0.8277" style="stop-color:#0092C3"/>
						<stop  offset="0.9477" style="stop-color:#00C0EB"/>
						<stop  offset="1" style="stop-color:#00D7FF"/>
					</linearGradient>
					<polygon class="st73" points="612.5,813.9 789.4,914.8 789.4,963.3 612.5,861 					"/>
					<g>
						<polygon class="st66" points="617.8,823.3 617.8,835.7 627.4,841.1 627.4,828.7 						"/>
						<polygon class="st67" points="639.3,835.4 639.3,847.8 648.9,853.3 648.9,840.8 						"/>
						<polygon class="st67" points="661.5,848.2 661.5,860.7 671,866.1 671,853.7 						"/>
						<polygon class="st67" points="683,860.3 683,872.8 692.5,878.2 692.5,865.8 						"/>
						<polygon class="st67" points="705,872.6 705,885 714.6,890.5 714.6,878 						"/>
						<polygon class="st68" points="726.5,884.7 726.5,897.2 736.1,902.6 736.1,890.2 						"/>
						<polygon class="st68" points="748.7,897.6 748.7,910 758.3,915.4 758.3,903 						"/>
						<polygon class="st68" points="770.2,909.7 770.2,922.1 779.8,927.6 779.8,915.1 						"/>
						<polygon class="st67" points="617.8,846.2 617.8,858.7 627.4,864.1 627.4,851.7 						"/>
						<polygon class="st67" points="639.3,858.3 639.3,870.8 648.9,876.2 648.9,863.8 						"/>
						<polygon class="st67" points="661.5,871.2 661.5,883.6 671,889.1 671,876.6 						"/>
						<polygon class="st68" points="683,883.3 683,895.8 692.5,901.2 692.5,888.7 						"/>
						<polygon class="st69" points="705,895.6 705,908 714.6,913.4 714.6,901 						"/>
						<polygon class="st67" points="726.5,907.7 726.5,920.1 736.1,925.6 736.1,913.1 						"/>
						<polygon class="st68" points="748.7,920.5 748.7,933 758.3,938.4 758.3,926 						"/>
						<polygon class="st68" points="770.2,932.7 770.2,945.1 779.8,950.5 779.8,938.1 						"/>
					</g>
				</g>
				<g>
					
						<linearGradient id="SVGID_31_" gradientUnits="userSpaceOnUse" x1="1666.0775" y1="714.222" x2="1842.7964" y2="569.3206" gradientTransform="matrix(1 0 0 -1 -1050.1329 1600)">
						<stop  offset="0" style="stop-color:#011153"/>
						<stop  offset="0.1659" style="stop-color:#011456"/>
						<stop  offset="0.3097" style="stop-color:#011F5F"/>
						<stop  offset="0.4454" style="stop-color:#01316F"/>
						<stop  offset="0.5761" style="stop-color:#014A85"/>
						<stop  offset="0.7032" style="stop-color:#016AA1"/>
						<stop  offset="0.8277" style="stop-color:#0092C3"/>
						<stop  offset="0.9477" style="stop-color:#00C0EB"/>
						<stop  offset="1" style="stop-color:#00D7FF"/>
					</linearGradient>
					<polygon class="st74" points="612.5,881.5 789.4,982.4 789.4,1030.9 612.5,928.6 					"/>
					<g>
						<polygon class="st69" points="617.8,890.8 617.8,903.3 627.4,908.7 627.4,896.3 						"/>
						<polygon class="st67" points="639.3,903 639.3,915.4 648.9,920.9 648.9,908.4 						"/>
						<polygon class="st68" points="661.5,915.8 661.5,928.3 671,933.7 671,921.3 						"/>
						<polygon class="st67" points="683,927.9 683,940.4 692.5,945.8 692.5,933.4 						"/>
						<polygon class="st67" points="705,940.2 705,952.6 714.6,958.1 714.6,945.6 						"/>
						<polygon class="st68" points="726.5,952.3 726.5,964.8 736.1,970.2 736.1,957.8 						"/>
						<polygon class="st68" points="748.7,965.2 748.7,977.6 758.3,983 758.3,970.6 						"/>
						<polygon class="st67" points="770.2,977.3 770.2,989.7 779.8,995.2 779.8,982.7 						"/>
						<polygon class="st69" points="617.8,913.8 617.8,926.3 627.4,931.7 627.4,919.3 						"/>
						<polygon class="st68" points="639.3,925.9 639.3,938.4 648.9,943.8 648.9,931.4 						"/>
						<polygon class="st67" points="661.5,938.8 661.5,951.2 671,956.7 671,944.2 						"/>
						<polygon class="st68" points="683,950.9 683,963.3 692.5,968.8 692.5,956.3 						"/>
						<polygon class="st69" points="705,963.2 705,975.6 714.6,981 714.6,968.6 						"/>
						<polygon class="st67" points="726.5,975.3 726.5,987.7 736.1,993.2 736.1,980.7 						"/>
						<polygon class="st67" points="748.7,988.1 748.7,1000.6 758.3,1006 758.3,993.5 						"/>
						<polygon class="st68" points="770.2,1000.2 770.2,1012.7 779.8,1018.1 779.8,1005.7 						"/>
					</g>
				</g>
			</g>
			
				<linearGradient id="SVGID_32_" gradientUnits="userSpaceOnUse" x1="1861.323" y1="785.825" x2="2066.1929" y2="785.825" gradientTransform="matrix(1 0 0 -1 -1050.1329 1600)">
				<stop  offset="0" style="stop-color:#01064A"/>
				<stop  offset="8.520000e-02" style="stop-color:#011456"/>
				<stop  offset="0.3667" style="stop-color:#003D7A"/>
				<stop  offset="0.6227" style="stop-color:#005B94"/>
				<stop  offset="0.8424" style="stop-color:#006DA3"/>
				<stop  offset="1" style="stop-color:#0073A9"/>
			</linearGradient>
			<polygon class="st75" points="811.2,1155.2 1016.1,1041 1016.1,473.2 821.8,586.7 811.2,612 			"/>
		</g>
		<g>
			<polygon class="st76" points="909.8,467.5 793.8,402.1 675.1,469 790.8,535.3 			"/>
			<g>
				<g>
					<defs>
						<polygon id="SVGID_33_" points="1,1 2,1 1,2 						"/>
					</defs>
					<defs>
						<polygon id="SVGID_34_" points="-1,-1 -2,-1 -1,-2 						"/>
					</defs>
					<clipPath id="SVGID_35_">
						<use xlink:href="#SVGID_33_"  style="overflow:visible;"/>
					</clipPath>
					<clipPath id="SVGID_36_" class="st77">
						<use xlink:href="#SVGID_34_"  style="overflow:visible;"/>
					</clipPath>
					
						<linearGradient id="SVGID_37_" gradientUnits="userSpaceOnUse" x1="-341.4656" y1="1131.95" x2="-455.8557" y2="1131.95" gradientTransform="matrix(-1 0 0 -1 451.9482 1600)">
						<stop  offset="0" style="stop-color:#666666"/>
						<stop  offset="0.2806" style="stop-color:#868686"/>
						<stop  offset="0.7587" style="stop-color:#B9B9B9"/>
						<stop  offset="0.9946" style="stop-color:#CCCCCC"/>
					</linearGradient>
					<polygon class="st78" points="793.8,402.1 793.8,534 909.8,467.5 					"/>
				</g>
			</g>
			
				<linearGradient id="SVGID_38_" gradientUnits="userSpaceOnUse" x1="-341.4656" y1="1131.95" x2="-455.8557" y2="1131.95" gradientTransform="matrix(-1 0 0 -1 451.9482 1600)">
				<stop  offset="0" style="stop-color:#01064A"/>
				<stop  offset="0.2946" style="stop-color:#085186"/>
				<stop  offset="0.6345" style="stop-color:#0FA2C7"/>
				<stop  offset="0.8762" style="stop-color:#13D4EF"/>
				<stop  offset="0.9946" style="stop-color:#15E8FF"/>
			</linearGradient>
			<polygon class="st79" points="793.8,402.1 793.8,534 909.8,467.5 			"/>
			<g>
				<g>
					<defs>
						<polygon id="SVGID_39_" points="1,1 2,1 1,2 						"/>
					</defs>
					<defs>
						<polygon id="SVGID_40_" points="-1,-1 -2,-1 -1,-2 						"/>
					</defs>
					<clipPath id="SVGID_41_">
						<use xlink:href="#SVGID_39_"  style="overflow:visible;"/>
					</clipPath>
					<clipPath id="SVGID_42_" class="st80">
						<use xlink:href="#SVGID_40_"  style="overflow:visible;"/>
					</clipPath>
					
						<linearGradient id="SVGID_43_" gradientUnits="userSpaceOnUse" x1="-341.9018" y1="1449.1613" x2="-341.9018" y2="1062.8571" gradientTransform="matrix(-1 0 0 -1 451.9482 1600)">
						<stop  offset="0" style="stop-color:#000000"/>
						<stop  offset="8.460000e-02" style="stop-color:#090909"/>
						<stop  offset="0.22" style="stop-color:#202020"/>
						<stop  offset="0.3891" style="stop-color:#464646"/>
						<stop  offset="0.5854" style="stop-color:#7B7B7B"/>
						<stop  offset="0.8016" style="stop-color:#BDBDBD"/>
						<stop  offset="0.9946" style="stop-color:#FFFFFF"/>
					</linearGradient>
					<polygon class="st81" points="676.5,470.7 792.8,536.9 911.2,469.5 911.2,150 676.5,150 					"/>
				</g>
			</g>
			<g class="st8">
				<g>
					<g>
						<defs>
							<polygon id="SVGID_44_" points="1,1 2,1 1,2 							"/>
						</defs>
						<defs>
							<polygon id="SVGID_45_" points="-1,-1 -2,-1 -1,-2 							"/>
						</defs>
						<clipPath id="SVGID_46_">
							<use xlink:href="#SVGID_44_"  style="overflow:visible;"/>
						</clipPath>
						<clipPath id="SVGID_47_" class="st82">
							<use xlink:href="#SVGID_45_"  style="overflow:visible;"/>
						</clipPath>
						
							<linearGradient id="SVGID_48_" gradientUnits="userSpaceOnUse" x1="-341.9018" y1="1449.1613" x2="-341.9018" y2="1062.8571" gradientTransform="matrix(-1 0 0 -1 451.9482 1600)">
							<stop  offset="0" style="stop-color:#000000"/>
							<stop  offset="0.2296" style="stop-color:#353535"/>
							<stop  offset="0.6012" style="stop-color:#868686"/>
							<stop  offset="0.8652" style="stop-color:#B8B8B8"/>
							<stop  offset="0.9946" style="stop-color:#CCCCCC"/>
						</linearGradient>
						<polygon class="st83" points="676.5,470.7 792.8,536.9 911.2,469.5 911.2,150 676.5,150 						"/>
					</g>
				</g>
				
					<linearGradient id="SVGID_49_" gradientUnits="userSpaceOnUse" x1="796.4009" y1="1120.1586" x2="792.952" y2="1402.4456" gradientTransform="matrix(1 0 0 -1 0 1600)">
					<stop  offset="0" style="stop-color:#011B65"/>
					<stop  offset="0.1628" style="stop-color:#253B7B;stop-opacity:0.8535"/>
					<stop  offset="0.5258" style="stop-color:#808DB2;stop-opacity:0.5268"/>
					<stop  offset="1" style="stop-color:#FFFFFF;stop-opacity:0.1"/>
				</linearGradient>
				<polygon class="st84" points="676.5,470.7 792.8,536.9 911.2,469.5 911.2,71.4 676.5,71.4 				"/>
			</g>
		</g>
	</g>
	<g class="st8">
		<path class="st85" d="M696.1,719.9c33.9,6.5,70.1,10.2,107.6,10.4v72.2c-37.5-0.2-73.7-3.8-107.6-10.3V719.9z"/>
	</g>
</g>
<path class="st55" d="M426.6,648.5c-13.3,105.5,9.3,189.3,119.6,250.3c32.3,17.9,68.6,32.1,107.2,42.9V818.3
	c-38.6-10.8-74.9-25-107.2-42.9C493.2,746.1,445.2,685.7,426.6,648.5z"/>
<path class="st55" d="M1095.4,649.2c-17.8,36.2-67.3,89.7-118,118.4c-23.8,13.5-50,25-77.8,34.5l1,121.3c27.7-9.5,53.9-21,77.8-34.5
	C1084.9,828.6,1103.6,741.7,1095.4,649.2z"/>
<path class="st56" d="M530.4,765.7c0,0,7.3,4.7,20.6,11.5c13.3,7,33,15.7,57.1,24.2c12.2,4.1,25.3,8.4,39.6,11.8
	c14.2,3.6,29.4,6.5,45.1,8.9c15.7,2.6,32.2,3.7,48.9,4.4c16.7,0.3,33.7,0,50.6-1.8l12.7-1.2l12.6-1.8c8.4-1,16.6-2.8,24.8-4.5
	c16.4-3.4,32.2-8,47.4-13c15.1-5.3,29.6-10.8,42.9-16.9c3.4-1.5,6.7-3,9.9-4.4c3.2-1.6,6.3-3.3,9.4-4.8c6.1-3.2,12.2-6,17.7-9.3
	c11-6.6,21.5-12.1,30.2-18.1c8.8-5.7,16.6-10.5,22.6-15.1c12.3-8.8,19.3-13.8,19.3-13.8s-6.7,5.5-18.4,15.1
	c-5.8,4.9-13.4,10-21.9,16.3c-8.4,6.4-18.6,12.5-29.6,19.5c-5.5,3.5-11.5,6.5-17.6,10c-3.1,1.7-6.2,3.4-9.3,5.1
	c-3.3,1.5-6.6,3.2-9.9,4.8c-13.3,6.6-27.8,12.7-43.1,18.1c-15.3,5.3-31.4,10.1-48,13.8c-8.3,1.7-16.7,3.7-25.2,4.8l-12.8,2
	l-12.9,1.3c-17.2,1.7-34.5,1.8-51.5,1.3c-17-0.9-33.7-2.2-49.6-5c-16-2.4-31.3-6-45.5-10c-14.3-3.9-27.5-8.6-39.7-13.1
	c-24.2-9.3-43.3-19.5-56.4-27C537.3,770.9,530.4,765.7,530.4,765.7z"/>
<path class="st56" d="M1080.5,783.3c0,0-1.8,6-6.9,15.8c-2.6,4.8-5.9,10.7-10.2,16.9c-2.1,3.3-4.5,6.5-7.1,9.9
	c-2.7,3.4-5.3,7.1-8.6,10.5c-3.2,3.5-6.6,7.1-10,10.8c-3.5,3.7-7.6,7.1-11.5,10.8c-7.7,7.6-17.3,14-26.7,21.3
	c-5,3.1-10.1,6.3-15.3,9.5c-5.2,3.3-10.4,6.5-16,9.2c-11.1,5.6-22.2,11.7-34,16c-5.8,2.3-11.7,4.6-17.6,6.9
	c-5.9,2.2-12,3.7-17.9,5.5c-5.9,1.8-11.8,3.5-17.6,5.2c-5.8,1.8-11.7,2.7-17.5,4c-11.5,2.3-22.6,5.1-33.3,6.4
	c-10.7,1.3-20.8,2.5-30.1,3.7c-9.3,1.4-17.9,1.6-25.5,1.9c-7.6,0.3-14.3,0.5-19.7,0.7c-10.9,0.3-17.2,0.5-17.2,0.5s6.2-0.7,17.1-2
	c5.4-0.6,12-1.3,19.6-2.1c7.5-0.8,16.1-1.6,25.3-3.3c9.2-1.5,19.2-3.2,29.7-4.9c5.3-0.7,10.6-2.2,16-3.5c5.5-1.3,11-2.6,16.7-3.9
	c5.6-1.4,11.5-2.3,17.2-4.2c5.7-1.8,11.5-3.6,17.3-5.4c5.8-1.9,11.7-3.5,17.5-5.7c5.7-2.3,11.4-4.6,17.2-7
	c11.7-4.1,22.6-9.9,33.6-15.2c5.6-2.5,10.7-5.7,15.8-8.8c5.1-3.1,10.1-6.1,15.1-9.1c4.7-3.4,9.3-6.7,13.8-9.9
	c2.3-1.6,4.6-3.2,6.7-4.8c2.1-1.8,4.1-3.5,6.2-5.2c4-3.5,8.1-6.6,11.7-10.1c3.6-3.5,7-6.9,10.3-10.2c3.4-3.2,6-6.8,8.9-9.9
	c2.8-3.1,5.5-6.2,7.7-9.2c4.7-5.9,8.3-11.4,11.3-16c2.8-4.7,5-8.3,6.2-11C1079.9,784.8,1080.5,783.3,1080.5,783.3z"/>
<path class="st86" d="M870,934.4V812.9c-65,13.9-135,18.3-203,13.1v121.2C735,952.4,805,948.2,870,934.4z"/>
<g>
	<polygon class="st87" points="1272.9,1209.8 1274.1,1193.9 1256.5,1199.5 1255.5,1216.4 	"/>
	<polygon class="st88" points="1274.9,1209.3 1291.2,1202.2 1293.3,1186.9 1276.1,1193.3 	"/>
	<polygon class="st89" points="1272.8,1211.6 1255.3,1218.3 1254.3,1233.9 1271.6,1226.2 	"/>
	<polygon class="st90" points="1274.8,1211.1 1273.6,1225 1289.8,1217.8 1291.8,1203.3 	"/>
</g>
<g>
	<g>
		<path class="st91" d="M324.5,1130.5c0-0.1,0-0.1,0-0.2c0.3-0.9,1.1-1.5,1.9-1.3c0.8,0.2,1.2,1.2,0.9,2.1c-0.1,0.2-0.2,0.4-0.3,0.6
			c0.3-0.3,0.6-0.7,0.7-1.2c0.3-1.1-0.1-2.3-1-2.6c-0.9-0.3-1.9,0.5-2.2,1.6c-0.1,0.3-0.1,0.6-0.1,0.9
			C324.4,1130.4,324.4,1130.4,324.5,1130.5z"/>
		<path class="st91" d="M320.9,1127.4c0.1,0,0.1,0,0.1,0c0.6,0.2,1,0.9,0.9,1.8c0,0.1,0,0.2-0.1,0.3c0,0,0.1,0,0.1,0
			c0.1-0.1,0.1-0.3,0.1-0.4c0.3-1.1,0-2.1-0.7-2.3c-0.6-0.2-1.2,0.3-1.6,1.1C320.2,1127.6,320.5,1127.4,320.9,1127.4z"/>
		<path class="st91" d="M326,1152.2c0.3-0.6,1.1-2.2,1.4-4.2c0.4-2.6-0.9-11.5-1.2-12.6c-0.4-0.1-1.5,0.2-2.4,0.4
			c-1,0.3-2.1,0.5-2.8,0.5c-0.1,0-0.3,0-0.4-0.1c-0.9-0.3-1.7-1.3-2.1-2.1c-0.5,1.1-1.5,2.5-2.4,3c-0.6,0.4-1.3,1.4-2,2.4
			c-0.6,0.9-1.3,1.8-1.9,2.4c-1.3,1.1-2.6,3.6-2.4,5.3c0.1,0.8,1,2,1.7,3.1c0.9,1.3,1.8,2.4,1.6,3.3c-0.1,1-0.8,1.4-1.4,1.5l0.9,1.9
			c0.2,0.1,0.7,0.3,1.4,0.5c0.9,0.3,1.9,0.5,3,0.6c2.7,0.4,5.1-1.2,5.6-1.6c0.2-0.6,1-3.3,1.4-4.1c0.2-0.3,0.6-0.8,1.6-0.5
			C325.8,1152,325.9,1152.1,326,1152.2z"/>
	</g>
	<g>
		<path class="st92" d="M319.6,1132.3c0,0.2,0.3,0.8,0.9,1.5c0.1,0.1,0.2,0.2,0.2,0.3c0.3,0.4,0.5,0.5,0.7,0.6
			c0.4,0.1,2.2-0.4,3-0.6l0.2-0.1c0.3-0.1,0.5-0.1,0.7-0.2c0.4-0.1,0.4-0.1,0.4-0.1c0-0.1-0.2-0.4-0.7-0.8c-0.2-0.1-0.4-0.3-0.6-0.5
			c-0.5-0.4-1.3-1-1.6-1.2c0,0,0,0,0,0c-0.3-0.1-1,0.1-1.7,0.5C320.6,1131.9,319.9,1132.2,319.6,1132.3z"/>
		<path class="st92" d="M308.5,1151c-0.1-0.5-0.2-0.9-0.3-1.2c-0.3-0.9-0.8-1.9-1.2-2c0,0-0.1,0-0.1,0c-0.2,0.1-0.5,0.4-0.8,0.7
			c-0.4,0.4-0.8,0.9-1.4,1c-0.4,0.1-1,0.1-1.6,0c-0.4,0-1.3-0.1-1.4,0.1c-0.1,0.2-0.1,0.5-0.2,0.8c0,0.4-0.1,0.9-0.3,1.4
			c-0.2,0.3-0.4,0.6-0.6,0.9c-0.3,0.4-0.6,0.9-0.5,1.1c0.1,0.2,1.1,0.7,1.9,1c0.9,0.4,1.9,0.9,2.4,1.3l0.1,0.1
			c1,0.8,2.8,2.3,3.8,2.6c0.1,0,0.2,0,0.2,0c0.2-0.1,1.1-0.4,1.5-1c0.4-0.8,0-2.1-0.4-2.7C309.4,1154.6,308.8,1152.5,308.5,1151z"/>
		<path class="st92" d="M331.4,1160l-0.1-0.1c-0.7-0.7-0.8-2.1-0.5-3c0.1-0.2,0.1-0.3,0.1-0.4c-0.2,0.2-0.6,0.5-0.9,0.7
			c-0.6,0.3-1.9,0.5-2.9,0.2c-0.4-0.1-0.7-0.3-1-0.5c-0.9-0.7-0.7-2.1-0.5-2.7c0,0,0,0,0,0c-0.1,0.2-0.3,1-0.4,1.5
			c-0.1,0.3-0.1,0.6-0.2,0.8c-0.3,1.1-1.2,2.9-1.9,4.2c-0.7,1.3-0.4,2.4,0.2,2.8c0.1,0,0.1,0.1,0.2,0.1c0.6,0.2,1.8-0.2,3-0.8
			c0.8-0.5,2.5-0.8,3.9-1.1c0.8-0.2,1.6-0.3,1.9-0.4c0.1,0,0.1-0.1,0.1-0.1C332.4,1161,331.7,1160.3,331.4,1160z"/>
	</g>
	<path d="M333.7,1160c-1.1-0.9-1.4-1.7-1.1-2.7c0.4-1.1,0-2.2-0.2-2.6c0.4-0.7,1.7-3,1.6-5.4c-0.1-2.6-1.5-6.8-3-11
		c-0.6-1.7-0.2-3.3,0.3-5.1c0.5-1.7,1-3.7,0.6-6.1c-0.3-2.7-2-4.6-4.6-5.4c-1.5-0.5-3.3-0.4-4.7,0c-3,1-3.8,4.9-4.3,7.4
		c-0.1,0.3-0.1,0.7-0.2,1c-0.6,2.5-1.1,3.7-1.4,4.1c-0.2,0.2-1,0.8-1.8,1.4c-0.8,0.6-1.8,1.3-2.6,2c-1,0.8-2,2.2-2.9,3.5
		c-0.7,1-1.4,1.9-1.9,2.4c-1,1-1.2,2.1-1.2,2.7c-0.3,0.1-0.8,0.3-1.3,0.9c-0.6,0.7-1.5,0.9-3.1,0.7c-0.8-0.1-1.4,0.1-1.7,0.5
		c-0.6,0.5-0.6,1.4-0.6,2c0,0.9-0.3,1.4-0.9,2.2c-0.1,0.2-0.3,0.4-0.5,0.7c-0.3,0.4-0.3,0.8-0.2,1.2c0.3,1.1,2,1.9,3.7,2.6
		c1,0.4,2.1,1.2,3.1,1.9c1,0.7,2,1.5,3,1.9c0.2,0.1,0.3,0.1,0.5,0.2c1.6,0.5,2.6-0.4,2.9-0.7c0.6,0.1,2.6,0.3,4.7,0.8
		c2,0.5,3.8,1.5,4.3,1.8c0.1,0.4,0.3,1.3,0.9,1.9c0.3,0.3,0.8,0.6,1.4,0.8c0,0,0,0,0,0c0.6,0.2,1.8,0.4,3-0.3
		c1.2-0.7,3.8-1.3,5.7-1.7c0.4-0.1,0.8-0.2,1.2-0.3c1.1-0.2,1.8-0.8,2-1.6C334.5,1161.1,334.2,1160.5,333.7,1160z M326.7,1128.1
		c0.9,0.3,1.4,1.4,1,2.6c-0.1,0.5-0.4,0.9-0.7,1.2c0.1-0.2,0.2-0.4,0.3-0.6c0.3-1-0.1-1.9-0.9-2.1c-0.8-0.2-1.6,0.4-1.9,1.3
		c0,0.1,0,0.1,0,0.2c0,0-0.1-0.1-0.1-0.1c0-0.3,0-0.6,0.1-0.9C324.8,1128.5,325.8,1127.8,326.7,1128.1z M322.7,1131.4
		c0.3,0.2,1.1,0.7,1.6,1.2c0.3,0.2,0.5,0.4,0.6,0.5c0.5,0.3,0.7,0.7,0.7,0.8c0,0.1-0.1,0.1-0.4,0.1c-0.2,0-0.4,0.1-0.7,0.2l-0.2,0.1
		c-0.8,0.2-2.5,0.7-3,0.6c-0.3,0-0.4-0.2-0.7-0.6c-0.1-0.1-0.1-0.2-0.2-0.3c-0.6-0.7-0.9-1.3-0.9-1.5c0.3-0.1,1-0.4,1.3-0.6
		C321.6,1131.5,322.3,1131.3,322.7,1131.4C322.7,1131.4,322.7,1131.4,322.7,1131.4z M321.5,1127c0.7,0.2,1,1.3,0.7,2.3
		c0,0.1-0.1,0.3-0.1,0.4c0,0-0.1,0-0.1,0c0-0.1,0-0.2,0.1-0.3c0.1-0.9-0.3-1.6-0.9-1.8c0,0-0.1,0-0.1,0c-0.4,0-0.7,0.1-1,0.5
		C320.3,1127.3,320.9,1126.8,321.5,1127z M310.1,1158.2c-0.3,0.6-1.3,1-1.5,1c-0.1,0-0.2,0-0.2,0c-1-0.3-2.8-1.8-3.8-2.6l-0.1-0.1
		c-0.5-0.4-1.5-0.9-2.4-1.3c-0.7-0.4-1.8-0.8-1.9-1c-0.1-0.2,0.2-0.7,0.5-1.1c0.2-0.3,0.4-0.6,0.6-0.9c0.3-0.5,0.3-1,0.3-1.4
		c0-0.3,0-0.6,0.2-0.8c0.1-0.2,1-0.1,1.4-0.1c0.6,0,1.2,0.1,1.6,0c0.6-0.2,1-0.6,1.4-1c0.3-0.3,0.5-0.6,0.8-0.7c0,0,0,0,0.1,0
		c0.4,0.1,1,1.2,1.2,2c0.1,0.2,0.2,0.7,0.3,1.2c0.4,1.5,0.9,3.5,1.3,4.3C310.1,1156.2,310.6,1157.4,310.1,1158.2z M324,1152.6
		c-0.4,0.8-1.2,3.5-1.4,4.1c-0.5,0.3-2.9,2-5.6,1.6c-1.1-0.2-2.1-0.4-3-0.6c-0.8-0.2-1.2-0.4-1.4-0.5l-0.9-1.9
		c0.6-0.1,1.3-0.5,1.4-1.5c0.1-0.9-0.7-2-1.6-3.3c-0.8-1.1-1.6-2.3-1.7-3.1c-0.2-1.7,1.1-4.2,2.4-5.3c0.6-0.6,1.3-1.5,1.9-2.4
		c0.7-1,1.4-2,2-2.4c0.9-0.6,2-1.9,2.4-3c0.5,0.8,1.2,1.9,2.1,2.1c0.1,0,0.3,0.1,0.4,0.1c0.7,0,1.8-0.3,2.8-0.5
		c0.9-0.2,2-0.5,2.4-0.4c0.4,1.1,1.6,9.9,1.2,12.6c-0.3,2.1-1.1,3.6-1.4,4.2c-0.1-0.1-0.3-0.1-0.4-0.2
		C324.6,1151.9,324.2,1152.3,324,1152.6z M332.2,1161.4c-0.3,0.1-1.1,0.3-1.9,0.4c-1.4,0.3-3.1,0.6-3.9,1.1c-1.2,0.7-2.4,1-3,0.8
		c-0.1,0-0.1-0.1-0.2-0.1c-0.6-0.4-0.9-1.5-0.2-2.8c0.7-1.3,1.6-3.1,1.9-4.2c0.1-0.3,0.1-0.5,0.2-0.8c0.1-0.5,0.3-1.3,0.4-1.5
		c0,0,0,0,0,0c-0.2,0.6-0.4,2,0.5,2.7c0.3,0.2,0.6,0.4,1,0.5c1,0.3,2.3,0.1,2.9-0.2c0.4-0.2,0.7-0.5,0.9-0.7c0,0.1,0,0.3-0.1,0.4
		c-0.3,0.9-0.2,2.3,0.5,3l0.1,0.1C331.6,1160.5,332.3,1161.1,332.2,1161.4C332.3,1161.3,332.3,1161.4,332.2,1161.4z"/>
</g>
</svg>
